<svg xmlns="http://www.w3.org/2000/svg" width="60" height="60" viewBox="0 0 60 60">
  <defs>
    <style>
      .cls-1 {
        fill: #ff9579;
      }

      .cls-2 {
        fill: #fff;
      }
    </style>
  </defs>
  <g id="组_1711" data-name="组 1711" transform="translate(-1412.158 -441.401)">
    <circle id="椭圆_182" data-name="椭圆 182" class="cls-1" cx="30" cy="30" r="30" transform="translate(1412.158 441.401)"/>
    <g id="组_1680" data-name="组 1680">
      <path id="路径_2090" data-name="路径 2090" class="cls-2" d="M1450.307,481.158l-.041,0c-.113-.011-.948-.019-2.18-.023v-1.855c0-1.133-.316-1.513-1.484-1.607l-.04,0c-.066-.006-.25-.011-.521-.016a10.979,10.979,0,1,0-7.722.018c-.138,0-.233.006-.273.01a1.416,1.416,0,0,0-1.419,1.618v1.785c0,.021,0,.04,0,.061-1.3.006-2.181.014-2.287.023a1.417,1.417,0,0,0-1.419,1.619v1.785c0,1.073.433,1.773,1.559,1.823,1.118,0,14.75.005,15.789,0a1.481,1.481,0,0,0,1.52-1.511v-2.116C1451.791,481.632,1451.475,481.252,1450.307,481.158Zm-16.913-13.776a8.764,8.764,0,1,1,8.764,8.764A8.774,8.774,0,0,1,1433.394,467.382Z"/>
      <path id="路径_2091" data-name="路径 2091" class="cls-2" d="M1442.752,471.864l2.391,1.437a1.236,1.236,0,0,0,1.841-1.338l-.628-2.718a.977.977,0,0,1,.311-.957l2.106-1.829a1.237,1.237,0,0,0-.7-2.165l-2.779-.242a.978.978,0,0,1-.814-.592l-1.089-2.568a1.236,1.236,0,0,0-2.276,0l-1.089,2.568a.977.977,0,0,1-.814.592l-2.779.242a1.236,1.236,0,0,0-.7,2.165l2.105,1.829a.974.974,0,0,1,.311.957l-.628,2.718a1.236,1.236,0,0,0,1.841,1.338l2.391-1.437A.972.972,0,0,1,1442.752,471.864Z"/>
    </g>
  </g>
</svg>
