<svg xmlns="http://www.w3.org/2000/svg" width="50.75" height="50.75" viewBox="0 0 50.75 50.75">
  <defs>
    <style>
      .cls-1, .cls-3 {
        fill: none;
        stroke-miterlimit: 10;
      }

      .cls-1 {
        stroke: #f1f1f1;
        stroke-width: 0.75px;
      }

      .cls-2 {
        fill: #ffff05;
      }

      .cls-3 {
        opacity: 0.142;
      }

      .cls-4, .cls-5 {
        stroke: none;
      }

      .cls-5 {
        fill: #000;
      }
    </style>
  </defs>
  <g id="组_1914" data-name="组 1914" transform="translate(-54.578 -394.538)">
    <rect id="矩形_3285" data-name="矩形 3285" class="cls-1" width="50" height="50" rx="16.667" transform="translate(54.953 444.913) rotate(-90)"/>
    <g id="组_1756" data-name="组 1756" transform="translate(-4239.359)">
      <path id="路径_2274" data-name="路径 2274" class="cls-2" d="M4304.013,418.163v4.464a8.849,8.849,0,0,0,8.824,8.823h12.952a8.849,8.849,0,0,0,8.824-8.823v-4.464a8.85,8.85,0,0,0-8.824-8.824h-12.952A8.85,8.85,0,0,0,4304.013,418.163Zm17.389.2a2.247,2.247,0,1,1,4.494,0v3.911a2.247,2.247,0,1,1-4.494,0Zm-8.776,0a2.254,2.254,0,0,1,2.247-2.248h0a2.254,2.254,0,0,1,2.247,2.248v3.911a2.254,2.254,0,0,1-2.247,2.248h0a2.254,2.254,0,0,1-2.247-2.248Z"/>
    </g>
    <g id="路径_2287" data-name="路径 2287" class="cls-3" transform="translate(-4239.359)">
      <path class="cls-4" d="M4304.013,418.163v4.464a8.849,8.849,0,0,0,8.824,8.823h12.952a8.849,8.849,0,0,0,8.824-8.823v-4.464a8.85,8.85,0,0,0-8.824-8.824h-12.952A8.85,8.85,0,0,0,4304.013,418.163Zm17.389.2a2.247,2.247,0,1,1,4.494,0v3.911a2.247,2.247,0,1,1-4.494,0Zm-8.776,0a2.254,2.254,0,0,1,2.247-2.248h0a2.254,2.254,0,0,1,2.247,2.248v3.911a2.254,2.254,0,0,1-2.247,2.248h0a2.254,2.254,0,0,1-2.247-2.248Z"/>
      <path class="cls-5" d="M 4312.8369140625 410.8389892578125 C 4310.890625 410.8389892578125 4309.05419921875 411.603515625 4307.666015625 412.9917602539062 C 4306.27783203125 414.3799743652344 4305.51318359375 416.2164916992188 4305.51318359375 418.1629943847656 L 4305.51318359375 422.6270141601562 C 4305.51318359375 424.5733947753906 4306.27783203125 426.4096984863281 4307.66552734375 427.7976684570312 C 4309.0537109375 429.1856384277344 4310.89013671875 429.9500122070312 4312.8369140625 429.9500122070312 L 4325.7890625 429.9500122070312 C 4327.73583984375 429.9500122070312 4329.572265625 429.1856384277344 4330.96044921875 427.7976684570312 C 4332.34814453125 426.4096984863281 4333.11279296875 424.5733947753906 4333.11279296875 422.6270141601562 L 4333.11279296875 418.1629943847656 C 4333.11279296875 416.2164916992188 4332.34814453125 414.3799743652344 4330.9599609375 412.9917602539062 C 4329.57177734375 411.603515625 4327.7353515625 410.8389892578125 4325.7890625 410.8389892578125 L 4312.8369140625 410.8389892578125 M 4314.873046875 426.0260009765625 C 4312.80712890625 426.0260009765625 4311.1259765625 424.3446655273438 4311.1259765625 422.2780151367188 L 4311.1259765625 418.3670043945312 C 4311.1259765625 416.3003540039062 4312.80712890625 414.6189880371094 4314.873046875 414.6189880371094 C 4316.93896484375 414.6189880371094 4318.6201171875 416.3003540039062 4318.6201171875 418.3670043945312 L 4318.6201171875 422.2780151367188 C 4318.6201171875 424.3446655273438 4316.93896484375 426.0260009765625 4314.873046875 426.0260009765625 M 4323.64892578125 426.0260009765625 C 4321.5830078125 426.0260009765625 4319.90185546875 424.3446655273438 4319.90185546875 422.2780151367188 L 4319.90185546875 418.3670043945312 C 4319.90185546875 416.3003540039062 4321.5830078125 414.6189880371094 4323.64892578125 414.6189880371094 C 4325.71484375 414.6189880371094 4327.39599609375 416.3003540039062 4327.39599609375 418.3670043945312 L 4327.39599609375 422.2780151367188 C 4327.39599609375 424.3446655273438 4325.71484375 426.0260009765625 4323.64892578125 426.0260009765625 M 4312.8369140625 409.3389892578125 L 4325.7890625 409.3389892578125 C 4330.64208984375 409.3389892578125 4334.61279296875 413.3099975585938 4334.61279296875 418.1629943847656 L 4334.61279296875 422.6270141601562 C 4334.61279296875 427.4800109863281 4330.64208984375 431.4500122070312 4325.7890625 431.4500122070312 L 4312.8369140625 431.4500122070312 C 4307.98388671875 431.4500122070312 4304.01318359375 427.4800109863281 4304.01318359375 422.6270141601562 L 4304.01318359375 418.1629943847656 C 4304.01318359375 413.3099975585938 4307.98388671875 409.3389892578125 4312.8369140625 409.3389892578125 Z M 4314.873046875 424.5260009765625 C 4316.10888671875 424.5260009765625 4317.1201171875 423.5140075683594 4317.1201171875 422.2780151367188 L 4317.1201171875 418.3670043945312 C 4317.1201171875 417.1310119628906 4316.10888671875 416.1189880371094 4314.873046875 416.1189880371094 C 4313.63720703125 416.1189880371094 4312.6259765625 417.1310119628906 4312.6259765625 418.3670043945312 L 4312.6259765625 422.2780151367188 C 4312.6259765625 423.5140075683594 4313.63720703125 424.5260009765625 4314.873046875 424.5260009765625 Z M 4323.64892578125 424.5260009765625 C 4324.884765625 424.5260009765625 4325.89599609375 423.5140075683594 4325.89599609375 422.2780151367188 L 4325.89599609375 418.3670043945312 C 4325.89599609375 417.1310119628906 4324.884765625 416.1189880371094 4323.64892578125 416.1189880371094 C 4322.4130859375 416.1189880371094 4321.40185546875 417.1310119628906 4321.40185546875 418.3670043945312 L 4321.40185546875 422.2780151367188 C 4321.40185546875 423.5140075683594 4322.4130859375 424.5260009765625 4323.64892578125 424.5260009765625 Z"/>
    </g>
  </g>
</svg>
