<svg xmlns="http://www.w3.org/2000/svg" xmlns:xlink="http://www.w3.org/1999/xlink" width="916" height="488" viewBox="0 0 916 488">
  <defs>
    <style>
      .cls-1 {
        fill: none;
      }

      .cls-2 {
        fill: url(#radial-gradient);
      }

      .cls-3 {
        clip-path: url(#clip-path);
      }

      .cls-4 {
        fill: #ff0;
      }

      .cls-5 {
        fill: #71ffc7;
      }

      .cls-6 {
        fill: #ffc890;
      }

      .cls-7 {
        fill: #333;
      }

      .cls-8 {
        fill: #404040;
      }

      .cls-9 {
        fill: #00fdfd;
      }

      .cls-10 {
        fill: #ff9800;
      }

      .cls-11 {
        fill: #3f3a39;
      }

      .cls-12 {
        fill: #e1e1e1;
      }

      .cls-13 {
        fill: #fff;
      }

      .cls-14 {
        fill: #ffa032;
      }
    </style>
    <radialGradient id="radial-gradient" cx="-0.097" cy="1.128" r="2.529" gradientTransform="translate(0.273) scale(0.455 1)" gradientUnits="objectBoundingBox">
      <stop offset="0.076" stop-color="#976eff"/>
      <stop offset="0.253" stop-color="#9870ff"/>
      <stop offset="0.354" stop-color="#9e78ff"/>
      <stop offset="0.436" stop-color="#a986ff"/>
      <stop offset="0.507" stop-color="#b89aff"/>
      <stop offset="0.518" stop-color="#bb9eff"/>
    </radialGradient>
    <clipPath id="clip-path">
      <rect id="矩形_3142" data-name="矩形 3142" class="cls-1" width="579" height="488" rx="35" transform="translate(579 488) rotate(-180)"/>
    </clipPath>
  </defs>
  <g id="组_1708" data-name="组 1708" transform="translate(-416 -125)">
    <rect id="矩形_3139" data-name="矩形 3139" class="cls-2" width="916" height="416" rx="35" transform="translate(416 197)"/>
    <g id="组_1678" data-name="组 1678" transform="translate(-0.133 -0.927)">
      <g id="组_1677" data-name="组 1677" class="cls-3" transform="translate(416.133 125.927)">
        <path id="路径_2082" data-name="路径 2082" class="cls-4" d="M672.129,396.162c-1.513-5.712-1.673-11.819-2.37-17.71-.791-9.273-2.685-18.722,4.766-24.847,3.642-3,7.778-4.052,12.23-4.466,4.369-.434,10.51-.961,16.082-1.466,23.106-2.038,56.567-5.309,70.116-6.346a11.266,11.266,0,0,1,5.816.869c10.145,5.419,10.641,4.676,20.023-1.56,7.115-3.513,18.394-3.922,24.786,1.139,5.372,4.4,6.256,11.707,6.965,18.255,1.527,18.007,6.556,35.229-17.539,37.52-3.408.5-6.543,1.252-9.31,3.176-2.953,1.983-5.581,5.154-8.742,5.707-5.434,1.052-9.7-5.192-14.8-5.606-15.03.476-48.309,4.354-73.189,6.351-13.13.9-29.658,5.633-34.776-10.8Z" transform="translate(-416.556 -126.333)"/>
        <path id="路径_2083" data-name="路径 2083" class="cls-5" d="M636.462,206.694c-1.474-5.566-1.63-11.517-2.309-17.256-.771-9.037-2.616-18.243,4.643-24.211,3.549-2.924,7.579-3.949,11.918-4.353,4.256-.423,10.241-.936,15.67-1.428,22.513-1.986,70.255-4.675,83.456-5.685a10.98,10.98,0,0,1,5.667.847c9.885,5.279,10.369,4.556,19.51-1.52,6.932-3.423,17.923-3.823,24.151,1.109,5.234,4.284,6.1,11.407,6.787,17.789,1.489,17.544,6.388,34.325-17.088,36.558a20.49,20.49,0,0,0-9.073,3.094c-2.877,1.932-5.438,5.022-8.519,5.561-5.294,1.025-9.451-5.058-14.416-5.463-14.645.464-62.209,3.743-86.451,5.689-12.794.878-28.9,5.489-33.885-10.523Z" transform="translate(-416.496 -125.974)"/>
        <path id="路径_2084" data-name="路径 2084" class="cls-6" d="M698.731,299.2c-1.665-6.66-1.932-15.047-2.752-22.186-1.575-11.764,1.629-20.863,14.206-22.935,15.829-1.9,39.841-3.672,52.647-4.964a15.2,15.2,0,0,1,6.806.583c3.082,1.01,6.752,3.751,10.006,3.783,4.322.05,7.493-4.418,11.816-5.986,13.967-4.437,26.63-1.03,28.368,15.2.457,3.288.711,6.63,1.057,9.948,1.508,12.468,3.327,26.433-12.109,29.672-4.733,1.093-10.046.99-14.1,3.791-2.89,1.874-5.381,5-8.443,5.673-4.413,1.076-8.343-3.235-12.169-4.509-2.966-1.192-6.042-.884-9.112-.57-10.169.925-27.171,2.477-39.52,3.6-11.286,1.379-22.356,1.968-26.637-10.9Z" transform="translate(-416.6 -126.156)"/>
        <g id="组_1674" data-name="组 1674" transform="translate(-17.185 88.806)">
          <path id="路径_680" data-name="路径 680" class="cls-7" d="M587.138,446.168,414.32,401.6a20.593,20.593,0,0,1-14.758-25.011l26.253-101.753a20.6,20.6,0,0,1,25.017-14.755L623.65,304.646a20.594,20.594,0,0,1,14.757,25.012L612.155,431.413a20.6,20.6,0,0,1-25.018,14.754" transform="translate(-398.919 -214.989)"/>
          <path id="路径_681" data-name="路径 681" class="cls-7" d="M591.314,291.82,485.527,264.539a19.46,19.46,0,0,1-13.945-23.634l2.955-11.453a19.464,19.464,0,0,1,23.639-13.941l105.788,27.281a19.459,19.459,0,0,1,13.945,23.633l-2.955,11.454a19.464,19.464,0,0,1-23.639,13.941" transform="translate(-399.04 -214.904)"/>
          <path id="路径_682" data-name="路径 682" class="cls-8" d="M560.422,427.241,446.991,397.989a15.5,15.5,0,0,1-11.107-18.828l22.955-88.974a15.506,15.506,0,0,1,18.832-11.106L591.1,308.334a15.5,15.5,0,0,1,11.108,18.827l-22.956,88.974a15.506,15.506,0,0,1-18.832,11.107" transform="translate(-398.98 -215.025)"/>
          <path id="路径_683" data-name="路径 683" class="cls-9" d="M477.751,381.108a18.848,18.848,0,0,1-10.424-21.829l9.391-36.4a18.824,18.824,0,0,1,36.456,9.4l-9.391,36.4a18.834,18.834,0,0,1-26.032,12.428M499.488,317.6a10.974,10.974,0,0,0-15.162,7.243l-9.391,36.4a10.98,10.98,0,0,0,7.88,13.355h0a10.979,10.979,0,0,0,13.36-7.879l9.391-36.4a11.026,11.026,0,0,0-6.078-12.721" transform="translate(-399.033 -215.083)"/>
          <path id="路径_684" data-name="路径 684" class="cls-9" d="M535.542,396.014a18.851,18.851,0,0,1-10.424-21.829l9.391-36.4a18.825,18.825,0,0,1,36.457,9.4l-9.392,36.4a18.84,18.84,0,0,1-26.032,12.427m21.744-63.506a10.978,10.978,0,0,0-15.167,7.24l-9.391,36.4a10.967,10.967,0,0,0,21.239,5.478l9.392-36.4a10.984,10.984,0,0,0-6.073-12.718" transform="translate(-399.129 -215.111)"/>
          <path id="路径_685" data-name="路径 685" class="cls-10" d="M567.39,259.512a23.3,23.3,0,1,1-16.742-28.373h0a23.292,23.292,0,0,1,16.741,28.373h0" transform="translate(-399.124 -214.933)"/>
          <path id="路径_686" data-name="路径 686" class="cls-11" d="M553.3,255.9a8.717,8.717,0,1,1-6.264-10.616A8.718,8.718,0,0,1,553.3,255.9h0" transform="translate(-399.149 -214.961)"/>
        </g>
        <g id="组_1675" data-name="组 1675" transform="translate(-72.319 268.766)">
          <path id="路径_35633" data-name="路径 35633" class="cls-12" d="M727.759,451.229c15.745,14.514,19.047,42.665,16.181,65.732L728.823,651.907a71.882,71.882,0,0,1-80.255,62.885L422.466,686.7a86.874,86.874,0,0,1-70.98-56.639l-7.454-20.6" transform="translate(-343.693 -395.315)"/>
          <path id="路径_35634" data-name="路径 35634" class="cls-12" d="M727.688,657.466l-12.309,18.121a86.881,86.881,0,0,1-82.77,37.364L406.565,684.363a71.868,71.868,0,0,1-62.24-80.745L363,469.118c2.918-23.061,13.072-49.526,31.912-59.7L405.08,404l15.685,26.452" transform="translate(-343.693 -395.225)"/>
          <path id="路径_35635" data-name="路径 35635" class="cls-12" d="M461.491,766.656a32.436,32.436,0,0,0,38.585-24.788l33.708-154.874a32.431,32.431,0,0,0-63.379-13.788L444.079,694.167l-1.8-.521a32.426,32.426,0,1,0-18.059,62.287l35.138,10.182c.706.2,1.421.384,2.133.54" transform="translate(-343.788 -395.5)"/>
          <path id="路径_35636" data-name="路径 35636" class="cls-12" d="M539.426,783.6c.713.155,1.438.287,2.164.4l36.193,5.336a32.425,32.425,0,0,0,9.459-64.156l-1.853-.273,26.327-120.964a32.431,32.431,0,0,0-63.379-13.788L514.631,745.025A32.427,32.427,0,0,0,539.424,783.6" transform="translate(-343.977 -395.532)"/>
          <rect id="矩形_3141" data-name="矩形 3141" class="cls-13" width="353.491" height="247.035" rx="39.44" transform="translate(364.459 287.685) rotate(-173.105)"/>
          <path id="路径_35638" data-name="路径 35638" class="cls-13" d="M667.59,628.493a36.6,36.6,0,0,0,18.812-.865c90.678-28.513,129.46-95.974,131.07-98.833a36.755,36.755,0,0,0-63.945-36.258c-1.369,2.325-27.652,45.636-89.18,64.98a36.752,36.752,0,0,0,3.244,70.976" transform="translate(-344.186 -395.359)"/>
          <path id="路径_2085" data-name="路径 2085" class="cls-14" d="M426.036,399.942,698.8,432.918a39.209,39.209,0,0,1,15.2,5.141L693.322,610.918c-3.278,28-25.535,48.1-49.709,44.891L425.24,626.852c-24.148-3.2-41.067-28.469-37.795-56.433h0l22.069-168.926A39.19,39.19,0,0,1,426.036,399.942Z" transform="translate(-343.765 -395.217)"/>
          <path id="路径_35640" data-name="路径 35640" class="cls-7" d="M427.329,610.938,646.05,638.114a25.465,25.465,0,0,0,28.408-22.123L690.54,486.614a23.512,23.512,0,0,0-20.434-26.231h0L449.475,432.973a25.461,25.461,0,0,0-28.408,22.121L405.223,582.564a25.431,25.431,0,0,0,22.1,28.375h0" transform="translate(-343.795 -395.28)"/>
          <path id="路径_35641" data-name="路径 35641" class="cls-13" d="M519.348,532.188a26.176,26.176,0,1,1-22.846-29.12h0a26.171,26.171,0,0,1,22.846,29.12" transform="translate(-343.899 -395.414)"/>
          <path id="路径_35642" data-name="路径 35642" class="cls-13" d="M621.352,545.333a26.175,26.175,0,1,1-22.845-29.121h0a26.173,26.173,0,0,1,22.845,29.121" transform="translate(-344.07 -395.439)"/>
          <path id="路径_35643" data-name="路径 35643" class="cls-13" d="M539.547,578.507l1.689.2a17.03,17.03,0,0,0,18.95-14.859,1.507,1.507,0,0,0-1.314-1.677l-32.511-3.929a1.505,1.505,0,0,0-1.676,1.313h0a17.026,17.026,0,0,0,14.86,18.947h0" transform="translate(-343.995 -395.52)"/>
        </g>
        <g id="组_1676" data-name="组 1676" transform="translate(442.382 290.957)">
          <path id="路径_2086" data-name="路径 2086" class="cls-13" d="M887.446,417.442l3.261,13.85,14.121-1.774-8.8,11.185,10.192,9.931-14.232.1-1.412,14.159-8.949-11.064-11.953,7.724,3.073-13.893-13.493-4.527,12.781-6.261L867.164,423.5l12.865,6.086Z" transform="translate(-859.256 -417.442)"/>
        </g>
        <ellipse id="椭圆_180" data-name="椭圆 180" class="cls-13" cx="8.897" cy="8.895" rx="8.897" ry="8.895" transform="translate(463.787 166.371)"/>
      </g>
    </g>
  </g>
</svg>
