<svg xmlns="http://www.w3.org/2000/svg" width="50.75" height="50.75" viewBox="0 0 50.75 50.75">
  <defs>
    <style>
      .cls-1, .cls-4 {
        fill: none;
        stroke-miterlimit: 10;
      }

      .cls-1 {
        stroke: #f1f1f1;
        stroke-width: 0.75px;
      }

      .cls-2 {
        fill: #9e9eff;
      }

      .cls-3 {
        opacity: 0.142;
      }

      .cls-5, .cls-6 {
        stroke: none;
      }

      .cls-6 {
        fill: #000;
      }
    </style>
  </defs>
  <g id="组_1911" data-name="组 1911" transform="translate(-54.578 -204.625)">
    <rect id="矩形_3286" data-name="矩形 3286" class="cls-1" width="50" height="50" rx="16.667" transform="translate(104.953 205) rotate(90)"/>
    <g id="组_1757" data-name="组 1757" transform="translate(-4240)">
      <path id="路径_2275" data-name="路径 2275" class="cls-2" d="M4313.344,226.813a5.756,5.756,0,1,0-5.755-5.755A5.755,5.755,0,0,0,4313.344,226.813Z"/>
      <path id="路径_2276" data-name="路径 2276" class="cls-2" d="M4327.062,229.241a4.328,4.328,0,1,0-4.329-4.329A4.329,4.329,0,0,0,4327.062,229.241Z"/>
      <path id="路径_2277" data-name="路径 2277" class="cls-2" d="M4335.973,239.711a9.28,9.28,0,0,0-6.652-8.449,8.459,8.459,0,0,0-3.355-.3.746.746,0,0,0-.526,1.15,14.2,14.2,0,0,1,2.256,6.766c.023.34.034.68.033,1.016a7.885,7.885,0,0,1-.359,2.332.757.757,0,0,0,.711,1h4.695a3.2,3.2,0,0,0,3.2-3.184Q4335.979,239.878,4335.973,239.711Z"/>
      <path id="路径_2278" data-name="路径 2278" class="cls-2" d="M4314.143,228.834a10.7,10.7,0,0,0-11.5,10.669v.039a3.732,3.732,0,0,0,3.751,3.683h13.894a3.735,3.735,0,0,0,3.751-3.693c0-.252-.008-.506-.025-.763A10.723,10.723,0,0,0,4314.143,228.834Z"/>
    </g>
    <g id="组_1763" data-name="组 1763" class="cls-3" transform="translate(-4240)">
      <g id="路径_2288" data-name="路径 2288" class="cls-4">
        <path class="cls-5" d="M4313.344,226.813a5.756,5.756,0,1,0-5.755-5.755A5.755,5.755,0,0,0,4313.344,226.813Z"/>
        <path class="cls-6" d="M 4313.34423828125 225.3130035400391 C 4315.6904296875 225.3130035400391 4317.59912109375 223.4042205810547 4317.59912109375 221.0579986572266 C 4317.59912109375 218.7112426757812 4315.6904296875 216.802001953125 4313.34423828125 216.802001953125 C 4310.998046875 216.802001953125 4309.0888671875 218.7112426757812 4309.0888671875 221.0579986572266 C 4309.0888671875 223.4042205810547 4310.998046875 225.3130035400391 4313.34423828125 225.3130035400391 M 4313.34423828125 226.8130035400391 C 4310.1650390625 226.8130035400391 4307.5888671875 224.2359924316406 4307.5888671875 221.0579986572266 C 4307.5888671875 217.8789978027344 4310.1650390625 215.302001953125 4313.34423828125 215.302001953125 C 4316.52294921875 215.302001953125 4319.09912109375 217.8789978027344 4319.09912109375 221.0579986572266 C 4319.09912109375 224.2359924316406 4316.52294921875 226.8130035400391 4313.34423828125 226.8130035400391 Z"/>
      </g>
      <g id="路径_2289" data-name="路径 2289" class="cls-4">
        <path class="cls-5" d="M4327.062,229.241a4.328,4.328,0,1,0-4.329-4.329A4.329,4.329,0,0,0,4327.062,229.241Z"/>
        <path class="cls-6" d="M 4327.06201171875 227.7409973144531 C 4328.62158203125 227.7409973144531 4329.89013671875 226.4719085693359 4329.89013671875 224.9120025634766 C 4329.89013671875 223.3526306152344 4328.62158203125 222.0839996337891 4327.06201171875 222.0839996337891 C 4325.501953125 222.0839996337891 4324.23291015625 223.3526306152344 4324.23291015625 224.9120025634766 C 4324.23291015625 226.4719085693359 4325.501953125 227.7409973144531 4327.06201171875 227.7409973144531 M 4327.06201171875 229.2409973144531 C 4324.6708984375 229.2409973144531 4322.73291015625 227.3029937744141 4322.73291015625 224.9120025634766 C 4322.73291015625 222.52099609375 4324.6708984375 220.5839996337891 4327.06201171875 220.5839996337891 C 4329.4521484375 220.5839996337891 4331.39013671875 222.52099609375 4331.39013671875 224.9120025634766 C 4331.39013671875 227.3029937744141 4329.4521484375 229.2409973144531 4327.06201171875 229.2409973144531 Z"/>
      </g>
      <g id="路径_2290" data-name="路径 2290" class="cls-4">
        <path class="cls-5" d="M4335.973,239.711a9.28,9.28,0,0,0-6.652-8.449,8.459,8.459,0,0,0-3.355-.3.746.746,0,0,0-.526,1.15,14.2,14.2,0,0,1,2.256,6.766c.023.34.034.68.033,1.016a7.885,7.885,0,0,1-.359,2.332.757.757,0,0,0,.711,1h4.695a3.2,3.2,0,0,0,3.2-3.184Q4335.979,239.878,4335.973,239.711Z"/>
        <path class="cls-6" d="M 4332.77587890625 241.7250061035156 C 4333.23046875 241.7250061035156 4333.6591796875 241.5485992431641 4333.98193359375 241.2282562255859 C 4334.302734375 240.9102630615234 4334.4794921875 240.4889068603516 4334.47900390625 240.0410003662109 C 4334.47900390625 239.9499359130859 4334.4775390625 239.856689453125 4334.47412109375 239.7646789550781 C 4334.35888671875 236.5401458740234 4332.06494140625 233.6353454589844 4328.89599609375 232.7005462646484 C 4328.3916015625 232.5516662597656 4327.8779296875 232.4595947265625 4327.36328125 232.4256134033203 C 4328.41650390625 234.3955841064453 4329.04443359375 236.5674591064453 4329.1923828125 238.77587890625 C 4329.2177734375 239.1455688476562 4329.22998046875 239.5235748291016 4329.22900390625 239.8986053466797 C 4329.2275390625 240.5123138427734 4329.16552734375 241.1233978271484 4329.044921875 241.7250061035156 L 4332.77587890625 241.7250061035156 M 4332.77587890625 243.2250061035156 L 4328.0810546875 243.2250061035156 C 4327.56396484375 243.2250061035156 4327.2158203125 242.7209930419922 4327.3701171875 242.2270050048828 C 4327.60009765625 241.4889984130859 4327.72705078125 240.7070007324219 4327.72900390625 239.8950042724609 C 4327.72998046875 239.5590057373047 4327.71923828125 239.218994140625 4327.69580078125 238.8789978027344 C 4327.52978515625 236.4010009765625 4326.71923828125 234.0950012207031 4325.43994140625 232.1130065917969 C 4325.14208984375 231.6519927978516 4325.419921875 231.0229949951172 4325.9658203125 230.9629974365234 C 4327.033203125 230.8459320068359 4328.1533203125 230.9171142578125 4329.32080078125 231.2619934082031 C 4333.0771484375 232.3699951171875 4335.8330078125 235.7969970703125 4335.97314453125 239.7109985351562 C 4335.97705078125 239.8220062255859 4335.97900390625 239.9320068359375 4335.97900390625 240.0410003662109 C 4335.97998046875 241.802001953125 4334.537109375 243.2250061035156 4332.77587890625 243.2250061035156 Z"/>
      </g>
      <g id="路径_2291" data-name="路径 2291" class="cls-4">
        <path class="cls-5" d="M4314.143,228.834a10.7,10.7,0,0,0-11.5,10.669v.039a3.732,3.732,0,0,0,3.751,3.683h13.894a3.735,3.735,0,0,0,3.751-3.693c0-.252-.008-.506-.025-.763A10.723,10.723,0,0,0,4314.143,228.834Z"/>
        <path class="cls-6" d="M 4313.34326171875 230.3049621582031 C 4308.27197265625 230.3049621582031 4304.14599609375 234.4311828613281 4304.14599609375 239.5030059814453 L 4304.14599609375 239.5384368896484 C 4304.15185546875 240.7442779541016 4305.1611328125 241.7250061035156 4306.39697265625 241.7250061035156 L 4320.291015625 241.7250061035156 C 4321.52880859375 241.7250061035156 4322.53857421875 240.7393035888672 4322.5419921875 239.5261688232422 C 4322.54296875 239.3175811767578 4322.53564453125 239.0963287353516 4322.5205078125 238.8691253662109 C 4322.216796875 234.3302154541016 4318.56884765625 230.6592102050781 4314.03466796875 230.3300628662109 C 4313.80517578125 230.3134307861328 4313.5732421875 230.3049926757812 4313.34375 230.3049621582031 L 4313.34326171875 230.3049621582031 M 4313.34423828125 228.8049621582031 C 4313.6083984375 228.8049926757812 4313.875 228.8145599365234 4314.14306640625 228.8339996337891 C 4319.4189453125 229.2169952392578 4323.6640625 233.4920043945312 4324.01708984375 238.7689971923828 C 4324.0341796875 239.0260009765625 4324.04296875 239.2799987792969 4324.0419921875 239.5319976806641 C 4324.0361328125 241.5809936523438 4322.33984375 243.2250061035156 4320.291015625 243.2250061035156 L 4306.39697265625 243.2250061035156 C 4304.35205078125 243.2250061035156 4302.65380859375 241.5870056152344 4302.64599609375 239.5420074462891 L 4302.64599609375 239.5030059814453 C 4302.64599609375 233.5946960449219 4307.435546875 228.8043670654297 4313.34423828125 228.8049621582031 Z"/>
      </g>
    </g>
  </g>
</svg>
