<svg id="组_1931" data-name="组 1931" xmlns="http://www.w3.org/2000/svg" xmlns:xlink="http://www.w3.org/1999/xlink" width="314" height="296" viewBox="0 0 314 296">
  <defs>
    <style>
      .cls-1 {
        fill: none;
      }

      .cls-2 {
        clip-path: url(#clip-path);
      }

      .cls-3 {
        fill: #fe7400;
      }

      .cls-4 {
        fill: #fff;
      }

      .cls-5 {
        fill: #ffc200;
      }

      .cls-6 {
        fill: #ffe050;
      }

      .cls-7 {
        opacity: 0.44;
      }

      .cls-8 {
        clip-path: url(#clip-path-3);
      }

      .cls-9 {
        fill: #ffb700;
      }

      .cls-10 {
        fill: #feaacd;
      }
    </style>
    <clipPath id="clip-path">
      <rect id="矩形_3446" data-name="矩形 3446" class="cls-1" width="314" height="296"/>
    </clipPath>
    <clipPath id="clip-path-3">
      <rect id="矩形_3443" data-name="矩形 3443" class="cls-1" width="0.03" height="0.018" transform="translate(271.068 105.293)"/>
    </clipPath>
  </defs>
  <g id="组_1936" data-name="组 1936" class="cls-2">
    <g id="组_1935" data-name="组 1935">
      <g id="组_1934" data-name="组 1934" class="cls-2">
        <path id="路径_2439" data-name="路径 2439" class="cls-3" d="M304,296H10A10,10,0,0,1,0,286V10A10,10,0,0,1,10,0H304a10,10,0,0,1,10,10V286a10,10,0,0,1-10,10"/>
        <path id="路径_2440" data-name="路径 2440" class="cls-4" d="M145.139,82.076c.11,0,.26-.182.312-.282a5,5,0,0,0,.354-.862,7.547,7.547,0,0,1,2.776-4.111c1.278-.99,2.657-1.429,2.642-1.791,0-.116-.138-.226-.375-.344-.469-.225-1.1-.435-1.608-.653a7.174,7.174,0,0,1-3.926-3.689c-.262-.436-.561-1.311-1.064-1.371-.492.127-.671,1.038-.874,1.5a7.169,7.169,0,0,1-3.4,4.176c-.475.283-1.073.575-1.507.86-.218.148-.339.275-.325.39.032.361,1.458.613,2.856,1.424a7.585,7.585,0,0,1,3.316,3.746,4.523,4.523,0,0,0,.464.791c.067.089.241.242.345.216Z"/>
        <path id="路径_2441" data-name="路径 2441" class="cls-4" d="M120.279,105.042a2.278,2.278,0,1,0,2.277-2.277,2.277,2.277,0,0,0-2.277,2.277"/>
        <path id="路径_2442" data-name="路径 2442" class="cls-5" d="M251.449,244.069H208.387a10.143,10.143,0,0,1-10.143-10.143V143.185a10.143,10.143,0,0,1,10.143-10.143h43.062a10.143,10.143,0,0,1,10.143,10.143v90.741a10.143,10.143,0,0,1-10.143,10.143"/>
        <path id="路径_2443" data-name="路径 2443" class="cls-6" d="M186.832,244.069H139.038a7.777,7.777,0,0,1-7.777-7.777V186.57a7.777,7.777,0,0,1,7.777-7.778h47.794a7.777,7.777,0,0,1,7.777,7.778v49.722a7.777,7.777,0,0,1-7.777,7.777"/>
        <path id="路径_2444" data-name="路径 2444" class="cls-5" d="M121.827,244.069H70.078a5.8,5.8,0,0,1-5.8-5.8v-24.7a5.8,5.8,0,0,1,5.8-5.8h51.749a5.8,5.8,0,0,1,5.8,5.8v24.7a5.8,5.8,0,0,1-5.8,5.8"/>
        <g id="组_1933" data-name="组 1933" class="cls-7">
          <g id="组_1932" data-name="组 1932">
            <g id="组_1931-2" data-name="组 1931" class="cls-8">
              <path id="路径_2445" data-name="路径 2445" class="cls-9" d="M271.068,105.311h0l.029-.017Z"/>
            </g>
          </g>
        </g>
        <path id="路径_2446" data-name="路径 2446" class="cls-4" d="M85.786,44.6a5.306,5.306,0,0,1,5.353,3.011c1.778,3.174,3.119,6.769,4.967,9.931a1.526,1.526,0,0,0,.488.171c3.238.818,10.187.714,12.731,2.3a5.475,5.475,0,0,1,1.96,6.66c-.622,1.428-1.96,2.3-3,3.333-2.045,2.038-4.052,4.113-6.186,6.06l1.888,11.164a5.323,5.323,0,0,1-7.232,5.783L86.388,87.57,75.636,93.115a5.317,5.317,0,0,1-6.942-5.887l1.888-11.164-8.1-7.833a5.307,5.307,0,0,1,3.011-8.992c3.6-.759,7.5-.84,11.091-1.7L82.2,46.552A5.449,5.449,0,0,1,85.786,44.6"/>
        <path id="路径_2447" data-name="路径 2447" class="cls-10" d="M180.979,74.538l-9.553-3.184a2.222,2.222,0,0,1-.457-4l26.485-16.2a2.222,2.222,0,0,1,3.234,1.1l10.4,27.041a2.222,2.222,0,0,1-2.689,2.933l-8.094-2.33a2.217,2.217,0,0,0-2.643,1.227c-3.908,8.791-22.22,48.1-44.6,65.667-24.212,19.008-71.222,32.495-91.845,35.685a2.22,2.22,0,0,1-2.559-2.2V153.137a2.218,2.218,0,0,1,2.244-2.222c9.978.134,51.131-.79,80.927-23.608,28.249-21.634,38-43.12,40.524-49.884a2.22,2.22,0,0,0-1.38-2.885"/>
        <rect id="矩形_3444" data-name="矩形 3444" class="cls-4" width="6.185" height="6.185" transform="translate(207.066 101.297) rotate(-62.312)"/>
      </g>
    </g>
  </g>
</svg>
