<svg id="组_1929" data-name="组 1929" xmlns="http://www.w3.org/2000/svg" xmlns:xlink="http://www.w3.org/1999/xlink" width="314" height="296" viewBox="0 0 314 296">
  <defs>
    <style>
      .cls-1, .cls-6 {
        fill: none;
      }

      .cls-2 {
        clip-path: url(#clip-path);
      }

      .cls-3 {
        fill: #9b52e1;
      }

      .cls-4 {
        fill: #fff;
      }

      .cls-5 {
        fill: #ffe050;
      }

      .cls-6 {
        stroke: #ff6d00;
        stroke-linejoin: round;
        stroke-width: 9px;
      }

      .cls-7 {
        fill: #ff8e39;
      }

      .cls-8 {
        fill: #e55834;
      }

      .cls-9 {
        fill: #efc478;
      }

      .cls-10 {
        fill: #5b4a24;
      }
    </style>
    <clipPath id="clip-path">
      <rect id="矩形_3442" data-name="矩形 3442" class="cls-1" width="314" height="296"/>
    </clipPath>
  </defs>
  <g id="组_1930" data-name="组 1930" class="cls-2">
    <path id="路径_2429" data-name="路径 2429" class="cls-3" d="M304,296H10A10,10,0,0,1,0,286V10A10,10,0,0,1,10,0H304a10,10,0,0,1,10,10V286a10,10,0,0,1-10,10"/>
    <path id="路径_2430" data-name="路径 2430" class="cls-4" d="M189.732,123.343a2.43,2.43,0,1,0,2.429-2.429,2.429,2.429,0,0,0-2.429,2.429"/>
    <rect id="矩形_3441" data-name="矩形 3441" class="cls-4" width="6.599" height="6.599" transform="translate(68.912 138.732) rotate(-62.313)"/>
    <path id="路径_2431" data-name="路径 2431" class="cls-4" d="M161.719,218.329s23-30.423,99.333-24.447l-.917,13.887L241.63,207.5a83.174,83.174,0,0,1,29.337,13.684l-6.248,9.3H58.817l-6.247-9.3A83.166,83.166,0,0,1,81.907,207.5l-18.506.272-.916-13.887c76.33-5.976,99.234,24.447,99.234,24.447"/>
    <path id="路径_2432" data-name="路径 2432" class="cls-5" d="M240.489,154.5l-32.157-5.931a6.135,6.135,0,0,1-4.92-7.146l5.932-32.158a6.134,6.134,0,0,1,7.145-4.92l32.158,5.933a6.136,6.136,0,0,1,4.92,7.146l-5.932,32.156a6.133,6.133,0,0,1-7.146,4.92"/>
    <path id="路径_2433" data-name="路径 2433" class="cls-6" d="M258.529,108.173l-29.4,26.616c-6.292-9.452-10.263-15.471-10.263-15.471"/>
    <path id="路径_2434" data-name="路径 2434" class="cls-7" d="M273.6,249.024H49.939a3.48,3.48,0,0,1-3.481-3.481V231.588a3.48,3.48,0,0,1,3.481-3.48H273.6a3.481,3.481,0,0,1,3.481,3.48v13.955a3.481,3.481,0,0,1-3.481,3.481"/>
    <path id="路径_2435" data-name="路径 2435" class="cls-4" d="M165.4,95.9c.135,0,.318-.222.382-.345a6.107,6.107,0,0,0,.432-1.053,9.227,9.227,0,0,1,3.394-5.027c1.563-1.21,3.249-1.746,3.23-2.19,0-.141-.169-.276-.458-.42-.574-.275-1.345-.531-1.967-.8a8.768,8.768,0,0,1-4.8-4.509c-.32-.533-.686-1.6-1.3-1.676-.6.155-.82,1.268-1.068,1.836a8.768,8.768,0,0,1-4.161,5.105c-.58.347-1.312.7-1.842,1.051-.267.181-.415.337-.4.477.04.442,1.782.75,3.492,1.742a9.275,9.275,0,0,1,4.054,4.58,5.549,5.549,0,0,0,.567.967c.082.108.295.295.423.263Z"/>
    <path id="路径_2436" data-name="路径 2436" class="cls-8" d="M150.4,132.03l-57.865,6.912L84.416,70.97a22.122,22.122,0,0,1,19.343-24.59l13.931-1.664a22.122,22.122,0,0,1,24.591,19.342Z"/>
    <path id="路径_2437" data-name="路径 2437" class="cls-9" d="M92.535,138.942l27.484,21.813a6.245,6.245,0,0,0,8.808-1.052L150.4,132.03Z"/>
    <path id="路径_2438" data-name="路径 2438" class="cls-10" d="M109.81,152.652l10.21,8.1a6.245,6.245,0,0,0,8.808-1.052l8.014-10.28Z"/>
  </g>
</svg>
