<svg xmlns="http://www.w3.org/2000/svg" width="50.75" height="50.75" viewBox="0 0 50.75 50.75">
  <defs>
    <style>
      .cls-1, .cls-3 {
        fill: none;
        stroke-miterlimit: 10;
      }

      .cls-1 {
        stroke: #f1f1f1;
        stroke-width: 0.75px;
      }

      .cls-2 {
        fill: #6bb5ff;
      }

      .cls-3 {
        opacity: 0.142;
      }

      .cls-4, .cls-5 {
        stroke: none;
      }

      .cls-5 {
        fill: #000;
      }
    </style>
  </defs>
  <g id="组_1910" data-name="组 1910" transform="translate(-54.578 -141.322)">
    <rect id="矩形_3282" data-name="矩形 3282" class="cls-1" width="50" height="50" rx="16.667" transform="translate(104.953 141.697) rotate(90)"/>
    <path id="路径_2272" data-name="路径 2272" class="cls-2" d="M4306.875,178c1.956.056,3.922,0,5.879,0,.7,0,1.405.034,2.1,0,1-.049,1.132-.9,1.132-1.692v-6.548c0-.549-.239-1.738.533-1.827a23.188,23.188,0,0,1,2.61,0h1.6c.4,0,.876-.04.952.494a13.157,13.157,0,0,1,0,1.809v6.323c0,.788.359,1.422,1.231,1.441.759.016,1.52,0,2.28,0h6.323a2.042,2.042,0,0,0,2.216-1.746,12.614,12.614,0,0,0,.019-1.507v-9.607a3.009,3.009,0,0,0-.441-2.051,5.329,5.329,0,0,0-1.085-.869l-2.04-1.466-9.989-7.177a2.042,2.042,0,0,0-2.478-.127l-8.771,6.742c-1.089.838-2.2,1.653-3.27,2.514a2.36,2.36,0,0,0-.8,2.024V174.2c0,.587-.016,1.176,0,1.763A2.013,2.013,0,0,0,4306.875,178Z" transform="translate(-4240)"/>
    <g id="路径_2285" data-name="路径 2285" class="cls-3" transform="translate(-4240)">
      <path class="cls-4" d="M4306.875,178c1.956.056,3.922,0,5.879,0,.7,0,1.405.034,2.1,0,1-.049,1.132-.9,1.132-1.692v-6.548c0-.549-.239-1.738.533-1.827a23.188,23.188,0,0,1,2.61,0h1.6c.4,0,.876-.04.952.494a13.157,13.157,0,0,1,0,1.809v6.323c0,.788.359,1.422,1.231,1.441.759.016,1.52,0,2.28,0h6.323a2.042,2.042,0,0,0,2.216-1.746,12.614,12.614,0,0,0,.019-1.507v-9.607a3.009,3.009,0,0,0-.441-2.051,5.329,5.329,0,0,0-1.085-.869l-2.04-1.466-9.989-7.177a2.042,2.042,0,0,0-2.478-.127l-8.771,6.742c-1.089.838-2.2,1.653-3.27,2.514a2.36,2.36,0,0,0-.8,2.024V174.2c0,.587-.016,1.176,0,1.763A2.013,2.013,0,0,0,4306.875,178Z"/>
      <path class="cls-5" d="M 4308.83349609375 176.5218811035156 C 4309.48046875 176.5218811035156 4310.1416015625 176.5155792236328 4310.78125 176.5094909667969 C 4311.4267578125 176.5033569335938 4312.0947265625 176.4969940185547 4312.75390625 176.4969940185547 C 4312.99853515625 176.4969940185547 4313.2421875 176.5009307861328 4313.4775390625 176.5047302246094 C 4313.712890625 176.5085296630859 4313.9345703125 176.5121154785156 4314.15625 176.5121154785156 C 4314.2724609375 176.5121154785156 4314.380859375 176.5110778808594 4314.48291015625 176.5089569091797 C 4314.48583984375 176.4525299072266 4314.48779296875 176.3851623535156 4314.48779296875 176.3049926757812 L 4314.48779296875 169.7570037841797 C 4314.48779296875 169.7085723876953 4314.4814453125 169.6059722900391 4314.4755859375 169.5154571533203 C 4314.45263671875 169.1534118652344 4314.421875 168.6575927734375 4314.52685546875 168.1659240722656 C 4314.73291015625 167.2071228027344 4315.4306640625 166.5457305908203 4316.3486328125 166.4399566650391 C 4316.65966796875 166.4039459228516 4316.99853515625 166.3864288330078 4317.384765625 166.3864288330078 C 4317.70654296875 166.3864288330078 4318.021484375 166.3981628417969 4318.326171875 166.4095001220703 C 4318.609375 166.4200439453125 4318.876953125 166.4299926757812 4319.130859375 166.4299926757812 L 4320.7978515625 166.4296875 C 4320.828125 166.4294891357422 4320.8583984375 166.4293212890625 4320.888671875 166.4293212890625 C 4321.2197265625 166.4293212890625 4321.6123046875 166.4539337158203 4322.0146484375 166.6365814208984 C 4322.6435546875 166.9221038818359 4323.06298828125 167.4963836669922 4323.1650390625 168.2104034423828 C 4323.24072265625 168.7373809814453 4323.21728515625 169.2533264160156 4323.19677734375 169.7085418701172 C 4323.18798828125 169.8970947265625 4323.18017578125 170.0751953125 4323.18017578125 170.2330017089844 L 4323.18017578125 176.5012817382812 C 4323.3310546875 176.503173828125 4323.49365234375 176.5041046142578 4323.67041015625 176.5041046142578 C 4323.92041015625 176.5041046142578 4324.17041015625 176.5023345947266 4324.42041015625 176.5005798339844 C 4324.67724609375 176.498779296875 4324.93408203125 176.4969940185547 4325.19091796875 176.4969940185547 L 4331.51416015625 176.4969940185547 C 4331.75537109375 176.4969940185547 4331.9677734375 176.4431610107422 4332.09716796875 176.3493194580078 C 4332.1552734375 176.3070831298828 4332.21923828125 176.2472229003906 4332.24072265625 176.0699615478516 C 4332.2705078125 175.8256225585938 4332.263671875 175.5270080566406 4332.25634765625 175.2108459472656 C 4332.25244140625 175.0600433349609 4332.2490234375 174.9041137695312 4332.2490234375 174.7440032958984 L 4332.2490234375 165.1369934082031 C 4332.2490234375 165.0739135742188 4332.24951171875 165.0108489990234 4332.24951171875 164.9478912353516 C 4332.25244140625 164.4629211425781 4332.24658203125 164.1589813232422 4332.1396484375 164.0266418457031 C 4332.05615234375 163.9231719970703 4331.81640625 163.7588195800781 4331.623046875 163.6267700195312 C 4331.5341796875 163.5656890869141 4331.44189453125 163.5025482177734 4331.34765625 163.4349060058594 C 4330.66748046875 162.9460906982422 4329.98779296875 162.4572906494141 4329.3076171875 161.9691162109375 C 4325.9775390625 159.576171875 4322.64892578125 157.1842193603516 4319.318359375 154.7919311523438 C 4319.134765625 154.6601715087891 4318.9541015625 154.5846099853516 4318.822265625 154.5846099853516 C 4318.77197265625 154.5846099853516 4318.70166015625 154.5939178466797 4318.59521484375 154.6630249023438 C 4315.6826171875 156.9021911621094 4312.771484375 159.1402435302734 4309.85986328125 161.3777160644531 C 4309.48388671875 161.6668701171875 4309.1015625 161.9563293457031 4308.73193359375 162.2362518310547 C 4308.02978515625 162.7680511474609 4307.30322265625 163.3179626464844 4306.61474609375 163.8719787597656 C 4306.5 163.9641723632812 4306.3701171875 164.0686798095703 4306.3701171875 164.7270050048828 L 4306.3701171875 174.1990051269531 C 4306.3701171875 174.3991546630859 4306.3681640625 174.5995483398438 4306.36669921875 174.8000030517578 C 4306.36279296875 175.189208984375 4306.359375 175.5568542480469 4306.36962890625 175.9231719970703 C 4306.37646484375 176.1782836914062 4306.4765625 176.4850158691406 4306.91796875 176.4976043701172 C 4307.48828125 176.5139465332031 4308.115234375 176.5218811035156 4308.83349609375 176.5218811035156 M 4308.83349609375 178.0218811035156 C 4308.18017578125 178.0218811035156 4307.52685546875 178.0156555175781 4306.875 177.9969940185547 C 4305.71923828125 177.9640045166016 4304.89990234375 177.1119995117188 4304.8701171875 175.9620056152344 C 4304.85400390625 175.375 4304.8701171875 174.7859954833984 4304.8701171875 174.1990051269531 L 4304.8701171875 164.7270050048828 C 4304.8701171875 163.9369964599609 4305.01318359375 163.2350006103516 4305.6748046875 162.7030029296875 C 4306.7451171875 161.8419952392578 4307.85595703125 161.0269927978516 4308.94482421875 160.1889953613281 C 4311.869140625 157.9420013427734 4314.7919921875 155.6950073242188 4317.7158203125 153.4470062255859 C 4318.53466796875 152.8770904541016 4319.4306640625 153.0249328613281 4320.19384765625 153.5740051269531 C 4323.52392578125 155.9660034179688 4326.85302734375 158.3580017089844 4330.18310546875 160.7510070800781 C 4330.86279296875 161.2389984130859 4331.54296875 161.7279968261719 4332.22314453125 162.2169952392578 C 4332.587890625 162.47900390625 4333.02392578125 162.7330017089844 4333.30810546875 163.0859985351562 C 4333.7978515625 163.6929931640625 4333.7490234375 164.4129943847656 4333.7490234375 165.1369934082031 L 4333.7490234375 174.7440032958984 C 4333.7490234375 175.2400054931641 4333.7900390625 175.7570037841797 4333.72998046875 176.2510070800781 C 4333.587890625 177.4239959716797 4332.60400390625 177.9969940185547 4331.51416015625 177.9969940185547 L 4325.19091796875 177.9969940185547 C 4324.431640625 177.9969940185547 4323.6708984375 178.0130310058594 4322.9111328125 177.9969940185547 C 4322.0390625 177.9779968261719 4321.68017578125 177.343994140625 4321.68017578125 176.5559997558594 L 4321.68017578125 170.2330017089844 C 4321.68017578125 169.6510009765625 4321.76318359375 169.0010070800781 4321.68017578125 168.4239959716797 C 4321.60400390625 167.8896942138672 4321.1318359375 167.9300689697266 4320.72802734375 167.9299926757812 L 4319.130859375 167.9299926757812 C 4318.279296875 167.9300079345703 4317.3671875 167.8321533203125 4316.52099609375 167.9299926757812 C 4315.7490234375 168.0189971923828 4315.98779296875 169.2079925537109 4315.98779296875 169.7570037841797 L 4315.98779296875 176.3049926757812 C 4315.98779296875 177.0930023193359 4315.85400390625 177.947998046875 4314.85595703125 177.9969940185547 C 4314.1591796875 178.0309906005859 4313.4521484375 177.9970092773438 4312.75390625 177.9969940185547 C 4311.44921875 177.9969940185547 4310.140625 178.0218811035156 4308.83349609375 178.0218811035156 Z"/>
    </g>
  </g>
</svg>
