<svg xmlns="http://www.w3.org/2000/svg" width="200" height="32" viewBox="0 0 200 32">
  <defs>
    <style>
      .cls-1 {
        fill: #333;
      }

      .cls-2 {
        fill: #09cb90;
      }

      .cls-3 {
        fill: #fd9003;
      }

      .cls-4 {
        fill: #0197fa;
      }

      .cls-5 {
        fill: #336;
      }
    </style>
  </defs>
  <g id="组_1683" data-name="组 1683" transform="translate(-70.553 -27.66)">
    <g id="组_1682" data-name="组 1682" transform="translate(70.553 43.384)">
      <g id="组_1681" data-name="组 1681">
        <path id="路径_2092" data-name="路径 2092" class="cls-1" d="M102.2,54.464a3.192,3.192,0,0,0-1.795-.375c-.091,0-.183,0-.293,0H98.96c-.672,0-1.332,0-1.631,0a2.912,2.912,0,0,0-1.453.363c-1.428.794-1.285,2.54-1.23,3.141A2.557,2.557,0,0,0,97.1,59.944h.044c.539.005,1.327.013,2.108.013.674,0,1.343-.006,1.843-.024l.121-.011a2.527,2.527,0,0,0,2.173-2.162C103.468,57.128,103.673,55.293,102.2,54.464Zm-.7,3.088,0,.047a.736.736,0,0,1-.451.429l-.065.006c-1.046.035-2.843.017-3.815.008h-.023a.641.641,0,0,1-.6-.56l0-.041c-.1-1.124.169-1.275.276-1.334a.861.861,0,0,1,.506-.114c.31,0,.966,0,1.636,0H100.1c.11,0,.218,0,.321,0a1.467,1.467,0,0,1,.83.123C101.516,56.261,101.6,56.745,101.5,57.552Z" transform="translate(-70.553 -44.031)"/>
        <path id="路径_2093" data-name="路径 2093" class="cls-1" d="M74.092,56.221V52.009H75.5v-1.9H74.092v-3.52h1.587v-1.9H70.6v1.9H72.19v3.52H70.777v1.9H72.19v4.768a9.957,9.957,0,0,1-1.637.251l.1,1.9a14.163,14.163,0,0,0,5.156-1.356l-.588-1.833A8.268,8.268,0,0,1,74.092,56.221Z" transform="translate(-70.553 -44.031)"/>
        <path id="路径_2094" data-name="路径 2094" class="cls-1" d="M92.266,54V50.138h1.413v-1.9H92.266v-3.55h-1.9v3.55H88.952v1.9h1.412v4.414a9.946,9.946,0,0,1-1.636.251l.1,1.9a13.878,13.878,0,0,0,5.1-1.331l-.535-1.857A8.418,8.418,0,0,1,92.266,54Z" transform="translate(-70.553 -44.031)"/>
        <path id="路径_2095" data-name="路径 2095" class="cls-1" d="M112.215,57.8H111.4a1.823,1.823,0,0,1-1.577-1.59V51.434c0-.416.206-1.2.985-1.2h1.353a.98.98,0,0,1,.932,1.02v1.193c0,.831-1.414,1.111-2.023,1.192l.253,1.886c2.334-.314,3.672-1.435,3.672-3.078V51.252a2.882,2.882,0,0,0-2.834-2.922h-1.353a2.936,2.936,0,0,0-2.887,3.1v4.773A3.671,3.671,0,0,0,111.4,59.7h.813c2.172,0,2.853-1.116,3.98-2.966l-1.624-.99C113.424,57.624,113.226,57.8,112.215,57.8Z" transform="translate(-70.553 -44.031)"/>
        <path id="路径_2096" data-name="路径 2096" class="cls-1" d="M119.689,44.831V55.757c0,2.064-.454,2.377-2.372,2.377,0,0,.247,1.271.359,1.9,2.486-.064,3.914-.857,3.914-4.274v-4.09c0-2.807,0-5.578,0-6.837Z" transform="translate(-70.553 -44.031)"/>
        <path id="路径_2097" data-name="路径 2097" class="cls-1" d="M81.936,47.1v2.5h1.922V47.1a2.911,2.911,0,0,0-2.908-2.907H76.831v1.921H80.95A.987.987,0,0,1,81.936,47.1Z" transform="translate(-70.553 -44.031)"/>
        <rect id="矩形_3147" data-name="矩形 3147" class="cls-1" width="5.517" height="1.922" transform="translate(6.25 10.117)"/>
        <rect id="矩形_3148" data-name="矩形 3148" class="cls-1" width="1.922" height="8.793" transform="translate(46.162 3.212)"/>
        <path id="路径_2098" data-name="路径 2098" class="cls-1" d="M126.663,52.584a10.5,10.5,0,0,1,.867-1.088l.189-.2v3.327h1.922V51.48l.187.188c.256.259.553.586.908,1l.029.034,1.261-1.606a6.578,6.578,0,0,0-2.321-2.017l-.064-.029V47.607h2.126V45.685h-2.126v-1.5h-1.922v1.5h-2.125v1.922h2.125v1.357l-.072.026c-.854.307-1.374.673-2.387,2.1l1.377,1.525Z" transform="translate(-70.553 -44.031)"/>
        <path id="路径_2099" data-name="路径 2099" class="cls-1" d="M140.01,51.9V46.912a2.632,2.632,0,0,0-2.629-2.629H135.1a2.631,2.631,0,0,0-2.629,2.629V51.9a2.632,2.632,0,0,0,2.629,2.63h2.279A2.632,2.632,0,0,0,140.01,51.9Zm-1.922,0a.708.708,0,0,1-.707.708H135.1a.709.709,0,0,1-.708-.708v-.42h2.776V49.948h-2.776v-1.1h2.776V47.327h-2.776v-.415a.709.709,0,0,1,.708-.708h2.279a.708.708,0,0,1,.707.708Z" transform="translate(-70.553 -44.031)"/>
        <path id="路径_2100" data-name="路径 2100" class="cls-1" d="M139.77,55.745h-1.958a8.271,8.271,0,0,0,.863,3.85l1.809-.9A5.609,5.609,0,0,1,139.77,55.745Z" transform="translate(-70.553 -44.031)"/>
        <path id="路径_2101" data-name="路径 2101" class="cls-1" d="M126.146,55.3a7.4,7.4,0,0,1-.886,3.467l1.772.83a9.6,9.6,0,0,0,1.07-4.122C127.7,55.448,126.849,55.373,126.146,55.3Z" transform="translate(-70.553 -44.031)"/>
        <path id="路径_2102" data-name="路径 2102" class="cls-1" d="M133.409,57.651l1.032-1.54a2.671,2.671,0,0,1-1.779-1.634c-.585.177-1.64.613-1.64.613A4.67,4.67,0,0,0,133.409,57.651Z" transform="translate(-70.553 -44.031)"/>
        <rect id="矩形_3149" data-name="矩形 3149" class="cls-1" width="4.389" height="1.867" transform="translate(26.283 7.609)"/>
        <path id="路径_2103" data-name="路径 2103" class="cls-1" d="M97.715,48.585a16.331,16.331,0,0,1,2.517,0c1.612.151,2.751,1.805,3.693,3.344l-1.622.993c-.4-.648-1.449-2.368-2.248-2.443a14.375,14.375,0,0,0-2.149,0c-.219.022-1.036.475-2.16,2.28l-1.615-1.006C95.351,49.793,96.59,48.7,97.715,48.585Z" transform="translate(-70.553 -44.031)"/>
        <path id="路径_2104" data-name="路径 2104" class="cls-1" d="M82.8,50.7c-.553-.035-1.221-.029-1.867-.024-.364,0-.709.007-.995,0h-.051l-.052,0a.783.783,0,0,1-.624-.136,1.2,1.2,0,0,1-.227-.89V47.224h-1.9V49.6A2.95,2.95,0,0,0,77.9,51.92a2.571,2.571,0,0,0,2.049.657c.292.005.638,0,1,0,.583-.005,1.244-.01,1.706.018A1.325,1.325,0,0,1,83.8,53.807c.032.689.032,1.414,0,2.006a2.1,2.1,0,0,1-1.978,1.877c-.857.051-2.657.02-3.712.03v1.9c1.028-.011,1.5.009,1.941.009.686,0,1.346-.009,1.912-.044l.047,0a4,4,0,0,0,3.686-3.63,22.1,22.1,0,0,0,0-2.261A3.235,3.235,0,0,0,82.8,50.7Z" transform="translate(-70.553 -44.031)"/>
        <path id="路径_2105" data-name="路径 2105" class="cls-1" d="M102.444,44.031h-1.895V45.15H97.421V44.031H95.526V45.15H94.1v1.895h1.425v1.118h1.895V47.045h3.127v1.118h1.895V47.045h1.515V45.15h-1.515Z" transform="translate(-70.553 -44.031)"/>
        <path id="路径_2106" data-name="路径 2106" class="cls-1" d="M112.6,44.256a10.547,10.547,0,0,0-2.332-.007c-1.15.116-2.256,1.1-3.454,3.063l1.6,1.027c1.219-2.012,1.911-2.184,2.045-2.2a8.529,8.529,0,0,1,1.834-.007c.5.082,1.176.8,2,2.141l1.622-.993C115.074,45.917,114.027,44.489,112.6,44.256Z" transform="translate(-70.553 -44.031)"/>
        <path id="路径_2107" data-name="路径 2107" class="cls-1" d="M135.507,55.98c-.206,1.948-1.078,2.142-2.017,2.142h-1.017c-1.273,0-2.027-1.751-2.091-2.683l-1.824.245c.254,2.473,1.753,4.267,3.845,4.267h1.3c2.966,0,3.5-2.552,3.626-3.778Z" transform="translate(-70.553 -44.031)"/>
      </g>
    </g>
    <rect id="矩形_3150" data-name="矩形 3150" class="cls-2" width="8.471" height="2.719" transform="translate(245.24 34.979)"/>
    <rect id="矩形_3151" data-name="矩形 3151" class="cls-2" width="2.719" height="9" transform="translate(248.116 32)"/>
    <rect id="矩形_3152" data-name="矩形 3152" class="cls-3" width="9" height="2.653" transform="translate(154.281 30.689)"/>
    <rect id="矩形_3153" data-name="矩形 3153" class="cls-3" width="2.653" height="8.71" transform="translate(157.452 27.66)"/>
    <rect id="矩形_3154" data-name="矩形 3154" class="cls-4" width="9.883" height="2.967" transform="translate(203.776 41.869)"/>
    <rect id="矩形_3155" data-name="矩形 3155" class="cls-4" width="2.967" height="10.058" transform="translate(207.241 38.325)"/>
    <path id="路径_2108" data-name="路径 2108" class="cls-5" d="M202.542,37.059h7.6V34.527H199.89V45.153h2.652Z" transform="translate(-0.656 -0.202)"/>
    <path id="路径_2109" data-name="路径 2109" class="cls-5" d="M189.22,60.146h2.8V59.061h10.519v1.025h2.924V47.547H189.22Zm2.8-10.308h10.519v2.351H192.023Zm0,4.491h10.519V56.77H192.023Z" transform="translate(-0.622 -0.648)"/>
    <path id="路径_2110" data-name="路径 2110" class="cls-5" d="M196.694,46.329l1.589-1.724L195,41.58h3.713V39.319h-4.973v-2.5h4.22V34.557h-7.979l.85-1.73-2.606-.8-2.651,5.987,2.343.852,1.032-2.047h2.08v2.5h-6.058V41.58h4.865l-3.282,3.026,1.589,1.724,4.275-3.942Z" transform="translate(-0.592)"/>
    <path id="路径_2111" data-name="路径 2111" class="cls-5" d="M231.885,44.445H221.543V41.966H234.62l1.248,2.709-5.626,3.56v.513h11.04v2.6h-11.04v4.93a2.961,2.961,0,0,1-2.936,3H223.72l-.222-2.5h3.1a.951.951,0,0,0,.969-.86V51.348H216.808v-2.6h10.764V46.716Zm-2.84-12.43,1.6,4.692h2.736L236,32.015l2.738.824-2.164,3.867h4.295v6.214h-2.561v-3.7H219.726v3.7h-2.477V36.707h3.978l-1.207-3.654,2.6-.617,1.494,4.272h3.75l-1.44-4.213Z" transform="translate(-0.802)"/>
    <path id="路径_2112" data-name="路径 2112" class="cls-5" d="M249.182,56.894l5.766-11.236h-8.121V42.691h24.694v2.967H258.61l-5.533,10.5L265.3,54.376c-1.018-1.744-2.092-3.518-3.083-5.016l2.395-1.377c2.312,3.426,6.627,11.083,6.627,11.083l-2.612,1.242-1.758-3.179-16.759,2.238Z" transform="translate(-0.968 -0.648)"/>
    <rect id="矩形_3156" data-name="矩形 3156" class="cls-5" width="11.144" height="2.967" transform="translate(256.545 33.955)"/>
    <path id="路径_2113" data-name="路径 2113" class="cls-5" d="M171.451,34.174V59.929h-3.275V54.668H157.263l-3.957,5.261H149.02l19.156-25.755Zm-3.275,17.4V39.254l-8.971,12.323Z" transform="translate(-0.425 -0.648)"/>
    <path id="路径_2114" data-name="路径 2114" class="cls-5" d="M176.45,34.174h3.091V59.929H176.45Z" transform="translate(-0.518 -0.648)"/>
  </g>
</svg>
