<?xml version="1.0" encoding="UTF-8"?>
<svg id="_图层_2" data-name="图层 2" xmlns="http://www.w3.org/2000/svg" viewBox="0 0 540.95 102.02">
  <defs>
    <style>
      .cls-1 {
        fill: #00d6a3;
      }

      .cls-2 {
        fill: #336;
      }

      .cls-3 {
        fill: #0197fa;
      }

      .cls-4 {
        fill: #333;
      }
    </style>
  </defs>
  <g id="_图层_1-2" data-name="图层 1">
    <g>
      <g>
        <path class="cls-4" d="M27.84,54.17h-4.08v15.09c0,5.66,5.13,7.43,5.35,7.51l1.58-3.65c-.27-.1-2.85-1.14-2.85-3.86v-6.47h3.77v-4h-3.77v-4.62Z"/>
        <path class="cls-4" d="M89.62,48.02c-.27-.1-2.85-1.14-2.85-3.86v-6.47h3.77v-4h-3.77v-4.62h-4.08v15.09c0,5.66,5.13,7.43,5.35,7.51l1.58-3.65Z"/>
        <path class="cls-4" d="M95.74,58.12c-5.03,0-9.13,4.09-9.13,9.13s4.09,9.13,9.13,9.13,9.13-4.09,9.13-9.13-4.09-9.13-9.13-9.13ZM95.74,72.17c-2.72,0-4.93-2.21-4.93-4.93s2.21-4.93,4.93-4.93,4.92,2.21,4.92,4.93-2.21,4.93-4.92,4.93Z"/>
        <path class="cls-4" d="M15.09,65.62c-1.25-.33-2.27-.71-3-.99-1.09-.39-1.63-1.5-.85-2.33,1.44-1.24,4.18-.85,5.46,1.08l2.83-2.25c-2.01-2.67-4.36-3.51-7.26-3.17-5.88.67-7.2,8.23-1.62,10.17,1.7.59,3.38.72,4.63,1.72,1.15,1.19.2,2.86-1.43,2.96-1.99.24-3.47-.89-4.66-2.47l-2.68,2.44c2.59,4.44,10.65,5.16,13.06.45,1.64-3.84-.82-6.62-4.48-7.6Z"/>
        <path class="cls-4" d="M46.78,68.59c0,1.02-.38,1.88-1.15,2.64-.78.75-1.63,1.1-2.65,1.1s-1.9-.36-2.66-1.09c-.78-.76-1.14-1.61-1.14-2.65v-10.08h-4.19v9.83c0,2.27.76,4.2,2.25,5.73,1.53,1.53,3.46,2.31,5.73,2.31s4.21-.78,5.71-2.31c1.51-1.52,2.28-3.45,2.28-5.73v-9.83h-4.19v10.08Z"/>
        <rect class="cls-4" x="78.28" y="61.66" width="4.13" height="14.34"/>
        <path class="cls-4" d="M80.35,53.56c-1.39,0-2.52,1.11-2.52,2.48s1.13,2.47,2.52,2.47,2.52-1.11,2.52-2.47-1.13-2.48-2.52-2.48Z"/>
        <path class="cls-4" d="M72.73,54.17h-4.13s-.06,0-.06,0v5.48c-1.42-.92-3.11-1.45-4.92-1.45-.23,0-.46.01-.69.03-1.44.09-2.76.51-3.95,1.24-2.69,1.59-4.49,4.52-4.49,7.86,0,.37.03.74.07,1.1.22,2,1.05,3.76,2.49,5.25,1.41,1.47,3.11,2.35,5.05,2.65.5.08,1,.13,1.52.13.36,0,.71-.02,1.05-.07,1.4-.15,2.69-.62,3.88-1.39v1.1h4.2v-21.92h0ZM63.61,72.25c-2.72,0-4.93-2.21-4.93-4.93s2.21-4.92,4.93-4.92,4.92,2.21,4.92,4.92-2.21,4.93-4.92,4.93Z"/>
        <path class="cls-4" d="M37.25,51.05c1.91,0,3.57-.69,4.93-1.72v1.35h4.2v-8.76c0-5.03-4.09-9.13-9.13-9.13s-9.13,4.09-9.13,9.13,4.09,9.13,9.13,9.13ZM37.25,37c2.72,0,4.93,2.21,4.93,4.92s-2.21,4.92-4.93,4.92-4.93-2.21-4.93-4.92,2.21-4.92,4.93-4.92Z"/>
        <path class="cls-4" d="M78.52,50.69v-8.76c0-5.03-4.09-9.13-9.13-9.13s-9.13,4.09-9.13,9.13,4.09,9.13,9.13,9.13c1.91,0,3.57-.69,4.92-1.72v1.35h4.2ZM69.39,46.85c-2.72,0-4.93-2.21-4.93-4.92s2.21-4.92,4.93-4.92,4.92,2.21,4.92,4.92-2.21,4.92-4.92,4.92Z"/>
        <path class="cls-4" d="M101.54,32.8c-5.03,0-9.13,4.09-9.13,9.13s4.09,9.13,9.13,9.13c1.91,0,3.57-.69,4.93-1.72v1.35h4.2v-8.76c0-5.03-4.09-9.13-9.13-9.13ZM101.54,46.85c-2.72,0-4.93-2.21-4.93-4.92s2.21-4.92,4.93-4.92,4.93,2.21,4.93,4.92-2.21,4.92-4.93,4.92Z"/>
        <path class="cls-4" d="M24.69,50.64v-10.27c0-2.19-.67-4-1.99-5.36-1.25-1.29-2.88-2.03-4.83-2.18h0c-2.14-.18-3.97.52-5.44,2.08l-.11.11-.11-.11c-1.47-1.56-3.3-2.26-5.44-2.08-1.97.16-3.58.89-4.8,2.18-1.31,1.35-1.97,3.15-1.97,5.37v10.27h4.24v-10.51c0-1,.25-1.77.79-2.43.5-.61,1.12-.9,1.93-.9.89,0,1.65.28,2.3.86.62.53.92,1.17.92,2.01v10.97h4.27v-10.97c0-.82.29-1.48.89-2.01.68-.58,1.44-.86,2.33-.86.82,0,1.46.29,1.96.9.54.67.82,1.48.82,2.43v10.51h4.24Z"/>
        <path class="cls-4" d="M57.18,48.02c-.27-.1-2.85-1.14-2.85-3.86v-6.47h3.77v-4h-3.77v-4.62h-4.08v15.09c0,5.66,5.13,7.43,5.35,7.51l1.58-3.65Z"/>
      </g>
      <path class="cls-3" d="M345.93,68.83c.21-.3.6-.31,1.02-.48,2.12-.64,4.76-1.38,6.43-3.02,2.2-2.11,2.68-5.46,3.52-7.44.42-.73.94,2.08,1.18,2.54,1.57,5.62,4.9,6.7,9.53,8.08.62.22.67.41,0,.65-4.65,1.38-7.95,2.47-9.53,8.08-.26.55-.75,3.25-1.18,2.54-.84-1.97-1.32-5.34-3.52-7.44-1.67-1.64-4.32-2.38-6.43-3.02-.59-.2-.9-.25-1.02-.48v-.02Z"/>
      <path class="cls-1" d="M471.47,20.61c.16-.23.46-.24.79-.37,1.63-.49,3.66-1.06,4.95-2.33,1.69-1.62,2.06-4.2,2.71-5.72.33-.56.72,1.6.91,1.96,1.21,4.32,3.77,5.16,7.33,6.22.48.17.52.32,0,.5-3.57,1.07-6.12,1.9-7.33,6.22-.2.42-.58,2.5-.91,1.96-.65-1.52-1.02-4.11-2.71-5.72-1.29-1.26-3.32-1.83-4.95-2.33-.45-.16-.7-.19-.79-.37h0Z"/>
      <path class="cls-2" d="M142.89,75.74l13.05-14.88h32.35v14.88h10.54V0l-73.38,75.74h17.44ZM188.29,24.93v26.67h-24.27l24.27-26.67Z"/>
      <rect class="cls-2" x="212.31" y="1.37" width="10.54" height="74.36"/>
      <path class="cls-2" d="M272.82,11.93c7.88,0,15.24,3.52,16.98,8.62l10.35-3.73c-3.68-10.09-15.5-15.87-27.33-15.87-14.35,0-27.07,8.62-27.07,21.76,0,13.98,11.62,19.29,27.07,21.81,7.99,1.31,16.19,4.15,16.19,10.83s-7.73,10.83-16.19,10.83c-7.88,0-15.24-3.63-17.03-8.67l-10.25,3.84c3.52,9.83,15.24,15.77,27.28,15.77,14.51,0,27.12-8.67,27.12-21.76s-12.61-19.55-27.12-21.86c-9.04-1.52-16.14-2.89-16.14-10.77,0-6.36,7.78-10.83,16.14-10.77Z"/>
      <path class="cls-2" d="M338.79,21.81c-7.41,0-12.93,3.73-16.4,9.09v-7.72h-10.93v78.84h10.93v-33.9c3.47,5.36,8.99,9.09,16.4,9.09.17,0,.33-.02.5-.03v-10.62c-.2,0-.4.03-.6.03-9.2,0-15.4-7.67-15.4-17.14s6.31-17.08,15.4-17.08,16.61,7.73,16.61,17.08c0,.56-.03,1.11-.08,1.66h11.14c.03-.55.08-1.1.08-1.66,0-15.24-12.35-27.65-27.65-27.65Z"/>
      <path class="cls-2" d="M417.64,30.96c-3.89-5.41-9.78-9.25-17.4-9.25-15.03,0-27.12,12.19-27.12,27.28s12.51,28.12,28.01,28.12c7.2,0,12.46-3.57,15.56-8.99l.42,7.62h10.99V23.18h-10.93l.47,7.78ZM400.88,66.54c-8.99,0-16.56-7.52-16.56-17.08s7.36-17.13,16.56-17.13,15.4,7.57,15.4,17.13-6.15,17.08-15.4,17.08Z"/>
      <path class="cls-2" d="M514.8,21.71c-14.51,0-26.28,12.4-26.28,27.75s11.77,27.65,26.28,27.65c10.51,0,19.55-6.52,23.76-15.87l-11.09-2.57c-2.79,4.68-7.36,7.52-12.67,7.52-7.62-.05-13.25-5.57-14.56-12.88h40.52c1.84-17.08-9.88-31.59-25.96-31.59ZM499.87,44.94c1.26-7.67,7.36-13.56,14.93-13.56s13.82,6.04,14.93,13.56h-29.85Z"/>
      <path class="cls-2" d="M463.08,66.17c-8.57,0-15.35-7.73-15.35-16.72s6.67-16.82,15.35-16.82c.1,0,.21.02.31.02v-10.93c-.1,0-.2-.02-.31-.02-14.51,0-26.28,12.4-26.28,27.75s11.77,27.65,26.28,27.65c8.57,0,16.19-4.31,20.97-10.99l-9.78-5.31c-2.73,3.21-6.83,5.36-11.2,5.36Z"/>
    </g>
  </g>
</svg>