<svg xmlns="http://www.w3.org/2000/svg" width="50.75" height="50.75" viewBox="0 0 50.75 50.75">
  <defs>
    <style>
      .cls-1, .cls-3 {
        fill: none;
        stroke-miterlimit: 10;
      }

      .cls-1 {
        stroke: #f1f1f1;
        stroke-width: 0.75px;
      }

      .cls-2 {
        fill: #9e9eff;
      }

      .cls-3 {
        opacity: 0.142;
      }

      .cls-4, .cls-5 {
        stroke: none;
      }

      .cls-5 {
        fill: #000;
      }
    </style>
  </defs>
  <g id="组_1919" data-name="组 1919" transform="translate(-54.578 -584.448)">
    <rect id="矩形_3287" data-name="矩形 3287" class="cls-1" width="50" height="50" rx="16.667" transform="translate(104.953 584.823) rotate(90)"/>
    <g id="组_1755" data-name="组 1755" transform="translate(-4239.359 -1.704)">
      <path id="路径_2273" data-name="路径 2273" class="cls-2" d="M4329.949,600.857h-.987c0-.338.012-.679,0-1.012a1.865,1.865,0,0,0-1.9-1.82c-.463-.007-.928,0-1.392,0H4313.59c-1.185,0-2.9-.306-3.583.938a3.225,3.225,0,0,0-.234,1.625c0,.089.008.179.01.269h-1.106a3.07,3.07,0,0,0-2.982,1.914c-.644,1.612.018,3.623,1.728,5.25a6.965,6.965,0,0,0,4.646,2.183,11.859,11.859,0,0,0,2.6,3.138c.682.573,1.5.967,1.76,1.888a3.818,3.818,0,0,1,.083,1.043v3.093a4.878,4.878,0,0,1,0,.981c-.005.026-.006.036,0,.039a.166.166,0,0,0-.019.032,1.564,1.564,0,0,1-.431.411,12.549,12.549,0,0,0-2.661,2.261,2.736,2.736,0,0,0-.554,1.546.41.41,0,0,0,.382.425H4325.5a.411.411,0,0,0,.382-.425,3.461,3.461,0,0,0-1.342-2.547c-.661-.57-1.472-.939-2.127-1.507-.167-.144-.187-.169-.2-.262a6.64,6.64,0,0,1,0-.865v-2.682c0-1.05-.021-2.052.943-2.75a11.872,11.872,0,0,0,3.5-3.824,7.019,7.019,0,0,0,4.543-2.177c1.71-1.628,2.372-3.639,1.728-5.251A3.07,3.07,0,0,0,4329.949,600.857Zm-20.768,5.317c-1.045-.994-1.313-1.97-1.118-2.456.034-.085.124-.311.614-.311h1.283a21.658,21.658,0,0,0,.416,2.492c.112.471.25.936.4,1.4A6,6,0,0,1,4309.181,606.174Zm20.264,0a6.153,6.153,0,0,1-1.468,1.057c.043-.132.092-.263.132-.4a21.679,21.679,0,0,0,.708-3.428h1.132c.49,0,.579.226.613.311C4330.757,604.2,4330.49,605.18,4329.445,606.175Z"/>
    </g>
    <g id="路径_2286" data-name="路径 2286" class="cls-3" transform="translate(-4239.359 -1.704)">
      <path class="cls-4" d="M4329.949,600.857h-.987c0-.338.012-.679,0-1.012a1.865,1.865,0,0,0-1.9-1.82c-.463-.007-.928,0-1.392,0H4313.59c-1.185,0-2.9-.306-3.583.938a3.225,3.225,0,0,0-.234,1.625c0,.089.008.179.01.269h-1.106a3.07,3.07,0,0,0-2.982,1.914c-.644,1.612.018,3.623,1.728,5.25a6.965,6.965,0,0,0,4.646,2.183,11.859,11.859,0,0,0,2.6,3.138c.682.573,1.5.967,1.76,1.888a3.818,3.818,0,0,1,.083,1.043v3.093a4.878,4.878,0,0,1,0,.981c-.005.026-.006.036,0,.039a.166.166,0,0,0-.019.032,1.564,1.564,0,0,1-.431.411,12.549,12.549,0,0,0-2.661,2.261,2.736,2.736,0,0,0-.554,1.546.41.41,0,0,0,.382.425H4325.5a.411.411,0,0,0,.382-.425,3.461,3.461,0,0,0-1.342-2.547c-.661-.57-1.472-.939-2.127-1.507-.167-.144-.187-.169-.2-.262a6.64,6.64,0,0,1,0-.865v-2.682c0-1.05-.021-2.052.943-2.75a11.872,11.872,0,0,0,3.5-3.824,7.019,7.019,0,0,0,4.543-2.177c1.71-1.628,2.372-3.639,1.728-5.251A3.07,3.07,0,0,0,4329.949,600.857Zm-20.768,5.317c-1.045-.994-1.313-1.97-1.118-2.456.034-.085.124-.311.614-.311h1.283a21.658,21.658,0,0,0,.416,2.492c.112.471.25.936.4,1.4A6,6,0,0,1,4309.181,606.174Zm20.264,0a6.153,6.153,0,0,1-1.468,1.057c.043-.132.092-.263.132-.4a21.679,21.679,0,0,0,.708-3.428h1.132c.49,0,.579.226.613.311C4330.757,604.2,4330.49,605.18,4329.445,606.175Z"/>
      <path class="cls-5" d="M 4312.30029296875 599.4917602539062 C 4311.74560546875 599.4917602539062 4311.38916015625 599.5618896484375 4311.32275390625 599.6826782226562 C 4311.2626953125 599.7932739257812 4311.26708984375 600.140869140625 4311.27099609375 600.420166015625 C 4311.27197265625 600.4718017578125 4311.2724609375 600.5233764648438 4311.27294921875 600.5714721679688 C 4311.2734375 600.603759765625 4311.27490234375 600.6361694335938 4311.27685546875 600.668701171875 C 4311.27880859375 600.7178344726562 4311.28125 600.76708984375 4311.28271484375 600.8163452148438 L 4311.3173828125 602.0887451171875 L 4311.4501953125 603.2341918945312 C 4311.556640625 604.1552734375 4311.67919921875 604.892333984375 4311.83544921875 605.5525512695312 C 4311.92626953125 605.93603515625 4312.04296875 606.342041015625 4312.2021484375 606.8302001953125 L 4312.81787109375 608.7195434570312 L 4312.9404296875 608.7221069335938 L 4313.3642578125 609.4476928710938 C 4314.00146484375 610.5391845703125 4314.765625 611.4628295898438 4315.63671875 612.1934204101562 C 4315.759765625 612.2968139648438 4315.9013671875 612.4022827148438 4316.05078125 612.5138549804688 C 4316.67822265625 612.9817504882812 4317.5380859375 613.6226196289062 4317.87744140625 614.8279418945312 C 4318.0185546875 615.3358764648438 4318.0166015625 615.7973022460938 4318.015625 616.1680297851562 L 4318.01513671875 616.2730102539062 L 4318.01513671875 619.3660278320312 C 4318.01513671875 619.4156494140625 4318.0205078125 619.5008544921875 4318.02587890625 619.5831909179688 C 4318.0322265625 619.6753540039062 4318.03857421875 619.7784423828125 4318.0419921875 619.8894653320312 L 4318.4228515625 620.3558959960938 L 4317.7587890625 621.2236328125 C 4317.53564453125 621.5909423828125 4317.232421875 621.8219604492188 4317.0439453125 621.9652099609375 C 4317.02490234375 621.9796142578125 4317.0068359375 621.9935302734375 4316.98876953125 622.007568359375 C 4316.71435546875 622.2236938476562 4316.43701171875 622.4223022460938 4316.1689453125 622.6144409179688 C 4315.72998046875 622.9290771484375 4315.30810546875 623.2313232421875 4314.9716796875 623.5609741210938 L 4323.90625 623.5609741210938 C 4323.81201171875 623.453369140625 4323.69970703125 623.3410034179688 4323.5654296875 623.2250366210938 C 4323.3173828125 623.0111694335938 4323.00537109375 622.8119506835938 4322.67529296875 622.60107421875 C 4322.287109375 622.3530883789062 4321.8466796875 622.0720825195312 4321.4384765625 621.7179565429688 C 4321.20947265625 621.5205078125 4320.826171875 621.1900024414062 4320.732421875 620.5305786132812 L 4320.7314453125 620.521728515625 C 4320.68798828125 620.20361328125 4320.70068359375 619.9100952148438 4320.7109375 619.6742553710938 C 4320.71435546875 619.59228515625 4320.7177734375 619.5148315429688 4320.7177734375 619.4550170898438 L 4320.7177734375 616.7079467773438 C 4320.71728515625 615.60595703125 4320.716796875 613.940673828125 4322.28173828125 612.8079223632812 L 4322.31201171875 612.7864990234375 C 4323.52197265625 611.9556884765625 4324.5498046875 610.829345703125 4325.3671875 609.4388427734375 L 4325.78125 608.7338256835938 L 4325.91259765625 608.7284545898438 L 4326.55078125 606.7677612304688 C 4326.56982421875 606.708740234375 4326.58984375 606.6499633789062 4326.6103515625 606.591064453125 C 4326.63330078125 606.5242919921875 4326.65478515625 606.4611206054688 4326.6708984375 606.408935546875 C 4326.9697265625 605.3931274414062 4327.19140625 604.320556640625 4327.32861328125 603.2212524414062 L 4327.4580078125 602.1820678710938 L 4327.4619140625 600.8527221679688 C 4327.46240234375 600.75634765625 4327.46337890625 600.6597290039062 4327.46435546875 600.5631713867188 C 4327.466796875 600.3327026367188 4327.46923828125 600.1150512695312 4327.4599609375 599.9201049804688 C 4327.455078125 599.8237915039062 4327.4404296875 599.5305786132812 4327.037109375 599.5248413085938 C 4326.90673828125 599.5228881835938 4326.76220703125 599.5219116210938 4326.5966796875 599.5219116210938 C 4326.287109375 599.5219116210938 4325.9775390625 599.5250244140625 4325.66796875 599.5250244140625 L 4313.58984375 599.5250244140625 C 4313.37255859375 599.5250244140625 4313.14892578125 599.5164794921875 4312.93310546875 599.5081787109375 C 4312.72216796875 599.5001220703125 4312.5048828125 599.4917602539062 4312.30029296875 599.4917602539062 M 4312.30029296875 597.9917602539062 C 4312.75048828125 597.9917602539062 4313.19921875 598.0250244140625 4313.58984375 598.0250244140625 L 4325.66796875 598.0250244140625 C 4326.130859375 598.0250244140625 4326.59619140625 598.0180053710938 4327.06005859375 598.0250244140625 C 4328.11181640625 598.0399780273438 4328.90478515625 598.7839965820312 4328.9580078125 599.844970703125 C 4328.97412109375 600.177978515625 4328.962890625 600.5189819335938 4328.9619140625 600.8569946289062 L 4329.94921875 600.8569946289062 C 4331.3369140625 600.8569946289062 4332.4521484375 601.572021484375 4332.93115234375 602.77099609375 C 4333.5751953125 604.3829956054688 4332.9130859375 606.3939819335938 4331.203125 608.02197265625 C 4329.3759765625 609.760986328125 4327.705078125 610.156005859375 4326.66015625 610.198974609375 C 4325.78076171875 611.6950073242188 4324.62890625 613.0150146484375 4323.1611328125 614.0230102539062 C 4322.19677734375 614.7210083007812 4322.2177734375 615.7230224609375 4322.2177734375 616.7730102539062 L 4322.2177734375 619.4550170898438 C 4322.2177734375 619.7340087890625 4322.18017578125 620.0430297851562 4322.2177734375 620.3200073242188 C 4322.23095703125 620.4130249023438 4322.2509765625 620.43798828125 4322.41796875 620.5819702148438 C 4323.0732421875 621.1500244140625 4323.8837890625 621.5189819335938 4324.544921875 622.0889892578125 C 4325.31591796875 622.7540283203125 4325.86279296875 623.593994140625 4325.88720703125 624.635986328125 C 4325.89208984375 624.8469848632812 4325.72509765625 625.0609741210938 4325.5048828125 625.0609741210938 L 4313.22802734375 625.0609741210938 C 4313.0087890625 625.0609741210938 4312.83984375 624.8469848632812 4312.84619140625 624.635986328125 C 4312.86279296875 624.06298828125 4313.06591796875 623.552001953125 4313.39990234375 623.0900268554688 C 4314.091796875 622.1320190429688 4315.14892578125 621.5469970703125 4316.06103515625 620.8289794921875 C 4316.203125 620.7169799804688 4316.4072265625 620.5809936523438 4316.4921875 620.4180297851562 C 4316.5029296875 620.39697265625 4316.505859375 620.3930053710938 4316.51123046875 620.385986328125 C 4316.5087890625 620.3829956054688 4316.509765625 620.3729858398438 4316.51513671875 620.3469848632812 C 4316.5810546875 620.051025390625 4316.51513671875 619.6690063476562 4316.51513671875 619.3660278320312 L 4316.51513671875 616.2730102539062 C 4316.51513671875 615.9210205078125 4316.52783203125 615.573974609375 4316.43212890625 615.22998046875 C 4316.1728515625 614.3090209960938 4315.35400390625 613.9149780273438 4314.671875 613.3419799804688 C 4313.60986328125 612.4509887695312 4312.7548828125 611.3790283203125 4312.06884765625 610.2039794921875 C 4311.033203125 610.1820068359375 4309.31005859375 609.8179931640625 4307.4228515625 608.02099609375 C 4305.712890625 606.3939819335938 4305.05078125 604.3829956054688 4305.69482421875 602.77099609375 C 4306.173828125 601.572021484375 4307.2890625 600.8569946289062 4308.6767578125 600.8569946289062 L 4309.783203125 600.8569946289062 C 4309.78076171875 600.7670288085938 4309.77392578125 600.677001953125 4309.77294921875 600.5880126953125 C 4309.76806640625 600.0360107421875 4309.73291015625 599.4639892578125 4310.0068359375 598.9630126953125 C 4310.4638671875 598.129150390625 4311.3857421875 597.9917602539062 4312.30029296875 597.9917602539062 Z M 4310.77587890625 607.2949829101562 C 4310.6259765625 606.8350219726562 4310.48779296875 606.3699951171875 4310.3759765625 605.8989868164062 C 4310.18212890625 605.0789794921875 4310.05712890625 604.2449951171875 4309.9599609375 603.406982421875 L 4308.6767578125 603.406982421875 C 4308.18701171875 603.406982421875 4308.09716796875 603.6329956054688 4308.06298828125 603.718017578125 C 4307.8681640625 604.2039794921875 4308.13623046875 605.1799926757812 4309.18115234375 606.1740112304688 C 4309.77099609375 606.7360229492188 4310.30810546875 607.0750122070312 4310.77587890625 607.2949829101562 Z M 4327.97705078125 607.2319946289062 C 4328.4150390625 607.010009765625 4328.9072265625 606.6859741210938 4329.44482421875 606.1749877929688 C 4330.490234375 605.1799926757812 4330.7568359375 604.2039794921875 4330.56201171875 603.718017578125 C 4330.52783203125 603.6329956054688 4330.43896484375 603.406982421875 4329.94921875 603.406982421875 L 4328.81689453125 603.406982421875 C 4328.6708984375 604.5770263671875 4328.43310546875 605.7349853515625 4328.10888671875 606.8350219726562 C 4328.06884765625 606.968994140625 4328.02001953125 607.0999755859375 4327.97705078125 607.2319946289062 Z"/>
    </g>
  </g>
</svg>
