<svg xmlns="http://www.w3.org/2000/svg" width="50.75" height="50.75" viewBox="0 0 50.75 50.75">
  <defs>
    <style>
      .cls-1, .cls-3 {
        fill: none;
        stroke-miterlimit: 10;
      }

      .cls-1 {
        stroke: #f1f1f1;
        stroke-width: 0.75px;
      }

      .cls-2 {
        fill: #7aff38;
      }

      .cls-3 {
        opacity: 0.156;
      }

      .cls-4, .cls-5 {
        stroke: none;
      }

      .cls-5 {
        fill: #000;
      }
    </style>
  </defs>
  <g id="组_1916" data-name="组 1916" transform="translate(-54.578 -457.841)">
    <rect id="矩形_3289" data-name="矩形 3289" class="cls-1" width="50" height="50" rx="16.667" transform="translate(54.953 508.216) rotate(-90)"/>
    <g id="组_1915" data-name="组 1915" transform="translate(-0.359 -0.89)">
      <g id="组_1759" data-name="组 1759" transform="translate(-4239)">
        <path id="路径_2280" data-name="路径 2280" class="cls-2" d="M4329.772,472.436h-20.918a5.708,5.708,0,0,0-5.691,5.691v11.957a5.708,5.708,0,0,0,5.691,5.691h20.918a5.708,5.708,0,0,0,5.691-5.691V478.127A5.708,5.708,0,0,0,4329.772,472.436Zm-11.87,18.558a7.029,7.029,0,0,1,.489-13.855.823.823,0,0,1,.922.819v5.328a.82.82,0,0,0,.82.819h5.327a.824.824,0,0,1,.819.923A7.035,7.035,0,0,1,4317.9,490.994Z"/>
      </g>
      <g id="路径_2293" data-name="路径 2293" class="cls-3" transform="translate(-4239)">
        <path class="cls-4" d="M4329.772,472.436h-20.918a5.708,5.708,0,0,0-5.691,5.691v11.957a5.708,5.708,0,0,0,5.691,5.691h20.918a5.708,5.708,0,0,0,5.691-5.691V478.127A5.708,5.708,0,0,0,4329.772,472.436Zm-11.87,18.558a7.029,7.029,0,0,1,.489-13.855.823.823,0,0,1,.922.819v5.328a.82.82,0,0,0,.82.819h5.327a.824.824,0,0,1,.819.923A7.035,7.035,0,0,1,4317.9,490.994Z"/>
        <path class="cls-5" d="M 4308.85400390625 473.9360046386719 C 4306.54296875 473.9360046386719 4304.6630859375 475.8160705566406 4304.6630859375 478.1270141601562 L 4304.6630859375 490.0840148925781 C 4304.6630859375 492.3949279785156 4306.54296875 494.2749938964844 4308.85400390625 494.2749938964844 L 4329.77197265625 494.2749938964844 C 4332.0830078125 494.2749938964844 4333.962890625 492.3949279785156 4333.962890625 490.0840148925781 L 4333.962890625 478.1270141601562 C 4333.962890625 475.8160705566406 4332.0830078125 473.9360046386719 4329.77197265625 473.9360046386719 L 4308.85400390625 473.9360046386719 M 4320.81298828125 482.6050109863281 L 4325.4599609375 482.6050109863281 C 4326.12939453125 482.6050109863281 4326.76708984375 482.8941040039062 4327.20947265625 483.3981323242188 C 4327.6494140625 483.8992004394531 4327.85205078125 484.5641479492188 4327.76611328125 485.2229614257812 C 4327.49951171875 487.257568359375 4326.501953125 489.1298522949219 4324.9580078125 490.4949340820312 C 4323.3994140625 491.8726501464844 4321.39453125 492.6314086914062 4319.31298828125 492.6314086914062 C 4318.74951171875 492.6314086914062 4318.1787109375 492.5758972167969 4317.61572265625 492.4664611816406 C 4314.2783203125 491.8181762695312 4311.60009765625 489.1391296386719 4310.951171875 485.8001098632812 C 4310.48974609375 483.4254150390625 4311.0009765625 481.0552673339844 4312.390625 479.1262817382812 C 4313.7626953125 477.2219848632812 4315.87841796875 475.95556640625 4318.19580078125 475.6517639160156 C 4318.29541015625 475.6387329101562 4318.396484375 475.6321105957031 4318.49609375 475.6321105957031 C 4319.77392578125 475.6321105957031 4320.81298828125 476.6755065917969 4320.81298828125 477.9580078125 L 4320.81298828125 482.6050109863281 M 4308.85400390625 472.4360046386719 L 4329.77197265625 472.4360046386719 C 4332.90185546875 472.4360046386719 4335.462890625 474.9970092773438 4335.462890625 478.1270141601562 L 4335.462890625 490.0840148925781 C 4335.462890625 493.2139892578125 4332.90185546875 495.7749938964844 4329.77197265625 495.7749938964844 L 4308.85400390625 495.7749938964844 C 4305.72412109375 495.7749938964844 4303.1630859375 493.2139892578125 4303.1630859375 490.0840148925781 L 4303.1630859375 478.1270141601562 C 4303.1630859375 474.9970092773438 4305.72412109375 472.4360046386719 4308.85400390625 472.4360046386719 Z M 4319.31298828125 491.1314086914062 C 4322.880859375 491.1314086914062 4325.82763671875 488.4716796875 4326.27880859375 485.0280151367188 C 4326.3427734375 484.5390014648438 4325.953125 484.1050109863281 4325.4599609375 484.1050109863281 L 4320.1328125 484.1050109863281 C 4319.68017578125 484.1050109863281 4319.31298828125 483.7380065917969 4319.31298828125 483.2860107421875 L 4319.31298828125 477.9580078125 C 4319.31298828125 477.500732421875 4318.939453125 477.1321105957031 4318.49609375 477.1321105957031 C 4318.46142578125 477.1321105957031 4318.42626953125 477.1343688964844 4318.39111328125 477.1390075683594 C 4314.5009765625 477.6489868164062 4311.61279296875 481.3399963378906 4312.423828125 485.5140075683594 C 4312.9560546875 488.2539978027344 4315.1630859375 490.4620056152344 4317.90185546875 490.9939880371094 C 4318.3798828125 491.0869750976562 4318.8515625 491.1314086914062 4319.31298828125 491.1314086914062 Z"/>
      </g>
    </g>
  </g>
</svg>
