<svg xmlns="http://www.w3.org/2000/svg" width="50.75" height="50.75" viewBox="0 0 50.75 50.75">
  <defs>
    <style>
      .cls-1, .cls-4 {
        fill: none;
        stroke-miterlimit: 10;
      }

      .cls-1 {
        stroke: #f1f1f1;
        stroke-width: 0.75px;
      }

      .cls-2 {
        fill: #38ff7a;
      }

      .cls-3 {
        opacity: 0.142;
      }

      .cls-5, .cls-6 {
        stroke: none;
      }

      .cls-6 {
        fill: #000;
      }
    </style>
  </defs>
  <g id="组_1918" data-name="组 1918" transform="translate(-54.578 -521.144)">
    <rect id="矩形_3284" data-name="矩形 3284" class="cls-1" width="50" height="50" rx="16.667" transform="translate(104.953 521.519) rotate(90)"/>
    <g id="组_1917" data-name="组 1917" transform="translate(0.641 -1.297)">
      <g id="组_1760" data-name="组 1760" transform="translate(-4240)">
        <path id="路径_2281" data-name="路径 2281" class="cls-2" d="M4316.9,545.28a6.138,6.138,0,1,0-6.137-6.138A6.145,6.145,0,0,0,4316.9,545.28Z"/>
        <path id="路径_2282" data-name="路径 2282" class="cls-2" d="M4327.9,554.567c-.159-.526-.629-.4-.9-.129l-.277.275a3.692,3.692,0,0,1-2.357,1.169c-.359.031-.719.043-1.078.055l-.456.017-2.058.1-2.483,2.1a3.091,3.091,0,0,1-2,.731,3.388,3.388,0,0,1-2.945-1.774,3.474,3.474,0,0,1,.871-4.315l1.515-1.283c.166-.142.333-.289.5-.436.4-.354.809-.707,1.233-1.031a4.008,4.008,0,0,1,2.5-.768s2.269-.128,2.633-.128.786-.624.12-1.062a11.385,11.385,0,0,0-4.956-1.549q-.434-.031-.862-.032a11.571,11.571,0,0,0-11.547,11.59,4.583,4.583,0,0,0,4.6,4.53h13.9a4.584,4.584,0,0,0,4.6-4.54c0-.271-.008-.545-.026-.822A11.989,11.989,0,0,0,4327.9,554.567Z"/>
        <path id="路径_2283" data-name="路径 2283" class="cls-2" d="M4332.085,543.23l-5.392.446a1.279,1.279,0,0,0,.034,2.549l2.212-.182-5.234,5.193-3.692.166a2.024,2.024,0,0,0-1.257.331c-.386.3-.754.619-1.121.94-.176.155-.353.309-.53.46l-1.515,1.284a1.351,1.351,0,0,0-.373,1.689,1.274,1.274,0,0,0,1.073.654.948.948,0,0,0,.623-.227l3.035-2.574,2.8-.128.464-.017c.323-.011.646-.022.966-.049a1.611,1.611,0,0,0,1.042-.561l5.672-5.628v1.994a1.192,1.192,0,1,0,2.379,0v-5.064A1.256,1.256,0,0,0,4332.085,543.23Z"/>
      </g>
      <g id="组_1764" data-name="组 1764" class="cls-3" transform="translate(-4240)">
        <g id="路径_2294" data-name="路径 2294" class="cls-4">
          <path class="cls-5" d="M4316.9,545.28a6.138,6.138,0,1,0-6.137-6.138A6.145,6.145,0,0,0,4316.9,545.28Z"/>
          <path class="cls-6" d="M 4316.89990234375 543.780029296875 C 4319.45751953125 543.780029296875 4321.5380859375 541.6994018554688 4321.5380859375 539.1420288085938 C 4321.5380859375 536.5846557617188 4319.45751953125 534.5040283203125 4316.89990234375 534.5040283203125 C 4314.34326171875 534.5040283203125 4312.26318359375 536.5846557617188 4312.26318359375 539.1420288085938 C 4312.26318359375 541.6994018554688 4314.34326171875 543.780029296875 4316.89990234375 543.780029296875 M 4316.89990234375 545.280029296875 C 4313.51611328125 545.280029296875 4310.76318359375 542.5260009765625 4310.76318359375 539.1420288085938 C 4310.76318359375 535.7579956054688 4313.51611328125 533.0040283203125 4316.89990234375 533.0040283203125 C 4320.28515625 533.0040283203125 4323.0380859375 535.7579956054688 4323.0380859375 539.1420288085938 C 4323.0380859375 542.5260009765625 4320.28515625 545.280029296875 4316.89990234375 545.280029296875 Z"/>
        </g>
        <g id="路径_2295" data-name="路径 2295" class="cls-4">
          <path class="cls-5" d="M4327.9,554.567c-.159-.526-.629-.4-.9-.129l-.277.275a3.692,3.692,0,0,1-2.357,1.169c-.359.031-.719.043-1.078.055l-.456.017-2.058.1-2.483,2.1a3.091,3.091,0,0,1-2,.731,3.388,3.388,0,0,1-2.945-1.774,3.474,3.474,0,0,1,.871-4.315l1.515-1.283c.166-.142.333-.289.5-.436.4-.354.809-.707,1.233-1.031a4.008,4.008,0,0,1,2.5-.768s2.269-.128,2.633-.128.786-.624.12-1.062a11.385,11.385,0,0,0-4.956-1.549q-.434-.031-.862-.032a11.571,11.571,0,0,0-11.547,11.59,4.583,4.583,0,0,0,4.6,4.53h13.9a4.584,4.584,0,0,0,4.6-4.54c0-.271-.008-.545-.026-.822A11.989,11.989,0,0,0,4327.9,554.567Z"/>
          <path class="cls-6" d="M 4316.89892578125 548.0070190429688 C 4311.35986328125 548.0070190429688 4306.853515625 552.5320434570312 4306.85205078125 558.09423828125 C 4306.859375 559.766845703125 4308.25 561.1270141601562 4309.953125 561.1270141601562 L 4323.84814453125 561.1270141601562 C 4325.55322265625 561.1270141601562 4326.94384765625 559.7615356445312 4326.9482421875 558.08154296875 C 4326.94921875 557.8531494140625 4326.94140625 557.6112670898438 4326.92529296875 557.3642578125 C 4326.90771484375 557.1029663085938 4326.87744140625 556.83642578125 4326.83349609375 556.5623779296875 C 4326.27587890625 556.9315795898438 4325.50146484375 557.2896118164062 4324.49072265625 557.37646484375 C 4324.0947265625 557.4107055664062 4323.7109375 557.4235229492188 4323.34033203125 557.4359741210938 L 4322.890625 557.4526977539062 L 4321.35009765625 557.5238037109375 L 4319.25732421875 559.2977905273438 C 4318.43115234375 559.9989013671875 4317.37744140625 560.385009765625 4316.2900390625 560.385009765625 C 4314.53466796875 560.385009765625 4312.85986328125 559.3783569335938 4312.02392578125 557.8212280273438 C 4310.908203125 555.7452392578125 4311.41015625 553.2083740234375 4313.24658203125 551.6513061523438 L 4314.7578125 550.3714599609375 C 4314.89013671875 550.2584228515625 4315.02294921875 550.14208984375 4315.15625 550.0252075195312 L 4315.24365234375 549.948486328125 C 4315.634765625 549.6061401367188 4316.078125 549.2181396484375 4316.5517578125 548.8560791015625 C 4317.05029296875 548.47314453125 4317.560546875 548.2279052734375 4318.03564453125 548.0701293945312 C 4317.908203125 548.0560302734375 4317.78076171875 548.0443115234375 4317.65283203125 548.0350341796875 C 4317.396484375 548.0164184570312 4317.142578125 548.0070190429688 4316.89892578125 548.0070190429688 M 4316.89892578125 546.5070190429688 C 4317.18505859375 546.5070190429688 4317.47216796875 546.5180053710938 4317.76123046875 546.5390014648438 C 4319.55712890625 546.6690063476562 4321.240234375 547.219970703125 4322.716796875 548.0880126953125 C 4323.3828125 548.5260009765625 4322.9609375 549.1500244140625 4322.59716796875 549.1500244140625 C 4322.23291015625 549.1500244140625 4319.9638671875 549.2780151367188 4319.9638671875 549.2780151367188 C 4319.4248046875 549.2899780273438 4318.419921875 549.31298828125 4317.46484375 550.0460205078125 C 4317.041015625 550.3699951171875 4316.63623046875 550.7230224609375 4316.23193359375 551.0770263671875 C 4316.06396484375 551.2239990234375 4315.89697265625 551.3709716796875 4315.73095703125 551.5130004882812 L 4314.2158203125 552.7960205078125 C 4312.92578125 553.8900146484375 4312.56787109375 555.6649780273438 4313.34521484375 557.1110229492188 C 4313.923828125 558.1890258789062 4315.080078125 558.885009765625 4316.2900390625 558.885009765625 C 4317.02197265625 558.885009765625 4317.73193359375 558.625 4318.287109375 558.1539916992188 L 4320.77001953125 556.0490112304688 L 4322.828125 555.9539794921875 L 4323.2841796875 555.93701171875 C 4323.64306640625 555.9249877929688 4324.0029296875 555.9130249023438 4324.36181640625 555.8820190429688 C 4325.65380859375 555.77099609375 4326.40087890625 555.0280151367188 4326.71923828125 554.7130126953125 L 4326.99609375 554.43798828125 C 4327.27099609375 554.1641845703125 4327.74169921875 554.04052734375 4327.90087890625 554.5670166015625 C 4328.1640625 555.4329833984375 4328.35986328125 556.3300170898438 4328.421875 557.2650146484375 C 4328.43994140625 557.5419921875 4328.44921875 557.8159790039062 4328.4482421875 558.0869750976562 C 4328.44189453125 560.5900268554688 4326.37890625 562.6270141601562 4323.84814453125 562.6270141601562 L 4309.953125 562.6270141601562 C 4307.42578125 562.6270141601562 4305.36083984375 560.594970703125 4305.35205078125 558.0969848632812 C 4305.35205078125 551.68798828125 4310.533203125 546.5070190429688 4316.89892578125 546.5070190429688 Z"/>
        </g>
        <g id="路径_2296" data-name="路径 2296" class="cls-4">
          <path class="cls-5" d="M4332.085,543.23l-5.392.446a1.279,1.279,0,0,0,.034,2.549l2.212-.182-5.234,5.193-3.692.166a2.024,2.024,0,0,0-1.257.331c-.386.3-.754.619-1.121.94-.176.155-.353.309-.53.46l-1.515,1.284a1.351,1.351,0,0,0-.373,1.689,1.274,1.274,0,0,0,1.073.654.948.948,0,0,0,.623-.227l3.035-2.574,2.8-.128.464-.017c.323-.011.646-.022.966-.049a1.611,1.611,0,0,0,1.042-.561l5.672-5.628v1.994a1.192,1.192,0,1,0,2.379,0v-5.064A1.256,1.256,0,0,0,4332.085,543.23Z"/>
          <path class="cls-6" d="M 4332.0849609375 543.22998046875 C 4332.80419921875 543.22998046875 4333.27294921875 543.9019775390625 4333.27294921875 544.5059814453125 L 4333.27294921875 549.5700073242188 C 4333.27294921875 550.2730102539062 4332.740234375 550.844970703125 4332.083984375 550.844970703125 C 4331.4267578125 550.844970703125 4330.89404296875 550.2730102539062 4330.89404296875 549.5700073242188 L 4330.89404296875 547.5759887695312 L 4325.22216796875 553.2039794921875 C 4325.0029296875 553.4219970703125 4324.703125 553.719970703125 4324.18017578125 553.7650146484375 C 4323.85986328125 553.7919921875 4323.537109375 553.802978515625 4323.2138671875 553.8140258789062 L 4322.75 553.8309936523438 L 4319.9482421875 553.958984375 L 4316.9130859375 556.5330200195312 C 4316.73779296875 556.6820068359375 4316.52294921875 556.760009765625 4316.2900390625 556.760009765625 C 4315.865234375 556.760009765625 4315.423828125 556.4910278320312 4315.216796875 556.1060180664062 C 4314.9140625 555.5419921875 4315.06396484375 554.8629760742188 4315.58984375 554.4169921875 L 4317.10498046875 553.1329956054688 C 4317.2822265625 552.9819946289062 4317.458984375 552.8280029296875 4317.634765625 552.6729736328125 C 4318.001953125 552.3519897460938 4318.3701171875 552.0289916992188 4318.755859375 551.7329711914062 C 4319.1630859375 551.4219970703125 4319.6337890625 551.4110107421875 4320.01318359375 551.4019775390625 L 4323.705078125 551.2360229492188 L 4328.93896484375 546.0430297851562 L 4326.72705078125 546.2249755859375 C 4326.7265625 546.2249755859375 4326.72607421875 546.2249755859375 4326.72509765625 546.2249755859375 C 4326.00439453125 546.2249755859375 4325.56298828125 545.571533203125 4325.5390625 544.9660034179688 C 4325.51123046875 544.2979736328125 4326.01806640625 543.7310180664062 4326.69287109375 543.676025390625 L 4332.0849609375 543.22998046875 Z"/>
        </g>
      </g>
    </g>
  </g>
</svg>
