<svg xmlns="http://www.w3.org/2000/svg" width="50.75" height="50.75" viewBox="0 0 50.75 50.75">
  <defs>
    <style>
      .cls-1, .cls-3 {
        fill: none;
        stroke-miterlimit: 10;
      }

      .cls-1 {
        stroke: #f1f1f1;
        stroke-width: 0.75px;
      }

      .cls-2 {
        fill: #ffa578;
      }

      .cls-3 {
        opacity: 0.142;
      }

      .cls-4, .cls-5 {
        stroke: none;
      }

      .cls-5 {
        fill: #000;
      }
    </style>
  </defs>
  <g id="组_1913" data-name="组 1913" transform="translate(-54.578 -331.233)">
    <rect id="矩形_3288" data-name="矩形 3288" class="cls-1" width="50" height="50" rx="16.667" transform="translate(104.953 331.608) rotate(90)"/>
    <g id="组_1758" data-name="组 1758" transform="translate(-4239.359)">
      <path id="路径_2279" data-name="路径 2279" class="cls-2" d="M4314.032,353.809l-6.581,10.767-.023.05a5.041,5.041,0,0,0,4.6,7.1H4326.6a5.041,5.041,0,0,0,4.6-7.1l-.022-.05-6.582-10.766a1.466,1.466,0,0,1-.214-.761v-5.673h.186c1.9,0,2.118-1.156,2.118-2.946,0-1.64-.272-2.786-2.118-2.786h-10.449c-1.463,0-2.134.872-2.134,2.786,0,1.935.6,2.946,2.079,2.946h.185v5.673A1.458,1.458,0,0,1,4314.032,353.809Zm7.619.038a1.818,1.818,0,1,1-1.817,1.818A1.818,1.818,0,0,1,4321.651,353.847Zm-3.792,6.06a2.591,2.591,0,1,1-2.591,2.592A2.591,2.591,0,0,1,4317.859,359.907Z"/>
    </g>
    <g id="路径_2292" data-name="路径 2292" class="cls-3" transform="translate(-4239.359)">
      <path class="cls-4" d="M4314.032,353.809l-6.581,10.767-.023.05a5.041,5.041,0,0,0,4.6,7.1H4326.6a5.041,5.041,0,0,0,4.6-7.1l-.022-.05-6.582-10.766a1.466,1.466,0,0,1-.214-.761v-5.673h.186c1.9,0,2.118-1.156,2.118-2.946,0-1.64-.272-2.786-2.118-2.786h-10.449c-1.463,0-2.134.872-2.134,2.786,0,1.935.6,2.946,2.079,2.946h.185v5.673A1.458,1.458,0,0,1,4314.032,353.809Zm7.619.038a1.818,1.818,0,1,1-1.817,1.818A1.818,1.818,0,0,1,4321.651,353.847Zm-3.792,6.06a2.591,2.591,0,1,1-2.591,2.592A2.591,2.591,0,0,1,4317.859,359.907Z"/>
      <path class="cls-5" d="M 4314.1162109375 343.1440124511719 C 4314.056640625 343.1440124511719 4313.7548828125 343.1482543945312 4313.6904296875 343.2320556640625 C 4313.65576171875 343.2774963378906 4313.48193359375 343.5487976074219 4313.48193359375 344.4299926757812 C 4313.48193359375 345.3794250488281 4313.6552734375 345.7095031738281 4313.70849609375 345.7880554199219 C 4313.72802734375 345.8166198730469 4313.76806640625 345.8760070800781 4314.06103515625 345.8760070800781 L 4315.74609375 345.8760070800781 L 4315.74609375 353.0490112304688 C 4315.74609375 353.5923767089844 4315.59619140625 354.1252136230469 4315.31201171875 354.5912780761719 L 4308.7802734375 365.2779846191406 C 4308.30810546875 366.3682861328125 4308.4111328125 367.6109008789062 4309.05859375 368.6102905273438 C 4309.7138671875 369.6213684082031 4310.82421875 370.2250061035156 4312.02880859375 370.2250061035156 L 4326.59619140625 370.2250061035156 C 4327.8017578125 370.2250061035156 4328.912109375 369.6211547851562 4329.5673828125 368.6091918945312 C 4330.2158203125 367.6084899902344 4330.31787109375 366.3639526367188 4329.8427734375 365.2726745605469 L 4324.72802734375 356.9068298339844 C 4324.2353515625 358.1224365234375 4323.04150390625 358.9819946289062 4321.65087890625 358.9819946289062 C 4319.82177734375 358.9819946289062 4318.333984375 357.4939880371094 4318.333984375 355.6650085449219 C 4318.333984375 353.83544921875 4319.82177734375 352.3469848632812 4321.65087890625 352.3469848632812 C 4322.08447265625 352.3469848632812 4322.4990234375 352.4306030273438 4322.87890625 352.5824584960938 L 4322.87890625 345.8760070800781 L 4324.56494140625 345.8760070800781 C 4324.861328125 345.8760070800781 4324.998046875 345.8353881835938 4325.04345703125 345.8176574707031 C 4325.1005859375 345.7115783691406 4325.18310546875 345.3916931152344 4325.18310546875 344.4299926757812 C 4325.18310546875 343.523193359375 4325.0751953125 343.267578125 4325.03857421875 343.2073669433594 C 4325.00341796875 343.1917724609375 4324.87109375 343.1440124511719 4324.56494140625 343.1440124511719 L 4314.1162109375 343.1440124511719 M 4317.85888671875 366.5899963378906 C 4315.60302734375 366.5899963378906 4313.76806640625 364.7547912597656 4313.76806640625 362.4989929199219 C 4313.76806640625 360.2426452636719 4315.60302734375 358.4070129394531 4317.85888671875 358.4070129394531 C 4320.11474609375 358.4070129394531 4321.9501953125 360.2426452636719 4321.9501953125 362.4989929199219 C 4321.9501953125 364.7547912597656 4320.11474609375 366.5899963378906 4317.85888671875 366.5899963378906 M 4314.1162109375 341.6440124511719 L 4324.56494140625 341.6440124511719 C 4326.4111328125 341.6440124511719 4326.68310546875 342.7900085449219 4326.68310546875 344.4299926757812 C 4326.68310546875 346.2200012207031 4326.46923828125 347.3760070800781 4324.56494140625 347.3760070800781 L 4324.37890625 347.3760070800781 L 4324.37890625 353.0490112304688 C 4324.37890625 353.3169860839844 4324.453125 353.5799865722656 4324.5927734375 353.8099975585938 L 4331.1748046875 364.5759887695312 L 4331.19677734375 364.6260070800781 C 4331.89794921875 366.1919860839844 4331.7587890625 367.9859924316406 4330.826171875 369.4249877929688 C 4329.89306640625 370.8659973144531 4328.31201171875 371.7250061035156 4326.59619140625 371.7250061035156 L 4312.02880859375 371.7250061035156 C 4310.31396484375 371.7250061035156 4308.73291015625 370.8659973144531 4307.7998046875 369.4259948730469 C 4306.8671875 367.9859924316406 4306.72802734375 366.1919860839844 4307.42822265625 364.6260070800781 L 4307.451171875 364.5759887695312 L 4314.0322265625 353.8089904785156 C 4314.171875 353.5799865722656 4314.24609375 353.3179931640625 4314.24609375 353.0490112304688 L 4314.24609375 347.3760070800781 L 4314.06103515625 347.3760070800781 C 4312.580078125 347.3760070800781 4311.98193359375 346.364990234375 4311.98193359375 344.4299926757812 C 4311.98193359375 342.5159912109375 4312.65283203125 341.6440124511719 4314.1162109375 341.6440124511719 Z M 4321.65087890625 357.4819946289062 C 4322.65478515625 357.4819946289062 4323.46923828125 356.6679992675781 4323.46923828125 355.6650085449219 C 4323.46923828125 354.6610107421875 4322.65478515625 353.8469848632812 4321.65087890625 353.8469848632812 C 4320.64794921875 353.8469848632812 4319.833984375 354.6610107421875 4319.833984375 355.6650085449219 C 4319.833984375 356.6679992675781 4320.64794921875 357.4819946289062 4321.65087890625 357.4819946289062 Z M 4317.85888671875 365.0899963378906 C 4319.2900390625 365.0899963378906 4320.4501953125 363.9299926757812 4320.4501953125 362.4989929199219 C 4320.4501953125 361.0669860839844 4319.2900390625 359.9070129394531 4317.85888671875 359.9070129394531 C 4316.42822265625 359.9070129394531 4315.26806640625 361.0669860839844 4315.26806640625 362.4989929199219 C 4315.26806640625 363.9299926757812 4316.42822265625 365.0899963378906 4317.85888671875 365.0899963378906 Z"/>
    </g>
  </g>
</svg>
