<?xml version="1.0" encoding="UTF-8"?>
<svg id="_图层_2" data-name="图层 2" xmlns="http://www.w3.org/2000/svg" viewBox="0 0 200 200">
  <defs>
    <style>
      .cls-1 {
        fill: #fff;
      }

      .cls-2 {
        fill: #ffa849;
      }
    </style>
  </defs>
  <g id="_图层_1-2" data-name="图层 1">
    <g>
      <rect class="cls-2" width="200" height="200" rx="52.41" ry="52.41"/>
      <g>
        <path class="cls-1" d="M64.18,131.05c-.4-.14-4.3-1.73-4.3-5.83v-9.78h5.7v-6.04h-5.7v-6.98h-6.16v22.8c0,8.56,7.75,11.23,8.08,11.34l2.38-5.51Z"/>
        <path class="cls-1" d="M151.81,93.12c-.4-.14-4.3-1.73-4.3-5.83v-9.78h5.7v-6.04h-5.7v-6.98h-6.16v22.8c0,8.56,7.75,11.23,8.08,11.34l2.38-5.51Z"/>
        <path class="cls-1" d="M162.48,108.38c-7.61,0-13.79,6.19-13.79,13.79s6.19,13.79,13.79,13.79,13.79-6.19,13.79-13.79-6.19-13.79-13.79-13.79ZM162.48,129.62c-4.1,0-7.44-3.34-7.44-7.44s3.34-7.44,7.44-7.44,7.44,3.34,7.44,7.44c0,4.1-3.34,7.44-7.44,7.44Z"/>
        <path class="cls-1" d="M40.6,119.72c-1.88-.5-3.43-1.07-4.53-1.5-1.65-.58-2.46-2.27-1.28-3.53,2.17-1.87,6.31-1.29,8.25,1.63l4.28-3.39c-3.04-4.03-6.59-5.3-10.98-4.8-8.88,1.01-10.89,12.44-2.44,15.37,2.57.89,5.11,1.08,6.99,2.6,1.73,1.8.3,4.33-2.16,4.47-3,.36-5.25-1.34-7.04-3.73l-4.05,3.68c3.92,6.71,16.1,7.8,19.74.68,2.48-5.81-1.24-10.01-6.77-11.49Z"/>
        <path class="cls-1" d="M88.49,124.2c0,1.54-.57,2.84-1.74,3.99-1.19,1.13-2.46,1.66-4,1.66s-2.87-.54-4.03-1.64c-1.17-1.15-1.72-2.43-1.72-4.01v-15.23h-6.33v14.86c0,3.43,1.15,6.34,3.41,8.66,2.31,2.32,5.22,3.49,8.66,3.49s6.36-1.18,8.62-3.49c2.29-2.3,3.45-5.21,3.45-8.66v-14.86h-6.33v15.23Z"/>
        <rect class="cls-1" x="136.1" y="113.74" width="6.25" height="21.67"/>
        <path class="cls-1" d="M139.23,101.49c-2.1,0-3.82,1.68-3.82,3.74s1.71,3.74,3.82,3.74,3.82-1.68,3.82-3.74-1.71-3.74-3.82-3.74Z"/>
        <path class="cls-1" d="M127.72,102.42h-6.24s-.09,0-.09,0v8.28c-2.15-1.38-4.7-2.19-7.44-2.19-.35,0-.69.02-1.04.04-2.17.14-4.17.76-5.97,1.87-4.06,2.4-6.79,6.83-6.79,11.88,0,.56.04,1.12.1,1.66.33,3.02,1.58,5.68,3.76,7.93,2.14,2.21,4.7,3.55,7.63,4,.75.13,1.52.2,2.3.2.54,0,1.07-.04,1.59-.11,2.11-.23,4.06-.93,5.86-2.11v1.66h6.35v-33.12h-.01ZM113.94,129.74c-4.1,0-7.44-3.34-7.44-7.44s3.34-7.44,7.44-7.44,7.44,3.34,7.44,7.44-3.34,7.44-7.44,7.44Z"/>
        <path class="cls-1" d="M72.67,97.7c2.89,0,5.39-1.04,7.44-2.6v2.04h6.35v-13.24c0-7.61-6.19-13.79-13.79-13.79s-13.79,6.19-13.79,13.79,6.19,13.79,13.79,13.79ZM72.67,76.47c4.1,0,7.44,3.34,7.44,7.44s-3.34,7.44-7.44,7.44-7.44-3.34-7.44-7.44,3.34-7.44,7.44-7.44Z"/>
        <path class="cls-1" d="M135.04,97.15v-13.24c0-7.61-6.19-13.79-13.79-13.79s-13.79,6.19-13.79,13.79,6.19,13.79,13.79,13.79c2.89,0,5.39-1.04,7.44-2.6v2.04h6.35ZM121.25,91.35c-4.1,0-7.44-3.34-7.44-7.44s3.34-7.44,7.44-7.44,7.44,3.34,7.44,7.44-3.34,7.44-7.44,7.44Z"/>
        <path class="cls-1" d="M169.83,70.12c-7.61,0-13.79,6.19-13.79,13.79s6.19,13.79,13.79,13.79c2.89,0,5.39-1.04,7.44-2.6v2.04h6.35v-13.24c0-7.61-6.19-13.79-13.79-13.79ZM169.83,91.35c-4.1,0-7.44-3.34-7.44-7.44s3.34-7.44,7.44-7.44,7.44,3.34,7.44,7.44-3.34,7.44-7.44,7.44Z"/>
        <path class="cls-1" d="M53.69,97.08v-15.51c0-3.32-1.01-6.04-3.01-8.11-1.89-1.96-4.35-3.07-7.3-3.3h0c-3.24-.27-6,.79-8.23,3.15l-.16.17-.16-.17c-2.22-2.36-4.99-3.42-8.22-3.15-2.98.24-5.42,1.34-7.26,3.3-1.97,2.04-2.98,4.77-2.98,8.11v15.51h6.41v-15.88c0-1.51.38-2.68,1.2-3.68.76-.93,1.69-1.36,2.92-1.36,1.35,0,2.49.43,3.48,1.31.94.81,1.38,1.77,1.38,3.03v16.58h6.45v-16.58c0-1.24.44-2.23,1.34-3.03,1.03-.88,2.18-1.31,3.52-1.31,1.24,0,2.21.44,2.96,1.36.82,1,1.24,2.24,1.24,3.68v15.88h6.41Z"/>
        <path class="cls-1" d="M102.8,93.12c-.4-.14-4.3-1.73-4.3-5.83v-9.78h5.7v-6.04h-5.7v-6.98h-6.16v22.8c0,8.56,7.75,11.23,8.08,11.34l2.38-5.51Z"/>
      </g>
    </g>
  </g>
</svg>