<svg xmlns="http://www.w3.org/2000/svg" width="600" height="372" viewBox="0 0 600 372">
  <defs>
    <style>
      .cls-1 {
        fill: #8f8fff;
      }

      .cls-2 {
        fill: #30e266;
      }

      .cls-3 {
        fill: #fff;
      }

      .cls-4 {
        fill: #c0855a;
      }

      .cls-5 {
        fill: #eed66f;
      }

      .cls-6 {
        fill: #e9c547;
      }

      .cls-7 {
        fill: #bc794b;
      }

      .cls-8 {
        fill: #fce391;
      }

      .cls-9 {
        fill: #cd9775;
      }

      .cls-10 {
        fill: #ff642e;
      }

      .cls-11 {
        fill: #ef5e25;
      }

      .cls-12 {
        fill: #4fb96f;
      }

      .cls-13 {
        fill: #a46a43;
      }

      .cls-14 {
        fill: #24ad5f;
      }
    </style>
  </defs>
  <g id="组_46032" data-name="组 46032" transform="translate(-1416.487 3337.383)">
    <rect id="矩形_6239" data-name="矩形 6239" class="cls-1" width="600" height="372" transform="translate(1416.487 -3337.383)"/>
    <path id="路径_38606" data-name="路径 38606" class="cls-2" d="M2274.812,324.121H2164.835a9.743,9.743,0,0,1-9.743-9.742V283.187a9.743,9.743,0,0,1,9.743-9.743h109.977a9.742,9.742,0,0,1,9.742,9.743v31.192a9.742,9.742,0,0,1-9.742,9.742" transform="translate(-651.653 -3342)"/>
    <path id="路径_38607" data-name="路径 38607" class="cls-3" d="M2200.466,308.727h-4.418l-1.884-4.321h-10.005l-1.884,4.321h-4.418l11.24-24.3h.13Zm-14.91-7.667h7.212l-3.607-8.284Z" transform="translate(-651.653 -3342)"/>
    <path id="路径_38608" data-name="路径 38608" class="cls-3" d="M2219.245,300.539c0,4.906-3.02,8.512-7.438,8.512a6.085,6.085,0,0,1-4.841-1.95v9.1h-3.9V292.353h3.508l.162,1.917a6.066,6.066,0,0,1,5.069-2.242c4.418,0,7.438,3.573,7.438,8.511m-12.279-2.631v5.263a4.458,4.458,0,0,0,4,2.436c2.533,0,4.353-1.981,4.353-5.068s-1.82-5.068-4.353-5.068a4.458,4.458,0,0,0-4,2.437" transform="translate(-651.653 -3342)"/>
    <path id="路径_38609" data-name="路径 38609" class="cls-3" d="M2238.738,300.539c0,4.906-3.02,8.512-7.438,8.512a6.085,6.085,0,0,1-4.841-1.95v9.1h-3.9V292.353h3.508l.162,1.917a6.067,6.067,0,0,1,5.069-2.242c4.418,0,7.438,3.573,7.438,8.511m-12.279-2.631v5.263a4.458,4.458,0,0,0,4,2.436c2.533,0,4.353-1.981,4.353-5.068s-1.82-5.068-4.353-5.068a4.459,4.459,0,0,0-4,2.437" transform="translate(-651.653 -3342)"/>
    <rect id="矩形_6240" data-name="矩形 6240" class="cls-3" width="3.898" height="24.689" transform="translate(1590.401 -3057.963)"/>
    <path id="路径_38610" data-name="路径 38610" class="cls-3" d="M2264.762,300.377v1.365H2253.2c.1,2.6,1.656,4.028,4.385,4.028a4.875,4.875,0,0,0,4.06-1.884l2.7,2.209a8.218,8.218,0,0,1-6.789,2.956c-5.069,0-8.317-3.573-8.317-8.478,0-4.938,3.314-8.544,8.024-8.544,5.035,0,7.5,3.768,7.5,8.348m-11.564-1.429h7.73c-.1-2.242-1.4-3.8-3.735-3.8a3.809,3.809,0,0,0-4,3.8" transform="translate(-651.653 -3342)"/>
    <path id="路径_38611" data-name="路径 38611" class="cls-2" d="M2156.534,311.317l-7.984,9.707a1.9,1.9,0,0,0,1.463,3.1h22.732" transform="translate(-651.653 -3342)"/>
    <path id="路径_38612" data-name="路径 38612" class="cls-2" d="M2434.965,107.789h132.272a10.608,10.608,0,0,0,10.609-10.608V67.72a10.609,10.609,0,0,0-10.609-10.608H2434.965a10.608,10.608,0,0,0-10.608,10.608V97.181a10.608,10.608,0,0,0,10.608,10.608" transform="translate(-651.653 -3342)"/>
    <path id="路径_38613" data-name="路径 38613" class="cls-3" d="M2460.009,74.118a5.1,5.1,0,0,1-2.474,4.575c2.442.741,4.328,2.35,4.328,5.6,0,4.142-3.215,6.492-7.481,6.492h-9.893V68.058h8.378c4.575,0,7.142,2.319,7.142,6.06m-11.686-2.535v6h4.266c2.195,0,3.524-1.236,3.524-3,0-1.886-1.3-3-3.74-3Zm0,9.243v6.43h5.6c2.472,0,4.05-1.113,4.05-3.215,0-2.071-1.485-3.215-4.3-3.215Z" transform="translate(-651.653 -3342)"/>
    <path id="路径_38614" data-name="路径 38614" class="cls-3" d="M2475.924,77.023l.185-1.824h3.339V90.78h-3.339l-.185-1.823a5.709,5.709,0,0,1-4.791,2.133c-4.235,0-7.11-3.432-7.11-8.1,0-4.7,2.875-8.1,7.11-8.1a5.706,5.706,0,0,1,4.791,2.133m-8.13,5.967c0,2.937,1.73,4.822,4.143,4.822a4.276,4.276,0,0,0,3.8-2.318V80.486a4.275,4.275,0,0,0-3.8-2.319c-2.413,0-4.143,1.886-4.143,4.823" transform="translate(-651.653 -3342)"/>
    <path id="路径_38615" data-name="路径 38615" class="cls-3" d="M2498.055,81.661V90.78h-3.74v-8.9c0-2.071-1.206-3.493-3.123-3.493a4.223,4.223,0,0,0-3.525,2.195v10.2h-3.709V75.2h3.339l.154,1.794a5.806,5.806,0,0,1,4.7-2.1c3.8,0,5.9,2.69,5.9,6.771" transform="translate(-651.653 -3342)"/>
    <path id="路径_38616" data-name="路径 38616" class="cls-3" d="M2512.673,77.023l.185-1.824h3.339V90.78h-3.339l-.185-1.823a5.711,5.711,0,0,1-4.792,2.133c-4.235,0-7.11-3.432-7.11-8.1,0-4.7,2.875-8.1,7.11-8.1a5.708,5.708,0,0,1,4.792,2.133m-8.131,5.967c0,2.937,1.731,4.822,4.143,4.822a4.277,4.277,0,0,0,3.8-2.318V80.486a4.276,4.276,0,0,0-3.8-2.319c-2.412,0-4.143,1.886-4.143,4.823" transform="translate(-651.653 -3342)"/>
    <path id="路径_38617" data-name="路径 38617" class="cls-3" d="M2534.8,81.661V90.78h-3.74v-8.9c0-2.071-1.206-3.493-3.123-3.493a4.223,4.223,0,0,0-3.525,2.195v10.2h-3.709V75.2h3.339l.154,1.794a5.806,5.806,0,0,1,4.7-2.1c3.8,0,5.9,2.69,5.9,6.771" transform="translate(-651.653 -3342)"/>
    <path id="路径_38618" data-name="路径 38618" class="cls-3" d="M2549.421,77.023l.185-1.824h3.339V90.78h-3.339l-.185-1.823a5.708,5.708,0,0,1-4.791,2.133c-4.235,0-7.11-3.432-7.11-8.1,0-4.7,2.875-8.1,7.11-8.1a5.706,5.706,0,0,1,4.791,2.133m-8.13,5.967c0,2.937,1.73,4.822,4.143,4.822a4.276,4.276,0,0,0,3.8-2.318V80.486a4.275,4.275,0,0,0-3.8-2.319c-2.413,0-4.143,1.886-4.143,4.823" transform="translate(-651.653 -3342)"/>
    <path id="路径_38619" data-name="路径 38619" class="cls-2" d="M2576.4,94.985l7.984,9.707a1.9,1.9,0,0,1-1.463,3.1h-22.732" transform="translate(-651.653 -3342)"/>
    <path id="路径_38620" data-name="路径 38620" class="cls-4" d="M2392.827,199.83c-.624-.5-.367-1.514-1.13-1.932v-5.755c1.021-1.953,1.663-4.08,3.084-5.852,3.655-4.561,8.3-5.981,13.806-4.072,1.46,1.579.658,3.425.464,5.112-.618,5.365-2.476,10.1-7.926,12.3-2.656,1.073-5.5,1.615-8.3.2" transform="translate(-651.653 -3342)"/>
    <path id="路径_38621" data-name="路径 38621" class="cls-5" d="M2392.827,199.83a19.278,19.278,0,0,0,6.805-.188,10.8,10.8,0,0,0,7.433-6.626,20.208,20.208,0,0,0,1.521-10.8c4.376,1.549,8.132,4.258,12.124,6.516,8.862,5.013,17.85,9.645,28.08,11.267a91.827,91.827,0,0,0,23.607.687,121.88,121.88,0,0,0,67.1-29.827,80.982,80.982,0,0,0,7.552-7.848,1.221,1.221,0,0,1,1.6-.164c.754.991.46,2.114.4,3.206a70.335,70.335,0,0,1-8.239,23.563,129,129,0,0,1-14.935,21.535,185.945,185.945,0,0,1-43.826,37.706,119.766,119.766,0,0,1-30.759,14.024,66.045,66.045,0,0,1-13.962,2.261c-1.644.1-3.273.537-4.937.243a150.762,150.762,0,0,1-18.237-10.115,10.8,10.8,0,0,1-4.739-6.743,1.709,1.709,0,0,1,1.647-.07c5.7,1.531,9.507-1.935,11.254-6.155,1.311-3.166,2.1-6.441.851-9.859a.983.983,0,0,1,.018-.744c.86-.375,1.728.739,2.587-.015,1.264-.381,2.355.353,3.508.6a73.8,73.8,0,0,0,23.991.908c18.7-2.105,35.652-8.864,51.211-19.188a117.908,117.908,0,0,0,36.365-37.576,110.134,110.134,0,0,0,5.755-11.089c-3.017,3.889-6.454,7.834-10.009,11.652a155.869,155.869,0,0,1-34.228,28.167,127.771,127.771,0,0,1-50.934,17.468,129.391,129.391,0,0,1-17.183,1.049c-7.339-.117-14.677-.511-21.842-2.365a148.141,148.141,0,0,1-16.926-17.363c-1.056-1.259-2.346-2.376-2.654-4.12" transform="translate(-651.653 -3342)"/>
    <path id="路径_38622" data-name="路径 38622" class="cls-6" d="M2579.718,160.019c.917,3.962,1.865,7.917,2.744,11.887a148.518,148.518,0,0,1,3.486,28.2,104.214,104.214,0,0,1-5.527,37.957,82.377,82.377,0,0,1-17.022,28.587c-13.3,14.5-29.974,23.076-48.781,27.9a143.458,143.458,0,0,1-26.777,3.952,172.288,172.288,0,0,1-37.531-2.08,10.611,10.611,0,0,1-8.232-6.467,1.712,1.712,0,0,1,1.185-.544,37.338,37.338,0,0,0,7.914-1.973c6.619.444,13.235,1.062,19.879.853,17.241-.541,34.084-3.173,50.01-10.137,19.463-8.51,34.619-21.764,44.127-40.981a93.392,93.392,0,0,0,8.7-30.636,126.53,126.53,0,0,0,.6-20.083,138.116,138.116,0,0,0-3.157-23.323c-.177-.833-.717-1.49-.91-2.3.068-.109.133-.274.229-.289,3-.479,5.994-1.225,9.066-.521" transform="translate(-651.653 -3342)"/>
    <path id="路径_38623" data-name="路径 38623" class="cls-6" d="M2432.393,265.388a9.96,9.96,0,0,1,4.065-.662,75.458,75.458,0,0,0,25.812-6.183c13.2-5.52,25.1-13.165,36.364-21.908a182.951,182.951,0,0,0,21.392-19.6c9.263-9.9,17.308-20.7,23.068-33.056a56.48,56.48,0,0,0,5.178-16.892,2.116,2.116,0,0,1,.348-.646c.89,1.052.394,2.312.528,3.476a111.67,111.67,0,0,1-13.739,44.144,118.7,118.7,0,0,1-24.106,30.819c-14.5,13.26-31.1,22.532-50.772,25.593-1.083.169-1.562.554-1.619,1.674-.032.621.388,1.781-1.041,1.576a2.649,2.649,0,0,1-.164-.343c-.347-.821.261-2.129-.443-2.461-.725-.342-1.845-.009-2.785.074a30.783,30.783,0,0,0-5.061.894c-.654.171-1.324.542-2,.051-3.633-1.518-7.273-3.014-10.893-4.563-1.4-.6-2.755-1.32-4.13-1.985" transform="translate(-651.653 -3342)"/>
    <path id="路径_38624" data-name="路径 38624" class="cls-6" d="M2412.407,221.313c1.8-.846,3.445.252,5.113.536a64.084,64.084,0,0,0,9.266.98c3.566.083,7.11.543,10.691.4,16.859-.652,33.177-3.7,48.761-10.4a142.171,142.171,0,0,0,28.059-16.241,163.6,163.6,0,0,0,22.312-20.317c3.688-3.94,7.078-8.159,10.727-12.181a44.634,44.634,0,0,1-4.336,9.616,102.858,102.858,0,0,1-11.392,16.7,138.857,138.857,0,0,1-13.673,13.9,118.186,118.186,0,0,1-20.466,14.63,127.508,127.508,0,0,1-17.943,8.475,103.21,103.21,0,0,1-23.778,6.031c-5.711.723-11.462,1.3-17.3.632-4.307-.495-8.575-.9-12.673-2.382a97.557,97.557,0,0,1-13.366-10.374" transform="translate(-651.653 -3342)"/>
    <path id="路径_38625" data-name="路径 38625" class="cls-4" d="M2548.6,162.934l-1.547.079c-.51,0-1.02-.019-1.53,0-4.75.173-7.48-2.829-6.807-7.546q1.306-9.165,2.675-18.323c.67-4.525,3.7-6.729,8.212-6.1,5.986.841,11.979,1.624,17.968,2.444a2.918,2.918,0,0,1,.692.288c.642.873,1.61,1.433,2.2,2.362a8.277,8.277,0,0,1,1.444,5.81c-.529,3.6-1.169,7.2-1.518,10.82-.457,4.733-2.632,7.9-7.324,9.162-1.955.819-4.046.371-6.067.626a44.422,44.422,0,0,1-7.434.576,6.249,6.249,0,0,1-.966-.2" transform="translate(-651.653 -3342)"/>
    <path id="路径_38626" data-name="路径 38626" class="cls-7" d="M2563.21,161.426c1.124-.826,2.552-.948,3.7-1.874,2.611-2.1,2.629-5.122,3.136-7.944.549-3.053.689-6.181,1.261-9.229.629-3.351-.71-5.783-3.062-7.9-.263-.237-1.036-.492.017-.7,4.906.677,9.831,1.244,14.712,2.068,3.557.6,5.639,4.012,5.109,7.984q-.7,5.287-1.55,10.555c-.5,3.132-2.832,5.017-6.815,5.632-2.362.22-4.724.436-7.084.663-.732.07-1.519-.186-2.175.352-.942.877-2.115.487-3.2.588a5.612,5.612,0,0,0-2.22.2,1.868,1.868,0,0,1-1.831-.392" transform="translate(-651.653 -3342)"/>
    <path id="路径_38627" data-name="路径 38627" class="cls-4" d="M2447.415,271.935a31.711,31.711,0,0,1,9.271-1.594c1.251-.026,1.532.3,1.421,1.414a17.744,17.744,0,0,0,.028,2.084,1.828,1.828,0,0,1,.4,1.6c-.491,4.252-1.719,8.177-5.015,11.178a3.094,3.094,0,0,1-2.313,1.117,21.369,21.369,0,0,1-9.127,2.216c-3.494-6.031-1.188-15.545,5.337-18.018" transform="translate(-651.653 -3342)"/>
    <path id="路径_38628" data-name="路径 38628" class="cls-4" d="M2423.186,231.7c2.015,3.148,1,6.366.116,9.525a12.222,12.222,0,0,1-3.563,5.747c-3.08,2.82-6.614,2.82-10.324,1.556a14.325,14.325,0,0,1,4.852-15.015c2.691-1.993,5.764-2.1,8.919-1.813" transform="translate(-651.653 -3342)"/>
    <path id="路径_38629" data-name="路径 38629" class="cls-8" d="M2548.6,162.934l.408-.241c1.091,2.31.617,4.7.317,7.066a.6.6,0,0,1-.7.508q0-1.914-.008-3.829Z" transform="translate(-651.653 -3342)"/>
    <path id="路径_38630" data-name="路径 38630" class="cls-5" d="M2548.628,170.267c.859-2.489.141-5.056.379-7.575l14.2-1.266,1.919-.033c.607-.333,1.336.1,1.931-.31l3.4-.049c.739-.006,1.057.272,1.221,1.092a191.638,191.638,0,0,1,3.1,21.077,130.163,130.163,0,0,1,.265,14.533,98.213,98.213,0,0,1-6.8,33.848,82.4,82.4,0,0,1-21.708,31.078,85.858,85.858,0,0,1-16.823,11.852,110.987,110.987,0,0,1-26.872,10.291,129.117,129.117,0,0,1-17.059,2.937,142.389,142.389,0,0,1-21.723,1.014c-4.283-.209-8.623-.047-12.855-1.019,5.141-3.221,6.611-8.272,6.931-13.9a1.7,1.7,0,0,0,.22-.309c.457-1.091-.6-2.648.643-3.341.93-.516,2.225-.365,3.354-.532a79.633,79.633,0,0,0,18.625-5.529,97.275,97.275,0,0,0,23.7-14.206,113.59,113.59,0,0,0,17-16.735,139.647,139.647,0,0,0,10.662-14.88,115.617,115.617,0,0,0,13.972-33.776,97.9,97.9,0,0,0,2.311-14.265" transform="translate(-651.653 -3342)"/>
    <path id="路径_38631" data-name="路径 38631" class="cls-9" d="M2567.06,161.083c-.574.536-1.269.324-1.931.311.572-.55,1.277-.272,1.931-.311" transform="translate(-651.653 -3342)"/>
    <path id="路径_38632" data-name="路径 38632" class="cls-4" d="M2503.433,276.228c-1.579-.215-2.788-.789-3.113-2.293-.385-1.781.564-2.934,2.172-3.541a112.244,112.244,0,0,0,13.652-6,72.892,72.892,0,0,0,18.944-14.081,76.434,76.434,0,0,0,17.4-30.849c.749-2.5,1.409-5.023,2.162-7.52a3.168,3.168,0,0,1,3.557-2.476,3.086,3.086,0,0,1,2.209,3.886c-3.443,13.972-8.909,27.012-18.367,38.038a77.782,77.782,0,0,1-21.761,17.509,118.158,118.158,0,0,1-15.522,6.933c-.469.177-.963.289-1.33.4" transform="translate(-651.653 -3342)"/>
    <path id="路径_38633" data-name="路径 38633" class="cls-10" d="M2228.58,136.736c4.1-.949,7.678-3.107,11.344-5.037a42.172,42.172,0,0,1,12.2-4.6,15.832,15.832,0,0,1,1.6-.124,2.875,2.875,0,0,1,1.287,1.614,62.294,62.294,0,0,1,5.934,20.509,66.752,66.752,0,0,1-7.247,39.339,68.237,68.237,0,0,1-9.927,14.01,65.946,65.946,0,0,1-24.046,16.772,67.391,67.391,0,0,1-21.771,4.85,66.167,66.167,0,0,1-26-3.743,39.086,39.086,0,0,1-10.788-5.188,67.687,67.687,0,0,1-8.284-18.7,76.811,76.811,0,0,1-2.675-27.576c.665-8.293,2.093-16.356,5.805-23.878,4.9-9.921,12.707-16.04,23.678-17.953a35.208,35.208,0,0,1,5.974-.476c1.1-.691,2.314-.424,3.46-.325a34.028,34.028,0,0,1,12.07,3.393c3.2,1.556,6.308,3.283,9.536,4.775a25.3,25.3,0,0,0,5.238,2.021c.407.133.824.227,1.238.338a25.775,25.775,0,0,0,9.948-.074,2.048,2.048,0,0,1,1.422.045" transform="translate(-651.653 -3342)"/>
    <path id="路径_38634" data-name="路径 38634" class="cls-11" d="M2161.17,215.143c.969-.088,1.566.661,2.322,1.046a65.36,65.36,0,0,0,23.088,7.073,59.964,59.964,0,0,0,8.542.609c11.559-.471,22.486-3.165,32.578-9.043a65.474,65.474,0,0,0,13.862-10.6,66.138,66.138,0,0,0,18.016-33.325,69.533,69.533,0,0,0,1-20.779,62.768,62.768,0,0,0-6.843-23.149c14.875-1.914,29.477,4.295,36.133,21.68a71.678,71.678,0,0,1,4.3,31.471c-2.03,26.054-14.783,46.269-35.032,62.144a38.212,38.212,0,0,1-7.359,4.434,20.447,20.447,0,0,1-19.474-.718c-6.8-3.735-13.412-3.75-20.218-.026-7.855,4.3-15.575,3.618-23.055-1.13-11.833-7.512-20.805-17.7-27.858-29.692" transform="translate(-651.653 -3342)"/>
    <path id="路径_38635" data-name="路径 38635" class="cls-12" d="M2216.948,137.065c-.349-.052-.738.032-1.011-.289-.656-11.687-5.412-21.6-13.009-30.324a61.444,61.444,0,0,0-5.417-5.363,9.674,9.674,0,0,0-1.547-1.182c-1.357-.794-2.479-.639-3.326.443-.811,1.035-.627,2.184.532,3.305.234.226.508.406.753.619,8.636,7.534,14.571,16.684,16.75,28.068a3.6,3.6,0,0,1,.05,2.519,50.012,50.012,0,0,1-6.369-3.189c-5.843-3.153-11.95-5.261-18.686-5.11-4.428-5.911-5.507-12.7-5.067-19.834a63.243,63.243,0,0,1,3.843-17.686c.275-.76.542-1.295,1.563-1.232,8.179.505,16.067,2.14,23.373,6,9.262,4.891,13.6,12.769,13.812,23.09.009.433.007.866.01,1.3.466.735.035,1.368-.275,1.978a61.414,61.414,0,0,0-5.025,15.07c-.139.649.1,1.607-.954,1.821" transform="translate(-651.653 -3342)"/>
    <path id="路径_38636" data-name="路径 38636" class="cls-13" d="M2216.948,137.065c.629-2.482,1.227-4.972,1.894-7.444a52.146,52.146,0,0,1,3.885-10.064,10.465,10.465,0,0,0,.475-1.361,74.681,74.681,0,0,1,7.086-10.076,53.027,53.027,0,0,1,13.564-11.012c3.136-1.787,6.432-1.072,8.063,1.714,1.657,2.831.724,6.04-2.433,7.859a41.6,41.6,0,0,0-17.678,19.544,37.57,37.57,0,0,0-3.223,10.511,21.489,21.489,0,0,1-11.633.329" transform="translate(-651.653 -3342)"/>
    <path id="路径_38637" data-name="路径 38637" class="cls-14" d="M2210.723,134.861a48.393,48.393,0,0,0-4.735-14.893,50.056,50.056,0,0,0-12.82-15.7c-1.577-1.3-1.975-2.757-1.02-4.055,1.149-1.56,2.551-1.776,4.346-.423a50.751,50.751,0,0,1,12.232,13.681,47.154,47.154,0,0,1,7.287,19.725c.146,1.21.686,2.4-.076,3.583a17.689,17.689,0,0,1-5.214-1.914" transform="translate(-651.653 -3342)"/>
  </g>
</svg>
