<svg xmlns="http://www.w3.org/2000/svg" xmlns:xlink="http://www.w3.org/1999/xlink" width="600" height="372" viewBox="0 0 600 372">
  <defs>
    <style>
      .cls-1, .cls-10, .cls-12, .cls-16, .cls-17, .cls-18, .cls-19, .cls-9 {
        fill: none;
      }

      .cls-2 {
        fill: #30e266;
      }

      .cls-3 {
        opacity: 0.15;
      }

      .cls-4 {
        clip-path: url(#clip-path);
      }

      .cls-5 {
        fill: #fff;
      }

      .cls-6 {
        fill: #faec21;
      }

      .cls-7 {
        fill: #fcc;
      }

      .cls-8 {
        fill: #ffaeae;
      }

      .cls-9 {
        stroke: #ffaeae;
        stroke-width: 2px;
      }

      .cls-10, .cls-12, .cls-16, .cls-17, .cls-18, .cls-19, .cls-9 {
        stroke-miterlimit: 10;
      }

      .cls-10 {
        stroke: #ffc5c5;
      }

      .cls-11 {
        fill: #ff642e;
      }

      .cls-12 {
        stroke: #ff642e;
      }

      .cls-13 {
        fill: #3bf;
      }

      .cls-14 {
        fill: #69f98f;
      }

      .cls-15 {
        fill: #8f8fff;
      }

      .cls-16 {
        stroke: #faec21;
      }

      .cls-17 {
        stroke: #3bf;
      }

      .cls-18 {
        stroke: #69f98f;
      }

      .cls-19 {
        stroke: #8f8fff;
      }

      .cls-20 {
        fill: #73828b;
      }
    </style>
    <clipPath id="clip-path">
      <rect id="矩形_6234" data-name="矩形 6234" class="cls-1" width="458.9" height="251.047" transform="translate(1453.5 52.475)"/>
    </clipPath>
  </defs>
  <g id="组_46031" data-name="组 46031" transform="translate(-726.597 3342)">
    <rect id="矩形_6233" data-name="矩形 6233" class="cls-2" width="600" height="372" transform="translate(726.597 -3342)"/>
    <g id="组_46011" data-name="组 46011" class="cls-3" transform="translate(-651.653 -3342)">
      <g id="组_46010" data-name="组 46010">
        <g id="组_46009" data-name="组 46009" class="cls-4">
          <path id="路径_38524" data-name="路径 38524" class="cls-5" d="M1617.251,63.473a25.177,25.177,0,0,0-19.641,2.274A29.939,29.939,0,0,0,1583.6,84.219l-.321,1.205-.078-3.376c-.37-16.07-12.562-29.335-27.177-29.569a25,25,0,0,0-18.2,7.5,30.3,30.3,0,0,0-8.5,21.917l.625,35.806a28.783,28.783,0,0,0-3.9-.663,28.107,28.107,0,0,0-22.758,8.207,27.232,27.232,0,0,0-42.169,18.985l-7.434,60.349a26.626,26.626,0,0,0,1.074,11.364c-.643,23.185,4.219,42.408,14.464,57.16,11.648,16.771,30.133,26.844,53.461,29.131q7.375.723,14.4.722c16.466,0,31.312-2.966,43.513-8.754,16.1-7.638,26.2-19.567,28.447-33.589,3.381-21.124,6.584-56.706,6.886-68.738a42.006,42.006,0,0,0-1.5-12.46l20.955-80.389c4.018-15.417-4.121-31.366-18.143-35.555m-1.21,30.51-22.5,86.306,1.129,2.98a21.275,21.275,0,0,1,1.275,8.108c-.281,11.238-3.433,46.04-6.64,66.078-3.078,19.237-35.3,27.753-64.664,24.877-23.538-2.308-51.1-15.561-49.9-65.291l1.17-2.216-1.879-4.385a6.557,6.557,0,0,1-.493-3.415l7.435-60.348a7.1,7.1,0,0,1,7.82-6.021,7.011,7.011,0,0,1,5.919,4.522l.5,1.337.85,1.145a6.756,6.756,0,0,1,.561.879l14.783,28,4.253-33.546c.475-3.753,4.243-6.462,8.407-6.053a7.568,7.568,0,0,1,6.059,3.946,10.668,10.668,0,0,0,20.142-5.087l-.946-54.252a10.239,10.239,0,0,1,2.658-7.435,5.172,5.172,0,0,1,3.723-1.637c3.442.055,7.369,4.189,7.5,10.033l1.486,64.541a11.263,11.263,0,0,0,22.142,2.644l16.091-60.32a9.874,9.874,0,0,1,4.445-6.171,5.22,5.22,0,0,1,4.154-.567h0c3.693,1.1,5.8,6.406,4.515,11.347"/>
          <path id="路径_38525" data-name="路径 38525" class="cls-5" d="M1909.1,193.809c-5.834-28.922-13.677-58.493-19.978-82.249-.331-1.251-.64-2.509-.95-3.767-1.238-5.034-2.641-10.74-5.486-16.228-4.468-8.618-12.344-12.679-21.6-11.147-9.339,1.548-15.6,7.9-17.179,17.429-.082.5-.149.986-.2,1.471-.28-.808-.554-1.618-.828-2.428a84.851,84.851,0,0,0-5.951-14.472c-5.22-9.412-14.667-13.889-24.071-11.4-10.432,2.758-16.709,10.877-16.791,21.72a30.364,30.364,0,0,0,.883,7.858q-1.179-2.334-2.366-4.666a34.433,34.433,0,0,0-9.031-11.6c-7.024-5.594-15.493-6.7-23.235-3.039-7.69,3.637-12.36,10.792-12.813,19.631a29.416,29.416,0,0,0,2.979,13.968,28.161,28.161,0,0,0-8.472-6.207c-7.606-3.578-15.435-3.058-22.045,1.465a21.55,21.55,0,0,0-9.63,20.717,28.1,28.1,0,0,0,3.821,11.749c5.163,8.61,10.448,17.327,15.56,25.758q3.565,5.88,7.128,11.764l13.542,22.395q6.6,10.908,13.191,21.814c-6.115-1.393-12.383-2.814-18.591-4.163-7.546-1.642-13.869-1.632-19.9.028a22.276,22.276,0,0,0-14.348,12.43,21.924,21.924,0,0,0,.137,18.682c3.623,7.428,9.647,11.357,15.508,14.745,7.628,4.409,15.565,7.7,23.24,10.892,2.368.983,4.737,1.966,7.09,2.981,3.176,1.369,6.342,2.763,9.508,4.156,12.531,5.514,25.488,11.216,39.1,15.425a81.878,81.878,0,0,0,24.345,4.005q.753,0,1.5-.016c11.963-.271,23.706-3.5,36.937-10.158,25.44-11.317,39.956-32.107,41.985-60.139.881-12.179-.1-25.068-2.989-39.4m-16.959,37.957c-1.509,20.851-11.438,35.044-30.354,43.392l-.475.225c-10.567,5.342-19.654,7.925-28.6,8.128a61.181,61.181,0,0,1-19.487-3.1c-12.516-3.87-24.386-9.094-36.954-14.624q-4.818-2.121-9.645-4.216c-2.436-1.05-4.886-2.068-7.338-3.086-7.408-3.076-14.405-5.982-20.9-9.736-4.173-2.413-6.485-4.034-7.54-6.2a2.164,2.164,0,0,1,.114-1.684,2.458,2.458,0,0,1,1.429-1.379,15.517,15.517,0,0,1,4.166-.534,29.184,29.184,0,0,1,6.173.766c6.938,1.508,14,3.118,20.831,4.674q4.577,1.044,9.15,2.08l.412.1a28.1,28.1,0,0,0,3,.571,13.929,13.929,0,0,0,13.857-6.553,14.094,14.094,0,0,0-.172-14.82q-10.164-16.79-20.316-33.588l-13.545-22.4q-3.564-5.894-7.138-11.782c-5.1-8.409-10.372-17.106-15.509-25.674a8.262,8.262,0,0,1-1.074-3.456,1.844,1.844,0,0,1,1.023-2.217c.484-.33.8-.55,2.239.126,1.679.79,3.184,2.375,5.369,5.653q14.223,21.348,28.472,42.679,1.923,2.88,3.856,5.752,2.93,4.361,5.839,8.733c4.286,6.473,11.8,8.38,18.268,4.64,7.3-4.222,7.87-12.021,5.19-17.878q-2.394-5.23-4.762-10.474-2.091-4.616-4.19-9.226-3.777-8.271-7.561-16.539-7.644-16.71-15.256-33.434a10.664,10.664,0,0,1-1.245-4.742c.1-1.965.67-2.234,1.391-2.575.592-.281.919-.434,2.225.606a14.739,14.739,0,0,1,3.669,5.035q3.635,7.131,7.2,14.295c3.938,7.858,8.01,15.984,12.184,23.94,4.1,7.818,8.119,15.9,12,23.723l2.654,5.336a23.856,23.856,0,0,0,1.691,2.881c4.15,6.034,11.113,8.069,17.33,5.06,6.326-3.062,9.119-9.861,6.948-16.918l-3.065-9.952c-3.221-10.453-6.552-21.261-9.777-31.9-1.945-6.413-3.86-12.981-5.711-19.334l-1.861-6.374a10.312,10.312,0,0,1-.3-2.882c.016-1.939.225-2.09,1.879-2.528a4.379,4.379,0,0,1,1.495,1.761,68.817,68.817,0,0,1,4.5,11.185c.431,1.273.862,2.545,1.311,3.809,3.055,8.619,6.088,17.434,9.022,25.958q2.1,6.111,4.214,12.219,1.478,4.268,2.971,8.531,1.981,5.673,3.945,11.351c3.142,9.136,10.926,11.428,16.832,9.691,8.547-2.513,10.515-10.308,9.6-16.221q-3.872-25.083-7.7-50.187c-.439-2.885-.818-5.377-.492-7.34a5.789,5.789,0,0,1,.2-.854,4.728,4.728,0,0,1,.518-.111c.072-.012.138-.022.2-.029a6.413,6.413,0,0,1,.381.648c1.748,3.373,2.755,7.467,3.821,11.8.339,1.375.677,2.75,1.039,4.116,6.233,23.5,13.989,52.745,19.7,81.079h0c2.528,12.532,3.394,23.654,2.645,34"/>
        </g>
      </g>
    </g>
    <path id="路径_38526" data-name="路径 38526" class="cls-6" d="M1443.027,66.356a5.267,5.267,0,0,1-5.267-5.266V49.335a5.266,5.266,0,0,1,5.267-5.266h12.146a5.267,5.267,0,0,1,0,10.533h-6.88V61.09a5.266,5.266,0,0,1-5.266,5.266" transform="translate(-651.653 -3342)"/>
    <path id="路径_38527" data-name="路径 38527" class="cls-6" d="M1643.239,66.485a5.266,5.266,0,0,1-5.266-5.266V54.731h-6.879a5.266,5.266,0,0,1,0-10.533h12.145a5.265,5.265,0,0,1,5.266,5.266V61.219a5.266,5.266,0,0,1-5.266,5.266" transform="translate(-651.653 -3342)"/>
    <path id="路径_38528" data-name="路径 38528" class="cls-6" d="M1452.1,304.033h-12.146a5.266,5.266,0,0,1-5.266-5.266V287.012a5.266,5.266,0,0,1,10.533,0V293.5h6.879a5.266,5.266,0,0,1,0,10.533" transform="translate(-651.653 -3342)"/>
    <path id="路径_38529" data-name="路径 38529" class="cls-6" d="M1640.171,304.162h-12.145a5.266,5.266,0,0,1,0-10.533h6.879v-6.488a5.266,5.266,0,0,1,10.532,0v11.754a5.266,5.266,0,0,1-5.266,5.267" transform="translate(-651.653 -3342)"/>
    <path id="路径_38530" data-name="路径 38530" class="cls-6" d="M1698.793,101.5a5.267,5.267,0,0,1-6.091-4.287l-2.013-11.581a5.266,5.266,0,0,1,4.287-6.09l11.966-2.08a5.266,5.266,0,1,1,1.8,10.377l-6.777,1.178,1.111,6.392a5.266,5.266,0,0,1-4.287,6.091" transform="translate(-651.653 -3342)"/>
    <path id="路径_38531" data-name="路径 38531" class="cls-6" d="M1896.07,67.339a5.267,5.267,0,0,1-6.091-4.287l-1.111-6.392-6.777,1.178a5.266,5.266,0,0,1-1.8-10.377l11.965-2.08a5.267,5.267,0,0,1,6.091,4.287l2.013,11.58a5.267,5.267,0,0,1-4.287,6.091" transform="translate(-651.653 -3342)"/>
    <path id="路径_38532" data-name="路径 38532" class="cls-6" d="M1748.44,334.111l-11.966,2.08a5.267,5.267,0,0,1-6.091-4.287l-2.013-11.58a5.267,5.267,0,0,1,10.378-1.8l1.111,6.392,6.777-1.178a5.266,5.266,0,1,1,1.8,10.377" transform="translate(-651.653 -3342)"/>
    <path id="路径_38533" data-name="路径 38533" class="cls-6" d="M1933.75,302.03l-11.966,2.08a5.266,5.266,0,1,1-1.8-10.377l6.776-1.178-1.111-6.391a5.267,5.267,0,0,1,10.378-1.8l2.013,11.581a5.266,5.266,0,0,1-4.287,6.09" transform="translate(-651.653 -3342)"/>
    <path id="路径_38534" data-name="路径 38534" class="cls-7" d="M1601.087,174.256s5.14,6.1,4.859,17.37-3.382,46.276-6.763,67.409-32.4,37.475-75.515,33.249-60.532-36.17-58.841-77.872l29.4-54.561,105.242-2.818Z" transform="translate(-651.653 -3342)"/>
    <path id="路径_38535" data-name="路径 38535" class="cls-8" d="M1541.588,85.89l.946,54.252a.667.667,0,0,1-1.264.313,17.571,17.571,0,0,0-13.945-9.3c-9.565-.955-18.164,5.606-19.322,14.745l-.618,4.871a17.13,17.13,0,0,0-34.069-1.153l-7.434,60.349a16.925,16.925,0,0,0,15.026,18.79l.46.052c9.708,1.253,14.906-6.27,17.365-11.737a2.225,2.225,0,0,1,3.918-.265,17.623,17.623,0,0,0,13.167,8.232l.474.052c9.681,1.073,18.432-5.581,19.534-14.85l6.916-58.193.423,24.241" transform="translate(-651.653 -3342)"/>
    <path id="路径_38536" data-name="路径 38536" class="cls-7" d="M1614.389,73.054c-8.94-2.671-18.386,3.474-21.125,13.743l-16.089,60.32a1.263,1.263,0,0,1-2.483-.3L1573.2,82.279c-.248-10.8-8-19.652-17.34-19.8s-16.728,8.456-16.54,19.245l.946,54.252a.667.667,0,0,1-1.264.313,17.571,17.571,0,0,0-13.945-9.3c-9.565-.955-18.163,5.606-19.322,14.745l-.618,4.871a17.13,17.13,0,0,0-34.069-1.153l-7.434,60.349a16.925,16.925,0,0,0,15.026,18.79l.46.052a17.062,17.062,0,0,0,18.975-14.85l.259-2.241a17.341,17.341,0,0,0,15.216,13.321l.474.052c9.681,1.073,18.432-5.581,19.534-14.85l6.916-58.193.423,24.241c.187,10.742,7.825,19.631,17.119,19.922l.506.016a15.26,15.26,0,0,0,12.436-6,16.812,16.812,0,0,0,10.434,10.274l.482.152c9.028,2.846,18.653-3.368,21.371-13.8L1625.717,96.5c2.683-10.29-2.384-20.779-11.328-23.451" transform="translate(-651.653 -3342)"/>
    <path id="路径_38537" data-name="路径 38537" class="cls-8" d="M1506.667,196.774l20.852,2.254s-.521,16.745-12.479,16.061c-14.776-.845-8.373-18.315-8.373-18.315" transform="translate(-651.653 -3342)"/>
    <path id="路径_38538" data-name="路径 38538" class="cls-8" d="M1472.355,202.4l18.3,1.979s-.457,14.7-10.952,14.1c-12.97-.742-7.35-16.076-7.35-16.076" transform="translate(-651.653 -3342)"/>
    <path id="路径_38539" data-name="路径 38539" class="cls-8" d="M1595.8,180.69l2.142-2.768c-.119-.092-12.062-9.32-24.715-17.978-25.061-17.147-30.394-16.9-33.424-15.327-4.995,2.6-9.51,8.573-11.5,15.224a24.333,24.333,0,0,0,1.891,19.173c5.849,10.48,24.7,25.127,32.528,30.937a1.134,1.134,0,0,1-.591,2.042c-4.908.444-14.305,2.189-22.094,8.876-9.278,7.964-13.606,20.286-12.862,36.622l6.993-.318c-.062-1.348-.071-2.632-.058-3.887l29.235-34.4a8.167,8.167,0,0,0,6.83-7.683c0-.117-.007-.231-.007-.346l23.366-27.5.127.1,2.142-2.767Z" transform="translate(-651.653 -3342)"/>
    <path id="路径_38540" data-name="路径 38540" class="cls-7" d="M1602.42,185.229s-53.956-42.566-61-38.9-14.934,17.47-8.172,29.586,33.531,31.277,33.531,31.277l-.281,6.762s-42.946-2.673-37.342,52.578" transform="translate(-651.653 -3342)"/>
    <path id="路径_38541" data-name="路径 38541" class="cls-8" d="M1566.254,158.146l-5.337,8.944s-13.9-4.52-14.955-11.455,1.208-8.849,1.208-8.849Z" transform="translate(-651.653 -3342)"/>
    <line id="直线_1237" data-name="直线 1237" class="cls-9" x1="6.783" y2="68.502" transform="translate(846.686 -3195.393)"/>
    <path id="路径_38542" data-name="路径 38542" class="cls-7" d="M1865.824,284.306c-10.545,5.332-21.246,8.939-32.883,9.2a71.03,71.03,0,0,1-22.667-3.544c-16.4-5.071-31.886-12.435-47.6-19.211-9.853-4.248-19.955-7.956-29.285-13.349-4.591-2.654-9.084-5.469-11.523-10.469-3.242-6.649.726-15.119,7.876-17.088,5.064-1.394,10.114-.987,15.118.1,10.038,2.182,20.044,4.509,30.064,6.773.812.184,1.623.394,2.446.5a3.87,3.87,0,0,0,4.063-1.808,4.065,4.065,0,0,0-.171-4.461q-16.944-27.988-33.863-55.992c-7.558-12.495-15.158-24.966-22.667-37.489a18.231,18.231,0,0,1-2.448-7.6,11.664,11.664,0,0,1,5.327-11.468c3.857-2.639,7.985-2.625,12.141-.67,4.185,1.969,6.945,5.421,9.434,9.157q14.223,21.344,28.467,42.672c3.234,4.843,6.5,9.663,9.717,14.517,1.258,1.9,2.842,2.708,4.926,1.5,2.124-1.227,2.015-3.06,1.1-5.059-3-6.561-5.958-13.144-8.956-19.707q-11.412-25-22.825-49.994a20.107,20.107,0,0,1-2.127-9.388c.259-5.055,2.553-8.951,7.1-11.1,4.5-2.128,8.827-1.286,12.73,1.822a24.4,24.4,0,0,1,6.35,8.318c6.47,12.7,12.712,25.512,19.332,38.129,5.075,9.672,9.884,19.473,14.752,29.245a13.919,13.919,0,0,0,.98,1.674c1.165,1.694,2.738,2.692,4.734,1.726,2.068-1,2.4-2.865,1.747-4.976-4.3-13.959-8.615-27.91-12.854-41.886-2.6-8.58-5.08-17.2-7.6-25.8a19.855,19.855,0,0,1-.7-5.767c.048-6.379,3.238-10.513,9.347-12.128,4.937-1.3,9.8,1.227,12.771,6.586,2.893,5.216,4.513,10.935,6.487,16.5,4.508,12.717,8.844,25.5,13.26,38.245,2.3,6.638,4.638,13.261,6.923,19.9.9,2.629,2.519,3.948,4.556,3.349,2.591-.76,2.9-2.762,2.54-5.1q-3.873-25.094-7.7-50.2c-.528-3.474-1.06-6.956-.474-10.49.888-5.362,3.768-8.34,8.947-9.2,4.966-.823,8.593,1.066,11.09,5.883,2.928,5.649,4.041,11.893,5.649,17.955,7.182,27.082,14.3,54.185,19.841,81.664a135.516,135.516,0,0,1,2.817,36.7c-1.782,24.628-13.972,41.97-36.291,51.819" transform="translate(-651.653 -3342)"/>
    <path id="路径_38543" data-name="路径 38543" class="cls-10" d="M1801.086,215.127s36.4-4.919,50.641,23.427" transform="translate(-651.653 -3342)"/>
    <path id="路径_38544" data-name="路径 38544" class="cls-11" d="M1781.935,196.931a4.143,4.143,0,1,1-5.013-3.032,4.142,4.142,0,0,1,5.013,3.032" transform="translate(-651.653 -3342)"/>
    <path id="路径_38545" data-name="路径 38545" class="cls-11" d="M1736.865,241.8a4.143,4.143,0,1,1-5.013-3.032,4.143,4.143,0,0,1,5.013,3.032" transform="translate(-651.653 -3342)"/>
    <path id="路径_38546" data-name="路径 38546" class="cls-11" d="M1766.364,248.738a4.143,4.143,0,1,1-5.013-3.032,4.142,4.142,0,0,1,5.013,3.032" transform="translate(-651.653 -3342)"/>
    <path id="路径_38547" data-name="路径 38547" class="cls-11" d="M1795.245,261.927a4.143,4.143,0,1,1-5.013-3.032,4.143,4.143,0,0,1,5.013,3.032" transform="translate(-651.653 -3342)"/>
    <path id="路径_38548" data-name="路径 38548" class="cls-11" d="M1864.319,259.823a7.144,7.144,0,1,1-8.644-5.228,7.144,7.144,0,0,1,8.644,5.228" transform="translate(-651.653 -3342)"/>
    <path id="路径_38549" data-name="路径 38549" class="cls-11" d="M1763.5,167.615a4.143,4.143,0,1,1-5.013-3.032,4.143,4.143,0,0,1,5.013,3.032" transform="translate(-651.653 -3342)"/>
    <path id="路径_38550" data-name="路径 38550" class="cls-11" d="M1740.018,130.748a4.142,4.142,0,1,1-5.013-3.032,4.143,4.143,0,0,1,5.013,3.032" transform="translate(-651.653 -3342)"/>
    <path id="路径_38551" data-name="路径 38551" class="cls-11" d="M1775.68,99.149a4.143,4.143,0,1,1-5.013-3.032,4.143,4.143,0,0,1,5.013,3.032" transform="translate(-651.653 -3342)"/>
    <path id="路径_38552" data-name="路径 38552" class="cls-11" d="M1793.556,137.1a4.143,4.143,0,1,1-5.013-3.032,4.143,4.143,0,0,1,5.013,3.032" transform="translate(-651.653 -3342)"/>
    <path id="路径_38553" data-name="路径 38553" class="cls-11" d="M1812.965,178.193a4.142,4.142,0,1,1-5.013-3.032,4.143,4.143,0,0,1,5.013,3.032" transform="translate(-651.653 -3342)"/>
    <path id="路径_38554" data-name="路径 38554" class="cls-11" d="M1846.216,168.005a4.142,4.142,0,1,1-5.013-3.032,4.143,4.143,0,0,1,5.013,3.032" transform="translate(-651.653 -3342)"/>
    <path id="路径_38555" data-name="路径 38555" class="cls-11" d="M1834.344,128.067a4.143,4.143,0,1,1-5.013-3.032,4.143,4.143,0,0,1,5.013,3.032" transform="translate(-651.653 -3342)"/>
    <path id="路径_38556" data-name="路径 38556" class="cls-11" d="M1821.836,89.835a4.143,4.143,0,1,1-5.013-3.032,4.143,4.143,0,0,1,5.013,3.032" transform="translate(-651.653 -3342)"/>
    <path id="路径_38557" data-name="路径 38557" class="cls-11" d="M1869.4,100.944a4.143,4.143,0,1,1-5.013-3.032,4.143,4.143,0,0,1,5.013,3.032" transform="translate(-651.653 -3342)"/>
    <path id="路径_38558" data-name="路径 38558" class="cls-11" d="M1877.33,133.174a4.143,4.143,0,1,1-5.013-3.032,4.143,4.143,0,0,1,5.013,3.032" transform="translate(-651.653 -3342)"/>
    <path id="路径_38559" data-name="路径 38559" class="cls-11" d="M1882.059,169.717a4.142,4.142,0,1,1-5.013-3.032,4.143,4.143,0,0,1,5.013,3.032" transform="translate(-651.653 -3342)"/>
    <path id="路径_38560" data-name="路径 38560" class="cls-12" d="M1732.537,241.544l29.8,8.185,28.881,13.188,66.16-1.386-79.076-62.008-18.834-30.918-23.478-36.867" transform="translate(-651.653 -3342)"/>
    <path id="路径_38561" data-name="路径 38561" class="cls-12" d="M1817.813,90.825l12.508,38.232L1842.193,169l15.189,92.536-48.44-82.348-19.409-41.09-17.876-37.954" transform="translate(-651.653 -3342)"/>
    <path id="路径_38562" data-name="路径 38562" class="cls-12" d="M1865.374,101.934l7.934,32.231,5.043,37.817-19.759,89.251" transform="translate(-651.653 -3342)"/>
    <path id="路径_38563" data-name="路径 38563" class="cls-13" d="M1562.444,77.743A4.143,4.143,0,1,1,1558.3,73.6a4.143,4.143,0,0,1,4.143,4.143" transform="translate(-651.653 -3342)"/>
    <path id="路径_38564" data-name="路径 38564" class="cls-13" d="M1562.444,115.508a4.143,4.143,0,1,1-4.143-4.143,4.143,4.143,0,0,1,4.143,4.143" transform="translate(-651.653 -3342)"/>
    <path id="路径_38565" data-name="路径 38565" class="cls-14" d="M1616.122,87.222a4.143,4.143,0,1,1-4.143-4.143,4.143,4.143,0,0,1,4.143,4.143" transform="translate(-651.653 -3342)"/>
    <path id="路径_38566" data-name="路径 38566" class="cls-14" d="M1607.837,123.793a4.143,4.143,0,1,1-4.144-4.142,4.144,4.144,0,0,1,4.144,4.142" transform="translate(-651.653 -3342)"/>
    <path id="路径_38567" data-name="路径 38567" class="cls-14" d="M1597.682,159.076a4.143,4.143,0,1,1-4.143-4.143,4.143,4.143,0,0,1,4.143,4.143" transform="translate(-651.653 -3342)"/>
    <path id="路径_38568" data-name="路径 38568" class="cls-13" d="M1565.077,144.989a4.143,4.143,0,1,1-4.143-4.143,4.143,4.143,0,0,1,4.143,4.143" transform="translate(-651.653 -3342)"/>
    <path id="路径_38569" data-name="路径 38569" class="cls-15" d="M1553.25,166.8a4.143,4.143,0,1,1-4.143-4.143,4.143,4.143,0,0,1,4.143,4.143" transform="translate(-651.653 -3342)"/>
    <path id="路径_38570" data-name="路径 38570" class="cls-15" d="M1592.051,207.288a4.143,4.143,0,1,1-4.143-4.142,4.143,4.143,0,0,1,4.143,4.142" transform="translate(-651.653 -3342)"/>
    <path id="路径_38571" data-name="路径 38571" class="cls-11" d="M1522.426,207.288a4.143,4.143,0,1,1-4.143-4.142,4.143,4.143,0,0,1,4.143,4.142" transform="translate(-651.653 -3342)"/>
    <path id="路径_38572" data-name="路径 38572" class="cls-11" d="M1528.937,140.415a4.143,4.143,0,1,1-4.144-4.143,4.144,4.144,0,0,1,4.144,4.143" transform="translate(-651.653 -3342)"/>
    <path id="路径_38573" data-name="路径 38573" class="cls-6" d="M1494.138,142.505a4.143,4.143,0,1,1-4.143-4.143,4.144,4.144,0,0,1,4.143,4.143" transform="translate(-651.653 -3342)"/>
    <path id="路径_38574" data-name="路径 38574" class="cls-6" d="M1486.923,215.959a4.143,4.143,0,1,1-4.143-4.143,4.143,4.143,0,0,1,4.143,4.143" transform="translate(-651.653 -3342)"/>
    <path id="路径_38575" data-name="路径 38575" class="cls-15" d="M1578.353,181.857a4.143,4.143,0,1,1-4.143-4.143,4.143,4.143,0,0,1,4.143,4.143" transform="translate(-651.653 -3342)"/>
    <path id="路径_38576" data-name="路径 38576" class="cls-12" d="M1537.216,281.431l-12.422-141.016-6.511,66.873" transform="translate(-651.653 -3342)"/>
    <path id="路径_38577" data-name="路径 38577" class="cls-16" d="M1482.78,215.959l7.215-73.454,47.221,138.926" transform="translate(-651.653 -3342)"/>
    <path id="路径_38578" data-name="路径 38578" class="cls-17" d="M1558.3,77.743v37.765l2.633,29.481-23.719,136.442" transform="translate(-651.653 -3342)"/>
    <path id="路径_38579" data-name="路径 38579" class="cls-18" d="M1611.979,87.222l-8.286,36.572-10.155,35.282-53.474,122.355" transform="translate(-651.653 -3342)"/>
    <path id="路径_38580" data-name="路径 38580" class="cls-19" d="M1540.065,281.431l47.844-74.143-13.7-25.431-25.1-15.058" transform="translate(-651.653 -3342)"/>
    <path id="路径_38581" data-name="路径 38581" class="cls-20" d="M1543.459,281.431a6.243,6.243,0,1,1-6.243-6.243,6.243,6.243,0,0,1,6.243,6.243" transform="translate(-651.653 -3342)"/>
  </g>
</svg>
