<svg xmlns="http://www.w3.org/2000/svg" xmlns:xlink="http://www.w3.org/1999/xlink" width="600" height="372.001" viewBox="0 0 600 372.001">
  <defs>
    <style>
      .cls-1 {
        fill: none;
      }

      .cls-2 {
        fill: #ff642e;
      }

      .cls-3 {
        clip-path: url(#clip-path);
      }

      .cls-4 {
        fill: #fcc;
      }

      .cls-5 {
        fill: #fff0cf;
      }

      .cls-6 {
        fill: #f9b7b7;
      }

      .cls-7 {
        fill: #f48f7a;
      }

      .cls-8 {
        fill: #3f2727;
      }

      .cls-9 {
        fill: #fffbf3;
      }

      .cls-10 {
        fill: #30e266;
      }
    </style>
    <clipPath id="clip-path">
      <rect id="矩形_6220" data-name="矩形 6220" class="cls-1" width="600" height="372.001" transform="translate(0 -0.001)"/>
    </clipPath>
  </defs>
  <g id="组_46037" data-name="组 46037" transform="translate(-125.347 -300.999)">
    <rect id="矩形_6217" data-name="矩形 6217" class="cls-2" width="600" height="372.001" transform="translate(125.347 300.999)"/>
    <g id="组_45981" data-name="组 45981" transform="translate(125.347 301)">
      <g id="组_45980" data-name="组 45980" class="cls-3">
        <path id="路径_38414" data-name="路径 38414" class="cls-4" d="M175.947,315.875l1.257-8.258a4.191,4.191,0,0,0-1.753-4.056c-3.992-2.811-12.265-10.372-14.06-25.626-2.386-20.283-.716-34.123,14.795-32.453a13.578,13.578,0,0,1,15.51-4.772s5.488-8.829,15.033-5.011V206.82a10.016,10.016,0,0,1,20.029-.254c.267,10.832.738,27.333,1.208,31.453.716,6.27,3.579,8.179,8.829,15.577s5.727,16.226,0,26.009c-4.612,7.879-20.522,19.782-26.541,24.117a5.471,5.471,0,0,0-2.275,4.553l.182,9.27Z"/>
        <path id="路径_38415" data-name="路径 38415" class="cls-5" d="M356.992,302.334H323.5a6.668,6.668,0,0,0-6.615,5.83l-.394,3.105a7.293,7.293,0,0,1-3.832,5.542c-13.392,7.068-63.637,33.41-78.574,41.239a3.809,3.809,0,0,1-5.448-2.394L218.384,317.43a8.1,8.1,0,0,0-7.936-6l-38.089.517a8.1,8.1,0,0,0-7.986,8.45l3.607,84.254a43.532,43.532,0,0,0,53,40.621l44.06-9.858a3.454,3.454,0,0,1,4.208,3.37v22.652H489.253s-14.317-71.228-50.467-99.862c-27.247-21.582-51.444-33-61.711-37.311a16.511,16.511,0,0,1-8.083-7.267l-6.156-11.2a6.669,6.669,0,0,0-5.844-3.457"/>
        <path id="路径_38416" data-name="路径 38416" class="cls-6" d="M195.275,263.141s8.232,5.011,21,1.79L198.854,284.02Z"/>
        <path id="路径_38417" data-name="路径 38417" class="cls-4" d="M403.593,259.468a60.16,60.16,0,0,0,.31-6.109,59.483,59.483,0,1,0-11.852,35.636,15.913,15.913,0,0,0,11.542-29.527"/>
        <path id="路径_38418" data-name="路径 38418" class="cls-7" d="M350.074,278.531a14.044,14.044,0,1,1-27.844-3.688c1.019-7.689,6.532-9.862,14.22-8.844s14.642,4.843,13.624,12.532"/>
        <path id="路径_38419" data-name="路径 38419" class="cls-8" d="M344.414,226.481c14.336,24.931,46.449,29.237,59.209,32.612.181-1.888.281-3.8.281-5.734a59.49,59.49,0,1,0-118.98,0c37.183-6.523,59.49-26.878,59.49-26.878"/>
        <path id="路径_38420" data-name="路径 38420" class="cls-8" d="M329.091,257.767h0a3.668,3.668,0,0,1-3.155-4.119l.72-5.437a3.669,3.669,0,0,1,7.274.963l-.72,5.438a3.669,3.669,0,0,1-4.119,3.155"/>
        <path id="路径_38421" data-name="路径 38421" class="cls-8" d="M349.332,261.22h0a3.669,3.669,0,0,1-3.156-4.119l.72-5.437a3.669,3.669,0,0,1,7.275.963l-.72,5.438a3.67,3.67,0,0,1-4.119,3.155"/>
      </g>
    </g>
    <path id="路径_38422" data-name="路径 38422" class="cls-9" d="M363.385,155.2H199.335a54.362,54.362,0,0,1-54.362-54.363V96.1a54.362,54.362,0,0,1,54.362-54.363h164.05A54.363,54.363,0,0,1,417.748,96.1v4.734A54.363,54.363,0,0,1,363.385,155.2" transform="translate(125.347 301)"/>
    <path id="路径_38423" data-name="路径 38423" class="cls-9" d="M285.06,146.5l36.972,27.274V131.352" transform="translate(125.347 301)"/>
    <path id="路径_38424" data-name="路径 38424" class="cls-10" d="M216.949,119.264A4.264,4.264,0,0,1,212.685,115V81.933a4.264,4.264,0,1,1,8.528,0V115a4.264,4.264,0,0,1-4.264,4.264" transform="translate(125.347 301)"/>
    <path id="路径_38425" data-name="路径 38425" class="cls-10" d="M202.475,110.652a4.264,4.264,0,0,1-4.264-4.264V90.546a4.264,4.264,0,1,1,8.528,0v15.842a4.264,4.264,0,0,1-4.264,4.264" transform="translate(125.347 301)"/>
    <path id="路径_38426" data-name="路径 38426" class="cls-10" d="M231.422,110.652a4.264,4.264,0,0,1-4.264-4.264V90.546a4.264,4.264,0,1,1,8.528,0v15.842a4.264,4.264,0,0,1-4.264,4.264" transform="translate(125.347 301)"/>
    <path id="路径_38427" data-name="路径 38427" class="cls-10" d="M353.171,113.035a4.264,4.264,0,0,1-4.264-4.264V88.162a4.264,4.264,0,1,1,8.528,0v20.609a4.264,4.264,0,0,1-4.264,4.264" transform="translate(125.347 301)"/>
    <path id="路径_38428" data-name="路径 38428" class="cls-10" d="M338.7,117a4.264,4.264,0,0,1-4.264-4.264V84.192a4.264,4.264,0,1,1,8.528,0v28.549A4.264,4.264,0,0,1,338.7,117" transform="translate(125.347 301)"/>
    <path id="路径_38429" data-name="路径 38429" class="cls-10" d="M367.644,110.652a4.264,4.264,0,0,1-4.264-4.264V90.546a4.264,4.264,0,1,1,8.528,0v15.842a4.264,4.264,0,0,1-4.264,4.264" transform="translate(125.347 301)"/>
    <path id="路径_38430" data-name="路径 38430" class="cls-10" d="M261.965,129.618a4.264,4.264,0,0,1-4.264-4.264V71.578a4.264,4.264,0,0,1,8.528,0v53.776a4.264,4.264,0,0,1-4.264,4.264" transform="translate(125.347 301)"/>
    <path id="路径_38431" data-name="路径 38431" class="cls-10" d="M247.492,110.652a4.264,4.264,0,0,1-4.264-4.264V90.546a4.264,4.264,0,1,1,8.528,0v15.842a4.264,4.264,0,0,1-4.264,4.264" transform="translate(125.347 301)"/>
    <path id="路径_38432" data-name="路径 38432" class="cls-10" d="M276.439,115.612a4.264,4.264,0,0,1-4.265-4.264V85.584a4.264,4.264,0,1,1,8.528,0v25.764a4.264,4.264,0,0,1-4.263,4.264" transform="translate(125.347 301)"/>
    <path id="路径_38433" data-name="路径 38433" class="cls-10" d="M308.331,119.264A4.264,4.264,0,0,1,304.067,115V81.933a4.264,4.264,0,0,1,8.528,0V115a4.264,4.264,0,0,1-4.264,4.264" transform="translate(125.347 301)"/>
    <path id="路径_38434" data-name="路径 38434" class="cls-10" d="M293.858,110.652a4.264,4.264,0,0,1-4.264-4.264V90.546a4.264,4.264,0,0,1,8.528,0v15.842a4.264,4.264,0,0,1-4.264,4.264" transform="translate(125.347 301)"/>
    <path id="路径_38435" data-name="路径 38435" class="cls-10" d="M322.8,110.652a4.264,4.264,0,0,1-4.264-4.264V90.546a4.264,4.264,0,0,1,8.528,0v15.842a4.264,4.264,0,0,1-4.264,4.264" transform="translate(125.347 301)"/>
  </g>
</svg>
