<svg xmlns="http://www.w3.org/2000/svg" xmlns:xlink="http://www.w3.org/1999/xlink" width="600" height="372" viewBox="0 0 600 372">
  <defs>
    <style>
      .cls-1, .cls-11 {
        fill: none;
      }

      .cls-2 {
        fill: #3bf;
      }

      .cls-3 {
        opacity: 0.15;
      }

      .cls-4 {
        clip-path: url(#clip-path);
      }

      .cls-5 {
        fill: #fff;
      }

      .cls-6 {
        fill: #9f9;
      }

      .cls-7 {
        fill: #6ff;
      }

      .cls-8 {
        fill: #336697;
      }

      .cls-9 {
        fill: #fcc;
      }

      .cls-10 {
        fill: #ff642e;
      }

      .cls-11 {
        stroke: #ff642e;
        stroke-miterlimit: 10;
      }
    </style>
    <clipPath id="clip-path">
      <rect id="矩形_6228" data-name="矩形 6228" class="cls-1" width="344.948" height="320.077" transform="translate(792.782 33.83)"/>
    </clipPath>
  </defs>
  <g id="组_46030" data-name="组 46030" transform="translate(-34.839 3342)">
    <rect id="矩形_6227" data-name="矩形 6227" class="cls-2" width="600" height="372" transform="translate(34.839 -3342)"/>
    <g id="组_45999" data-name="组 45999" class="cls-3" transform="translate(-651.653 -3342)">
      <g id="组_45998" data-name="组 45998">
        <g id="组_45997" data-name="组 45997" class="cls-4">
          <path id="路径_38454" data-name="路径 38454" class="cls-5" d="M1137.676,305.564a25.136,25.136,0,0,0-18.519-22.417h0c-5.818-1.671-13.215-.486-22.931,3.735-5.886-10.309-17.505-29.988-33.522-53.944a258.214,258.214,0,0,0-15.582-20.722q-1.833-2.217-3.7-4.4c-1.9-2.224-3.9-4.506-5.933-6.782q-1.265-1.412-2.527-2.8l-.219-.241a36.088,36.088,0,0,0,9.642,5.881c9.219,3.622,19.827,2.087,31.524-4.564,10.348-5.884,19.255-14.476,24.858-20.6l.081-.087c.7-.77,1.389-1.537,2.064-2.31l.342-.393c.644-.743,1.275-1.483,1.881-2.214l.06-.072a25.9,25.9,0,0,0,5.718-13.26c.1-.785.161-1.584.187-2.374a25.9,25.9,0,0,0-8.035-19.639,25.906,25.906,0,0,0-38.806,3.46l-.427.583-19.164-45.948a32.715,32.715,0,0,0,.178-59.746l-.177-.08a32.61,32.61,0,0,0-3.983-1.465l-.384-.11c-.575-.161-1.155-.309-1.735-.438-.122-.029-.244-.057-.348-.079-.671-.142-1.35-.264-2.063-.368l-.4-.052q-.829-.11-1.671-.178c-.2-.017-.4-.033-.578-.044-.506-.032-1.013-.055-1.524-.066l-.578-.006c-.879,0-1.777.039-2.783.124-.123.008-.245.018-.346.028-.856.081-1.719.2-2.714.378l-.317.057c-.85.162-1.708.363-2.568.6l-.322.091c-.876.252-1.729.535-2.613.87l-.082.033a32.927,32.927,0,0,0-20.976,30.543q0,1.258.094,2.5A255.622,255.622,0,0,0,967.65,64c-18.186-1.653-53.149-.724-79.276.346l-15.873.709-.064,0-.09.006c-.1.006-.2.015-.3.025a26.677,26.677,0,0,0-15.315,6.14c-.168.135-.334.271-.492.411a26.607,26.607,0,0,0,18.927,46.569l.172-.008c.922-.051,1.874-.1,2.849-.151l3.683-.182c2.295-.108,4.688-.211,7.15-.306,11.047-.423,21.169-.578,30.093-.461,12.2.161,21.42.322,28,.455-4.571,8.282-10.769,19.489-17.326,31.288L908.649,186.6l-9.4,16.25-.6.111c-1.205.215-2.638.451-4.262.7-1.245.194-2.6.4-4.044.607-2.922.426-6.215.882-9.744,1.355l-1.792.239c-16.113,2.14-36.7,4.593-48.848,6.015a22.2,22.2,0,0,0-9.38-1.249c-10.467.865-28,7.512-27.8,42.3.217,37.812,16.75,47.818,23.848,50.366a25.137,25.137,0,0,0,27.981-7.91c4.232-5.078,6.116-13.33,5.791-25.649,4.185-.45,8.618-.927,13.136-1.416l8.344-.907c4.754-.518,9.486-1.037,14.005-1.537l1.928-.214c3.824-.425,7.474-.834,10.831-1.215l1.657-.189c3.812-.436,7.2-.831,9.964-1.166q1.8-.217,3.244-.4c.646-.082,1.234-.159,1.757-.228l.756-.1a24.062,24.062,0,0,0,6.716-2.062,37.955,37.955,0,0,0,4.09-2.224,73.525,73.525,0,0,0,11.818-9.5c1.9-1.825,3.854-3.842,5.821-5.994,3.134-3.43,6.286-7.2,9.37-11.2,1.2-1.551,2.384-3.144,3.536-4.735q.864-1.2,1.7-2.391c1.114-1.589,2.211-3.205,3.259-4.8,1.633-2.488,3.157-4.945,4.553-7.334,7.562,8.25,19.631,21.82,32.756,38.159q1.947,2.423,3.926,4.931.987,1.253,1.979,2.52c2.73,3.493,5.418,7,7.99,10.433,4.183,5.578,8.193,11.122,11.919,16.478,6.2,8.907,11.81,17.584,16.684,25.788q.861,1.447,1.7,2.9c1.9,3.278,3.729,6.557,5.448,9.784a22.492,22.492,0,0,0,1.983,16.2c3.435,6.326,10.692,14.593,25.146,14.593,6.633,0,14.784-1.742,24.775-6.212,34.515-15.445,37.005-34.609,36.475-42.131M1019.3,181.837c-7.345-7.361-13.741-13.357-18.052-17.3l6.121-8.57c5.733,13.907,11.578,23.891,17.037,31.059q-2.609-2.688-5.106-5.188m-114.289,27.8-5.379-3.59-.855-.684Z"/>
        </g>
      </g>
    </g>
    <path id="路径_38455" data-name="路径 38455" class="cls-5" d="M775.856,56.317a5.266,5.266,0,0,1-5.267-5.266V39.3a5.265,5.265,0,0,1,5.267-5.266H788a5.267,5.267,0,0,1,0,10.533h-6.88v6.488a5.266,5.266,0,0,1-5.266,5.266" transform="translate(-651.653 -3342)"/>
    <path id="路径_38456" data-name="路径 38456" class="cls-5" d="M1206.418,56.446a5.266,5.266,0,0,1-5.266-5.266V44.692h-6.879a5.267,5.267,0,0,1,0-10.533h12.145a5.265,5.265,0,0,1,5.266,5.266V51.18a5.266,5.266,0,0,1-5.266,5.266" transform="translate(-651.653 -3342)"/>
    <path id="路径_38457" data-name="路径 38457" class="cls-5" d="M788,321.38H775.855a5.267,5.267,0,0,1-5.266-5.267V304.359a5.267,5.267,0,0,1,10.533,0v6.488H788a5.267,5.267,0,0,1,0,10.533" transform="translate(-651.653 -3342)"/>
    <path id="路径_38458" data-name="路径 38458" class="cls-5" d="M1206.418,321.509h-12.145a5.266,5.266,0,0,1,0-10.533h6.879v-6.488a5.266,5.266,0,1,1,10.532,0v11.755a5.266,5.266,0,0,1-5.266,5.266" transform="translate(-651.653 -3342)"/>
    <path id="路径_38459" data-name="路径 38459" class="cls-6" d="M1031.413,86.76s-33.955-11.516-64.533-14.3c-21.687-1.972-68.545-.148-93.959,1.08a18.11,18.11,0,1,0,1.855,36.173c12.267-.672,28.787-1.322,44.451-1.116,20.084.264,32.079.529,37.857.676a2.579,2.579,0,0,1,2.193,3.829c-9.918,18-52.638,95.4-54.744,97.156-2.382,1.985-86.173,11.516-86.173,11.516l3.177,42.491s79.025-8.339,93.321-10.325,40.9-35.74,50.037-56.39c0,0,67.509,69.5,97.292,132.239l30.975-21.444v-9.531s-13.9-25.812-37.525-61.155-65.724-71.878-65.724-71.878l17.7-24.778a1.9,1.9,0,0,1,3.337.468c4.009,11.387,17.906,47.168,36.546,54.491,16.414,6.448,38.452-12.414,51.106-27.687a17.433,17.433,0,1,0-27.482-21.431l-6.169,8.428a3.016,3.016,0,0,1-5.218-.62Z" transform="translate(-651.653 -3342)"/>
    <path id="路径_38460" data-name="路径 38460" class="cls-7" d="M1093.162,308.349v-9.531s-13.9-25.812-37.525-61.155-65.724-71.877-65.724-71.877L937.652,152.2c-15,27-31.817,56.983-33.118,58.067-2.383,1.986-86.174,11.517-86.174,11.517l3.177,42.49s79.026-8.339,93.322-10.324,40.9-35.741,50.036-56.39c0,0,67.509,69.494,97.292,132.238Z" transform="translate(-651.653 -3342)"/>
    <path id="路径_38461" data-name="路径 38461" class="cls-8" d="M821.281,219.1a14.377,14.377,0,0,1,15.036,11.418c3.611,16.539,9.639,49.983,1.766,59.43-10.59,12.708-36.534,9-36.8-37.063-.152-26.488,10.724-33.018,20-33.785" transform="translate(-651.653 -3342)"/>
    <path id="路径_38462" data-name="路径 38462" class="cls-8" d="M1058.749,335.259a14.377,14.377,0,0,1,4.386-18.363c13.68-9.973,41.854-28.974,53.674-25.578,15.9,4.567,22.967,29.8-19.081,48.619-24.177,10.819-34.539,3.5-38.979-4.678" transform="translate(-651.653 -3342)"/>
    <path id="路径_38463" data-name="路径 38463" class="cls-9" d="M1055.637,66.554a24.224,24.224,0,1,1-24.224-24.224,24.224,24.224,0,0,1,24.224,24.224" transform="translate(-651.653 -3342)"/>
    <path id="路径_38464" data-name="路径 38464" class="cls-8" d="M1052.926,55.449a24.2,24.2,0,0,0-45.442,7.512c28.6,4.878,45.235-7.359,45.442-7.512" transform="translate(-651.653 -3342)"/>
    <path id="路径_38465" data-name="路径 38465" class="cls-9" d="M874.775,109.718c4.213-.231,8.935-.458,13.945-.65V72.839c-5.791.237-11.156.481-15.8.705a18.111,18.111,0,1,0,1.854,36.174" transform="translate(-651.653 -3342)"/>
    <path id="路径_38466" data-name="路径 38466" class="cls-9" d="M1097.2,144.522a17.431,17.431,0,0,0-26.086,2.326l-3.509,4.795,22.46,25.927c3.134-3.088,6.019-6.26,8.531-9.291a17.436,17.436,0,0,0-1.4-23.757" transform="translate(-651.653 -3342)"/>
    <path id="路径_38467" data-name="路径 38467" class="cls-10" d="M1016.428,98.393a9.239,9.239,0,1,1-9.239-9.239,9.239,9.239,0,0,1,9.239,9.239" transform="translate(-651.653 -3342)"/>
    <path id="路径_38468" data-name="路径 38468" class="cls-10" d="M1056.613,250.858a9.239,9.239,0,1,1-9.239-9.239,9.239,9.239,0,0,1,9.239,9.239" transform="translate(-651.653 -3342)"/>
    <path id="路径_38469" data-name="路径 38469" class="cls-10" d="M921.881,238.346a9.239,9.239,0,1,1-9.239-9.238,9.239,9.239,0,0,1,9.239,9.238" transform="translate(-651.653 -3342)"/>
    <path id="路径_38470" data-name="路径 38470" class="cls-10" d="M935.573,88.12a9.239,9.239,0,1,1-9.239-9.239,9.239,9.239,0,0,1,9.239,9.239" transform="translate(-651.653 -3342)"/>
    <path id="路径_38471" data-name="路径 38471" class="cls-10" d="M1065.852,176.2a9.239,9.239,0,1,1-9.239-9.238,9.239,9.239,0,0,1,9.239,9.238" transform="translate(-651.653 -3342)"/>
    <path id="路径_38472" data-name="路径 38472" class="cls-10" d="M977.046,88.12a5.136,5.136,0,1,1-5.136-5.136,5.136,5.136,0,0,1,5.136,5.136" transform="translate(-651.653 -3342)"/>
    <path id="路径_38473" data-name="路径 38473" class="cls-10" d="M1022.693,67.025a3.176,3.176,0,1,1-3.176-3.176,3.176,3.176,0,0,1,3.176,3.176" transform="translate(-651.653 -3342)"/>
    <path id="路径_38474" data-name="路径 38474" class="cls-10" d="M1043.937,73.377a3.176,3.176,0,1,1-3.176-3.176,3.176,3.176,0,0,1,3.176,3.176" transform="translate(-651.653 -3342)"/>
    <path id="路径_38475" data-name="路径 38475" class="cls-10" d="M1053.067,68.406a3.176,3.176,0,1,1-3.176-3.176,3.176,3.176,0,0,1,3.176,3.176" transform="translate(-651.653 -3342)"/>
    <path id="路径_38476" data-name="路径 38476" class="cls-10" d="M1018.063,57.591a3.176,3.176,0,1,1-3.176-3.176,3.176,3.176,0,0,1,3.176,3.176" transform="translate(-651.653 -3342)"/>
    <path id="路径_38477" data-name="路径 38477" class="cls-10" d="M1034.807,71.43a5.136,5.136,0,1,1-5.136-5.136,5.136,5.136,0,0,1,5.136,5.136" transform="translate(-651.653 -3342)"/>
    <path id="路径_38478" data-name="路径 38478" class="cls-10" d="M979.844,177.769a5.136,5.136,0,1,1-5.136-5.136,5.136,5.136,0,0,1,5.136,5.136" transform="translate(-651.653 -3342)"/>
    <path id="路径_38479" data-name="路径 38479" class="cls-10" d="M953.476,171.636a5.136,5.136,0,1,1-5.136-5.136,5.136,5.136,0,0,1,5.136,5.136" transform="translate(-651.653 -3342)"/>
    <path id="路径_38480" data-name="路径 38480" class="cls-10" d="M822.589,246.644a5.136,5.136,0,1,1-5.136-5.136,5.136,5.136,0,0,1,5.136,5.136" transform="translate(-651.653 -3342)"/>
    <path id="路径_38481" data-name="路径 38481" class="cls-10" d="M1083.058,334.984a5.136,5.136,0,1,1-5.136-5.136,5.136,5.136,0,0,1,5.136,5.136" transform="translate(-651.653 -3342)"/>
    <path id="路径_38482" data-name="路径 38482" class="cls-10" d="M1030.518,148.943a5.136,5.136,0,1,1,6.654-2.911,5.135,5.135,0,0,1-6.654,2.911" transform="translate(-651.653 -3342)"/>
    <path id="路径_38483" data-name="路径 38483" class="cls-10" d="M1092.212,153.1a5.136,5.136,0,1,1,6.655-2.911,5.137,5.137,0,0,1-6.655,2.911" transform="translate(-651.653 -3342)"/>
    <path id="路径_38484" data-name="路径 38484" class="cls-10" d="M867.294,87.66a5.137,5.137,0,1,1-7.265,0,5.138,5.138,0,0,1,7.265,0" transform="translate(-651.653 -3342)"/>
    <path id="路径_38485" data-name="路径 38485" class="cls-11" d="M1007.484,96.609l-35.575-8.488H926.334l-62.673,3.171" transform="translate(-651.653 -3342)"/>
    <path id="路径_38486" data-name="路径 38486" class="cls-11" d="M1094.084,147.464l-37.471,29.423-24.224-32.727-20.678-46.8" transform="translate(-651.653 -3342)"/>
    <path id="路径_38487" data-name="路径 38487" class="cls-11" d="M1007.189,97.359,948.239,172l-32.373,68.364-98.413,6.278" transform="translate(-651.653 -3342)"/>
    <path id="路径_38488" data-name="路径 38488" class="cls-11" d="M1077.922,334.984l-30.547-84.126-72.667-73.089,32.481-80.41" transform="translate(-651.653 -3342)"/>
    <line id="直线_1235" data-name="直线 1235" class="cls-11" x1="20.617" y2="25.179" transform="translate(357.401 -3270.57)"/>
  </g>
</svg>
