<?xml version="1.0" encoding="UTF-8"?>
<svg id="_图层_2" data-name="图层 2" xmlns="http://www.w3.org/2000/svg" viewBox="0 0 657.07 800.95">
  <defs>
    <style>
      .cls-1, .cls-2 {
        fill: #6fc;
      }

      .cls-3, .cls-4 {
        opacity: .11;
      }

      .cls-3, .cls-5 {
        fill: #9cf;
      }

      .cls-6 {
        stroke: #8aff8a;
      }

      .cls-6, .cls-2, .cls-7 {
        opacity: .1;
      }

      .cls-6, .cls-7, .cls-8, .cls-4, .cls-9 {
        fill: none;
        stroke-miterlimit: 10;
      }

      .cls-6, .cls-7, .cls-4, .cls-9 {
        stroke-width: 3px;
      }

      .cls-7 {
        stroke: #6fc;
      }

      .cls-8 {
        stroke: #8aa9e6;
      }

      .cls-4 {
        stroke: #9cf;
      }

      .cls-10 {
        fill: #3cf;
      }

      .cls-11 {
        fill: #fff;
      }

      .cls-12 {
        fill: #8aff8a;
      }

      .cls-9 {
        opacity: .2;
        stroke: #3cf;
      }

      .cls-13 {
        fill: #f2f7ff;
      }

      .cls-14 {
        fill: #8aa9e6;
      }
    </style>
  </defs>
  <g id="_图层_1-2" data-name="图层 1">
    <g>
      <g>
        <path class="cls-13" d="M549.76,694.75c-12.44-13.3-60.49-59.9-72.36-72.38-1.53-1.95-1.22-2.93-1.33-5.87.52-38.38-2.78-100.22.21-126.41,8.04-38.87,21.64-88.47,28-129.41,0-86.93-76.29-160.95-178.12-151.06-37.23,2.23-74.91,18.95-100.1,44.38-35.99,37.82-51.15,76.89-42.9,121.22,4.07,17.32,13.61,27.27,2.93,45.17-5.14,9.89-13.64,26.47-18.67,36.15-6.49,10.6-3.1,17.83,8.98,18.33,6.61.66,12.4-.81,15.62,2.78,1.68,2.64,1.33,5.24,1.48,9,.04,5.44-.05,11.3.04,16.77-1.33,13.19,12.74,16.48,16.57,27.12,2.75,10.64-.43,23.26,5.23,33.29,7.12,15.42,24.66,19.13,40.17,18.24,10.44.7,16.08-2.43,24.57-8.04,8.73-5.33,19.35-11.79,28.2-17.19,7.91-4.99,10.25-6.92,15.12.53,4.31,5.86,12.05,16.5,16.6,22.75,1.94,2.78,4.13,5.48,4.92,8.72,1.17,14.14.58,32.68.29,47.02-.27,2.84-2.11,4.69-4.05,6.65-3.27,3.27-8.9,8.85-15.29,15.21-12.65,12.58-28.22,28.05-34.04,33.85-2.15,2.16-3.02,3.08-2.82,3.41,20.54.28,243.92.88,260.79-.22v-.02Z"/>
        <path class="cls-14" d="M480.07,621.25c-.49-23.65.12-107.45,1.68-129.95,5.69-34.75,19.58-110.65,21.73-128.04-12.64,18.44-77.79,113.52-89.75,132.33-.73,34.62,0,113.2-.25,133.55-.35,5.54,2.64,6.34,6.93,11.02,12.22,12.11,27.69,27.53,40.39,40.14,4.19,4.16,8.06,8.03,12.12,12.03,2.95,2.88,3.75,3.05,8.38,3.08,10.13.02,71.57,0,71.57,0,0,0-60.55-59.58-72.79-74.11l-.02-.04Z"/>
        <polygon class="cls-14" points="231.38 414.27 214.5 392.35 283.32 392.35 231.38 414.27"/>
        <path class="cls-8" d="M208.1,275.34l16.33,5.96c13.4,4.89,28.46,1.66,38.57-8.4,14.62-14.54,41.18-33.32,82.24-35.71,42.27-2.46,70.63,14.43,86.07,27.6,9.23,7.88,22.7,8.24,32.41.96l2.89-2.16"/>
        <path class="cls-8" d="M417.17,437.39c-24.61,0-44.64-20.02-44.64-44.64s20.02-44.64,44.64-44.64,44.64,20.02,44.64,44.64-20.02,44.64-44.64,44.64Z"/>
        <circle class="cls-8" cx="417.17" cy="392.76" r="26.91"/>
        <line class="cls-8" x1="444.08" y1="392.76" x2="461.81" y2="392.76"/>
      </g>
      <path class="cls-4" d="M137.81,799.45c-75.16,0-136.31-61.15-136.31-136.31s61.15-136.31,136.31-136.31,136.31,61.15,136.31,136.31-61.15,136.31-136.31,136.31Z"/>
      <path class="cls-3" d="M137.81,757.21c-51.87,0-94.07-42.2-94.07-94.07s42.2-94.07,94.07-94.07,94.07,42.2,94.07,94.07-42.2,94.07-94.07,94.07Z"/>
      <circle class="cls-5" cx="137.81" cy="663.14" r="63.87"/>
      <path class="cls-11" d="M165.54,656.4c2.57,3.36,3.11,7.11,3.16,10.97.01.78.3,1.11,1.01,1.32,2.62.8,5.18,1.74,7.62,3,.99.51,1.71,1.23,1.87,2.38.15,1.12-.15,2.11-1.09,2.79-1,.74-2.12.87-3.23.28-1.76-.94-3.62-1.6-5.47-2.3-.67-.26-.97-.16-1.06.62-.11.95-.38,1.89-.79,2.76-.26.57-.09.84.42,1.14,1.22.71,2.43,1.44,3.6,2.23,1.54,1.02,1.91,2.8.94,4.23-.92,1.37-2.7,1.69-4.22.73-1.3-.82-2.57-1.67-3.93-2.38-.45-.23-.82-.25-1.23.1-4.6,3.88-10.1,5.69-15.87,6.84-3.57.71-7.19,1.11-10.83.93-7.4-.37-14.53-1.81-21.01-5.62-1.04-.61-2.02-1.31-2.9-2.13-.4-.37-.72-.41-1.19-.16-1.42.73-2.73,1.64-4.08,2.47-1.34.82-2.87.63-3.86-.43-1.22-1.31-1.06-3.36.45-4.42,1.22-.87,2.52-1.63,3.82-2.39.51-.3.67-.58.41-1.15-.43-.93-.68-1.93-.83-2.94-.09-.61-.33-.66-.84-.48-1.93.68-3.83,1.41-5.65,2.36-1.24.65-2.64.38-3.56-.59-.89-.94-1.07-2.27-.46-3.42.42-.79,1.13-1.24,1.89-1.61,2.35-1.15,4.79-2.1,7.3-2.83.87-.25,1.1-.66,1.09-1.52-.08-3.67.53-7.18,2.71-10.26.16-.22.38-.47-.14-.55-.93-.14-1.33-.85-1.66-1.61-.54-1.26-.81-2.6-.84-3.94-.07-3.3-.26-6.61.11-9.9.62-5.6,6.46-7.9,10.43-6.17,2.74,1.19,5.29,2.71,7.85,4.22,1.85,1.08,3.72,1.35,5.78,1.05,4.39-.65,8.8-.64,13.18,0,2.11.31,4.01,0,5.86-1.11,2.24-1.34,4.5-2.65,6.86-3.79,2.74-1.33,5.4-1.25,7.98.34,2.17,1.34,3.27,3.43,3.37,5.86.16,3.65.3,7.32-.12,10.98-.11.95-.36,1.89-.79,2.76-.38.77-.89,1.37-2.04,1.33ZM145.49,666.11c0,1.4.27,2.64,1.13,3.69,1.55,1.9,4.08,1.81,5.5-.2,1.31-1.85,1.29-4.97-.05-6.79-1.4-1.91-3.86-2.01-5.39-.21-.88,1.03-1.18,2.27-1.19,3.51ZM130.12,666.28c.06-1.29-.25-2.49-1.04-3.54-1.3-1.73-3.58-1.88-5.1-.36-1.73,1.75-1.91,5.4-.36,7.34,1.67,2.09,4.38,1.9,5.76-.41.56-.93.78-1.94.74-3.03ZM137.81,680.28c1.08.03,2.12-.08,3.09-.55.91-.44,1.62-1.08,1.61-2.19,0-1.1-.68-1.79-1.62-2.18-2.09-.86-4.22-.85-6.29.08-.87.39-1.47,1.11-1.47,2.1,0,.95.57,1.62,1.39,2.06,1.03.55,2.15.73,3.29.68Z"/>
      <path class="cls-7" d="M499.64,275.34c-75.5,0-136.92-61.42-136.92-136.92S424.14,1.5,499.64,1.5s136.92,61.42,136.92,136.92-61.42,136.92-136.92,136.92Z"/>
      <path class="cls-2" d="M499.64,237.19c-54.46,0-98.77-44.31-98.77-98.77s44.31-98.77,98.77-98.77,98.77,44.31,98.77,98.77-44.31,98.77-98.77,98.77Z"/>
      <circle class="cls-1" cx="499.64" cy="138.42" r="64.48"/>
      <g>
        <path class="cls-11" d="M512.85,97.74c0-4.65-3.77-8.42-8.42-8.42s-8.42,3.77-8.42,8.42v4.56c0,4.65,3.77,8.42,8.42,8.42s8.42-3.77,8.42-8.42v-4.56Z"/>
        <path class="cls-11" d="M477.81,167.73c-.76,0-1.52-.2-2.19-.59l-6.86-4.02c-2.07-1.21-2.76-3.87-1.55-5.93,1.21-2.07,3.87-2.76,5.93-1.55l2.89,1.69,6.72-13.25c.74-1.46,2.23-2.37,3.87-2.37h13.48v-32.97c0-2.4,1.94-4.34,4.34-4.34s4.34,1.94,4.34,4.34v37.3c0,2.4-1.94,4.34-4.34,4.34h-15.15l-7.6,14.98c-.54,1.07-1.5,1.86-2.64,2.2-.4.12-.81.18-1.22.18Z"/>
        <path class="cls-11" d="M518.6,180.3c-2.16,0-4.02-1.61-4.3-3.8-.3-2.38,1.39-4.54,3.77-4.84l.82-.1-6.43-8.47-11.43-14.34c-1.49-1.87-1.18-4.6.69-6.09,1.87-1.49,4.6-1.18,6.09.69l11.46,14.38s.04.05.06.08l11.01,14.51c.94,1.23,1.14,2.88.54,4.31-.6,1.43-1.92,2.43-3.46,2.62l-8.29,1.04c-.18.02-.36.03-.54.03Z"/>
        <path class="cls-11" d="M519.13,149.6c-2.4,0-4.34-1.94-4.34-4.34v-16.6l-9.65-5.86-9.07,10.19c-.82.93-2,1.45-3.24,1.45h-17.23c-2.4,0-4.34-1.94-4.34-4.34s1.94-4.34,4.34-4.34h15.28l10.18-11.44c1.39-1.56,3.7-1.91,5.49-.82l14.82,9.01c1.29.79,2.08,2.19,2.08,3.71v19.04c0,2.4-1.94,4.34-4.34,4.34Z"/>
        <circle class="cls-11" cx="492.69" cy="129.98" r="1.57"/>
        <circle class="cls-11" cx="504.43" cy="117.21" r="1.57"/>
        <circle class="cls-11" cx="515.66" cy="159.7" r="1.57"/>
        <circle class="cls-11" cx="519.13" cy="126.63" r="1.57"/>
        <circle class="cls-11" cx="504.43" cy="145.72" r="1.57"/>
        <circle class="cls-11" cx="486.76" cy="146.25" r="1.57"/>
        <circle class="cls-11" cx="525.93" cy="174.39" r="1.57"/>
        <circle class="cls-11" cx="477.65" cy="162.84" r="1.57"/>
      </g>
      <path class="cls-6" d="M143.95,279.52c-38.9,0-70.55-31.65-70.55-70.55s31.65-70.55,70.55-70.55,70.55,31.65,70.55,70.55-31.65,70.55-70.55,70.55Z"/>
      <circle class="cls-12" cx="143.95" cy="208.97" r="41.07"/>
      <g>
        <path class="cls-11" d="M168.1,201.49c-.26.52-.59.96-1.17,1.15-1.15.38-2.33-.4-2.38-1.67-.06-1.44-.04-2.88,0-4.32.03-.91.65-1.57,1.51-1.74.74-.15,1.49.25,1.91,1,.04.08.09.15.14.23v5.35Z"/>
        <path class="cls-11" d="M153.85,201.06c0,2.02.01,4.04,0,6.06-.04,4.04-2.82,7.47-6.74,8.34-4.82,1.08-9.64-2.27-10.3-7.15-.06-.41-.09-.83-.09-1.24,0-3.99-.01-7.99,0-11.98.01-4.1,2.8-7.53,6.8-8.42,4.62-1.03,9.34,2.12,10.17,6.79.11.63.17,1.26.17,1.9,0,1.9,0,3.8,0,5.7Z"/>
        <path class="cls-11" d="M145.28,231.47c-3.58,0-7.16,0-10.74,0-.99,0-1.8-.64-2.06-1.6-.26-.92.14-1.93.97-2.43.38-.23.79-.31,1.23-.31,2.63,0,5.26,0,7.89.01.42,0,.58-.11.56-.55-.04-.58-.04-1.16,0-1.74.03-.41-.14-.55-.51-.6-1.87-.27-3.64-.85-5.31-1.74-4.08-2.16-6.87-5.43-8.46-9.76-.5-1.36.36-2.53,1.2-2.79,1.18-.37,2.46-.03,2.94,1.34.69,1.98,1.77,3.73,3.3,5.17,2.15,2.04,4.69,3.29,7.65,3.53,5.24.44,9.34-1.57,12.3-5.91.61-.9,1.02-1.91,1.41-2.92.39-1.01,1.22-1.44,2.41-1.33.86.08,1.58.76,1.79,1.69.09.39.03.77-.11,1.14-2.3,6.19-6.67,10.04-13.12,11.48-1.15.26-1.15.22-1.15,1.38,0,.33,0,.65,0,.98q0,.62.64.62c2.63,0,5.26,0,7.89,0,1.6,0,2.63,1.57,1.99,3.04-.38.88-1.09,1.3-2.05,1.3-3.55,0-7.1,0-10.65,0Z"/>
        <path class="cls-11" d="M128.76,198.82c0-1.32,0-2.64,0-3.97,0-1.09.73-1.87,1.77-1.9.97-.02,1.82.76,1.83,1.81.03,2.7.03,5.41,0,8.11-.01,1.07-.86,1.84-1.87,1.8-1.02-.04-1.72-.8-1.72-1.89,0-1.32,0-2.64,0-3.97Z"/>
        <path class="cls-11" d="M161.8,198.82c0,1.32,0,2.64,0,3.97,0,1.08-.72,1.85-1.73,1.88-1.01.03-1.86-.74-1.87-1.8-.03-2.7-.03-5.41,0-8.11.01-1.04.86-1.83,1.83-1.8,1.04.03,1.76.81,1.76,1.9,0,1.32,0,2.64,0,3.97Z"/>
        <path class="cls-11" d="M122.43,198.82c0-.71,0-1.42,0-2.14.01-.96.7-1.71,1.64-1.79.88-.08,1.72.56,1.91,1.46.03.14.06.29.06.44,0,1.35.01,2.7,0,4.05,0,.77-.34,1.38-1.05,1.73-.66.32-1.3.23-1.88-.22-.43-.34-.67-.79-.67-1.35,0-.73,0-1.45,0-2.18Z"/>
      </g>
      <path class="cls-9" d="M570.91,605.65c-46.68,0-84.66-37.98-84.66-84.66s37.98-84.66,84.66-84.66,84.66,37.98,84.66,84.66-37.98,84.66-84.66,84.66Z"/>
      <circle class="cls-10" cx="570.91" cy="520.99" r="51.8"/>
      <path class="cls-11" d="M576.85,552.32c-3.44.79-6.8,1.08-10.2.32-2.27-.5-4.35-1.46-6.32-2.65-4.4-2.64-8.36-5.88-12.44-8.97-2.55-1.94-5.22-3.73-7.54-5.96-1.14-1.1-2.24-2.24-2.59-3.86-.47-2.16,1.29-4.33,3.5-4.39,1.57-.04,3,.44,4.38,1.11,2.76,1.35,5.49,2.74,8.24,4.11.22.11.44.23.67.32.48.18.94.13,1.31-.23.36-.36.42-.81.27-1.31-1.94-6.22-3.88-12.44-5.82-18.66-1.3-4.16-2.61-8.32-3.9-12.49-.24-.77-.28-1.58-.17-2.38.21-1.45,1.01-2.44,2.36-2.95,1.31-.49,2.5-.19,3.57.67,1.07.87,1.63,2.07,2.08,3.33,1.73,4.8,3.47,9.61,5.21,14.41.59,1.64,1.2,3.27,1.78,4.9.23.64.63.99,1.32.79.7-.2.8-.74.68-1.39-.4-2.12-.79-4.24-1.19-6.36-1.02-5.38-2.05-10.75-3.05-16.13-.18-.95-.23-1.92.05-2.88.44-1.45,1.38-2.41,2.85-2.71,1.46-.3,2.65.26,3.56,1.44.66.85,1.01,1.84,1.25,2.87.97,4.14,1.87,8.31,2.88,12.44.78,3.17,1.48,6.35,2.19,9.54.04.19.1.38.16.56.22.57.6.98,1.25.84.67-.14.9-.66.86-1.32-.25-4.36-.51-8.71-.74-13.07-.14-2.67-.25-5.35-.36-8.03-.03-.58.07-1.16.21-1.72.47-1.85,1.69-2.82,3.58-2.85,1.53-.03,2.75,1.06,3.23,2.82.47,1.72.53,3.49.7,5.25.4,4.01.74,8.03,1.12,12.04.19,2.09.4,4.18.59,6.27.07.83.45,1.32,1.08,1.3.81-.04,1.04-.59,1.1-1.3.45-5.04.89-10.07,1.35-15.11.09-1.05.19-2.09.61-3.08.64-1.49,1.69-2.15,3.25-2.03,1.5.12,2.42.92,2.8,2.5.45,1.85.32,3.74.36,5.61.15,8.37.28,16.74-.08,25.1-.16,3.69-.66,7.32-1.8,10.85-2.28,7.02-7.05,11.18-14.23,12.44Z"/>
    </g>
  </g>
</svg>