<svg xmlns="http://www.w3.org/2000/svg" xmlns:xlink="http://www.w3.org/1999/xlink" width="600" height="372" viewBox="0 0 600 372">
  <defs>
    <style>
      .cls-1 {
        fill: none;
      }

      .cls-2 {
        fill: #ff642e;
      }

      .cls-3 {
        opacity: 0.2;
      }

      .cls-4 {
        clip-path: url(#clip-path);
      }

      .cls-5 {
        fill: #fffbf3;
      }

      .cls-6 {
        fill: #fff;
      }

      .cls-7 {
        clip-path: url(#clip-path-2);
      }

      .cls-8 {
        fill: #fcc;
      }

      .cls-9 {
        fill: #f48f7a;
      }

      .cls-10 {
        fill: #3f2727;
      }
    </style>
    <clipPath id="clip-path">
      <rect id="矩形_6222" data-name="矩形 6222" class="cls-1" width="360.577" height="174.543" transform="translate(70.785 582.734)"/>
    </clipPath>
    <clipPath id="clip-path-2">
      <rect id="矩形_6223" data-name="矩形 6223" class="cls-1" width="176.531" height="148.725" transform="translate(315.405 751.065)"/>
    </clipPath>
  </defs>
  <g id="组_46036" data-name="组 46036" transform="translate(651.653 2814.21)">
    <rect id="矩形_6221" data-name="矩形 6221" class="cls-2" width="600" height="372" transform="translate(-651.653 -2814.21)"/>
    <g id="组_45984" data-name="组 45984" class="cls-3" transform="translate(-651.653 -3342)">
      <g id="组_45983" data-name="组 45983">
        <g id="组_45982" data-name="组 45982" class="cls-4">
          <path id="路径_38436" data-name="路径 38436" class="cls-5" d="M359.5,582.734H142.647A71.861,71.861,0,0,0,70.786,654.6v6.256a71.862,71.862,0,0,0,71.861,71.862H271.539l33.3,24.563V732.714H359.5a71.862,71.862,0,0,0,71.862-71.862V654.6A71.862,71.862,0,0,0,359.5,582.734"/>
        </g>
      </g>
    </g>
    <path id="路径_38437" data-name="路径 38437" class="cls-6" d="M165.929,685.216a5.636,5.636,0,0,1-5.636-5.636V635.869a5.636,5.636,0,1,1,11.272,0V679.58a5.636,5.636,0,0,1-5.636,5.636" transform="translate(-651.653 -3342)"/>
    <path id="路径_38438" data-name="路径 38438" class="cls-6" d="M146.8,673.832a5.636,5.636,0,0,1-5.636-5.636V647.254a5.636,5.636,0,1,1,11.272,0V668.2a5.636,5.636,0,0,1-5.636,5.636" transform="translate(-651.653 -3342)"/>
    <path id="路径_38439" data-name="路径 38439" class="cls-6" d="M185.061,673.832a5.636,5.636,0,0,1-5.636-5.636V647.254a5.636,5.636,0,1,1,11.272,0V668.2a5.636,5.636,0,0,1-5.636,5.636" transform="translate(-651.653 -3342)"/>
    <path id="路径_38440" data-name="路径 38440" class="cls-6" d="M346,676.982a5.636,5.636,0,0,1-5.636-5.636V644.1a5.636,5.636,0,1,1,11.272,0v27.243A5.636,5.636,0,0,1,346,676.982" transform="translate(-651.653 -3342)"/>
    <path id="路径_38441" data-name="路径 38441" class="cls-6" d="M326.866,682.23a5.636,5.636,0,0,1-5.636-5.636V638.855a5.636,5.636,0,0,1,11.272,0v37.739a5.636,5.636,0,0,1-5.636,5.636" transform="translate(-651.653 -3342)"/>
    <path id="路径_38442" data-name="路径 38442" class="cls-6" d="M365.13,673.832a5.636,5.636,0,0,1-5.636-5.636V647.254a5.636,5.636,0,1,1,11.272,0V668.2a5.636,5.636,0,0,1-5.636,5.636" transform="translate(-651.653 -3342)"/>
    <path id="路径_38443" data-name="路径 38443" class="cls-6" d="M225.435,698.9a5.636,5.636,0,0,1-5.636-5.636V622.182a5.636,5.636,0,1,1,11.272,0v71.085a5.636,5.636,0,0,1-5.636,5.636" transform="translate(-651.653 -3342)"/>
    <path id="路径_38444" data-name="路径 38444" class="cls-6" d="M206.3,673.832a5.636,5.636,0,0,1-5.636-5.636V647.254a5.636,5.636,0,1,1,11.272,0V668.2a5.636,5.636,0,0,1-5.636,5.636" transform="translate(-651.653 -3342)"/>
    <path id="路径_38445" data-name="路径 38445" class="cls-6" d="M244.567,680.389a5.636,5.636,0,0,1-5.636-5.636V640.7a5.636,5.636,0,0,1,11.272,0v34.057a5.636,5.636,0,0,1-5.636,5.636" transform="translate(-651.653 -3342)"/>
    <path id="路径_38446" data-name="路径 38446" class="cls-6" d="M286.725,685.216a5.636,5.636,0,0,1-5.636-5.636V635.869a5.636,5.636,0,1,1,11.272,0V679.58a5.636,5.636,0,0,1-5.636,5.636" transform="translate(-651.653 -3342)"/>
    <path id="路径_38447" data-name="路径 38447" class="cls-6" d="M267.594,673.832a5.636,5.636,0,0,1-5.636-5.636V647.254a5.636,5.636,0,1,1,11.272,0V668.2a5.636,5.636,0,0,1-5.636,5.636" transform="translate(-651.653 -3342)"/>
    <path id="路径_38448" data-name="路径 38448" class="cls-6" d="M305.858,673.832a5.636,5.636,0,0,1-5.636-5.636V647.254a5.636,5.636,0,1,1,11.272,0V668.2a5.636,5.636,0,0,1-5.636,5.636" transform="translate(-651.653 -3342)"/>
    <g id="组_45987" data-name="组 45987" class="cls-3" transform="translate(-651.653 -3342)">
      <g id="组_45986" data-name="组 45986">
        <g id="组_45985" data-name="组 45985" class="cls-7">
          <path id="路径_38449" data-name="路径 38449" class="cls-8" d="M349,899.79h97.548a82.856,82.856,0,0,0,17.176-17.023,22.032,22.032,0,0,0,15.98-40.881,83.226,83.226,0,0,0,.43-8.458A82.363,82.363,0,1,0,349,899.79"/>
          <path id="路径_38450" data-name="路径 38450" class="cls-9" d="M405.6,868.279a19.443,19.443,0,1,1-38.549-5.106c1.409-10.645,9.042-13.654,19.687-12.244s20.272,6.7,18.862,17.35"/>
          <path id="路径_38451" data-name="路径 38451" class="cls-10" d="M397.768,796.216c19.848,34.517,64.308,40.478,81.975,45.151.25-2.614.388-5.26.388-7.939a82.363,82.363,0,0,0-164.726,0c51.479-9.03,82.363-37.212,82.363-37.212"/>
          <path id="路径_38452" data-name="路径 38452" class="cls-10" d="M376.553,839.532h0a5.079,5.079,0,0,1-4.369-5.7l1-7.528a5.079,5.079,0,1,1,10.07,1.333l-1,7.528a5.079,5.079,0,0,1-5.7,4.369"/>
          <path id="路径_38453" data-name="路径 38453" class="cls-10" d="M404.576,844.313h0a5.079,5.079,0,0,1-4.369-5.7l1-7.528a5.079,5.079,0,1,1,10.07,1.333l-1,7.528a5.079,5.079,0,0,1-5.7,4.369"/>
        </g>
      </g>
    </g>
  </g>
</svg>
