<svg xmlns="http://www.w3.org/2000/svg" xmlns:xlink="http://www.w3.org/1999/xlink" width="600" height="372" viewBox="0 0 600 372">
  <defs>
    <style>
      .cls-1, .cls-9 {
        fill: none;
      }

      .cls-2 {
        fill: #30e266;
      }

      .cls-3 {
        opacity: 0.2;
      }

      .cls-4 {
        clip-path: url(#clip-path);
      }

      .cls-5 {
        fill: #fff;
      }

      .cls-6 {
        opacity: 0.3;
      }

      .cls-7 {
        clip-path: url(#clip-path-2);
      }

      .cls-8 {
        fill: #ffffcf;
      }

      .cls-9 {
        stroke: #fff;
        stroke-miterlimit: 10;
        stroke-width: 2px;
      }
    </style>
    <clipPath id="clip-path">
      <rect id="矩形_6236" data-name="矩形 6236" class="cls-1" width="403.1" height="327.061" transform="translate(1471.43 547.165)"/>
    </clipPath>
    <clipPath id="clip-path-2">
      <rect id="矩形_6237" data-name="矩形 6237" class="cls-1" width="239.01" height="279.445" transform="translate(1549.05 573.092)"/>
    </clipPath>
  </defs>
  <g id="组_46034" data-name="组 46034" transform="translate(-726.597 2817.305)">
    <rect id="矩形_6235" data-name="矩形 6235" class="cls-2" width="600" height="372" transform="translate(726.597 -2817.305)"/>
    <g id="组_46014" data-name="组 46014" class="cls-3" transform="translate(-651.653 -3342)">
      <g id="组_46013" data-name="组 46013">
        <g id="组_46012" data-name="组 46012" class="cls-4">
          <path id="路径_38582" data-name="路径 38582" class="cls-5" d="M1479.383,601.426a6.065,6.065,0,0,1-6.622-5.451l-1.307-13.473a6.064,6.064,0,0,1,5.451-6.622l13.921-1.351A6.065,6.065,0,1,1,1492,586.6l-7.886.765.722,7.437a6.065,6.065,0,0,1-5.451,6.622"/>
          <path id="路径_38583" data-name="路径 38583" class="cls-5" d="M1846.138,572.74a6.064,6.064,0,0,1-6.622-5.451l-.723-7.437-7.883.765a6.065,6.065,0,1,1-1.171-12.073l13.921-1.35a6.063,6.063,0,0,1,6.621,5.451l1.308,13.473a6.065,6.065,0,0,1-5.451,6.622"/>
          <path id="路径_38584" data-name="路径 38584" class="cls-5" d="M1516.214,872.847l-13.922,1.35a6.064,6.064,0,0,1-6.622-5.451l-1.307-13.472a6.065,6.065,0,1,1,12.073-1.171l.722,7.436,7.885-.765a6.065,6.065,0,1,1,1.171,12.073"/>
          <path id="路径_38585" data-name="路径 38585" class="cls-5" d="M1869.047,845.511l-13.921,1.35a6.065,6.065,0,0,1-1.171-12.073l7.884-.765-.721-7.436a6.065,6.065,0,0,1,12.073-1.171l1.307,13.473a6.065,6.065,0,0,1-5.451,6.622"/>
        </g>
      </g>
    </g>
    <g id="组_46017" data-name="组 46017" class="cls-6" transform="translate(-651.653 -3342)">
      <g id="组_46016" data-name="组 46016">
        <g id="组_46015" data-name="组 46015" class="cls-7">
          <path id="路径_38586" data-name="路径 38586" class="cls-8" d="M1734.039,843.672c-14.269,5.911-28.571,9.558-43.764,8.755-10.147-.537-19.808-3.154-29.193-6.851-20.878-8.225-40.335-19.346-60.153-29.725-12.424-6.507-25.225-12.334-36.854-20.281-5.723-3.912-11.3-8.023-13.988-14.781-3.571-8.984,2.435-19.633,11.948-21.495,6.737-1.319,13.278-.29,19.694,1.621,12.867,3.832,25.68,7.85,38.516,11.787,1.04.319,2.077.672,3.14.887a5.057,5.057,0,0,0,5.473-1.957,5.314,5.314,0,0,0,.216-5.832q-19.326-38.146-38.621-76.31c-8.621-17.029-17.3-34.03-25.852-51.092a23.821,23.821,0,0,1-2.442-10.15,15.248,15.248,0,0,1,8.072-14.422c5.287-3.059,10.666-2.634,15.89.324,5.261,2.978,8.518,7.749,11.394,12.863q16.434,29.219,32.9,58.419c3.737,6.63,7.524,13.233,11.235,19.877,1.451,2.6,3.436,3.809,6.272,2.444,2.889-1.391,2.928-3.79,1.933-6.484-3.268-8.848-6.472-17.719-9.732-26.569Q1627.71,641,1615.3,607.295a26.3,26.3,0,0,1-1.848-12.445c.836-6.563,4.209-11.415,10.35-13.772,6.072-2.33,11.631-.806,16.412,3.628a31.928,31.928,0,0,1,7.457,11.468c7.183,17.185,14.056,34.5,21.442,51.6,5.663,13.106,10.965,26.352,16.348,39.569a18.1,18.1,0,0,0,1.112,2.278c1.351,2.322,3.3,3.778,6,2.716,2.8-1.1,3.406-3.5,2.768-6.314-4.223-18.616-8.48-37.225-12.629-55.857-2.546-11.439-4.928-22.914-7.364-34.376A25.978,25.978,0,0,1,1675,588.2c.691-8.308,5.256-13.382,13.377-14.885,6.563-1.215,12.649,2.563,15.995,9.841,3.258,7.083,4.806,14.7,6.831,22.147,4.623,17.019,9.016,34.1,13.517,51.153,2.343,8.877,4.739,17.74,7.063,26.622.92,3.514,2.894,5.393,5.608,4.813,3.452-.738,4.052-3.315,3.812-6.4q-2.577-33.087-5.091-66.18c-.347-4.579-.7-9.171.415-13.72,1.685-6.9,5.733-10.5,12.567-11.106,6.553-.583,11.094,2.236,13.874,8.76,3.261,7.651,4.1,15.9,5.594,23.958,6.7,36.005,13.3,72.029,17.82,108.39,1.991,16.016,2.442,32.082.058,48.111-4.748,31.922-22.343,53.325-52.4,63.964"/>
        </g>
      </g>
    </g>
    <path id="路径_38587" data-name="路径 38587" class="cls-5" d="M1633.307,721.533a5.415,5.415,0,1,1-6.235-4.446,5.415,5.415,0,0,1,6.235,4.446" transform="translate(-651.653 -3342)"/>
    <path id="路径_38588" data-name="路径 38588" class="cls-5" d="M1570.148,775.569a5.415,5.415,0,1,1-6.236-4.446,5.416,5.416,0,0,1,6.236,4.446" transform="translate(-651.653 -3342)"/>
    <path id="路径_38589" data-name="路径 38589" class="cls-5" d="M1607.911,787.522a5.415,5.415,0,1,1-6.235-4.446,5.415,5.415,0,0,1,6.235,4.446" transform="translate(-651.653 -3342)"/>
    <path id="路径_38590" data-name="路径 38590" class="cls-5" d="M1644.254,807.555a5.415,5.415,0,1,1-6.235-4.446,5.415,5.415,0,0,1,6.235,4.446" transform="translate(-651.653 -3342)"/>
    <path id="路径_38591" data-name="路径 38591" class="cls-5" d="M1734.489,811.614a9.338,9.338,0,1,1-10.752-7.666,9.337,9.337,0,0,1,10.752,7.666" transform="translate(-651.653 -3342)"/>
    <path id="路径_38592" data-name="路径 38592" class="cls-5" d="M1612.16,681.508a5.415,5.415,0,1,1-6.235-4.446,5.415,5.415,0,0,1,6.235,4.446" transform="translate(-651.653 -3342)"/>
    <path id="路径_38593" data-name="路径 38593" class="cls-5" d="M1585.19,631.146a5.415,5.415,0,1,1-6.235-4.446,5.415,5.415,0,0,1,6.235,4.446" transform="translate(-651.653 -3342)"/>
    <path id="路径_38594" data-name="路径 38594" class="cls-5" d="M1634.782,593.473a5.415,5.415,0,1,1-6.235-4.446,5.415,5.415,0,0,1,6.235,4.446" transform="translate(-651.653 -3342)"/>
    <path id="路径_38595" data-name="路径 38595" class="cls-5" d="M1654.344,644.7a5.415,5.415,0,1,1-6.236-4.446,5.416,5.416,0,0,1,6.236,4.446" transform="translate(-651.653 -3342)"/>
    <path id="路径_38596" data-name="路径 38596" class="cls-5" d="M1675.595,700.165a5.415,5.415,0,1,1-6.236-4.446,5.415,5.415,0,0,1,6.236,4.446" transform="translate(-651.653 -3342)"/>
    <path id="路径_38597" data-name="路径 38597" class="cls-5" d="M1719.935,690.161a5.415,5.415,0,1,1-6.235-4.446,5.415,5.415,0,0,1,6.235,4.446" transform="translate(-651.653 -3342)"/>
    <path id="路径_38598" data-name="路径 38598" class="cls-5" d="M1708.394,636.939a5.415,5.415,0,1,1-6.236-4.446,5.416,5.416,0,0,1,6.236,4.446" transform="translate(-651.653 -3342)"/>
    <path id="路径_38599" data-name="路径 38599" class="cls-5" d="M1695.856,585.879a5.415,5.415,0,1,1-6.235-4.446,5.415,5.415,0,0,1,6.235,4.446" transform="translate(-651.653 -3342)"/>
    <path id="路径_38600" data-name="路径 38600" class="cls-5" d="M1756.749,605.04a5.415,5.415,0,1,1-6.235-4.446,5.415,5.415,0,0,1,6.235,4.446" transform="translate(-651.653 -3342)"/>
    <path id="路径_38601" data-name="路径 38601" class="cls-5" d="M1763.917,647.828a5.415,5.415,0,1,1-6.236-4.446,5.416,5.416,0,0,1,6.236,4.446" transform="translate(-651.653 -3342)"/>
    <path id="路径_38602" data-name="路径 38602" class="cls-5" d="M1766.482,695.922a5.415,5.415,0,1,1-6.235-4.446,5.415,5.415,0,0,1,6.235,4.446" transform="translate(-651.653 -3342)"/>
    <path id="路径_38603" data-name="路径 38603" class="cls-9" d="M1564.531,774.815l38.04,13.6,36.343,20.033,86.366,4.707-96.957-88.6-21.5-42.152-26.97-50.363" transform="translate(-651.653 -3342)"/>
    <path id="路径_38604" data-name="路径 38604" class="cls-9" d="M1690.515,586.773l12.538,51.06,11.541,53.222,10.685,122.1-55.025-112.1L1649,645.594l-19.561-51.226" transform="translate(-651.653 -3342)"/>
    <path id="路径_38605" data-name="路径 38605" class="cls-9" d="M1751.409,605.934l7.167,42.789,2.849,49.785-34.54,114.38" transform="translate(-651.653 -3342)"/>
  </g>
</svg>
