<svg xmlns="http://www.w3.org/2000/svg" xmlns:xlink="http://www.w3.org/1999/xlink" width="600" height="372" viewBox="0 0 600 372">
  <defs>
    <style>
      .cls-1, .cls-8 {
        fill: none;
      }

      .cls-2 {
        fill: #8f8fff;
      }

      .cls-3 {
        opacity: 0.15;
      }

      .cls-4 {
        clip-path: url(#clip-path);
      }

      .cls-5 {
        fill: #fff;
      }

      .cls-6 {
        opacity: 0.2;
      }

      .cls-7 {
        clip-path: url(#clip-path-3);
      }

      .cls-8 {
        stroke: #fff;
        stroke-linecap: round;
        stroke-linejoin: round;
        stroke-width: 4px;
      }
    </style>
    <clipPath id="clip-path">
      <rect id="矩形_6242" data-name="矩形 6242" class="cls-1" width="224.45" height="245.944" transform="translate(2258.68 583.44)"/>
    </clipPath>
    <clipPath id="clip-path-3">
      <rect id="矩形_6244" data-name="矩形 6244" class="cls-1" width="395.79" height="263.9" transform="translate(2163.05 580.865)"/>
    </clipPath>
  </defs>
  <g id="组_46033" data-name="组 46033" transform="translate(-1416.487 2818.589)">
    <rect id="矩形_6241" data-name="矩形 6241" class="cls-2" width="600" height="372" transform="translate(1416.487 -2818.589)"/>
    <g id="组_46023" data-name="组 46023" class="cls-3" transform="translate(-651.653 -3342)">
      <g id="组_46022" data-name="组 46022">
        <g id="组_46021" data-name="组 46021" class="cls-4">
          <path id="路径_38638" data-name="路径 38638" class="cls-5" d="M2259.933,728.19c-1.651-15.639-2.187-30.338,1.642-44.835,3.6-13.61,10.506-24.943,23.242-31.823,13.535-7.311,27.771-8.07,42.346-3.611,3.326,1.018,6.516,2.486,9.753,3.788,9.338,3.754,18.974,5.406,28.951,3.553a50.733,50.733,0,0,0,22.825-10.528c7.852-6.332,16.357-11.219,26.326-13.4,19.551-4.284,38.1,1.953,49.982,18.262,6.9,9.477,11.049,20.162,13.886,31.391,3.68,14.559,5.318,29.3,3.508,44.331-2.686,22.294-10.842,42.493-23.164,61.11a115.278,115.278,0,0,1-23.209,26.124c-10.644,8.673-22.011,10.429-34.942,5.241-11.378-4.564-22.644-2.953-32.489,4.4-10.8,8.064-22.015,9.314-34.184,3.922-15.593-6.908-28.581-17.357-40.141-29.687-14.481-15.447-25.295-33.067-31.175-53.54a137.047,137.047,0,0,1-3.157-14.7"/>
          <path id="路径_38639" data-name="路径 38639" class="cls-5" d="M2351.38,641.391c-2.783-5.292-5.122-10.614-8.169-15.593a87.169,87.169,0,0,0-28.9-29.027c-2.717-1.68-5.086-1.342-6.43.8-1.287,2.056-.595,4.587,1.972,6.2a80.18,80.18,0,0,1,28.938,31.341c1.244,2.392,2.233,4.917,3.318,7.39.234.533.728,1.161.153,1.676-.524.469-1.175.037-1.724-.166-3.678-1.366-7.295-2.915-11.026-4.114a65.075,65.075,0,0,0-22.976-2.885,4.381,4.381,0,0,1-4.14-2.072c-5.119-7-7.251-15.035-7.941-23.48a90.721,90.721,0,0,1,1.28-23.177c.6-3.377,1.836-4.733,5.155-4.812,13.33-.319,26.329,1.234,38.157,8.006,10.625,6.082,15.454,15.906,17.266,27.566a5.945,5.945,0,0,1-.323,2.834,102.149,102.149,0,0,0-4.243,18.323,7.566,7.566,0,0,1-.37,1.182"/>
          <path id="路径_38640" data-name="路径 38640" class="cls-5" d="M2363.288,647.433c-3.865.559-4.022.428-3.622-3.535q3.643-36.135,32.354-58.39c2.637-2.05,5.42-1.82,7.152.416,1.75,2.26,1.264,4.836-1.335,7.076-.2.17-.4.333-.609.494a73.168,73.168,0,0,0-23.725,32.221,75.733,75.733,0,0,0-4.01,15.67c-.788,5.234-.792,5.264-6.2,6.048"/>
        </g>
      </g>
    </g>
    <g id="组_46026" data-name="组 46026" class="cls-3" transform="translate(-651.653 -3342)">
      <g id="组_46025" data-name="组 46025">
        <g id="组_46024" data-name="组 46024" class="cls-4">
          <path id="路径_38641" data-name="路径 38641" class="cls-5" d="M2259.933,728.19c-1.651-15.639-2.187-30.338,1.642-44.835,3.6-13.61,10.506-24.943,23.242-31.823,13.535-7.311,27.771-8.07,42.346-3.611,3.326,1.018,6.516,2.486,9.753,3.788,9.338,3.754,18.974,5.406,28.951,3.553a50.733,50.733,0,0,0,22.825-10.528c7.852-6.332,16.357-11.219,26.326-13.4,19.551-4.284,38.1,1.953,49.982,18.262,6.9,9.477,11.049,20.162,13.886,31.391,3.68,14.559,5.318,29.3,3.508,44.331-2.686,22.294-10.842,42.493-23.164,61.11a115.278,115.278,0,0,1-23.209,26.124c-10.644,8.673-22.011,10.429-34.942,5.241-11.378-4.564-22.644-2.953-32.489,4.4-10.8,8.064-22.015,9.314-34.184,3.922-15.593-6.908-28.581-17.357-40.141-29.687-14.481-15.447-25.295-33.067-31.175-53.54a137.047,137.047,0,0,1-3.157-14.7"/>
          <path id="路径_38642" data-name="路径 38642" class="cls-5" d="M2351.38,641.391c-2.783-5.292-5.122-10.614-8.169-15.593a87.169,87.169,0,0,0-28.9-29.027c-2.717-1.68-5.086-1.342-6.43.8-1.287,2.056-.595,4.587,1.972,6.2a80.18,80.18,0,0,1,28.938,31.341c1.244,2.392,2.233,4.917,3.318,7.39.234.533.728,1.161.153,1.676-.524.469-1.175.037-1.724-.166-3.678-1.366-7.295-2.915-11.026-4.114a65.075,65.075,0,0,0-22.976-2.885,4.381,4.381,0,0,1-4.14-2.072c-5.119-7-7.251-15.035-7.941-23.48a90.721,90.721,0,0,1,1.28-23.177c.6-3.377,1.836-4.733,5.155-4.812,13.33-.319,26.329,1.234,38.157,8.006,10.625,6.082,15.454,15.906,17.266,27.566a5.945,5.945,0,0,1-.323,2.834,102.149,102.149,0,0,0-4.243,18.323,7.566,7.566,0,0,1-.37,1.182"/>
          <path id="路径_38643" data-name="路径 38643" class="cls-5" d="M2363.288,647.433c-3.865.559-4.022.428-3.622-3.535q3.643-36.135,32.354-58.39c2.637-2.05,5.42-1.82,7.152.416,1.75,2.26,1.264,4.836-1.335,7.076-.2.17-.4.333-.609.494a73.168,73.168,0,0,0-23.725,32.221,75.733,75.733,0,0,0-4.01,15.67c-.788,5.234-.792,5.264-6.2,6.048"/>
        </g>
      </g>
    </g>
    <g id="组_46029" data-name="组 46029" class="cls-6" transform="translate(-651.653 -3342)">
      <g id="组_46028" data-name="组 46028">
        <g id="组_46027" data-name="组 46027" class="cls-7">
          <path id="路径_38644" data-name="路径 38644" class="cls-5" d="M2168.391,603.481a5.343,5.343,0,0,1-5.344-5.344V586.209a5.344,5.344,0,0,1,5.344-5.344h12.325a5.344,5.344,0,0,1,0,10.688h-6.981v6.584a5.343,5.343,0,0,1-5.344,5.344"/>
          <path id="路径_38645" data-name="路径 38645" class="cls-5" d="M2553.5,603.612a5.343,5.343,0,0,1-5.344-5.344v-6.584h-6.98a5.344,5.344,0,0,1,0-10.688H2553.5a5.344,5.344,0,0,1,5.344,5.344v11.928a5.343,5.343,0,0,1-5.344,5.344"/>
          <path id="路径_38646" data-name="路径 38646" class="cls-5" d="M2180.716,844.634h-12.325a5.344,5.344,0,0,1-5.344-5.344V827.363a5.344,5.344,0,0,1,10.688,0v6.583h6.981a5.344,5.344,0,0,1,0,10.688"/>
          <path id="路径_38647" data-name="路径 38647" class="cls-5" d="M2553.5,844.765h-12.324a5.344,5.344,0,0,1,0-10.688h6.98v-6.583a5.344,5.344,0,0,1,10.688,0v11.927a5.343,5.343,0,0,1-5.344,5.344"/>
        </g>
      </g>
    </g>
    <path id="路径_38648" data-name="路径 38648" class="cls-8" d="M2487.914,703.991a116.076,116.076,0,0,0-13.675-49.588c-14.424-26.472-39.2-33.3-62.658-27.023h0a25.224,25.224,0,0,0-2.548.543c-6.817,2.18-12.807,5.886-18.6,10-5.469,3.886-10.741,8.118-17.125,10.525a60.884,60.884,0,0,1,2.912-17.564,67.356,67.356,0,0,1,24.17-35.171c4.676-3.6,5.483-8.952,2.215-13.138-3.219-4.122-8.662-4.559-13.312-1.017a85.893,85.893,0,0,0-19.4,20.592c-3.737,5.567-6.449,11.637-9.205,17.7-.1-.693-.188-1.388-.3-2.08-2.569-16.52-11.218-28.232-27.137-34.089-12.555-4.62-25.568-5.546-38.805-4.6-1.652.119-1.965,1.035-2.244,2.314a102.453,102.453,0,0,0-2.363,29.213c.828,11.538,4.021,22.211,12.4,30.745a56.986,56.986,0,0,0-9.486,2.05c-17.2,5.431-28.416,16.932-34.141,33.909-4.341,12.873-4.9,26.12-4.18,39.575a124.333,124.333,0,0,0,10.225,43.684,109.56,109.56,0,0,0,17.319,28.228c13.9,17.732,30.493,32.153,51.1,41.664,13.028,6.012,25.564,5.443,37.248-3.146,10.122-7.442,20.739-8.84,32.455-4.308,10.87,4.205,21.461,3.39,31.413-3.036a61.981,61.981,0,0,0,10.857-8.7C2474.141,781.435,2490.261,746.244,2487.914,703.991Z" transform="translate(-651.653 -3342)"/>
  </g>
</svg>
