<svg xmlns="http://www.w3.org/2000/svg" xmlns:xlink="http://www.w3.org/1999/xlink" width="600" height="372" viewBox="0 0 600 372">
  <defs>
    <style>
      .cls-1, .cls-13 {
        fill: none;
      }

      .cls-2 {
        fill: #3bf;
      }

      .cls-3 {
        opacity: 0.15;
      }

      .cls-4 {
        clip-path: url(#clip-path);
      }

      .cls-5 {
        fill: #fff;
      }

      .cls-6 {
        opacity: 0.2;
      }

      .cls-7 {
        clip-path: url(#clip-path-2);
      }

      .cls-8 {
        clip-path: url(#clip-path-3);
      }

      .cls-9 {
        fill: #9f9;
      }

      .cls-10 {
        fill: #6ff;
      }

      .cls-11 {
        fill: #336697;
      }

      .cls-12 {
        fill: #fcc;
      }

      .cls-13 {
        stroke: #fff;
        stroke-miterlimit: 10;
        stroke-width: 2px;
      }
    </style>
    <clipPath id="clip-path">
      <rect id="矩形_6230" data-name="矩形 6230" class="cls-1" width="125.63" height="53.674" transform="translate(898.78 683.756)"/>
    </clipPath>
    <clipPath id="clip-path-2">
      <rect id="矩形_6231" data-name="矩形 6231" class="cls-1" width="441.091" height="287.479" transform="translate(770.589 561.82)"/>
    </clipPath>
    <clipPath id="clip-path-3">
      <rect id="矩形_6232" data-name="矩形 6232" class="cls-1" width="327.957" height="303.045" transform="translate(801.283 570.12)"/>
    </clipPath>
  </defs>
  <g id="组_46035" data-name="组 46035" transform="translate(-34.839 2814.21)">
    <rect id="矩形_6229" data-name="矩形 6229" class="cls-2" width="600" height="372" transform="translate(34.839 -2814.21)"/>
    <g id="组_46002" data-name="组 46002" class="cls-3" transform="translate(-651.653 -3342)">
      <g id="组_46001" data-name="组 46001">
        <g id="组_46000" data-name="组 46000" class="cls-4">
          <path id="路径_38489" data-name="路径 38489" class="cls-5" d="M1019.3,709.627c-7.345-7.361-13.741-13.357-18.052-17.3l6.121-8.57c5.733,13.907,11.578,23.891,17.037,31.059q-2.609-2.688-5.106-5.188m-114.289,27.8-5.379-3.59-.855-.684Z"/>
        </g>
      </g>
    </g>
    <g id="组_46005" data-name="组 46005" class="cls-6" transform="translate(-651.653 -3342)">
      <g id="组_46004" data-name="组 46004">
        <g id="组_46003" data-name="组 46003" class="cls-7">
          <path id="路径_38490" data-name="路径 38490" class="cls-5" d="M775.856,584.107a5.266,5.266,0,0,1-5.267-5.266V567.086a5.265,5.265,0,0,1,5.267-5.266H788a5.267,5.267,0,0,1,0,10.533h-6.88v6.488a5.266,5.266,0,0,1-5.266,5.266"/>
          <path id="路径_38491" data-name="路径 38491" class="cls-5" d="M1206.418,584.236a5.266,5.266,0,0,1-5.266-5.266v-6.488h-6.879a5.267,5.267,0,0,1,0-10.533h12.145a5.265,5.265,0,0,1,5.266,5.266V578.97a5.266,5.266,0,0,1-5.266,5.266"/>
          <path id="路径_38492" data-name="路径 38492" class="cls-5" d="M788,849.169H775.855a5.266,5.266,0,0,1-5.266-5.266V832.148a5.267,5.267,0,0,1,10.533,0v6.488H788a5.267,5.267,0,0,1,0,10.533"/>
          <path id="路径_38493" data-name="路径 38493" class="cls-5" d="M1206.418,849.3h-12.145a5.267,5.267,0,0,1,0-10.533h6.879v-6.488a5.266,5.266,0,0,1,10.532,0v11.755a5.266,5.266,0,0,1-5.266,5.266"/>
        </g>
      </g>
    </g>
    <g id="组_46008" data-name="组 46008" class="cls-6" transform="translate(-651.653 -3342)">
      <g id="组_46007" data-name="组 46007">
        <g id="组_46006" data-name="组 46006" class="cls-8">
          <path id="路径_38494" data-name="路径 38494" class="cls-9" d="M1031.413,614.55s-33.955-11.516-64.533-14.3c-21.687-1.972-68.545-.148-93.959,1.08a18.11,18.11,0,1,0,1.855,36.173c12.267-.672,28.787-1.322,44.451-1.116,20.084.264,32.079.529,37.857.676a2.579,2.579,0,0,1,2.193,3.829c-9.918,18-52.638,95.4-54.744,97.156-2.382,1.986-86.173,11.516-86.173,11.516l3.177,42.491s79.025-8.339,93.321-10.325,40.9-35.74,50.037-56.39c0,0,67.509,69.495,97.292,132.239l30.975-21.444v-9.531s-13.9-25.812-37.525-61.155-65.724-71.878-65.724-71.878l17.7-24.778a1.9,1.9,0,0,1,3.337.468c4.009,11.387,17.906,47.168,36.546,54.491,16.414,6.448,38.452-12.414,51.106-27.687a17.433,17.433,0,1,0-27.482-21.431l-6.169,8.428a3.016,3.016,0,0,1-5.218-.62Z"/>
          <path id="路径_38495" data-name="路径 38495" class="cls-10" d="M1093.162,836.139v-9.531s-13.9-25.812-37.525-61.155-65.724-71.877-65.724-71.877l-52.261-13.591c-15,27-31.817,56.983-33.118,58.067-2.383,1.986-86.174,11.517-86.174,11.517l3.177,42.49s79.026-8.339,93.322-10.324,40.9-35.741,50.036-56.39c0,0,67.509,69.494,97.292,132.238Z"/>
          <path id="路径_38496" data-name="路径 38496" class="cls-11" d="M821.281,746.891a14.377,14.377,0,0,1,15.036,11.418c3.611,16.539,9.639,49.983,1.766,59.43-10.59,12.708-36.534,9-36.8-37.063-.152-26.488,10.724-33.018,20-33.785"/>
          <path id="路径_38497" data-name="路径 38497" class="cls-11" d="M1058.749,863.048a14.377,14.377,0,0,1,4.386-18.363c13.68-9.973,41.854-28.974,53.674-25.578,15.9,4.567,22.967,29.8-19.081,48.619-24.177,10.819-34.539,3.5-38.979-4.678"/>
          <path id="路径_38498" data-name="路径 38498" class="cls-12" d="M1055.637,594.344a24.224,24.224,0,1,1-24.224-24.224,24.224,24.224,0,0,1,24.224,24.224"/>
          <path id="路径_38499" data-name="路径 38499" class="cls-11" d="M1052.926,583.239a24.2,24.2,0,0,0-45.442,7.512c28.6,4.878,45.235-7.359,45.442-7.512"/>
          <path id="路径_38500" data-name="路径 38500" class="cls-12" d="M874.775,637.508c4.213-.231,8.935-.458,13.945-.65V600.629c-5.791.237-11.156.481-15.8.7a18.111,18.111,0,1,0,1.854,36.174"/>
          <path id="路径_38501" data-name="路径 38501" class="cls-12" d="M1097.2,672.312a17.431,17.431,0,0,0-26.086,2.326l-3.509,4.795,22.46,25.927c3.134-3.088,6.019-6.26,8.531-9.291a17.436,17.436,0,0,0-1.4-23.757"/>
        </g>
      </g>
    </g>
    <path id="路径_38502" data-name="路径 38502" class="cls-5" d="M1016.428,626.182a9.239,9.239,0,1,1-9.239-9.239,9.238,9.238,0,0,1,9.239,9.239" transform="translate(-651.653 -3342)"/>
    <path id="路径_38503" data-name="路径 38503" class="cls-5" d="M1056.613,778.648a9.239,9.239,0,1,1-9.239-9.239,9.238,9.238,0,0,1,9.239,9.239" transform="translate(-651.653 -3342)"/>
    <path id="路径_38504" data-name="路径 38504" class="cls-5" d="M921.881,766.136a9.239,9.239,0,1,1-9.239-9.239,9.238,9.238,0,0,1,9.239,9.239" transform="translate(-651.653 -3342)"/>
    <path id="路径_38505" data-name="路径 38505" class="cls-5" d="M935.573,615.91a9.239,9.239,0,1,1-9.239-9.239,9.238,9.238,0,0,1,9.239,9.239" transform="translate(-651.653 -3342)"/>
    <path id="路径_38506" data-name="路径 38506" class="cls-5" d="M1065.852,703.989a9.239,9.239,0,1,1-9.239-9.239,9.239,9.239,0,0,1,9.239,9.239" transform="translate(-651.653 -3342)"/>
    <path id="路径_38507" data-name="路径 38507" class="cls-5" d="M977.046,615.91a5.136,5.136,0,1,1-5.136-5.136,5.136,5.136,0,0,1,5.136,5.136" transform="translate(-651.653 -3342)"/>
    <path id="路径_38508" data-name="路径 38508" class="cls-5" d="M1022.693,594.815a3.176,3.176,0,1,1-3.176-3.176,3.176,3.176,0,0,1,3.176,3.176" transform="translate(-651.653 -3342)"/>
    <path id="路径_38509" data-name="路径 38509" class="cls-5" d="M1043.937,601.166a3.176,3.176,0,1,1-3.176-3.176,3.175,3.175,0,0,1,3.176,3.176" transform="translate(-651.653 -3342)"/>
    <path id="路径_38510" data-name="路径 38510" class="cls-5" d="M1053.067,596.2a3.176,3.176,0,1,1-3.176-3.176,3.176,3.176,0,0,1,3.176,3.176" transform="translate(-651.653 -3342)"/>
    <path id="路径_38511" data-name="路径 38511" class="cls-5" d="M1018.063,585.381a3.176,3.176,0,1,1-3.176-3.176,3.176,3.176,0,0,1,3.176,3.176" transform="translate(-651.653 -3342)"/>
    <path id="路径_38512" data-name="路径 38512" class="cls-5" d="M1034.807,599.22a5.136,5.136,0,1,1-5.136-5.136,5.136,5.136,0,0,1,5.136,5.136" transform="translate(-651.653 -3342)"/>
    <path id="路径_38513" data-name="路径 38513" class="cls-5" d="M979.844,705.559a5.136,5.136,0,1,1-5.136-5.136,5.136,5.136,0,0,1,5.136,5.136" transform="translate(-651.653 -3342)"/>
    <path id="路径_38514" data-name="路径 38514" class="cls-5" d="M953.476,699.426a5.136,5.136,0,1,1-5.136-5.136,5.136,5.136,0,0,1,5.136,5.136" transform="translate(-651.653 -3342)"/>
    <path id="路径_38515" data-name="路径 38515" class="cls-5" d="M822.589,774.434a5.136,5.136,0,1,1-5.136-5.136,5.136,5.136,0,0,1,5.136,5.136" transform="translate(-651.653 -3342)"/>
    <path id="路径_38516" data-name="路径 38516" class="cls-5" d="M1083.058,862.774a5.136,5.136,0,1,1-5.136-5.136,5.136,5.136,0,0,1,5.136,5.136" transform="translate(-651.653 -3342)"/>
    <path id="路径_38517" data-name="路径 38517" class="cls-5" d="M1030.518,676.733a5.136,5.136,0,1,1,6.654-2.911,5.135,5.135,0,0,1-6.654,2.911" transform="translate(-651.653 -3342)"/>
    <path id="路径_38518" data-name="路径 38518" class="cls-5" d="M1092.212,680.89a5.136,5.136,0,1,1,6.655-2.911,5.137,5.137,0,0,1-6.655,2.911" transform="translate(-651.653 -3342)"/>
    <path id="路径_38519" data-name="路径 38519" class="cls-5" d="M867.294,615.45a5.137,5.137,0,1,1-7.265,0,5.138,5.138,0,0,1,7.265,0" transform="translate(-651.653 -3342)"/>
    <path id="路径_38520" data-name="路径 38520" class="cls-13" d="M1007.484,624.4l-35.575-8.488H926.334l-62.673,3.171" transform="translate(-651.653 -3342)"/>
    <path id="路径_38521" data-name="路径 38521" class="cls-13" d="M1094.084,675.254l-37.471,29.423-24.224-32.727-20.678-46.8" transform="translate(-651.653 -3342)"/>
    <path id="路径_38522" data-name="路径 38522" class="cls-13" d="M1007.189,625.149l-58.95,74.643-32.373,68.364-98.413,6.278" transform="translate(-651.653 -3342)"/>
    <path id="路径_38523" data-name="路径 38523" class="cls-13" d="M1077.922,862.774l-30.547-84.126-72.667-73.089,32.481-80.41" transform="translate(-651.653 -3342)"/>
    <line id="直线_1236" data-name="直线 1236" class="cls-13" x1="20.617" y2="25.179" transform="translate(357.401 -2742.78)"/>
  </g>
</svg>
