<svg xmlns="http://www.w3.org/2000/svg" xmlns:xlink="http://www.w3.org/1999/xlink" width="87" height="87" viewBox="0 0 87 87">
  <defs>
    <style>
      .cls-1 {
        fill: #b5b5b5;
      }

      .cls-2 {
        fill: none;
      }

      .cls-3 {
        clip-path: url(#clip-path);
      }

      .cls-4 {
        clip-path: url(#clip-path-2);
      }

      .cls-5 {
        fill: #63bbf7;
      }

      .cls-6 {
        fill: #c8dd4e;
      }

      .cls-7 {
        fill: #e8e7e6;
      }

      .cls-8 {
        fill: #ffb92e;
      }

      .cls-9 {
        fill: #fff;
      }

      .cls-10 {
        fill: #41403e;
      }

      .cls-11 {
        fill: #2e73ca;
      }

      .cls-12 {
        fill: #50a1e7;
      }
    </style>
    <clipPath id="clip-path">
      <rect id="矩形_1859" data-name="矩形 1859" class="cls-1" width="87" height="87" rx="15" transform="translate(784 894)"/>
    </clipPath>
    <clipPath id="clip-path-2">
      <rect id="矩形_1858" data-name="矩形 1858" class="cls-2" width="104.271" height="103.955"/>
    </clipPath>
  </defs>
  <g id="蒙版组_49" data-name="蒙版组 49" class="cls-3" transform="translate(-784 -894)">
    <g id="组_957" data-name="组 957" transform="translate(784 894)">
      <g id="组_956" data-name="组 956" class="cls-4">
        <path id="路径_1342" data-name="路径 1342" class="cls-5" d="M79.4,88.806H9.4A9.4,9.4,0,0,1,0,79.4v-70A9.4,9.4,0,0,1,9.4,0h70a9.4,9.4,0,0,1,9.4,9.4v70a9.4,9.4,0,0,1-9.4,9.4" transform="translate(0 0)"/>
        <path id="路径_1343" data-name="路径 1343" class="cls-6" d="M63.55,50.01a1.716,1.716,0,0,1-.263,2.34c-1.869,1.742-3.894,3.535-6.078,5.349s-4.3,3.467-6.352,4.983a1.7,1.7,0,0,1-2.332-.181h0a3.817,3.817,0,0,1,.522-5.178C50.4,56.03,51.885,54.7,53.5,53.352c1.669-1.39,3.3-2.645,4.863-3.774a3.818,3.818,0,0,1,5.188.432" transform="translate(-16.238 -16.589)"/>
        <path id="路径_1344" data-name="路径 1344" class="cls-7" d="M42,72.769a1.163,1.163,0,0,1,.263,1.542c-.893,1.134-1.877,2.3-2.961,3.479s-2.156,2.251-3.208,3.234a1.161,1.161,0,0,1-1.551-.139,2.61,2.61,0,0,1-.621-3.413c.642-.842,1.36-1.708,2.16-2.583.828-.9,1.656-1.718,2.464-2.449A2.609,2.609,0,0,1,42,72.769Z" transform="translate(-11.403 -24.466)"/>
        <path id="路径_1345" data-name="路径 1345" class="cls-7" d="M84.468,38.4a1.163,1.163,0,0,1-.117,1.56c-1.14.885-2.377,1.779-3.713,2.662S78,44.282,76.744,44.982a1.16,1.16,0,0,1-1.471-.509,2.61,2.61,0,0,1,.22-3.462c.826-.662,1.731-1.33,2.719-1.985,1.021-.677,2.021-1.268,2.982-1.783A2.611,2.611,0,0,1,84.468,38.4Z" transform="translate(-25.42 -12.59)"/>
        <path id="路径_1346" data-name="路径 1346" class="cls-8" d="M137.1,68.886l2.04-1.645a9.849,9.849,0,0,0,2.291-12.723,75.363,75.363,0,0,0-12.954-16.075,9.874,9.874,0,0,0-12.972-.5l-2.039,1.644Z" transform="translate(-38.595 -12.162)"/>
        <path id="路径_1347" data-name="路径 1347" class="cls-8" d="M57.978,134.3l-1.99,1.705a9.849,9.849,0,0,1-12.927-.071,75.4,75.4,0,0,1-13.438-15.672A9.874,9.874,0,0,1,31.5,107.421l1.989-1.7Z" transform="translate(-9.541 -35.96)"/>
        <path id="路径_1348" data-name="路径 1348" class="cls-9" d="M50.1,111.537a16.785,16.785,0,0,0,18.265,2.087c6.983-3.5,37.793-29.031,42.53-35.244a16.813,16.813,0,0,0,1.326-18.364,122.966,122.966,0,0,0-12.3-16.784Q98.651,41.8,97.373,40.5a22.875,22.875,0,0,0-28.694-3.176A177.3,177.3,0,0,0,35.831,64.552a22.892,22.892,0,0,0-2.1,28.855q1.152,1.65,2.463,3.326a125.322,125.322,0,0,0,13.9,14.8" transform="translate(-10.064 -11.456)"/>
        <path id="路径_1349" data-name="路径 1349" class="cls-10" d="M61.976,106.45a10.3,10.3,0,1,0-.142-14.567,10.3,10.3,0,0,0,.142,14.567" transform="translate(-20.031 -30.204)"/>
        <path id="路径_1350" data-name="路径 1350" class="cls-9" d="M62.506,106.72a2.686,2.686,0,1,0-.037-3.8,2.686,2.686,0,0,0,.037,3.8" transform="translate(-20.988 -34.735)"/>
        <path id="路径_1351" data-name="路径 1351" class="cls-10" d="M96.912,78.028a10.3,10.3,0,1,0-.142-14.567,10.3,10.3,0,0,0,.142,14.567" transform="translate(-31.914 -20.536)"/>
        <path id="路径_1352" data-name="路径 1352" class="cls-9" d="M97.659,78.128a2.686,2.686,0,1,0-.037-3.8,2.686,2.686,0,0,0,.037,3.8" transform="translate(-32.945 -25.01)"/>
        <path id="路径_1353" data-name="路径 1353" class="cls-11" d="M24.373,26.806H18.616a2.981,2.981,0,0,1-2.981-2.981V18.068a2.981,2.981,0,0,1,2.981-2.981h5.758a2.981,2.981,0,0,1,2.981,2.981v5.758a2.98,2.98,0,0,1-2.981,2.981" transform="translate(-5.318 -5.132)"/>
        <path id="路径_1354" data-name="路径 1354" class="cls-12" d="M43.483,26.806H37.726a2.981,2.981,0,0,1-2.981-2.981V18.068a2.981,2.981,0,0,1,2.981-2.981h5.758a2.981,2.981,0,0,1,2.981,2.981v5.758a2.98,2.98,0,0,1-2.981,2.981" transform="translate(-11.819 -5.132)"/>
        <path id="路径_1355" data-name="路径 1355" class="cls-11" d="M24.373,46.02H18.616a2.981,2.981,0,0,1-2.981-2.981V37.282A2.981,2.981,0,0,1,18.616,34.3h5.758a2.981,2.981,0,0,1,2.981,2.981v5.758a2.98,2.98,0,0,1-2.981,2.981" transform="translate(-5.318 -11.668)"/>
        <path id="路径_1356" data-name="路径 1356" class="cls-11" d="M43.483,46.02H37.726a2.981,2.981,0,0,1-2.981-2.981V37.282A2.981,2.981,0,0,1,37.726,34.3h5.758a2.981,2.981,0,0,1,2.981,2.981v5.758a2.98,2.98,0,0,1-2.981,2.981" transform="translate(-11.819 -11.668)"/>
      </g>
    </g>
  </g>
</svg>
