<svg xmlns="http://www.w3.org/2000/svg" xmlns:xlink="http://www.w3.org/1999/xlink" width="87" height="87" viewBox="0 0 87 87">
  <defs>
    <style>
      .cls-1 {
        fill: none;
      }

      .cls-2 {
        fill: #76c4f7;
      }

      .cls-3 {
        clip-path: url(#clip-path);
      }

      .cls-4 {
        fill: #fff;
      }

      .cls-5 {
        opacity: 0.1;
      }

      .cls-6 {
        clip-path: url(#clip-path-2);
      }

      .cls-7 {
        clip-path: url(#clip-path-3);
      }

      .cls-8 {
        fill: #fafafa;
      }

      .cls-9 {
        fill: #f93;
      }

      .cls-10 {
        opacity: 0.3;
      }

      .cls-11 {
        clip-path: url(#clip-path-4);
      }

      .cls-12 {
        fill: #e4e4e4;
      }

      .cls-13 {
        fill: #f3b0b1;
      }

      .cls-14 {
        fill: #f3bcc0;
      }

      .cls-15 {
        fill: #f2dde0;
      }

      .cls-16 {
        fill: #4d4d4d;
      }

      .cls-17 {
        fill: #f2f2f2;
      }

      .cls-18 {
        fill: #009245;
      }

      .cls-19 {
        clip-path: url(#clip-path-5);
      }

      .cls-20 {
        fill: #d18887;
      }

      .cls-21 {
        fill: #e6b9be;
      }

      .cls-22 {
        fill: #d08887;
      }

      .cls-23 {
        fill: #e6b8be;
      }

      .cls-24 {
        fill: #dcdcdc;
      }

      .cls-25 {
        fill: #333;
      }

      .cls-26 {
        fill: #fa8232;
      }

      .cls-27 {
        fill: #39f;
      }

      .cls-28 {
        fill: #a2d900;
      }

      .cls-29 {
        fill: #f2f200;
      }
    </style>
    <clipPath id="clip-path">
      <path id="矩形_3453" data-name="矩形 3453" class="cls-1" d="M17.319,0H69.681A17.318,17.318,0,0,1,87,17.318V69.681A17.318,17.318,0,0,1,69.681,87H17.319A17.319,17.319,0,0,1,0,69.68V17.319A17.319,17.319,0,0,1,17.319,0Z" transform="translate(0 0)"/>
    </clipPath>
    <clipPath id="clip-path-2">
      <rect id="矩形_3449" data-name="矩形 3449" class="cls-1" width="41.319" height="41.189"/>
    </clipPath>
    <clipPath id="clip-path-3">
      <path id="路径_2453" data-name="路径 2453" class="cls-1" d="M81.375,34.281l1.012-.341a3.852,3.852,0,0,1,3.865.838l6.912-1.34.241,1.244a3.854,3.854,0,0,1,4.324,2.2l4.507,10.093a3.855,3.855,0,0,1-1.948,5.091l-.974.435a3.855,3.855,0,0,1-5.091-1.948L89.715,40.456a3.819,3.819,0,0,1-.324-1.342l-1.119.217L90.8,46.836a3.854,3.854,0,0,1-2.422,4.883h0l-1.012.34a3.855,3.855,0,0,1-4.885-2.42L78.953,39.165a3.855,3.855,0,0,1,2.42-4.885h0" transform="translate(-78.749 -33.438)"/>
    </clipPath>
    <clipPath id="clip-path-4">
      <rect id="矩形_3450" data-name="矩形 3450" class="cls-1" width="28.484" height="8.481"/>
    </clipPath>
    <clipPath id="clip-path-5">
      <rect id="矩形_3451" data-name="矩形 3451" class="cls-1" width="29.232" height="24.37"/>
    </clipPath>
  </defs>
  <g id="组_1939" data-name="组 1939" transform="translate(18365 4590.508)">
    <path id="路径_2523" data-name="路径 2523" class="cls-2" d="M15.264.7H71.736A15.264,15.264,0,0,1,87,15.967V72.439A15.264,15.264,0,0,1,71.736,87.7H15.264A15.264,15.264,0,0,1,0,72.439V15.967A15.264,15.264,0,0,1,15.264.7" transform="translate(-18365 -4591.211)"/>
    <g id="组_1952" data-name="组 1952" class="cls-3" transform="translate(-18365 -4590.508)">
      <path id="路径_2449" data-name="路径 2449" class="cls-4" d="M86.863,52.247l1.979-.667a3.341,3.341,0,0,0,2.1-4.234L87.089,35.9a3.343,3.343,0,0,0-4.235-2.1l-1.98.666a3.342,3.342,0,0,0-2.1,4.235l3.853,11.444a3.343,3.343,0,0,0,4.235,2.1" transform="translate(-9.325 -4.609)"/>
      <path id="路径_2450" data-name="路径 2450" class="cls-4" d="M100.252,52.839l1.907-.853a3.343,3.343,0,0,0,1.688-4.417L98.918,36.544A3.344,3.344,0,0,0,94.5,34.856l-1.907.852a3.344,3.344,0,0,0-1.688,4.417l4.929,11.026a3.344,3.344,0,0,0,4.417,1.688" transform="translate(-10.75 -4.72)"/>
      <path id="路径_2451" data-name="路径 2451" class="cls-4" d="M100.252,52.839l1.907-.853a3.343,3.343,0,0,0,1.688-4.417L98.918,36.544A3.344,3.344,0,0,0,94.5,34.856l-1.907.852a3.344,3.344,0,0,0-1.688,4.417l4.929,11.026a3.344,3.344,0,0,0,4.417,1.688" transform="translate(-10.75 -4.72)"/>
      <g id="组_1945" data-name="组 1945" class="cls-5" transform="translate(55.369 7.058)">
        <g id="组_1944" data-name="组 1944">
          <g id="组_1943" data-name="组 1943" class="cls-6">
            <g id="组_1942" data-name="组 1942" transform="translate(14.037 21.793)">
              <g id="组_1941" data-name="组 1941" class="cls-7">
                <path id="路径_2452" data-name="路径 2452" d="M64.39,33.682c.889,3.17,3.579,4.617,6.84,5.072,3.815.534,24.229,1.2,27.891,0,3.136-1.024,4.591-5.315,4.913-8.6A60.7,60.7,0,0,0,103.74,19.9q-.115-.937-.271-1.822A11.28,11.28,0,0,0,92.71,8.757a87.406,87.406,0,0,0-20.958,1.856A11.289,11.289,0,0,0,62.823,21.74q.005.993.068,2.04a61.857,61.857,0,0,0,1.5,9.9" transform="translate(-76.86 -30.504)"/>
              </g>
            </g>
          </g>
        </g>
      </g>
      <path id="路径_2454" data-name="路径 2454" class="cls-8" d="M65.159,25.083l-10.672-8.57a3.419,3.419,0,1,1,4.282-5.331l10.672,8.57Z" transform="translate(-6.313 -1.857)"/>
      <path id="路径_2455" data-name="路径 2455" class="cls-9" d="M66.932,34.636l-1.132.1a4.271,4.271,0,0,1-4.544-3.283,32.691,32.691,0,0,1-.794-8.918,4.283,4.283,0,0,1,3.9-4.06l1.131-.1Z" transform="translate(-7.169 -2.8)"/>
      <path id="路径_2456" data-name="路径 2456" class="cls-8" d="M63.506,32.6a8.278,8.278,0,0,0,6.831,5.961c3.815.534,23.47-1.206,27.134-2.4a8.29,8.29,0,0,0,5.68-7.084,60.7,60.7,0,0,0-.293-10.256q-.115-.937-.271-1.822A11.282,11.282,0,0,0,91.826,7.67,87.444,87.444,0,0,0,70.869,9.527a11.29,11.29,0,0,0-8.93,11.126q.007.992.068,2.04a61.839,61.839,0,0,0,1.5,9.9" transform="translate(-7.348 -1.524)"/>
      <g id="组_1948" data-name="组 1948" class="cls-10" transform="translate(61.664 28.651)">
        <g id="组_1947" data-name="组 1947">
          <g id="组_1946" data-name="组 1946" class="cls-11">
            <path id="路径_2457" data-name="路径 2457" class="cls-12" d="M79.856,33.542c8.592-1.965,19.18,5.448,18.565,5.649-3.663,1.2-23.318,2.936-27.133,2.4a8.257,8.257,0,0,1-1.325-.3c2.937-4.61,1.3-5.784,9.892-7.75" transform="translate(-69.964 -33.211)"/>
          </g>
        </g>
      </g>
      <path id="路径_2458" data-name="路径 2458" class="cls-13" d="M82.919,28.471s-2.09.163-2.407.261-.579.484-.375,1.226,1.1,1.313,2.536,1.178a2.1,2.1,0,0,0,2.087-1.818c-.016-.637-.333-.982-1.84-.847" transform="translate(-9.499 -3.994)"/>
      <path id="路径_2459" data-name="路径 2459" class="cls-14" d="M83.425,31.178a.823.823,0,0,1-.4-.652c0-.717,1.081-1.2,1.494-1.178a1.478,1.478,0,0,1,.584.177,2.056,2.056,0,0,1-1.683,1.653" transform="translate(-9.85 -4.101)"/>
      <path id="路径_2460" data-name="路径 2460" class="cls-15" d="M92.662,24.439a3.607,3.607,0,1,0,4.227,2.855,3.607,3.607,0,0,0-4.227-2.855" transform="translate(-10.647 -3.511)"/>
      <path id="路径_2461" data-name="路径 2461" class="cls-15" d="M69.882,25.357a3.607,3.607,0,1,0,4.227,2.855,3.607,3.607,0,0,0-4.227-2.855" transform="translate(-7.944 -3.62)"/>
      <path id="路径_2462" data-name="路径 2462" class="cls-16" d="M87.847,21.1a3.607,3.607,0,1,0,4.227,2.855A3.607,3.607,0,0,0,87.847,21.1" transform="translate(-10.075 -3.115)"/>
      <path id="路径_2463" data-name="路径 2463" class="cls-16" d="M88.5,28.4a3.794,3.794,0,1,1,.726-.071,3.839,3.839,0,0,1-.726.071m-.646-7.152h0a3.436,3.436,0,1,0,4.026,2.719,3.44,3.44,0,0,0-4.026-2.719" transform="translate(-10.053 -3.092)"/>
      <path id="路径_2464" data-name="路径 2464" class="cls-16" d="M75.416,21.786a3.607,3.607,0,1,0,4.227,2.855,3.607,3.607,0,0,0-4.227-2.855" transform="translate(-8.601 -3.196)"/>
      <path id="路径_2465" data-name="路径 2465" class="cls-16" d="M76.071,29.084a3.785,3.785,0,1,1,.726-.071,3.833,3.833,0,0,1-.726.071m-.646-7.152a3.436,3.436,0,1,0,4.027,2.719,3.44,3.44,0,0,0-4.027-2.719" transform="translate(-8.578 -3.173)"/>
      <path id="路径_2466" data-name="路径 2466" class="cls-4" d="M77.455,22.964a1.284,1.284,0,0,0-.1,1.764A1.285,1.285,0,0,0,79,25.383a1.285,1.285,0,0,0,.1-1.764,1.284,1.284,0,0,0-1.64-.655" transform="translate(-9.143 -3.33)"/>
      <path id="路径_2467" data-name="路径 2467" class="cls-4" d="M90.127,22.333a1.284,1.284,0,0,0-.1,1.764,1.285,1.285,0,0,0,1.641.656,1.285,1.285,0,0,0,.1-1.764,1.284,1.284,0,0,0-1.64-.655" transform="translate(-10.646 -3.255)"/>
      <path id="路径_2468" data-name="路径 2468" class="cls-17" d="M95.2,8.528A1.55,1.55,0,0,0,94.843,7c-.484-.45-1.392-.4-2.21-.392a12.291,12.291,0,0,0-2.2.132,1.209,1.209,0,0,0-1.015,1,1.165,1.165,0,0,0,.151.98c.4.347,1.794.11,2.476.157l1.8-.026c.727-.028,1.126.056,1.341-.3Z" transform="translate(-10.604 -1.403)"/>
      <path id="路径_2469" data-name="路径 2469" class="cls-18" d="M87.368,8.648a1.92,1.92,0,0,0-.452-1.742A3.114,3.114,0,0,0,84.7,6.571a16.981,16.981,0,0,0-2.781.3,1.316,1.316,0,0,0-1.05,1.209c-.023.411-.065.958.316,1.2A11.565,11.565,0,0,0,83.9,9.222l2.268-.161c.66-.059,1.016-.021,1.187-.388Z" transform="translate(-9.593 -1.395)"/>
      <path id="路径_2470" data-name="路径 2470" class="cls-17" d="M79.046,9.287a1.687,1.687,0,0,0-.527-1.568c-.55-.427-1.482-.25-2.323-.152a11.613,11.613,0,0,0-2.158.387,1.268,1.268,0,0,0-.913,1.175c-.014.383-.009.894.375,1.083a9.594,9.594,0,0,0,2.4-.189l1.815-.236c.732-.112,1.148-.074,1.319-.475Z" transform="translate(-8.675 -1.503)"/>
      <path id="路径_2471" data-name="路径 2471" class="cls-8" d="M95.534,53.945c1.781.367,10.522.3,11.731.585a5.413,5.413,0,0,1,3.665,2.878,4.253,4.253,0,0,1-.195,4.131,5.621,5.621,0,0,1-4.671,2.756c-3.042.113-8.926-.14-11.825-.973" transform="translate(-11.18 -7.02)"/>
      <path id="路径_2472" data-name="路径 2472" class="cls-8" d="M97.514,66.854c2.683-.612,4.935-4.973,6.293-2.724.9,1.483,1.3,8.895,1.553,11.3.558,5.337-1.265,10.052-4.74,10.614s-6.989-3.278-7.847-8.577,1.306-9.831,4.741-10.613" transform="translate(-10.984 -8.152)"/>
      <path id="路径_2473" data-name="路径 2473" class="cls-8" d="M97.827,77.45c2.865-1.433,3.105-8.458,2.62-11.788-.339-2.325-.791-4.8-1.39-7.39A91.66,91.66,0,0,0,95.87,47.523a4.02,4.02,0,0,0-1.734-2.338,3.816,3.816,0,0,0-2.887-.437l-31.138,7.7a3.823,3.823,0,0,0-2.8,4.609A96.45,96.45,0,0,0,59.872,69c.705,2.5,1.472,4.838,2.262,7a6.617,6.617,0,0,0,6.187,4.434,64.287,64.287,0,0,0,9.123-.731A59.923,59.923,0,0,1,87.99,79c3.882.1,7.243-.25,9.837-1.547" transform="translate(-6.787 -5.915)"/>
      <g id="组_1951" data-name="组 1951" class="cls-10" transform="translate(59.486 57.747)">
        <g id="组_1950" data-name="组 1950">
          <g id="组_1949" data-name="组 1949" class="cls-19">
            <path id="路径_2474" data-name="路径 2474" class="cls-12" d="M90.332,70.2a46.875,46.875,0,0,0-19.29-3.963c-1.383.034-3.463.077-3.54,1.854a11.476,11.476,0,0,0,.907,3.847,17.876,17.876,0,0,0,1.353,3.069,6.086,6.086,0,0,0,4.818,3.37c.881.1,1.864.025,2.7.136,1.911.256,2.571,1.723,3.3,3.586.742,1.944,1.433,4.4,2.206,6.069a3.587,3.587,0,0,0,3.664,2.421c1.606-.019,3.3-.239,4.929-.284a5.747,5.747,0,0,0,3.037-.62c1.223-1,1.093-3.142,1.343-4.639.241-2.446.69-5.554.951-7.753.357-3.664-3.495-5.868-6.337-7.077Z" transform="translate(-67.493 -66.223)"/>
          </g>
        </g>
      </g>
      <path id="路径_2475" data-name="路径 2475" class="cls-8" d="M72.539,72.124A10.37,10.37,0,0,1,74.7,76.372c1.014,4.025-.352,7.926-3.088,9.32a4.924,4.924,0,0,1-1.026.384c-3.406.858-7.087-2.094-8.221-6.6s.708-8.845,4.114-9.7a5.867,5.867,0,0,1,5.41,1.675" transform="translate(-7.359 -8.88)"/>
      <path id="路径_2476" data-name="路径 2476" class="cls-9" d="M97.5,48.836c-2.262-12-12.62-16.793-22.447-15.568A20.3,20.3,0,0,0,57.308,52.084c-.13,2.013,6.478,3.377,19.6,1.742s20.967-3.008,20.593-4.99" transform="translate(-6.799 -4.544)"/>
      <path id="路径_2477" data-name="路径 2477" class="cls-15" d="M90.389,64.539a3.621,3.621,0,1,0,3.456-3.779,3.621,3.621,0,0,0-3.456,3.779" transform="translate(-10.723 -7.828)"/>
      <path id="路径_2478" data-name="路径 2478" class="cls-16" d="M87.951,61.376A2.28,2.28,0,1,0,90.126,59a2.279,2.279,0,0,0-2.175,2.379" transform="translate(-10.434 -7.619)"/>
      <path id="路径_2479" data-name="路径 2479" class="cls-16" d="M90.2,63.7a2.46,2.46,0,1,1,.112,0l-.112,0m-2.1-2.357a2.108,2.108,0,1,0,.55-1.517,2.1,2.1,0,0,0-.55,1.517" transform="translate(-10.411 -7.596)"/>
      <path id="路径_2480" data-name="路径 2480" class="cls-15" d="M77.954,66.176A3.621,3.621,0,1,1,73.7,63.328a3.621,3.621,0,0,1,4.256,2.849" transform="translate(-8.397 -8.124)"/>
      <path id="路径_2481" data-name="路径 2481" class="cls-16" d="M79.882,62.487A2.279,2.279,0,1,1,77.2,60.7a2.28,2.28,0,0,1,2.679,1.792" transform="translate(-8.941 -7.815)"/>
      <path id="路径_2482" data-name="路径 2482" class="cls-16" d="M77.618,65.359a2.459,2.459,0,1,1,.482-.048,2.483,2.483,0,0,1-.482.048m.006-4.56a2.109,2.109,0,1,0,2.068,1.7,2.113,2.113,0,0,0-2.068-1.7" transform="translate(-8.918 -7.792)"/>
      <path id="路径_2483" data-name="路径 2483" class="cls-8" d="M77.7,60.981a.953.953,0,0,0,.437,1.235,1.3,1.3,0,0,0,.746.247.676.676,0,0,0,.565-.265.953.953,0,0,0-.438-1.235,1.293,1.293,0,0,0-.745-.247.678.678,0,0,0-.565.265" transform="translate(-9.206 -7.823)"/>
      <path id="路径_2484" data-name="路径 2484" class="cls-8" d="M90.219,59.417a.953.953,0,0,0,.437,1.235,1.3,1.3,0,0,0,.746.247.676.676,0,0,0,.565-.265.953.953,0,0,0-.438-1.235,1.293,1.293,0,0,0-.745-.247.678.678,0,0,0-.565.265" transform="translate(-10.691 -7.637)"/>
      <path id="路径_2485" data-name="路径 2485" class="cls-20" d="M84.128,63.3a1.947,1.947,0,0,1,1.83.575A3.19,3.19,0,0,1,86,66.8a1.641,1.641,0,0,1-2.879.362,3.189,3.189,0,0,1-.681-2.849,1.945,1.945,0,0,1,1.63-1.01Z" transform="translate(-9.766 -8.127)"/>
      <path id="路径_2486" data-name="路径 2486" class="cls-21" d="M83.065,67.4a2.672,2.672,0,0,1,1.407-.625,2.181,2.181,0,0,1,1.56.55,1.576,1.576,0,0,1-1.271.944,1.637,1.637,0,0,1-1.549-.687,1.983,1.983,0,0,1-.146-.182" transform="translate(-9.855 -8.54)"/>
      <path id="路径_2487" data-name="路径 2487" class="cls-8" d="M62.753,57.2c-1.381-.971-6.9-6.929-7.863-7.564a5.023,5.023,0,0,0-4.279-.648,3.949,3.949,0,0,0-2.671,2.76,5.219,5.219,0,0,0,1.109,4.914c1.86,2.13,5.776,5.95,8.184,7.381" transform="translate(-5.663 -6.405)"/>
      <path id="路径_2488" data-name="路径 2488" class="cls-8" d="M80.635,88.32c1.483-.68,7.769-5.373,8.8-5.806a5.9,5.9,0,0,1,4.625.244c1.4.755,1.811,2.515,1.939,3.66a5.044,5.044,0,0,1-1.916,4.475,44.282,44.282,0,0,1-9.072,5.575" transform="translate(-9.566 -10.366)"/>
      <path id="路径_2489" data-name="路径 2489" class="cls-8" d="M47.19,77.591c-1.35-.916-6.775-6.582-7.718-7.18a4.855,4.855,0,0,0-4.144-.555,3.81,3.81,0,0,0-2.535,2.709,5.044,5.044,0,0,0,1.15,4.73,44.308,44.308,0,0,0,8.027,7" transform="translate(-3.869 -8.879)"/>
      <path id="路径_2490" data-name="路径 2490" class="cls-8" d="M75.884,104.266a7.775,7.775,0,0,0,6.446-6.42A162.985,162.985,0,0,0,83.647,80.89a4.089,4.089,0,0,0-.912-2.821,3.89,3.89,0,0,0-2.645-1.363L47.524,74a3.9,3.9,0,0,0-4.2,3.54,173.682,173.682,0,0,0-1.345,17.811,6.741,6.741,0,0,0,4.53,6.295,65.28,65.28,0,0,0,29.373,2.622" transform="translate(-4.98 -9.397)"/>
      <path id="路径_2491" data-name="路径 2491" class="cls-8" d="M45.579,100.267a8.026,8.026,0,0,1,2.842,2.357c1.956,2.551,2.18,5.742.662,7.573a3.83,3.83,0,0,1-.612.588c-2.158,1.655-5.68.684-7.867-2.168s-2.21-6.505-.051-8.161a4.542,4.542,0,0,1,4.36-.468" transform="translate(-4.621 -12.442)"/>
      <path id="路径_2492" data-name="路径 2492" class="cls-15" d="M66.128,93.9a3.245,3.245,0,0,0,2.55,3.72A3.063,3.063,0,0,0,72.2,94.982a3.246,3.246,0,0,0-2.55-3.721A3.064,3.064,0,0,0,66.128,93.9" transform="translate(-7.841 -11.441)"/>
      <path id="路径_2493" data-name="路径 2493" class="cls-16" d="M66.381,91.769a2.549,2.549,0,0,0,2,2.922,2.406,2.406,0,0,0,2.767-2.076,2.549,2.549,0,0,0-2-2.922,2.406,2.406,0,0,0-2.767,2.076" transform="translate(-7.872 -11.256)"/>
      <path id="路径_2494" data-name="路径 2494" class="cls-16" d="M68.767,94.876a2.527,2.527,0,0,1-.437-.039,2.724,2.724,0,0,1-2.142-3.116,2.669,2.669,0,0,1,1.081-1.787,2.47,2.47,0,0,1,1.884-.43A2.723,2.723,0,0,1,71.3,92.618a2.665,2.665,0,0,1-1.081,1.787,2.475,2.475,0,0,1-1.447.47m-.049-5.07a2.138,2.138,0,0,0-1.25.405,2.333,2.333,0,0,0-.942,1.561A2.381,2.381,0,0,0,68.39,94.5a2.133,2.133,0,0,0,1.625-.373,2.331,2.331,0,0,0,.942-1.561,2.38,2.38,0,0,0-1.864-2.727,2.169,2.169,0,0,0-.375-.034" transform="translate(-7.849 -11.233)"/>
      <path id="路径_2495" data-name="路径 2495" class="cls-15" d="M55.505,92.994a3.115,3.115,0,0,1-3.1,3.172,3.193,3.193,0,0,1-3.051-3.281,3.116,3.116,0,0,1,3.1-3.172,3.193,3.193,0,0,1,3.05,3.281" transform="translate(-5.855 -11.263)"/>
      <path id="路径_2496" data-name="路径 2496" class="cls-16" d="M57.7,90.645a2.425,2.425,0,0,1-2.411,2.469,2.485,2.485,0,0,1-2.374-2.553,2.425,2.425,0,0,1,2.412-2.469A2.485,2.485,0,0,1,57.7,90.645" transform="translate(-6.278 -11.071)"/>
      <path id="路径_2497" data-name="路径 2497" class="cls-16" d="M55.311,93.262h-.044a2.659,2.659,0,0,1-2.542-2.725,2.694,2.694,0,0,1,.807-1.927,2.491,2.491,0,0,1,1.779-.712,2.659,2.659,0,0,1,2.542,2.726,2.69,2.69,0,0,1-.807,1.925,2.47,2.47,0,0,1-1.735.713m-.044-5.022a2.133,2.133,0,0,0-1.5.615,2.356,2.356,0,0,0-.7,1.684,2.316,2.316,0,0,0,2.206,2.381,2.139,2.139,0,0,0,1.534-.615,2.359,2.359,0,0,0,.7-1.683A2.317,2.317,0,0,0,55.3,88.24h-.038" transform="translate(-6.255 -11.048)"/>
      <path id="路径_2498" data-name="路径 2498" class="cls-8" d="M55.552,88.97a1.244,1.244,0,0,0,.214,1.636,1.564,1.564,0,0,0,.816.5.779.779,0,0,0,.727-.176A1.243,1.243,0,0,0,57.1,89.3a1.564,1.564,0,0,0-.816-.5.777.777,0,0,0-.727.176" transform="translate(-6.564 -11.151)"/>
      <path id="路径_2499" data-name="路径 2499" class="cls-8" d="M68.839,90.533a1.244,1.244,0,0,0,.214,1.636,1.564,1.564,0,0,0,.816.5.779.779,0,0,0,.727-.176,1.243,1.243,0,0,0-.214-1.636,1.564,1.564,0,0,0-.816-.5.777.777,0,0,0-.727.176" transform="translate(-8.141 -11.337)"/>
      <path id="路径_2500" data-name="路径 2500" class="cls-22" d="M61.2,93.771a1.792,1.792,0,0,1,1.537.865,2.933,2.933,0,0,1-.516,2.644,1.509,1.509,0,0,1-2.66-.221,2.933,2.933,0,0,1-.072-2.693,1.79,1.79,0,0,1,1.659-.6Z" transform="translate(-7.022 -11.743)"/>
      <path id="路径_2501" data-name="路径 2501" class="cls-23" d="M59.5,97.246a2.451,2.451,0,0,1,1.385-.3,2.007,2.007,0,0,1,1.3.791,1.447,1.447,0,0,1-1.322.608,1.508,1.508,0,0,1-1.264-.913,2.023,2.023,0,0,1-.1-.191" transform="translate(-7.059 -12.121)"/>
      <path id="路径_2502" data-name="路径 2502" class="cls-8" d="M44.188,75.34c-.2,2.418,8.629,5.127,19.723,6.05s20.251-.29,20.452-2.708-8.629-5.127-19.723-6.05-20.251.29-20.452,2.708" transform="translate(-5.242 -9.2)"/>
      <rect id="矩形_3452" data-name="矩形 3452" class="cls-8" width="6.868" height="40.314" transform="translate(38.946 66.14) rotate(-85.246)"/>
      <path id="路径_2503" data-name="路径 2503" class="cls-4" d="M44.834,67.692c-.157,1.89,8.709,4.17,19.8,5.093s20.215.139,20.372-1.751-8.709-4.17-19.8-5.093S44.991,65.8,44.834,67.692" transform="translate(-5.319 -8.397)"/>
      <path id="路径_2504" data-name="路径 2504" class="cls-24" d="M59.025,79.771c2.861.383,6.347.678,9.231.77a2.422,2.422,0,0,0,1.636-.467,2.644,2.644,0,0,0,.247-3.617,2.6,2.6,0,0,0-1.582-.663c-.617-.077-.638-.043-2.032-.11s-5.163-.465-7.084-.64a2.349,2.349,0,0,0-1.767.546,2.289,2.289,0,0,0-.814,1.483,2.822,2.822,0,0,0,.641,1.98,2.436,2.436,0,0,0,1.526.717" transform="translate(-6.745 -9.522)"/>
      <path id="路径_2505" data-name="路径 2505" class="cls-25" d="M59.128,79.4c2.9.379,6.3.666,9.216.769a1.779,1.779,0,0,0,1.972-1.6l.037-.624a1.629,1.629,0,0,0-.47-1.133,2.2,2.2,0,0,0-1.318-.534,11.962,11.962,0,0,0-1.348-.071c-1.354-.062-5.725-.462-7.748-.678a2.077,2.077,0,0,0-1.786.8,1.9,1.9,0,0,0-.155,1.876,1.837,1.837,0,0,0,1.6,1.192" transform="translate(-6.805 -9.579)"/>
      <path id="路径_2506" data-name="路径 2506" class="cls-16" d="M70.216,78.537a.5.5,0,0,0,.479.546.517.517,0,0,0,.55-.493.5.5,0,0,0-.479-.547.518.518,0,0,0-.55.494" transform="translate(-8.33 -9.878)"/>
      <path id="路径_2507" data-name="路径 2507" class="cls-16" d="M65.216,78.167a1.318,1.318,0,0,0,1.263,1.46,1.391,1.391,0,0,0,1.481-1.31A1.318,1.318,0,0,0,66.7,76.862a1.392,1.392,0,0,0-1.48,1.305" transform="translate(-7.737 -9.738)"/>
      <path id="路径_2508" data-name="路径 2508" class="cls-16" d="M65.89,78.283a.745.745,0,0,0,.716.827.791.791,0,0,0,.842-.742.747.747,0,0,0-.718-.826.789.789,0,0,0-.839.741" transform="translate(-7.817 -9.819)"/>
      <path id="路径_2509" data-name="路径 2509" class="cls-16" d="M62.271,77.935a.916.916,0,0,0,.821,1.011.872.872,0,0,0,.98-.812.916.916,0,0,0-.822-1.008.868.868,0,0,0-.979.809" transform="translate(-7.387 -9.769)"/>
      <path id="路径_2510" data-name="路径 2510" class="cls-16" d="M58.858,77.525a.919.919,0,0,0,.812,1.02.866.866,0,0,0,.986-.8.922.922,0,0,0-.813-1.019.866.866,0,0,0-.985.8" transform="translate(-6.982 -9.721)"/>
      <path id="路径_2511" data-name="路径 2511" class="cls-12" d="M63.961,82.4c5.152.408,18.965,1.1,20.583-2.975-.006-.46-.332,0-.445.212a4.046,4.046,0,0,1-2.212,1.45A25.586,25.586,0,0,1,75.9,82.156a74.392,74.392,0,0,1-26.592-2.923c-1.913-.7-4.442-1.615-5.082-3.275-.137-.362-.325-.385-.271.017a1.658,1.658,0,0,0,.174.516c2.534,3.889,14.93,5.449,19.783,5.9Z" transform="translate(-5.213 -9.598)"/>
      <path id="路径_2512" data-name="路径 2512" class="cls-26" d="M34.676,72.684,18.431,74.219a2.261,2.261,0,0,1-2.457-2.032l-.435-4.615a2.26,2.26,0,0,1,2.032-2.456L33.815,63.58a2.262,2.262,0,0,1,2.457,2.033l.436,4.614a2.262,2.262,0,0,1-2.033,2.457" transform="translate(-1.842 -8.161)"/>
      <path id="路径_2513" data-name="路径 2513" class="cls-26" d="M31.9,73.678l1.372,1.247a.872.872,0,0,0,1.32-.174l1.311-2.044" transform="translate(-3.785 -9.246)"/>
      <path id="路径_2514" data-name="路径 2514" class="cls-27" d="M32.123,54.772l-22.2,1.371a2.445,2.445,0,0,1-2.592-2.291l-.308-5a2.445,2.445,0,0,1,2.291-2.592l22.2-1.371a2.447,2.447,0,0,1,2.592,2.292l.308,5a2.445,2.445,0,0,1-2.291,2.592" transform="translate(-0.833 -5.945)"/>
      <path id="路径_2515" data-name="路径 2515" class="cls-27" d="M28.852,55.191,30.717,57a1.223,1.223,0,0,0,1.858-.183l1.929-2.8" transform="translate(-3.423 -7.028)"/>
      <path id="路径_2516" data-name="路径 2516" class="cls-28" d="M36.181,9.605A8.906,8.906,0,1,0,48.358,6.39,8.9,8.9,0,0,0,36.181,9.605" transform="translate(-4.149 -1.234)"/>
      <path id="路径_2517" data-name="路径 2517" class="cls-29" d="M11.433,20.6a10.575,10.575,0,1,0,14.46-3.817A10.576,10.576,0,0,0,11.433,20.6" transform="translate(-1.186 -2.44)"/>
      <path id="路径_2518" data-name="路径 2518" class="cls-4" d="M42.582,19.077a1.187,1.187,0,0,1-1.025-1.785l2.432-4.012-1.776.511a1.187,1.187,0,1,1-.656-2.282l4.58-1.319a1.2,1.2,0,0,1,.33-.047,1.187,1.187,0,0,1,1.154.91l1.114,4.636a1.187,1.187,0,1,1-2.308.555l-.414-1.721-2.4,3.96a1.194,1.194,0,0,1-1.029.593" transform="translate(-4.828 -1.823)"/>
      <path id="路径_2519" data-name="路径 2519" class="cls-4" d="M19.448,28.418a1.28,1.28,0,0,1-1.221-.912L16.79,22.65a1.271,1.271,0,0,1,.916-1.6l4.914-1.219a1.289,1.289,0,0,1,.308-.038,1.273,1.273,0,0,1,.307,2.507l-1.848.458.5.276c.084.048.6.312.706.375a1.282,1.282,0,0,1,.47,1.753,1.282,1.282,0,0,1-1.753.469l-.683-.385-.489-.271.534,1.807a1.272,1.272,0,0,1-1.22,1.634" transform="translate(-1.986 -2.968)"/>
      <path id="路径_2520" data-name="路径 2520" class="cls-4" d="M25.622,28.18a1.29,1.29,0,0,1-.641-.172,1.284,1.284,0,0,1-.47-1.753,1.283,1.283,0,0,1,1.753-.47,1.284,1.284,0,0,1,.47,1.753,1.288,1.288,0,0,1-1.112.642" transform="translate(-2.888 -3.658)"/>
      <path id="路径_2521" data-name="路径 2521" class="cls-4" d="M23.4,31.536a1.29,1.29,0,0,1-.641-.172,1.284,1.284,0,0,1-.47-1.753,1.283,1.283,0,0,1,1.753-.47,1.284,1.284,0,0,1,.47,1.753,1.288,1.288,0,0,1-1.112.642" transform="translate(-2.624 -4.056)"/>
      <path id="路径_2522" data-name="路径 2522" class="cls-4" d="M21.167,34.54a1.284,1.284,0,0,1-1.239-.951,1.283,1.283,0,1,1,2.351.309,1.289,1.289,0,0,1-1.112.642" transform="translate(-2.359 -4.413)"/>
    </g>
  </g>
</svg>
