<svg xmlns="http://www.w3.org/2000/svg" xmlns:xlink="http://www.w3.org/1999/xlink" width="87" height="87" viewBox="0 0 87 87">
  <defs>
    <style>
      .cls-1 {
        fill: none;
      }

      .cls-2 {
        clip-path: url(#clip-path);
      }

      .cls-3 {
        fill: #fe6600;
      }

      .cls-4 {
        opacity: 0.5;
      }

      .cls-5 {
        clip-path: url(#clip-path-2);
      }

      .cls-6 {
        fill: #fff;
      }

      .cls-7 {
        clip-path: url(#clip-path-3);
      }

      .cls-8 {
        fill: #414242;
      }

      .cls-9 {
        fill: #b8a7ca;
      }

      .cls-10 {
        fill: #e2a297;
      }

      .cls-11 {
        fill: #7dbd91;
      }

      .cls-12 {
        fill: #71c4e9;
      }

      .cls-13 {
        fill: #edcc4e;
      }

      .cls-14 {
        fill: #e4a9c4;
      }

      .cls-15 {
        fill: #fcf853;
      }

      .cls-16 {
        fill: #f1aff8;
      }

      .cls-17 {
        fill: #60cff8;
      }

      .cls-18 {
        fill: #a281f5;
      }

      .cls-19 {
        fill: #72f4ba;
      }

      .cls-20 {
        fill: #ed85a6;
      }

      .cls-21 {
        opacity: 0.05;
      }

      .cls-22 {
        clip-path: url(#clip-path-5);
      }

      .cls-23 {
        fill: #3d3a39;
      }

      .cls-24 {
        fill: #464242;
      }

      .cls-25 {
        fill: #73f6fb;
      }

      .cls-26 {
        fill: #ffa54d;
      }
    </style>
    <clipPath id="clip-path">
      <rect id="矩形_96" data-name="矩形 96" class="cls-1" width="87" height="87" rx="15.414"/>
    </clipPath>
    <clipPath id="clip-path-2">
      <rect id="矩形_94" data-name="矩形 94" class="cls-1" width="4.103" height="4.128"/>
    </clipPath>
    <clipPath id="clip-path-3">
      <rect id="矩形_95" data-name="矩形 95" class="cls-1" width="3.123" height="3.143"/>
    </clipPath>
    <clipPath id="clip-path-5">
      <rect id="矩形_97" data-name="矩形 97" class="cls-1" width="84.707" height="80.786"/>
    </clipPath>
  </defs>
  <g id="组_685" data-name="组 685" transform="translate(-1700.434 -7267.542)">
    <g id="组_679" data-name="组 679" transform="translate(1700.434 7267.542)">
      <g id="组_71" data-name="组 71">
        <g id="组_70" data-name="组 70" class="cls-2">
          <g id="组_678" data-name="组 678">
            <rect id="矩形_307" data-name="矩形 307" class="cls-3" width="87" height="87"/>
            <g id="组_674" data-name="组 674" class="cls-4" transform="translate(34.41 11.985)">
              <g id="组_673" data-name="组 673">
                <g id="组_67" data-name="组 67">
                  <g id="组_66" data-name="组 66" class="cls-5">
                    <g id="组_672" data-name="组 672" transform="translate(0)">
                      <path id="路径_655" data-name="路径 655" class="cls-6" d="M1735.182,7281.694a2.059,2.059,0,0,1,2.069-2.049,2.028,2.028,0,0,1,2.034,2.024h0v.025a2.056,2.056,0,0,1-2.031,2.08h0a2.085,2.085,0,0,1-2.07-2.08" transform="translate(-1735.182 -7279.645)"/>
                    </g>
                  </g>
                </g>
              </g>
            </g>
            <g id="组_677" data-name="组 677" class="cls-4" transform="translate(13.355 39.18)">
              <g id="组_676" data-name="组 676">
                <g id="组_69" data-name="组 69">
                  <g id="组_68" data-name="组 68" class="cls-7">
                    <g id="组_675" data-name="组 675" transform="translate(0 0)">
                      <path id="路径_656" data-name="路径 656" class="cls-6" d="M1713.92,7308.666a1.567,1.567,0,0,1,1.574-1.559,1.545,1.545,0,0,1,1.549,1.541h0v.019a1.564,1.564,0,0,1-1.547,1.582h0a1.587,1.587,0,0,1-1.575-1.582" transform="translate(-1713.92 -7307.107)"/>
                    </g>
                  </g>
                </g>
              </g>
            </g>
            <path id="路径_657" data-name="路径 657" class="cls-8" d="M1719.664,7278.639a3.687,3.687,0,0,1,.691-.53c.01.025.021.051.033.074q1.888,3.178,3.779,6.353c.033.055.05.13.137.158l1.443-2.2a4.5,4.5,0,0,1,.7.471c-.5.781-1,1.568-1.514,2.34a.405.405,0,0,0,0,.517c.553.907,1.087,1.827,1.629,2.741a6.393,6.393,0,0,1-.745.429l-1.557-2.631c-.428.659-.825,1.281-1.236,1.895-.107.16-.086.226.085.31.713.348,1.418.709,2.126,1.066l-.35.769c-.743-.368-1.49-.727-2.226-1.107-.19-.1-.269-.059-.376.108-.665,1.038-1.34,2.066-2.012,3.1l-.713-.452c.031-.054.059-.108.093-.161l1.776-2.74c.227-.35.226-.349-.135-.531-.166-.084-.331-.174-.5-.261.122-.253.243-.507.365-.761.248.123.5.233.741.37.169.1.256.068.36-.1q.661-1.052,1.353-2.088a.393.393,0,0,0,.005-.494q-1.983-3.316-3.951-6.646" transform="translate(-1700.62 -7267.645)"/>
            <path id="路径_658" data-name="路径 658" class="cls-8" d="M1711.144,7283.476a5.733,5.733,0,0,1-.634-.591l5.124-5.365a6.924,6.924,0,0,1,.569.672l-5.058,5.284" transform="translate(-1700.532 -7267.639)"/>
            <path id="路径_659" data-name="路径 659" class="cls-8" d="M1710.563,7287.853l.6-.6c.305.3.611.6.915.9q2.151,2.156,4.3,4.311l-.6.6-5.216-5.216" transform="translate(-1700.533 -7267.734)"/>
            <path id="路径_660" data-name="路径 660" class="cls-8" d="M1720.982,7277.276q.132-.411.266-.82l2.417,1.2c.535.267,1.065.537,1.6.805q-.2.379-.4.757l-3.887-1.939" transform="translate(-1700.634 -7267.628)"/>
            <path id="路径_661" data-name="路径 661" class="cls-8" d="M1724.777,7292.111l.275.819-3.673,1.333c-.042.014-.085.024-.129.036q-.14-.4-.281-.806l3.808-1.381" transform="translate(-1700.634 -7267.781)"/>
            <path id="路径_662" data-name="路径 662" class="cls-8" d="M1718.692,7278.916q0,2.366,0,4.734h-.852q0-2.367,0-4.734h.855" transform="translate(-1700.604 -7267.653)"/>
            <path id="路径_663" data-name="路径 663" class="cls-8" d="M1711.768,7285.415l3.531.482a5.246,5.246,0,0,0-.106.851l-3.53-.482c.035-.283.07-.567.1-.851" transform="translate(-1700.544 -7267.716)"/>
            <path id="路径_664" data-name="路径 664" class="cls-9" d="M1725.3,7278.465a3.011,3.011,0,1,1,3.03,4.677,3.11,3.11,0,0,1-1.607-.137.4.4,0,0,0-.232-.046,4.542,4.542,0,0,0-.7-.47,4.159,4.159,0,0,1-.807-1.176,3.316,3.316,0,0,1-.082-2.091l.4-.757" transform="translate(-1700.671 -7267.636)"/>
            <path id="路径_665" data-name="路径 665" class="cls-10" d="M1721.195,7294.3a3.319,3.319,0,0,1-.153,1.71,3,3,0,0,1-5.767-.613,3.145,3.145,0,0,1,.549-2.283l.6-.6a3.275,3.275,0,0,1,1.953-.588,4.1,4.1,0,0,1,1.134.259l.714.452q.345.427.69.854l.281.807" transform="translate(-1700.578 -7267.779)"/>
            <path id="路径_666" data-name="路径 666" class="cls-11" d="M1726.6,7288.668a5.179,5.179,0,0,1,1.15-.214,3,3,0,0,1,3.028,2.975q0,.129-.009.261a2.856,2.856,0,0,1-1.8,2.522,2.907,2.907,0,0,1-3.092-.419,6.7,6.7,0,0,1-.791-.9q-.138-.408-.276-.819a3.374,3.374,0,0,1,.118-1.573l.349-.767a2.781,2.781,0,0,1,1.325-1.069" transform="translate(-1700.671 -7267.746)"/>
            <path id="路径_667" data-name="路径 667" class="cls-12" d="M1715.68,7277.474a3.612,3.612,0,0,1-.448-1.686,3.009,3.009,0,1,1,6.016.115v.019c0,.044,0,.086-.006.129-.007.124-.031.247-.048.369l-.266.82a7.509,7.509,0,0,1-.614.818,3.656,3.656,0,0,0-.691.53,8.959,8.959,0,0,0-.955.267h-.857c-.075-.083-.185-.058-.277-.078a4.028,4.028,0,0,1-1.285-.633,6.956,6.956,0,0,0-.569-.671" transform="translate(-1700.578 -7267.593)"/>
            <path id="路径_668" data-name="路径 668" class="cls-13" d="M1710.516,7287.805a3.283,3.283,0,0,1-1.907.593,3.008,3.008,0,0,1,.2-6.014c.028,0,.055,0,.081,0a3.458,3.458,0,0,1,1.574.543,5.722,5.722,0,0,0,.634.591,1.635,1.635,0,0,0,.093.189,3.119,3.119,0,0,1,.52,1.673l-.1.851a5.775,5.775,0,0,1-.489.971l-.6.6" transform="translate(-1700.486 -7267.686)"/>
            <path id="路径_669" data-name="路径 669" class="cls-14" d="M1715.228,7286.731a5.246,5.246,0,0,1,.106-.851,3.086,3.086,0,0,1,1.741-1.96c.239-.1.5-.137.738-.224h.853a3.307,3.307,0,0,1,1.528.718,2.969,2.969,0,0,1,.971,2.974c-.018.087-.033.176-.05.263l-.365.761c-.226.177-.374.428-.6.6a2.91,2.91,0,0,1-3,.467,2.866,2.866,0,0,1-1.87-2.326c-.025-.141-.035-.283-.052-.425" transform="translate(-1700.578 -7267.699)"/>
            <path id="路径_670" data-name="路径 670" class="cls-15" d="M1705.519,7285.39a3.183,3.183,0,1,1,3.183,3.183,3.182,3.182,0,0,1-3.183-3.183h0" transform="translate(-1700.484 -7267.685)"/>
            <path id="路径_671" data-name="路径 671" class="cls-16" d="M1715.054,7286.73a3.183,3.183,0,1,1,3.183,3.183,3.183,3.183,0,0,1-3.183-3.183h0" transform="translate(-1700.577 -7267.698)"/>
            <path id="路径_672" data-name="路径 672" class="cls-17" d="M1715.054,7275.851a3.183,3.183,0,1,1,3.183,3.183,3.183,3.183,0,0,1-3.183-3.183h0" transform="translate(-1700.577 -7267.592)"/>
            <path id="路径_673" data-name="路径 673" class="cls-18" d="M1724.6,7280.186a3.183,3.183,0,1,1,3.183,3.183h0a3.183,3.183,0,0,1-3.183-3.183h0" transform="translate(-1700.669 -7267.634)"/>
            <path id="路径_674" data-name="路径 674" class="cls-19" d="M1724.6,7291.464a3.183,3.183,0,1,1,3.183,3.183,3.183,3.183,0,0,1-3.183-3.183h0" transform="translate(-1700.669 -7267.744)"/>
            <path id="路径_675" data-name="路径 675" class="cls-20" d="M1715.054,7294.931a3.183,3.183,0,1,1,3.183,3.183,3.183,3.183,0,0,1-3.183-3.183h0" transform="translate(-1700.577 -7267.777)"/>
          </g>
        </g>
      </g>
    </g>
    <g id="组_684" data-name="组 684" transform="translate(1700.434 7267.542)">
      <g id="组_75" data-name="组 75">
        <g id="组_74" data-name="组 74" class="cls-2">
          <g id="组_683" data-name="组 683" transform="translate(17.359 18.769)">
            <g id="组_682" data-name="组 682" class="cls-21">
              <g id="组_681" data-name="组 681">
                <g id="组_73" data-name="组 73">
                  <g id="组_72" data-name="组 72" class="cls-22">
                    <g id="组_680" data-name="组 680" transform="translate(0.001 0.003)">
                      <path id="路径_676" data-name="路径 676" class="cls-6" d="M1800.351,7346.424l-6.23-35.329a7.029,7.029,0,0,0-8.12-5.685l-59.987,10.577a7.03,7.03,0,0,0-5.686,8.12l6.23,35.328a7.029,7.029,0,0,0,8.12,5.687l59.986-10.578a7.03,7.03,0,0,0,5.686-8.12" transform="translate(-1717.986 -7286.681)"/>
                      <path id="路径_677" data-name="路径 677" class="cls-6" d="M1733.433,7367.442a9.26,9.26,0,0,1-9.1-7.64l-6.23-35.328a9.254,9.254,0,0,1,7.5-10.709l59.987-10.579a9.255,9.255,0,0,1,10.709,7.5l6.23,35.329a9.256,9.256,0,0,1-7.5,10.709l-59.987,10.577a9.276,9.276,0,0,1-1.61.142m53.764-59.926a4.789,4.789,0,0,0-.831.072l-59.987,10.578a4.781,4.781,0,0,0-3.874,5.532l6.23,35.329a4.784,4.784,0,0,0,5.532,3.874l59.987-10.578a4.8,4.8,0,0,0,3.874-5.532l-6.23-35.329a4.784,4.784,0,0,0-4.7-3.947" transform="translate(-1717.964 -7286.659)"/>
                      <path id="路径_678" data-name="路径 678" class="cls-6" d="M1729.808,7306.979a6.643,6.643,0,0,0,7.673,5.373l36.721-6.475a6.643,6.643,0,0,0,5.372-7.673l-.7-3.977a6.643,6.643,0,0,0-7.673-5.372l-36.721,6.475a6.643,6.643,0,0,0-5.372,7.673Z" transform="translate(-1718.072 -7286.521)"/>
                      <path id="路径_679" data-name="路径 679" class="cls-6" d="M1736.3,7314.666a8.888,8.888,0,0,1-8.716-7.321l-.7-3.977a8.876,8.876,0,0,1,7.185-10.262l36.72-6.475a8.876,8.876,0,0,1,10.261,7.185l.7,3.977a8.868,8.868,0,0,1-7.185,10.261l-36.721,6.475a8.823,8.823,0,0,1-1.546.137m-4.315-8.1a4.4,4.4,0,0,0,5.085,3.559l36.72-6.475a4.394,4.394,0,0,0,3.56-5.084l-.7-3.977a4.4,4.4,0,0,0-5.085-3.56l-36.72,6.475a4.409,4.409,0,0,0-3.56,5.084Z" transform="translate(-1718.05 -7286.499)"/>
                    </g>
                  </g>
                </g>
              </g>
            </g>
            <path id="路径_680" data-name="路径 680" class="cls-23" d="M1794.665,7354.545l-59.987,10.576a7.029,7.029,0,0,1-8.12-5.686l-6.23-35.328a7.031,7.031,0,0,1,5.686-8.12L1786,7305.409a7.03,7.03,0,0,1,8.12,5.686l6.229,35.329a7.03,7.03,0,0,1-5.686,8.12" transform="translate(-1717.985 -7286.678)"/>
            <path id="路径_681" data-name="路径 681" class="cls-23" d="M1774.2,7305.876l-36.72,6.475a6.643,6.643,0,0,1-7.674-5.373l-.7-3.976a6.643,6.643,0,0,1,5.373-7.673l36.72-6.475a6.643,6.643,0,0,1,7.673,5.372l.7,3.977a6.642,6.642,0,0,1-5.372,7.673" transform="translate(-1718.071 -7286.518)"/>
            <path id="路径_682" data-name="路径 682" class="cls-24" d="M1783.787,7352.493l-39.374,6.943a5.292,5.292,0,0,1-6.112-4.281l-5.448-30.891a5.292,5.292,0,0,1,4.28-6.113l39.374-6.942a5.292,5.292,0,0,1,6.113,4.28l5.447,30.891a5.292,5.292,0,0,1-4.28,6.113" transform="translate(-1718.107 -7286.735)"/>
            <path id="路径_683" data-name="路径 683" class="cls-25" d="M1751.658,7349.962a6.436,6.436,0,0,1-6.324-5.31l-2.228-12.638a6.425,6.425,0,0,1,12.654-2.231l2.228,12.638a6.428,6.428,0,0,1-6.33,7.541m-2.225-22.806a3.746,3.746,0,0,0-3.687,4.393l2.228,12.638a3.749,3.749,0,0,0,4.336,3.036h0a3.747,3.747,0,0,0,3.036-4.336l-2.228-12.637a3.763,3.763,0,0,0-3.686-3.094" transform="translate(-1718.207 -7286.865)"/>
            <path id="路径_684" data-name="路径 684" class="cls-25" d="M1771.881,7346.4a6.436,6.436,0,0,1-6.324-5.31l-2.228-12.638a6.425,6.425,0,0,1,12.654-2.231l2.228,12.638a6.431,6.431,0,0,1-6.33,7.542m-2.223-22.806a3.745,3.745,0,0,0-3.688,4.393l2.228,12.638a3.743,3.743,0,0,0,7.373-1.3l-2.228-12.637a3.751,3.751,0,0,0-3.685-3.095" transform="translate(-1718.403 -7286.831)"/>
            <path id="路径_685" data-name="路径 685" class="cls-26" d="M1762.342,7299.26a7.952,7.952,0,1,1-9.212-6.45h0a7.951,7.951,0,0,1,9.212,6.45h0" transform="translate(-1718.241 -7286.556)"/>
            <path id="路径_686" data-name="路径 686" class="cls-23" d="M1757.49,7300.173a2.975,2.975,0,1,1-3.446-2.414,2.977,2.977,0,0,1,3.446,2.414h0" transform="translate(-1718.29 -7286.604)"/>
          </g>
        </g>
      </g>
    </g>
  </g>
</svg>
