<svg xmlns="http://www.w3.org/2000/svg" xmlns:xlink="http://www.w3.org/1999/xlink" width="87" height="87" viewBox="0 0 87 87">
  <defs>
    <style>
      .cls-1 {
        fill: none;
      }

      .cls-2 {
        fill: #ff9741;
      }

      .cls-3 {
        clip-path: url(#clip-path);
      }

      .cls-4 {
        fill: #e8e6e6;
      }

      .cls-5 {
        fill: #fff;
      }

      .cls-6 {
        fill: #ff713b;
      }

      .cls-7 {
        fill: #241e1b;
      }
    </style>
    <clipPath id="clip-path">
      <rect id="矩形_53" data-name="矩形 53" class="cls-1" width="87" height="87" rx="15"/>
    </clipPath>
  </defs>
  <g id="组_955" data-name="组 955" transform="translate(-481 -273)">
    <rect id="矩形_51" data-name="矩形 51" class="cls-2" width="87" height="87" rx="15" transform="translate(481 273)"/>
    <g id="组_123" data-name="组 123" transform="translate(481 273)">
      <g id="组_122" data-name="组 122" class="cls-3">
        <g id="组_43286" data-name="组 43286" transform="translate(3.416 19.939)">
          <g id="组_121" data-name="组 121">
            <g id="组_43285" data-name="组 43285">
              <path id="路径_35633" data-name="路径 35633" class="cls-4" d="M527.01,1127.192c-4.261,2.5-6.386,8.686-6.872,14.027l-3.214,31.169A16.585,16.585,0,0,0,531.93,1190.5l52.348,4.757a20.043,20.043,0,0,0,18.779-9.29l2.691-4.278" transform="translate(-502.717 -1123.658)"/>
              <path id="路径_35634" data-name="路径 35634" class="cls-4" d="M516.911,1174.435l1.886,4.689a20.041,20.041,0,0,0,16.825,12.485l52.358,4.642a16.582,16.582,0,0,0,17.991-15.153l2.389-31.243c.473-5.343-.518-11.808-4.265-15.027l-2.027-1.72-4.833,5.194" transform="translate(-502.725 -1124.375)"/>
              <path id="路径_35635" data-name="路径 35635" class="cls-4" d="M578.106,1215.834a7.482,7.482,0,0,1-7.481-7.481v-36.574a7.482,7.482,0,1,1,14.963,0v28.566l.432-.03a7.483,7.483,0,0,1,1.015,14.931l-8.421.572c-.17.011-.339.017-.508.017" transform="translate(-509.235 -1128.155)"/>
              <path id="路径_35636" data-name="路径 35636" class="cls-4" d="M556.059,1215.834c-.168,0-.338-.005-.507-.017l-8.421-.572a7.482,7.482,0,0,1,1.015-14.93l.431.029v-28.566a7.482,7.482,0,1,1,14.963,0v36.574a7.481,7.481,0,0,1-7.481,7.481" transform="translate(-505.544 -1128.155)"/>
              <rect id="矩形_52" data-name="矩形 52" class="cls-5" width="81.552" height="57.006" rx="10.336" transform="translate(22.688 0) rotate(5.381)"/>
              <path id="路径_35638" data-name="路径 35638" class="cls-5" d="M530.041,1170.42a8.451,8.451,0,0,1-4.2-1.118c-19.042-10.878-24.474-27.99-24.7-28.714a8.48,8.48,0,0,1,16.193-5.038c.194.591,3.994,11.646,16.915,19.026a8.481,8.481,0,0,1-4.214,15.844" transform="translate(-500.768 -1123.951)"/>
              <path id="路径_29" data-name="路径 29" class="cls-6" d="M598.938,1130.079l-63.106-5.945a9.056,9.056,0,0,0-3.679.414l-3.819,39.99c-.635,6.473,3.4,12.1,9,12.561l50.647,4.182c5.6.462,10.654-4.405,11.289-10.871h0l3.313-39.171A9.029,9.029,0,0,0,598.938,1130.079Z" transform="translate(-504.101 -1123.282)"/>
              <path id="路径_35640" data-name="路径 35640" class="cls-7" d="M588.863,1178.625l-50.638-4.6a5.876,5.876,0,0,1-5.318-6.382l2.723-29.96a5.426,5.426,0,0,1,5.893-4.912h0l51.08,4.642a5.872,5.872,0,0,1,5.318,6.381l-2.682,29.518a5.869,5.869,0,0,1-6.375,5.314h0" transform="translate(-504.661 -1124.331)"/>
              <path id="路径_35641" data-name="路径 35641" class="cls-5" d="M577.408,1158.828a6.038,6.038,0,1,0,6.579-5.445h0a6.038,6.038,0,0,0-6.579,5.445" transform="translate(-510.054 -1126.829)"/>
              <path id="路径_35642" data-name="路径 35642" class="cls-5" d="M550.553,1156.51a6.039,6.039,0,1,0,6.579-5.445h0a6.039,6.039,0,0,0-6.579,5.445" transform="translate(-506.799 -1126.548)"/>
              <path id="路径_35643" data-name="路径 35643" class="cls-5" d="M569.13,1169.679l-.391-.037a3.929,3.929,0,0,1-3.543-4.28.349.349,0,0,1,.379-.314l7.521.709a.348.348,0,0,1,.314.379h0a3.928,3.928,0,0,1-4.28,3.542h0" transform="translate(-508.575 -1128.246)"/>
              <path id="路径_35644" data-name="路径 35644" class="cls-5" d="M518.992,1132.407a2.89,2.89,0,1,1-3.283-2.433h0a2.889,2.889,0,0,1,3.282,2.433h0" transform="translate(-502.28 -1123.991)"/>
            </g>
          </g>
        </g>
      </g>
    </g>
  </g>
</svg>
