<?xml version="1.0" encoding="UTF-8"?>
<svg id="_图层_2" data-name="图层 2" xmlns="http://www.w3.org/2000/svg" xmlns:xlink="http://www.w3.org/1999/xlink" viewBox="0 0 1712.1 741.56">
  <defs>
    <style>
      .cls-1 {
        fill: none;
      }

      .cls-2 {
        fill: #fafafb;
      }

      .cls-3 {
        fill: #f9f9fa;
      }

      .cls-4 {
        fill: #2c2523;
      }

      .cls-5 {
        fill: #c67a7b;
      }

      .cls-6 {
        fill: #e0adb2;
      }

      .cls-7 {
        fill: #ecd8db;
      }

      .cls-8 {
        fill: #ff9200;
      }

      .cls-9 {
        fill: #204da1;
      }

      .cls-10 {
        clip-path: url(#clippath-1);
      }

      .cls-11 {
        clip-path: url(#clippath-2);
      }

      .cls-12 {
        fill: #fff;
      }

      .cls-13 {
        fill: #f0f0f0;
      }

      .cls-14 {
        fill: #669eff;
      }

      .cls-15 {
        fill: #c67637;
      }

      .cls-16 {
        fill: #ecebeb;
      }

      .cls-17 {
        opacity: .1;
      }

      .cls-18 {
        fill: #1b8346;
      }

      .cls-19 {
        fill: #e4b3b6;
      }

      .cls-20 {
        fill: #dea4a6;
      }

      .cls-21 {
        fill: #f7eaec;
      }

      .cls-22 {
        clip-path: url(#clippath);
      }

      .cls-23 {
        fill: #050001;
      }
    </style>
    <clipPath id="clippath">
      <rect class="cls-1" width="1712.1" height="741.56"/>
    </clipPath>
    <clipPath id="clippath-1">
      <path class="cls-1" d="M568.69,500.99l6.52-2.28c8.67-3.04,18.3-1.07,25.08,5.12l44.62-9.2,1.66,8.03c11.49-2.59,23.22,3.19,28.15,13.89l29.95,64.97c5.77,12.51.3,27.33-12.21,33.1l-6.27,2.89c-12.51,5.77-27.33.3-33.1-12.21h0s-29.95-64.98-29.95-64.98c-1.25-2.73-4.4-6.4-4.61-9.4l-4.83,2.23,16.94,48.38c4.55,13-2.29,27.23-15.29,31.79,0,0,0,0,0,0l-6.52,2.28c-13,4.56-27.24-2.28-31.8-15.29,0,0,0,0,0,0l-23.64-67.52c-4.56-13,2.28-27.23,15.28-31.79,0,0,0,0,.01,0Z"/>
    </clipPath>
    <clipPath id="clippath-2">
      <path class="cls-1" d="M739.94,247.37l8.22-3.06c10.93-4.08,23.22-1.83,31.99,5.87l56.45-12.82,2.31,10.15c14.52-3.59,29.58,3.47,36.12,16.92l39.69,81.77c7.64,15.75,1.07,34.71-14.67,42.35l-7.89,3.83c-15.75,7.64-34.71,1.08-42.35-14.67h0s-39.7-81.78-39.7-81.78c-1.66-3.44-2.69-7.15-3.02-10.95l-9.14,2.08,22.75,61.03c6.12,16.4-2.22,34.65-18.62,40.77,0,0,0,0,0,0l-8.22,3.07c-16.4,6.12-34.66-2.21-40.78-18.61,0,0,0,0,0,0l-31.75-85.17c-6.12-16.4,2.21-34.65,18.6-40.78,0,0,.01,0,.02,0Z"/>
    </clipPath>
  </defs>
  <g id="_图层_2-2" data-name="图层 2">
    <g class="cls-22">
      <circle class="cls-9" cx="1245.3" cy="1531.68" r="1058.59"/>
      <g>
        <path class="cls-14" d="M599.21,476.58c10.65,7.26,21.06,16.36,36.73,30.15,1.15-4.92,3.13-9.56,5.81-13.76,14.91-25.26,38.72-43.86,66.52-52.32.04-.01.09-.03.13-.04,1.65-.5,3.31-.96,4.99-1.39.11-.03.23-.06.34-.09.81-.2,1.61-.4,2.43-.59.08-.02.16-.04.25-.06.76-.17,1.51-.34,2.28-.49.11-.02.23-.05.34-.07.79-.16,1.58-.31,2.38-.46.16-.03.32-.06.48-.09.81-.14,1.63-.28,2.44-.41l227.85-35.47s.04,0,.07,0c.43-.07.86-.13,1.29-.18,9.65-1.32,19.14-.72,28.06,1.54,0,0,0,0,0,0,28,7.07,50.43,30.32,54.97,60.7l9.27,62.01c56.04,33.16,79.21,78.52,80.35,80.81,7.67,15.36,1.42,34.04-13.94,41.7-15.32,7.63-33.89,1.47-41.61-13.76-.54-1.05-5.66-10.59-16.59-22.79-5.68,30.26-27.92,55.9-59.01,64.81l-14.49,4.15c-4.63,1.99-9.58,3.43-14.78,4.24l-42.13,6.56,20.5,62.3c5.82,17.69-3.8,36.75-21.49,42.58-1.79.59-3.59,1.02-5.4,1.3-16.02,2.49-31.95-6.89-37.18-22.79l-9.58-29.11c-3.41,9.4-10.93,17.2-21.16,20.57-1.79.59-3.6,1.02-5.4,1.3-16.02,2.49-31.95-6.89-37.18-22.79l-7.44-22.61c-1.22-3.7-1.75-7.45-1.69-11.13l-69.5,10.82c-33.41,5.2-64.72-17.67-69.92-51.08l-10.47-67.28c-66.27-52.97-95.14-76.69-97.05-79.03-12.95-15.88-15.46-32.57-.89-47.83,13.08-13.71,29.6-13.43,49.43.09Z"/>
        <path class="cls-14" d="M396.6,375.57c1.61-6.12,5.4-12.16,13.61-15.15,7.54-2.74,15.94-1.56,22.8,2.6,1.94,1.17,10.82,9.04,21.64,18.74,7.45-53.69,49.05-98.58,105.35-107.7,61.09-9.9,126.87,17.66,143.75,92.07.19.86.14,1.7-.16,2.54,3.37,11.33,6.6,23.51,9.55,36.49,16.71-.19,33.48-.47,37.45.33,9.98,2,18.84,8.11,23.54,17.13,5.12,9.84,3.48,18.74-.27,25.84-5.6,10.61-16.57,17.4-28.54,18.28-5.87.43-13.44.71-21.65.75.19,1.65.37,3.3.54,4.93,2.17,20.91-2.84,41.38-20.24,51.27-5.67,3.22-13.75,6.36-23.18,9.31l13.33,28.89c6.68,14.47.36,31.62-14.12,38.3h0c-14.47,6.68-31.62.36-38.3-14.12l-18.18-39.39c-2.22.42-4.41.83-6.56,1.23l6.39,18.26c5.27,15.04-2.66,31.51-17.7,36.77h0c-15.04,5.27-31.51-2.66-36.77-17.7l-10.33-29.52c-13.89.89-26.87.99-38.72.61-16.98-.55-32.05-12.29-37.49-29.28-4.38-13.68-8.56-28.46-12.32-44.27-2.37-10-4.41-19.7-6.15-29.08-18.94-14.24-52.04-43.39-60.43-52.32-6.48-6.89-9.23-16.68-6.83-25.82Z"/>
        <g>
          <g>
            <path class="cls-16" d="M973.63,678.08l28.43-8.15c39.27-11.26,64.01-49.99,57.73-90.35h0s-17.4-116.33-17.4-116.33c-5.88-39.34-42.66-66.38-81.96-60.26l-221.31,34.45c-35.14,5.47-65.68,27.11-82.48,58.45h0"/>
            <path class="cls-15" d="M667.25,482.29l181.16-9.84,122.39-41.08,18.2-27.09s0,0,0,0c-1.46-.37-2.96-.61-4.45-.89-.82-.15-1.63-.37-2.46-.49-3.9-.58-7.89-.77-11.92-.69-3.22.06-6.46.26-9.73.77l-221.31,34.45c-28.23,4.39-53.47,19.24-71.02,41.15l-.85,3.71Z"/>
            <path class="cls-16" d="M926.51,787.57c-15.56,2.42-31.03-6.69-36.11-22.14l-27.77-84.38c-5.66-17.18,3.69-35.7,20.88-41.35,17.18-5.65,35.7,3.69,41.35,20.87l27.77,84.38c5.66,17.18-3.69,35.7-20.87,41.35-1.74.57-3.49.99-5.24,1.26Z"/>
            <path class="cls-12" d="M705.3,622.75c-4.43.24-9.72.91-13.41-2.04-83.74-66.75-119.31-95.86-121.41-98.44-12.58-15.43-15.01-31.63-.86-46.46,12.71-13.32,28.75-13.04,48.01.09,20.17,13.75,39.4,34.25,97.46,82.08,14.25,11.74,26.17,25.64,19.77,42.96-4.77,12.89-16.64,21.1-29.55,21.81Z"/>
            <path class="cls-16" d="M1001.79,503.82c4-.22,8.11.36,12.11,1.84,81.83,30.25,114.2,93.63,115.54,96.31,7.44,14.92,1.38,33.06-13.54,40.5-14.88,7.41-32.92,1.43-40.41-13.37-1.17-2.26-24.28-45.26-82.53-66.8-15.64-5.78-23.64-23.15-17.85-38.8,4.3-11.64,15.03-19.05,26.68-19.69Z"/>
            <path class="cls-12" d="M722.47,450.42h233.6c32.82,0,59.47,26.65,59.47,59.47v144.46c0,23.82-19.34,43.16-43.16,43.16h-270.34c-21.57,0-39.08-17.51-39.08-39.08v-148.48c0-32.85,26.67-59.52,59.52-59.52Z" transform="translate(1756.78 1012.02) rotate(171.15)"/>
            <path class="cls-8" d="M694.29,648.19l-27.03-165.89c5.89-5.07,13.2-8.64,21.44-9.93l267.13-41.58c5.15-.8,10.21-.54,14.98.59l28.01,171.91c4.52,27.76-11.32,53.14-35.39,56.69l-217.42,32.01c-24.04,3.54-47.2-16.07-51.71-43.8Z"/>
            <path class="cls-4" d="M742.91,481.29h191.18c21.92,0,39.72,17.8,39.72,39.72v99.47c0,21.94-17.82,39.76-39.76,39.76h-194.18c-20.27,0-36.72-16.45-36.72-36.72v-102.48c0-21.94,17.82-39.76,39.76-39.76Z" transform="translate(1754.78 1005.78) rotate(171.15)"/>
            <g>
              <circle class="cls-12" cx="888.55" cy="543.63" r="25.14"/>
              <circle class="cls-12" cx="780.4" cy="560.47" r="25.14"/>
            </g>
            <path class="cls-12" d="M855.3,758.4c-15.56,2.42-31.03-6.69-36.11-22.14l-7.23-21.96c-5.66-17.18,3.69-35.7,20.87-41.36,17.19-5.66,35.7,3.69,41.36,20.87l7.23,21.96c5.66,17.18-3.69,35.7-20.87,41.36-1.74.57-3.49.99-5.24,1.26Z"/>
          </g>
          <path class="cls-12" d="M819.85,571.04h35.45c1.49,0,2.69,1.21,2.69,2.69h0c0,10.2-8.28,18.48-18.48,18.48h-3.89c-10.2,0-18.48-8.28-18.48-18.48h0c0-1.49,1.21-2.69,2.69-2.69Z" transform="translate(-79.49 135.74) rotate(-8.85)"/>
        </g>
        <g>
          <rect id="_矩形_390" data-name="矩形 390" class="cls-12" x="556.46" y="476.86" width="56.79" height="121.42" rx="28.4" ry="28.4" transform="translate(-144.78 223.45) rotate(-19.3)"/>
          <rect id="_矩形_392" data-name="矩形 392" class="cls-12" x="624.23" y="476.3" width="56.8" height="121.45" rx="28.4" ry="28.4" transform="translate(-164.96 322.85) rotate(-24.77)"/>
          <g class="cls-17">
            <g class="cls-10">
              <path id="_路径_472" data-name="路径 472" class="cls-23" d="M471.18,517.27c6,20.45,23.52,29.6,44.66,32.3,24.73,3.16,156.89,5.87,180.5-2.15,20.21-6.87,29.3-34.75,31.13-56.02,1.3-15.18-.07-47-2.69-66.35-.55-4.04-1.18-7.96-1.89-11.77-6.39-34-35.77-58.84-70.36-59.5-45.55-.93-91.04,3.65-135.49,13.63-33.83,7.65-57.61,38.03-56.93,72.71.08,4.28.27,8.68.6,13.2,1.39,18.83,6.3,49.75,10.47,63.96Z"/>
            </g>
          </g>
          <path class="cls-3" d="M509.52,428.24c-7.39-4.8-62.66-56.2-67.81-59.32-6.75-4.09-15.02-5.25-22.43-2.56-8.08,2.93-11.81,8.88-13.4,14.9-2.36,9,.35,18.63,6.72,25.41,10.1,10.75,56.62,51.3,69.46,58.3"/>
          <path class="cls-3" d="M681.97,409.76c11.03,1.85,64.72-.55,72.21.95,9.82,1.97,18.54,7.98,23.16,16.86,5.04,9.68,3.42,18.44-.26,25.42-5.51,10.44-16.31,17.12-28.08,17.99-18.67,1.38-54.88,1.15-72.88-3.31"/>
          <path class="cls-3" d="M708.56,512.29c17.12-9.74,22.05-29.87,19.91-50.45-1.49-14.37-17.55-78.36-23.76-97.86-.4-1.68-2.39-9.76-10.06-14.81-5.02-3.3-11.3-4.71-17.62-3.42l-193.25,39.38c-12.66,2.58-20.91,15-18.34,27.6,2.34,21.96,20.73,89.4,25.04,102.87,5.35,16.72,20.18,28.27,36.89,28.81,16.68.54,35.6.1,56.23-2.17s99.03-15.2,124.96-29.95Z"/>
          <path class="cls-8" d="M706.77,367.57c-19.19-72.59-84.84-97.4-144.56-85.53-59.73,11.86-100.96,64.53-100.49,123.25.1,12.4,41.23,17.84,120.97,2,79.74-15.84,127.25-27.74,124.08-39.73Z"/>
          <circle class="cls-21" cx="625.16" cy="464.65" r="21.51"/>
          <circle class="cls-21" cx="517.81" cy="475.23" r="21.51"/>
          <circle class="cls-4" cx="528.54" cy="457.79" r="18.28"/>
          <path class="cls-3" d="M527.51,446.06c-1.58,2.32-.25,5.99,2.98,8.19,1.61,1.1,3.4,1.63,4.98,1.6s2.95-.64,3.74-1.8c1.58-2.32.25-5.99-2.98-8.19-1.61-1.1-3.4-1.63-4.98-1.6-1.58.04-2.95.64-3.74,1.8Z"/>
          <circle class="cls-4" cx="608.08" cy="449.58" r="18.28"/>
          <path class="cls-3" d="M607.05,437.85c-1.58,2.32-.25,5.99,2.98,8.19,1.61,1.1,3.4,1.63,4.98,1.6s2.95-.64,3.74-1.8c1.58-2.32.25-5.99-2.98-8.19-1.61-1.1-3.4-1.63-4.98-1.6-1.58.04-2.95.64-3.74,1.8Z"/>
          <path class="cls-5" d="M580.48,468.09c4,4.02,1.98,10.88-.32,13.8-2.3,2.93-4.49,4.74-9.16,5.37-4.66.63-7.26-.54-10.25-2.76-2.99-2.21-6.76-8.29-3.96-13.23,1.99-3.51,20.84-6.04,23.69-3.19Z"/>
          <path class="cls-6" d="M574.89,480.55c2.05-.3,4.09-.22,6.08.12-.26.46-.53.87-.81,1.22-2.3,2.93-4.49,4.74-9.16,5.37-4.17.56-6.69-.32-9.32-2.1,3.35-2,7.72-3.82,13.2-4.62Z"/>
        </g>
        <path class="cls-14" d="M561.47,83.1l35.83,26.93c12.84-19.97,33.04-35.07,57.45-41.11,2.59-.64,5.18-1.25,7.77-1.86-.02-.54-.02-1.07-.02-1.58-.07-4.72,3.04-8.62,7.41-10.19,5.74-2.22,12.11-2.77,18.16-3.86,7.09-1.06,14.93-2.8,19.7.66,1.68,1.24,3,3.11,3.87,5.2,2.8-.46,5.6-.9,8.4-1.33,0-.09,0-.17,0-.26.05-5.18,3.68-9.14,8.55-10.52,7.45-2.22,15.72-2.38,23.45-3.32,6.94-.67,14.44-1.49,18.81,2.24,1.63,1.41,2.83,3.43,3.6,5.63,3.18-.25,6.36-.47,9.54-.67,1.04-3.66,4.22-6.25,8.01-7.11,6-1.5,12.41-1.32,18.58-1.71,6.93-.25,14.59-.96,18.81,2.72,1.33,1.17,2.34,2.79,3,4.58,35.97.28,67.93,20.62,83.94,51.33,10.17,4.51,18.06,13.61,20.67,25.11,4.84,21.24,7.15,42.96,6.9,64.71l29.29,17.74c13.73,8.19,18.22,25.96,10.03,39.69-8.19,13.73-25.96,18.22-39.69,10.03-.11-.06-.22-.13-.33-.2l-14.85-8.99c-7.29,18.34-22.14,33.13-41.34,40.08-1.44.52-3.18,1.06-5.19,1.62l18.49,38.05c8.97,18.45,1.28,40.68-17.18,49.65h0c-18.45,8.97-40.68,1.28-49.65-17.17l-27.73-57.05c-2.95.41-5.92.81-8.92,1.21l9.3,24.95c7.16,19.22-2.61,40.61-21.83,47.78h0c-19.22,7.16-40.61-2.61-47.78-21.83l-15.77-42.3c-28.62,2.6-52.39,3.87-62.69,2.76-26.51-2.82-49.01-20.42-58.25-45.21-9.26-4.43-16.52-12.74-19.34-23.28-6.48-24.54-9.55-49.86-9.12-75.24.04-2.51.35-4.97.88-7.34l-45.57-34.26c-12.78-9.61-15.35-27.75-5.74-40.53,9.61-12.78,27.75-15.35,40.53-5.74Z"/>
        <g>
          <g>
            <rect id="_矩形_390-2" data-name="矩形 390" class="cls-12" x="727.13" y="220.27" width="72.16" height="154.27" rx="36.08" ry="36.08" transform="translate(-55.81 285.3) rotate(-20.44)"/>
            <rect id="_矩形_392-2" data-name="矩形 392" class="cls-12" x="816.34" y="223.42" width="72.17" height="154.3" rx="36.08" ry="36.08" transform="translate(-45.64 402.81) rotate(-25.92)"/>
            <g class="cls-17">
              <g class="cls-11">
                <path id="_路径_472-2" data-name="路径 472" class="cls-23" d="M616.48,270.53c8.14,25.82,30.63,37,57.55,39.89,31.49,3.39,199.45,3.47,229.23-7.32,25.5-9.24,36.34-44.89,38.11-71.95,1.27-19.31-1.29-59.71-5.1-84.22-.8-5.11-1.7-10.08-2.7-14.9-8.99-43.02-46.93-73.83-90.89-73.79-57.88-.02-115.55,6.95-171.76,20.76-42.78,10.58-72.22,49.77-70.47,93.8.2,5.43.57,11.02,1.09,16.75,2.24,23.89,9.26,63.04,14.92,80.98Z"/>
              </g>
            </g>
            <path id="_路径_474" data-name="路径 474" class="cls-2" d="M877.33,146.61l96.28,58.3c13.33,7.96,17.69,25.21,9.74,38.55-7.96,13.33-25.21,17.69-38.55,9.74-.11-.06-.21-.13-.32-.19l-96.28-58.3,29.13-48.1Z"/>
            <path id="_路径_475" data-name="路径 475" class="cls-2" d="M629.87,197.69l-89.97-67.64c-12.41-9.33-14.91-26.96-5.58-39.37,9.33-12.41,26.96-14.91,39.37-5.58l89.97,67.64-33.79,44.94Z"/>
            <path id="_路径_476" data-name="路径 476" class="cls-8" d="M639.66,268.21l-9.28,1.12c-17.39,2.14-33.69-8.86-38.21-25.79-6.29-23.84-9.28-48.43-8.86-73.09.28-17.59,13.51-32.28,30.97-34.39l9.27-1.12,16.1,133.27Z"/>
            <path id="_路径_477" data-name="路径 477" class="cls-8" d="M903.45,232.1l9.31-.81c17.45-1.49,31.14-15.61,32.08-33.1,1.25-24.63-.9-49.31-6.38-73.35-3.9-17.16-19.87-28.81-37.4-27.28l-9.31.81,11.7,133.73Z"/>
            <path id="_路径_478" data-name="路径 478" class="cls-2" d="M609.83,262.87c8.15,25.8,30.8,44.33,57.71,47.2,31.49,3.39,192.58-16.07,222.37-26.87,25.48-9.22,43.08-32.67,44.82-59.71,1.27-19.31-1.29-59.71-5.1-84.22-.79-5.11-1.7-10.08-2.7-14.9-8.99-43.02-46.93-73.83-90.89-73.8-57.88-.02-115.55,6.96-171.76,20.76-42.77,10.58-72.21,49.77-70.47,93.79.21,5.44.57,11.02,1.09,16.75,2.24,23.9,9.26,63.05,14.92,80.99Z"/>
            <path id="_路径_479" data-name="路径 479" class="cls-20" d="M749.98,204.14s-17.13,1.89-19.72,2.77c-2.58.89-4.63,4.14-2.76,10.18s9.35,10.51,21.15,9.02c11.8-1.49,16.97-10.25,16.67-15.49-.29-5.24-2.99-7.99-15.34-6.48Z"/>
            <path id="_路径_480" data-name="路径 480" class="cls-19" d="M751.92,225.47c-1.93-1.09-3.21-3.05-3.43-5.26-.15-5.9,8.57-10.17,11.97-10.08,1.69.09,3.34.54,4.85,1.31-.22,4.74-4.44,11.64-13.39,14.03Z"/>
            <circle id="_椭圆_140" data-name="椭圆 140" class="cls-7" cx="826.26" cy="201.63" r="29.66"/>
            <circle id="_椭圆_141" data-name="椭圆 141" class="cls-7" cx="661.46" cy="213.55" r="29.66"/>
            <circle id="_椭圆_142" data-name="椭圆 142" class="cls-4" cx="790.6" cy="178.56" r="29.66"/>
            <circle id="_椭圆_143" data-name="椭圆 143" class="cls-4" cx="700.71" cy="186.41" r="29.66"/>
            <ellipse id="_椭圆_145" data-name="椭圆 145" class="cls-12" cx="713.37" cy="175.41" rx="8.48" ry="11.79" transform="translate(25.29 432.73) rotate(-34.32)"/>
            <ellipse id="_椭圆_145-2" data-name="椭圆 145" class="cls-12" cx="805.02" cy="167.91" rx="8.48" ry="11.79" transform="translate(45.48 483.1) rotate(-34.32)"/>
          </g>
          <g>
            <path class="cls-13" d="M837.23,58.58c1.28-3.93-.05-9.61-3.3-12.45-4.1-3.58-11.54-2.89-18.27-2.64-5.99.38-12.22.2-18.04,1.66-4.21.96-7.65,4.12-8.08,8.52-.34,2.73-.5,5.97,1.5,8.01,3.36,2.75,14.77.43,20.38.64,5.13-.24,10.42-.49,14.79-.69,5.97-.42,9.28.16,10.94-2.85l.09-.19Z"/>
            <path class="cls-18" d="M781.25,61.43c1.01-4.53-.46-10.98-4.17-14.2-4.24-3.62-11.53-2.82-18.27-2.17-7.51.91-15.54,1.07-22.77,3.22-4.73,1.33-8.25,5.19-8.3,10.22-.08,3.39-.29,7.9,2.91,9.82,4.62,1.62,16.02-1.04,22.3-1.26,6.64-.69,12.73-1.32,18.59-1.92,5.41-.65,8.35-.44,9.66-3.5l.07-.2Z"/>
            <path class="cls-13" d="M720.53,67.74c.83-4.26-1.08-10.05-4.74-12.75-4.63-3.36-12.25-1.67-19.13-.64-5.88,1.05-12.06,1.59-17.64,3.74-4.25,1.53-7.26,5.31-7.2,9.9,0,3.16.17,7.35,3.37,8.81,3.47,1.29,14.07-1.57,19.7-2.18,5.15-.84,10.47-1.7,14.85-2.41,5.99-1.12,9.41-.91,10.72-4.25l.07-.21Z"/>
          </g>
        </g>
      </g>
      <g>
        <path class="cls-12" d="M1165.34,299.84c-2.85.16-4.52,4.15-6.08,6.27-2.59,4.08-6.09,7.54-10.3,9.98-2,1.25-4.36,2.27-6.17,3.73-4.34,3.5,1.44,6.71,4.3,8.57,4.82,2.97,8.62,7.07,11.27,12.03,4.42,8.11,6.25,8.2,11.24.37,2.74-4.32,6.34-7.95,10.82-10.48,4.62-2.68,11.72-5.54,4.27-10.44-5.76-3.56-10.36-7.23-13.6-13.31-1.44-2.24-2.83-6.37-5.7-6.72h-.05Z"/>
        <circle class="cls-12" cx="1231" cy="133.02" r="11.84"/>
        <rect class="cls-12" x="1594.32" y="285.74" width="28.21" height="28.21" transform="translate(2989.24 -577.82) rotate(137)"/>
        <path class="cls-12" d="M312.34,159.78c-1.87.1-2.96,2.72-3.98,4.1-1.7,2.67-3.99,4.93-6.74,6.53-1.31.82-2.86,1.49-4.04,2.44-2.84,2.29.94,4.39,2.81,5.61,3.15,1.95,5.64,4.63,7.38,7.88,2.89,5.31,4.09,5.37,7.36.24,1.79-2.83,4.15-5.21,7.08-6.86,3.03-1.75,7.67-3.62,2.8-6.83-3.77-2.33-6.78-4.73-8.9-8.72-.94-1.47-1.85-4.17-3.73-4.4h-.03Z"/>
        <circle class="cls-12" cx="698.23" cy="269.05" r="11.74"/>
        <rect class="cls-12" x="1355.61" y="359.67" width="14.57" height="14.57" transform="translate(2609.91 -294.16) rotate(137)"/>
        <path class="cls-12" d="M275.44,565.36c3.38-3.31,10.18-4.03,14.5-6.25,7.16-2.99,7.85-12.15,11.66-17.92,1.56-2.42,2.76-2.1,4.05.39,1.91,3.63,2.94,8.43,4.65,12.27,2.34,6.05,8.95,7.6,14.3,10.04,1.86.93,5.21,2.23,5.37,3.98-.27,1.75-3.88,2.86-5.82,3.66-5.42,1.99-11.98,3.13-14.72,8.85-2.05,3.78-3.43,8.66-5.69,12.2-1.76,2.73-3,1.91-4.37-.94-2.98-5.96-3.43-14.81-10.26-18-3.02-1.96-15.03-5.17-13.72-8.2l.04-.07Z"/>
      </g>
    </g>
  </g>
</svg>