<svg id="组_1160" data-name="组 1160" xmlns="http://www.w3.org/2000/svg" xmlns:xlink="http://www.w3.org/1999/xlink" width="87" height="87" viewBox="0 0 87 87">
  <defs>
    <style>
      .cls-1 {
        fill: none;
      }

      .cls-2 {
        clip-path: url(#clip-path);
      }

      .cls-3 {
        fill: #ff9f50;
      }

      .cls-4 {
        fill: #de9458;
      }

      .cls-5 {
        fill: #8f6543;
      }

      .cls-6 {
        fill: #ff7145;
      }

      .cls-7 {
        fill: #fff;
      }

      .cls-8 {
        fill: #3b2d16;
      }
    </style>
    <clipPath id="clip-path">
      <rect id="矩形_2152" data-name="矩形 2152" class="cls-1" width="87" height="87"/>
    </clipPath>
  </defs>
  <g id="组_1160-2" data-name="组 1160" class="cls-2">
    <path id="路径_1655" data-name="路径 1655" class="cls-3" d="M15,0H72A15,15,0,0,1,87,15V72A15,15,0,0,1,72,87H15A15,15,0,0,1,0,72V15A15,15,0,0,1,15,0"/>
    <path id="路径_1656" data-name="路径 1656" class="cls-4" d="M69.715,70.526c0,.394-11.33.714-25.307.714S19.1,70.92,19.1,70.526s11.33-.714,25.307-.714,25.307.32,25.307.714"/>
    <path id="路径_1657" data-name="路径 1657" class="cls-5" d="M25.6,68.346a2.214,2.214,0,1,1-2.214-2.214A2.214,2.214,0,0,1,25.6,68.346"/>
    <path id="路径_1658" data-name="路径 1658" class="cls-5" d="M67.924,68.346a2.214,2.214,0,1,1-2.214-2.214,2.214,2.214,0,0,1,2.214,2.214"/>
    <path id="路径_1659" data-name="路径 1659" class="cls-6" d="M72.113,39.5H16.7a.289.289,0,0,1-.289-.288v-.234A27.993,27.993,0,0,1,44.408,10.989h0A27.992,27.992,0,0,1,72.4,38.982v.234a.288.288,0,0,1-.288.288"/>
    <path id="路径_1660" data-name="路径 1660" class="cls-7" d="M71.951,40.729H16.865a.449.449,0,0,1-.45-.449v-.326a.449.449,0,0,1,.45-.45H71.951a.449.449,0,0,1,.45.45v.326a.449.449,0,0,1-.45.449"/>
    <path id="路径_1661" data-name="路径 1661" class="cls-7" d="M72.113,69.245H16.7a.289.289,0,0,1-.289-.288V41.018a.289.289,0,0,1,.289-.288H72.113a.288.288,0,0,1,.288.288V68.957a.288.288,0,0,1-.288.288"/>
    <path id="路径_1662" data-name="路径 1662" class="cls-8" d="M39.731,53.08A4.427,4.427,0,1,1,35.3,48.653a4.427,4.427,0,0,1,4.427,4.427"/>
    <path id="路径_1663" data-name="路径 1663" class="cls-8" d="M35.3,57.757a4.677,4.677,0,1,1,4.677-4.677A4.682,4.682,0,0,1,35.3,57.757m0-8.854a4.177,4.177,0,1,0,4.177,4.177A4.182,4.182,0,0,0,35.3,48.9"/>
    <path id="路径_1664" data-name="路径 1664" class="cls-8" d="M58.012,53.08a4.427,4.427,0,1,1-4.427-4.427,4.427,4.427,0,0,1,4.427,4.427"/>
    <path id="路径_1665" data-name="路径 1665" class="cls-8" d="M53.584,57.757a4.677,4.677,0,1,1,4.677-4.677,4.682,4.682,0,0,1-4.677,4.677m0-8.854a4.177,4.177,0,1,0,4.177,4.177A4.182,4.182,0,0,0,53.584,48.9"/>
    <path id="路径_1666" data-name="路径 1666" class="cls-8" d="M47.425,57.348a.159.159,0,0,1,.157.163,3.178,3.178,0,0,1-6.348,0,.159.159,0,0,1,.157-.163Z"/>
    <path id="路径_1667" data-name="路径 1667" class="cls-8" d="M44.408,60.776a3.424,3.424,0,0,1-3.424-3.253.405.405,0,0,1,.111-.3.412.412,0,0,1,.3-.127h6.034a.408.408,0,0,1,.3.127.4.4,0,0,1,.112.3,3.424,3.424,0,0,1-3.424,3.253M41.49,57.6a2.929,2.929,0,0,0,5.836,0Z"/>
  </g>
</svg>
