<?xml version="1.0" encoding="UTF-8"?>
<svg width="900" height="420" viewBox="0 0 900 420" fill="none" xmlns="http://www.w3.org/2000/svg">
  <defs>
    <linearGradient id="heroBg" x1="0" y1="0" x2="900" y2="420" gradientUnits="userSpaceOnUse">
      <stop stop-color="#0F66D2"/>
      <stop offset="0.52" stop-color="#0A57C0"/>
      <stop offset="1" stop-color="#0A4FB4"/>
    </linearGradient>
    <linearGradient id="glassStroke" x1="0" y1="0" x2="1" y2="1">
      <stop stop-color="#8CDEFF"/>
      <stop offset="1" stop-color="#8D76FF"/>
    </linearGradient>
    <linearGradient id="penBody" x1="0" y1="0" x2="1" y2="1">
      <stop stop-color="#70DBFF"/>
      <stop offset="1" stop-color="#1C8FDE"/>
    </linearGradient>
    <filter id="panelGlow" x="250" y="52" width="560" height="332" filterUnits="userSpaceOnUse" color-interpolation-filters="sRGB">
      <feDropShadow dx="0" dy="0" stdDeviation="20" flood-color="#62CCFF" flood-opacity="0.28"/>
      <feDropShadow dx="0" dy="0" stdDeviation="34" flood-color="#977BFF" flood-opacity="0.16"/>
    </filter>
    <filter id="catGlow" x="336" y="84" width="334" height="270" filterUnits="userSpaceOnUse" color-interpolation-filters="sRGB">
      <feDropShadow dx="0" dy="0" stdDeviation="8" flood-color="#FF76E1" flood-opacity="0.7"/>
    </filter>
  </defs>

  <rect width="900" height="420" fill="url(#heroBg)"/>

  <g opacity="0.24">
    <rect x="414" y="70" width="108" height="7" rx="3.5" fill="#42CAFF"/>
    <rect x="538" y="70" width="40" height="7" rx="3.5" fill="#42CAFF"/>
    <rect x="412" y="92" width="142" height="5" rx="2.5" fill="#42CAFF"/>
    <rect x="408" y="116" width="130" height="5" rx="2.5" fill="#42CAFF"/>
    <rect x="414" y="140" width="158" height="5" rx="2.5" fill="#42CAFF"/>
    <rect x="412" y="164" width="138" height="5" rx="2.5" fill="#42CAFF"/>
    <rect x="424" y="188" width="118" height="5" rx="2.5" fill="#42CAFF"/>
    <rect x="418" y="212" width="154" height="5" rx="2.5" fill="#42CAFF"/>
    <rect x="408" y="236" width="130" height="5" rx="2.5" fill="#42CAFF"/>
    <rect x="412" y="260" width="146" height="5" rx="2.5" fill="#42CAFF"/>
    <rect x="428" y="284" width="104" height="5" rx="2.5" fill="#42CAFF"/>
    <rect x="718" y="58" width="10" height="72" rx="5" fill="#55DCFF"/>
    <rect x="736" y="66" width="10" height="64" rx="5" fill="#55DCFF"/>
    <rect x="754" y="76" width="10" height="54" rx="5" fill="#55DCFF"/>
    <rect x="774" y="50" width="10" height="80" rx="5" fill="#55DCFF"/>
    <rect x="794" y="62" width="10" height="68" rx="5" fill="#55DCFF"/>
  </g>

  <g filter="url(#panelGlow)">
    <rect x="272" y="74" width="516" height="288" rx="28" fill="#FFFFFF" fill-opacity="0.04" stroke="url(#glassStroke)" stroke-width="3"/>
  </g>

  <g opacity="0.9">
    <rect x="324" y="104" width="74" height="34" rx="12" fill="#DDF7FF" fill-opacity="0.16" stroke="#A7ECFF" stroke-width="2"/>
    <rect x="646" y="104" width="74" height="34" rx="12" fill="#EADFFF" fill-opacity="0.12" stroke="#CCBEFF" stroke-width="2"/>
    <rect x="302" y="260" width="78" height="34" rx="12" fill="#DDF7FF" fill-opacity="0.16" stroke="#A7ECFF" stroke-width="2"/>
    <rect x="638" y="260" width="78" height="34" rx="12" fill="#DDF7FF" fill-opacity="0.16" stroke="#A7ECFF" stroke-width="2"/>
    <text x="361" y="128" text-anchor="middle" fill="#D0F8FF" font-size="19" font-family="Arial, sans-serif" font-weight="700">CAT</text>
    <text x="683" y="128" text-anchor="middle" fill="#E8DEFF" font-size="19" font-family="Arial, sans-serif" font-weight="700">CAT</text>
    <text x="341" y="284" text-anchor="middle" fill="#D0F8FF" font-size="19" font-family="Arial, sans-serif" font-weight="700">CAT</text>
    <text x="677" y="284" text-anchor="middle" fill="#D0F8FF" font-size="19" font-family="Arial, sans-serif" font-weight="700">CAT</text>
  </g>

  <g filter="url(#catGlow)" opacity="0.96">
    <path d="M496 176C486 163 489 147 503 133L518 118L535 141L552 118L567 133C581 147 584 163 573 176" stroke="#D28DFF" stroke-width="8" stroke-linecap="round" stroke-linejoin="round"/>
    <path d="M507 182C481 200 468 228 468 258V270C468 295 450 317 424 334" stroke="#D28DFF" stroke-width="8" stroke-linecap="round"/>
    <path d="M562 182C592 201 609 228 609 263V278C609 303 627 322 654 336" stroke="#D28DFF" stroke-width="8" stroke-linecap="round"/>
    <path d="M512 215C533 207 556 207 577 215" stroke="#D28DFF" stroke-width="8" stroke-linecap="round"/>
    <path d="M544 216V289" stroke="#D28DFF" stroke-width="8" stroke-linecap="round"/>
    <path d="M545 289C515 294 495 317 493 346" stroke="#D28DFF" stroke-width="8" stroke-linecap="round"/>
    <path d="M546 289C575 294 595 317 597 346" stroke="#D28DFF" stroke-width="8" stroke-linecap="round"/>
    <path d="M510 232L481 228" stroke="#D28DFF" stroke-width="8" stroke-linecap="round"/>
    <path d="M507 248L479 251" stroke="#D28DFF" stroke-width="8" stroke-linecap="round"/>
    <path d="M578 232L607 228" stroke="#D28DFF" stroke-width="8" stroke-linecap="round"/>
    <path d="M581 248L609 251" stroke="#D28DFF" stroke-width="8" stroke-linecap="round"/>
    <path d="M609 263C635 256 657 228 657 197C657 161 631 137 605 138" stroke="#D28DFF" stroke-width="8" stroke-linecap="round"/>
    <circle cx="544" cy="263" r="9" fill="#3ED7FF"/>
  </g>

  <g transform="translate(650 138) rotate(24 0 0)">
    <rect x="0" y="0" width="108" height="20" rx="10" fill="url(#penBody)"/>
    <rect x="94" y="0" width="28" height="20" rx="8" fill="#1A2740"/>
    <rect x="84" y="0" width="10" height="20" fill="#E8F8FF" fill-opacity="0.72"/>
    <path d="M122 10L144 0V20L122 10Z" fill="#E0EEFA"/>
    <path d="M144 0L156 10L144 20V0Z" fill="#97E7FF"/>
  </g>

  <g opacity="0.22">
    <circle cx="314" cy="326" r="22" stroke="#56D8FF" stroke-width="2"/>
    <path d="M304 326H324" stroke="#56D8FF" stroke-width="2" stroke-linecap="round"/>
    <path d="M314 316V336" stroke="#56D8FF" stroke-width="2" stroke-linecap="round"/>
    <circle cx="336" cy="338" r="14" stroke="#56D8FF" stroke-width="2"/>
  </g>
</svg>
