<?xml version="1.0" encoding="UTF-8"?>
<svg id="_图层_1" data-name="图层_1" xmlns="http://www.w3.org/2000/svg" version="1.1" viewBox="0 0 950 750">
  <!-- Generator: Adobe Illustrator 30.3.0, SVG Export Plug-In . SVG Version: 2.1.3 Build 182)  -->
  <defs>
    <style>
      .st0 {
        fill: #ac673a;
      }

      .st1 {
        fill: #c67641;
      }

      .st2 {
        fill: #ffe283;
      }

      .st3 {
        fill: #00b056;
      }

      .st4 {
        fill: #d5946f;
      }

      .st5 {
        fill: #fff;
      }

      .st6 {
        fill: #c98251;
      }

      .st7 {
        fill: #ff5100;
      }

      .st8 {
        fill: #eec417;
      }

      .st9 {
        fill: #f1d55b;
      }

      .st10 {
        fill: #00e752;
      }

      .st11 {
        fill: #908aff;
      }

      .st12 {
        fill: #00bc67;
      }

      .st13 {
        fill: #ff5601;
      }
    </style>
  </defs>
  <rect class="st11" y="0" width="950" height="750"/>
  <g>
    <rect class="st10" x="152.8" y="526.2" width="210.8" height="82.5" rx="15.9" ry="15.9"/>
    <g>
      <path class="st5" d="M226.7,583.7h-7.2l-3.1-7h-16.3l-3.1,7h-7.2l18.3-39.6h.2l18.3,39.6ZM202.4,571.2h11.7l-5.9-13.5-5.9,13.5Z"/>
      <path class="st5" d="M257.2,570.4c0,8-4.9,13.9-12.1,13.9s-6.5-1.5-7.9-3.2v14.8h-6.3v-38.8h5.7l.3,3.1c1.5-2,4.2-3.6,8.3-3.6,7.2,0,12.1,5.8,12.1,13.9ZM237.2,566.1v8.6c1.4,2.3,3.3,4,6.5,4s7.1-3.2,7.1-8.3-3-8.3-7.1-8.3-5.1,1.7-6.5,4Z"/>
      <path class="st5" d="M289,570.4c0,8-4.9,13.9-12.1,13.9s-6.5-1.5-7.9-3.2v14.8h-6.3v-38.8h5.7l.3,3.1c1.5-2,4.2-3.6,8.3-3.6,7.2,0,12.1,5.8,12.1,13.9ZM269,566.1v8.6c1.4,2.3,3.3,4,6.5,4s7.1-3.2,7.1-8.3-3-8.3-7.1-8.3-5.1,1.7-6.5,4Z"/>
      <path class="st5" d="M300.7,583.7h-6.3v-40.2h6.3v40.2Z"/>
      <path class="st5" d="M331.4,570.1v2.2h-18.8c.2,4.2,2.7,6.6,7.1,6.6s5.4-1.4,6.6-3.1l4.4,3.6c-2.6,3.2-6.1,4.8-11.1,4.8-8.3,0-13.5-5.8-13.5-13.8s5.4-13.9,13.1-13.9,12.2,6.1,12.2,13.6ZM312.5,567.8h12.6c-.2-3.6-2.3-6.2-6.1-6.2s-6.3,2.5-6.5,6.2Z"/>
    </g>
    <path class="st10" d="M155.1,587.9l-13,15.8c-1.7,2-.2,5,2.4,5h37"/>
    <rect class="st10" x="525.8" y="174" width="249.9" height="82.5" rx="17.3" ry="17.3" transform="translate(1301.6 430.5) rotate(-180)"/>
    <g>
      <path class="st5" d="M583.9,201.7c0,3.9-2.1,6.3-4,7.4,4,1.2,7,3.8,7,9.1s-5.2,10.6-12.2,10.6h-16.1v-37h13.6c7.4,0,11.6,3.8,11.6,9.9ZM564.9,197.6v9.8h6.9c3.6,0,5.7-2,5.7-4.9s-2.1-4.9-6.1-4.9h-6.6ZM564.9,212.6v10.5h9.1c4,0,6.6-1.8,6.6-5.2s-2.4-5.2-7-5.2h-8.7Z"/>
      <path class="st5" d="M609.8,206.4l.3-3h5.4v25.4h-5.4l-.3-3c-1.4,1.9-4,3.5-7.8,3.5-6.9,0-11.6-5.6-11.6-13.2s4.7-13.2,11.6-13.2,6.4,1.6,7.8,3.5ZM596.6,216.2c0,4.8,2.8,7.9,6.7,7.9s4.8-1.6,6.2-3.8v-8.2c-1.4-2.2-3.2-3.8-6.2-3.8s-6.7,3.1-6.7,7.9Z"/>
      <path class="st5" d="M645.8,214v14.8h-6.1v-14.5c0-3.4-2-5.7-5.1-5.7s-4.5,1.7-5.7,3.6v16.6h-6v-25.4h5.4l.3,2.9c1.4-1.8,4-3.4,7.7-3.4,6.2,0,9.6,4.4,9.6,11Z"/>
      <path class="st5" d="M669.6,206.4l.3-3h5.4v25.4h-5.4l-.3-3c-1.4,1.9-4,3.5-7.8,3.5-6.9,0-11.6-5.6-11.6-13.2s4.7-13.2,11.6-13.2,6.4,1.6,7.8,3.5ZM656.4,216.2c0,4.8,2.8,7.9,6.7,7.9s4.8-1.6,6.2-3.8v-8.2c-1.4-2.2-3.2-3.8-6.2-3.8s-6.7,3.1-6.7,7.9Z"/>
      <path class="st5" d="M705.7,214v14.8h-6.1v-14.5c0-3.4-2-5.7-5.1-5.7s-4.5,1.7-5.7,3.6v16.6h-6v-25.4h5.4l.3,2.9c1.4-1.8,4-3.4,7.7-3.4,6.2,0,9.6,4.4,9.6,11Z"/>
      <path class="st5" d="M729.5,206.4l.3-3h5.4v25.4h-5.4l-.3-3c-1.4,1.9-4,3.5-7.8,3.5-6.9,0-11.6-5.6-11.6-13.2s4.7-13.2,11.6-13.2,6.4,1.6,7.8,3.5ZM716.2,216.2c0,4.8,2.8,7.9,6.7,7.9s4.8-1.6,6.2-3.8v-8.2c-1.4-2.2-3.2-3.8-6.2-3.8s-6.7,3.1-6.7,7.9Z"/>
    </g>
    <path class="st10" d="M773.4,235.7l13,15.8c1.7,2,.2,5-2.4,5h-37"/>
    <g>
      <path class="st6" d="M474.5,406.4c-1-.8-.6-2.5-1.8-3.1v-9.4c1.7-3.2,2.7-6.6,5-9.5,6-7.4,13.5-9.7,22.5-6.6,2.4,2.6,1.1,5.6.8,8.3-1,8.7-4,16.4-12.9,20-4.3,1.7-9,2.6-13.5.3Z"/>
      <path class="st9" d="M474.5,406.4c3.7.3,7.4.7,11.1-.3,5.8-1.6,9.8-5.2,12.1-10.8,2.3-5.6,3.4-11.5,2.5-17.6,7.1,2.5,13.2,6.9,19.7,10.6,14.4,8.2,29.1,15.7,45.7,18.3,12.8,2,25.5,2.4,38.4,1.1,22.6-2.2,43.9-8.7,64.3-18.6,16.4-7.9,31.5-17.7,45-30,4.4-4,8.5-8.2,12.3-12.8.8-.8,1.7-.8,2.6-.3,1.2,1.6.7,3.4.7,5.2-2,13.6-6.8,26.3-13.4,38.4-6.9,12.5-15,24.2-24.3,35.1-20.6,24.2-44.4,44.7-71.4,61.4-15.7,9.7-32.2,17.8-50.1,22.8-7.4,2.1-15,3.2-22.7,3.7-2.7.2-5.3.9-8,.4-10.3-4.7-20.1-10.4-29.7-16.5-4-2.5-6.6-6.3-7.7-11,.9-.7,1.8-.4,2.7-.1,9.3,2.5,15.5-3.2,18.3-10,2.1-5.2,3.4-10.5,1.4-16.1-.1-.4-.1-.8,0-1.2,1.4-.6,2.8,1.2,4.2,0,2.1-.6,3.8.6,5.7,1,12.9,2.8,25.9,3,39.1,1.5,30.4-3.4,58-14.4,83.4-31.2,24.2-16,44.2-36.2,59.2-61.2,3.6-6,6.7-12.2,9.4-18.1-4.9,6.3-10.5,12.8-16.3,19-16.5,17.8-34.8,33.4-55.7,45.9-25.7,15.3-53.2,24.9-82.9,28.4-9.3,1.1-18.6,1.9-28,1.7-11.9-.2-23.9-.8-35.6-3.8-10-8.6-19.1-18.2-27.6-28.3-1.7-2-3.8-3.9-4.3-6.7Z"/>
      <path class="st8" d="M778.8,341.6c1.5,6.5,3,12.9,4.5,19.4,3.4,15.1,5.3,30.4,5.7,45.9.6,21.2-1.9,41.8-9,61.8-6.1,17.3-15.2,32.9-27.7,46.5-21.6,23.6-48.8,37.6-79.4,45.4-14.3,3.7-28.9,5.5-43.6,6.4-20.5,1.3-40.9-.2-61.1-3.4-6.1-1-10.8-4.7-13.4-10.5.5-.6,1.2-.8,1.9-.9,4.4-.5,8.7-1.8,12.9-3.2,10.8.7,21.6,1.7,32.4,1.4,28.1-.9,55.5-5.2,81.4-16.5,31.7-13.9,56.4-35.4,71.8-66.7,7.8-15.7,12.1-32.5,14.2-49.9,1.3-10.9,1.4-21.8,1-32.7-.5-12.8-2.5-25.4-5.1-38-.3-1.4-1.2-2.4-1.5-3.7.1-.2.2-.4.4-.5,4.9-.8,9.8-2,14.8-.8Z"/>
      <path class="st8" d="M538.9,513.1c2.1-1,4.5-1,6.6-1.1,14.7-.7,28.6-4.4,42-10.1,21.5-9,40.9-21.4,59.2-35.7,12.5-9.7,24.1-20.4,34.8-31.9,15.1-16.1,28.2-33.7,37.6-53.8,4.1-8.8,7.2-17.8,8.4-27.5,0-.4.4-.7.6-1.1,1.4,1.7.6,3.8.9,5.7-2.3,25.6-10.1,49.4-22.4,71.9-10.3,18.9-23.4,35.7-39.2,50.2-23.6,21.6-50.6,36.7-82.7,41.7-1.8.3-2.5.9-2.6,2.7,0,1,.6,2.9-1.7,2.6-.1-.2-.2-.4-.3-.6-.6-1.3.4-3.5-.7-4-1.2-.6-3,0-4.5.1-2.8.2-5.5.8-8.2,1.5-1.1.3-2.2.9-3.3,0-5.9-2.5-11.8-4.9-17.7-7.4-2.3-1-4.5-2.1-6.7-3.2Z"/>
      <path class="st8" d="M506.4,441.4c2.9-1.4,5.6.4,8.3.9,5,.9,10,1.5,15.1,1.6,5.8.1,11.6.9,17.4.7,27.4-1.1,54-6,79.4-16.9,16.3-7,31.4-16,45.7-26.4,13.2-9.7,25.1-21.1,36.3-33.1,6-6.4,11.5-13.3,17.5-19.8-1.5,5.6-4.3,10.6-7.1,15.7-5.3,9.7-11.5,18.8-18.5,27.2-6.8,8.1-14.4,15.5-22.3,22.6-10.2,9.2-21.4,17-33.3,23.8-9.4,5.4-19.1,10-29.2,13.8-12.5,4.8-25.5,8.1-38.7,9.8-9.3,1.2-18.7,2.1-28.2,1-7-.8-14-1.5-20.6-3.9-7.8-4.9-15-10.7-21.8-16.9Z"/>
      <path class="st6" d="M728.1,346.3c-.8,0-1.7,0-2.5.1-.8,0-1.7,0-2.5,0-7.7.3-12.2-4.6-11.1-12.3,1.4-9.9,2.9-19.9,4.4-29.8,1.1-7.4,6-11,13.4-9.9,9.7,1.4,19.5,2.6,29.3,4,.4,0,.8.3,1.1.5,1,1.4,2.6,2.3,3.6,3.8,1.8,2.9,2.9,6,2.4,9.5-.9,5.9-1.9,11.7-2.5,17.6-.7,7.7-4.3,12.9-11.9,14.9-3.2,1.3-6.6.6-9.9,1-4,.5-8,1.1-12.1.9-.5,0-1.1-.2-1.6-.3Z"/>
      <path class="st1" d="M751.9,343.9c1.8-1.3,4.2-1.5,6-3.1,4.2-3.4,4.3-8.3,5.1-12.9.9-5,1.1-10.1,2.1-15,1-5.5-1.2-9.4-5-12.9-.4-.4-1.7-.8,0-1.1,8,1.1,16,2,24,3.4,5.8,1,9.2,6.5,8.3,13-.8,5.7-1.6,11.5-2.5,17.2-.8,5.1-4.6,8.2-11.1,9.2-3.8.4-7.7.7-11.5,1.1-1.2.1-2.5-.3-3.5.6-1.5,1.4-3.4.8-5.2,1-1.2,0-2.4,0-3.6.3-1.1.1-2.1.3-3-.6Z"/>
      <path class="st6" d="M563.4,523.8c4.9-1.6,9.9-2.5,15.1-2.6,2,0,2.5.5,2.3,2.3-.1,1.1,0,2.3,0,3.4.7.7.8,1.7.6,2.6-.8,6.9-2.8,13.3-8.2,18.2-1.1,1-2.2,1.9-3.8,1.8-4.6,2.5-9.7,3.3-14.9,3.6-5.7-9.8-1.9-25.3,8.7-29.3Z"/>
      <path class="st6" d="M523.9,458.3c3.3,5.1,1.6,10.4.2,15.5-1,3.6-3,6.8-5.8,9.4-5,4.6-10.8,4.6-16.8,2.5-2.7-8.5.8-19.2,7.9-24.4,4.4-3.2,9.4-3.4,14.5-3Z"/>
      <path class="st2" d="M728.1,346.3c.2-.1.4-.3.7-.4,1.8,3.8,1,7.6.5,11.5,0,.5-.5.9-1.1.8,0-2.1,0-4.2,0-6.2,0-1.9,0-3.8,0-5.7Z"/>
      <path class="st9" d="M728.2,358.3c1.4-4.1.2-8.2.6-12.3,7.7-.7,15.4-1.4,23.1-2.1,1,0,2.1,0,3.1,0,1-.5,2.2.2,3.1-.5,1.8,0,3.7,0,5.5,0,1.2,0,1.7.4,2,1.8,2.3,11.4,4,22.8,5.1,34.3.7,7.9.6,15.8.4,23.7-.5,19-4.1,37.4-11.1,55.1-7.8,19.7-19.7,36.4-35.3,50.6-8.3,7.5-17.5,13.9-27.4,19.3-13.9,7.5-28.5,13.1-43.8,16.8-9.1,2.2-18.4,3.8-27.8,4.8-11.8,1.2-23.6,2.2-35.4,1.7-7-.3-14,0-20.9-1.7,8.4-5.2,10.8-13.5,11.3-22.6.1-.2.3-.3.4-.5.7-1.8-1-4.3,1-5.4,1.5-.8,3.6-.6,5.5-.9,10.5-1.6,20.5-5,30.3-9,14-5.8,26.8-13.7,38.6-23.1,10.1-8.1,19.4-17.2,27.7-27.2,6.3-7.7,12.1-15.8,17.4-24.2,10.6-17.1,18-35.5,22.7-55,1.9-7.6,3-15.4,3.8-23.2Z"/>
      <path class="st4" d="M758.2,343.3c-.9.9-2.1.5-3.1.5.9-.9,2.1-.4,3.1-.5Z"/>
      <path class="st6" d="M654.6,530.8c-2.6-.4-4.5-1.3-5.1-3.7-.6-2.9.9-4.8,3.5-5.8,7.6-2.9,15.1-5.9,22.2-9.8,11.4-6.1,22-13.5,30.8-22.9,13.5-14.4,22.7-31.4,28.3-50.2,1.2-4.1,2.3-8.2,3.5-12.2.9-2.9,3.4-4.6,5.8-4,2.7.6,4.3,3.3,3.6,6.3-5.6,22.7-14.5,44-29.9,61.9-10,11.7-21.9,21.1-35.4,28.5-8.1,4.5-16.6,8-25.3,11.3-.8.3-1.6.5-2.2.6Z"/>
    </g>
    <g>
      <path class="st13" d="M272.4,303.7c6.7-1.5,12.5-5.1,18.5-8.2,6.3-3.3,12.8-6.2,19.9-7.5.9-.2,1.7-.1,2.6-.2,1.2.5,1.6,1.6,2.1,2.6,5.1,10.6,8.4,21.7,9.7,33.4,2.4,22.5-1.1,43.9-11.8,64.1-4.4,8.3-9.8,15.8-16.2,22.8-11,12.1-24.1,21.1-39.2,27.3-11.3,4.7-23.1,7.2-35.4,7.9-14.6.9-28.6-1.3-42.3-6.1-6.1-2.1-12.3-4.5-17.6-8.4-6.2-9.4-10.4-19.7-13.5-30.4-4.2-14.7-5.6-29.6-4.4-44.9,1.1-13.5,3.4-26.6,9.5-38.9,8-16.2,20.7-26.1,38.6-29.2,3.2-.6,6.5-.8,9.7-.8,1.8-1.1,3.8-.7,5.6-.5,6.9.6,13.4,2.5,19.7,5.5,5.2,2.5,10.3,5.3,15.5,7.8,2.7,1.5,5.6,2.5,8.5,3.3.7.2,1.3.4,2,.5,5.4,1,10.8,1,16.2-.1.8-.2,1.6-.3,2.3,0Z"/>
      <path class="st7" d="M162.7,431.3c1.6-.1,2.6,1.1,3.8,1.7,11.9,6,24.3,10.2,37.6,11.5,4.6.5,9.3,1.2,13.9,1,18.8-.8,36.6-5.2,53-14.7,8.3-4.8,15.9-10.5,22.6-17.2,15-15.2,24.9-33.3,29.3-54.3,2.4-11.2,2.7-22.5,1.6-33.8-1.2-13.3-5-25.8-11.1-37.7,24.2-3.1,48,7,58.8,35.3,6.3,16.5,8.4,33.8,7,51.2-3.3,42.4-24.1,75.3-57,101.2-3.7,2.9-7.7,5.2-12,7.2-10.8,5.1-21.4,4.5-31.7-1.2-11.1-6.1-21.8-6.1-32.9,0-12.8,7-25.4,5.9-37.5-1.8-19.3-12.2-33.9-28.8-45.4-48.3Z"/>
      <path class="st12" d="M253.5,304.2c-.6,0-1.2,0-1.6-.5-1.1-19-8.8-35.2-21.2-49.4-2.7-3.1-5.7-6-8.8-8.7-.8-.7-1.6-1.4-2.5-1.9-2.2-1.3-4-1-5.4.7-1.3,1.7-1,3.6.9,5.4.4.4.8.7,1.2,1,14.1,12.3,23.7,27.2,27.3,45.7.3,1.3.8,2.7,0,4.1-3.7-1.3-7-3.4-10.4-5.2-9.5-5.1-19.5-8.6-30.4-8.3-7.2-9.6-9-20.7-8.3-32.3.6-9.9,2.9-19.5,6.3-28.8.4-1.2.9-2.1,2.5-2,13.3.8,26.2,3.5,38.1,9.8,15.1,8,22.1,20.8,22.5,37.6,0,.7,0,1.4,0,2.1.8,1.2,0,2.2-.4,3.2-3.9,7.8-6.4,16.1-8.2,24.5-.2,1.1.2,2.6-1.6,3Z"/>
      <path class="st0" d="M253.5,304.2c1-4,2-8.1,3.1-12.1,1.5-5.7,3.7-11.1,6.3-16.4.4-.7.5-1.5.8-2.2,3.6-5.7,7.1-11.4,11.5-16.4,6.4-7.2,13.7-13.2,22.1-17.9,5.1-2.9,10.5-1.7,13.1,2.8,2.7,4.6,1.2,9.8-4,12.8-13,7.5-22.7,18.1-28.8,31.8-2.4,5.5-4.5,11.1-5.2,17.1-6.3,1.9-12.6,2.2-18.9.5Z"/>
      <path class="st3" d="M243.4,300.6c-1.3-8.5-3.7-16.6-7.7-24.2-5.2-10-12.2-18.4-20.9-25.6-2.6-2.1-3.2-4.5-1.7-6.6,1.9-2.5,4.2-2.9,7.1-.7,8.1,6.1,14.5,13.8,19.9,22.3,6.2,9.8,10.5,20.5,11.9,32.1.2,2,1.1,3.9-.1,5.8-3-.6-5.8-1.6-8.5-3.1Z"/>
    </g>
  </g>
</svg>