<?xml version="1.0" encoding="UTF-8"?>
<svg id="_图层_1" data-name="图层 1" xmlns="http://www.w3.org/2000/svg" xmlns:xlink="http://www.w3.org/1999/xlink" viewBox="0 0 950 750">
  <defs>
    <style>
      .cls-1, .cls-2 {
        fill: none;
      }

      .cls-3 {
        fill: #1a81c5;
      }

      .cls-4 {
        fill: #adec00;
      }

      .cls-5 {
        fill: #f8cfcf;
      }

      .cls-6 {
        fill: #363c3c;
      }

      .cls-7 {
        fill: #713934;
      }

      .cls-8 {
        fill: #c7cecf;
      }

      .cls-9 {
        fill: #fff;
      }

      .cls-10 {
        fill: #165272;
      }

      .cls-11 {
        fill: #f9d5cc;
      }

      .cls-2 {
        stroke: #bb8dff;
        stroke-linecap: round;
        stroke-miterlimit: 10;
        stroke-width: 20px;
      }

      .cls-12 {
        fill: #a9afb0;
      }

      .cls-13 {
        fill: #f2bebd;
      }

      .cls-14 {
        fill: #f4b6b6;
      }

      .cls-15 {
        fill: #e37f6a;
      }

      .cls-16 {
        clip-path: url(#clippath);
      }
    </style>
    <clipPath id="clippath">
      <rect class="cls-1" x="193.99" y="187.97" width="562.03" height="562.03"/>
    </clipPath>
  </defs>
  <rect class="cls-4" width="950" height="750"/>
  <g class="cls-16">
    <g>
      <rect class="cls-9" x="383.14" y="737" width="66.81" height="487.53"/>
      <path class="cls-6" d="M363.72,1169.68h91.59c3.23,0,5.85-2.62,5.85-5.85v-496.03s-103.29,0-103.29,0v496.03c0,3.23,2.62,5.85,5.85,5.85Z"/>
      <g>
        <circle class="cls-8" cx="372.83" cy="626.94" r="50.94"/>
        <circle class="cls-8" cx="340.55" cy="688.47" r="50.94"/>
        <circle class="cls-8" cx="319.75" cy="750" r="50.94"/>
      </g>
      <g>
        <circle class="cls-8" cx="566.21" cy="626.94" r="50.94"/>
        <circle class="cls-8" cx="598.48" cy="688.47" r="50.94"/>
        <circle class="cls-8" cx="619.28" cy="750" r="50.94"/>
      </g>
      <rect class="cls-9" x="482.92" y="737" width="66.81" height="487.53" transform="translate(1032.64 1961.53) rotate(-180)"/>
      <path class="cls-6" d="M569.15,1169.68h-91.59c-3.23,0-5.85-2.62-5.85-5.85v-496.03h103.29v496.03c0,3.23-2.62,5.85-5.85,5.85Z"/>
      <path class="cls-12" d="M437.43,562.77h68.56c53.62,0,97.16,43.54,97.16,97.16v137.53c0,8.79-7.14,15.93-15.93,15.93h-231.01c-8.79,0-15.93-7.14-15.93-15.93v-137.53c0-53.62,43.54-97.16,97.16-97.16Z"/>
      <rect class="cls-3" x="356.59" y="542.62" width="225.36" height="75.1" rx="34.66" ry="34.66"/>
      <path class="cls-10" d="M414.61,571.52c0,19.07,25.15,34.54,56.18,34.54s56.18-15.46,56.18-34.54c0-5.45-2.11-10.58-5.76-15.16h-100.84c-3.65,4.58-5.76,9.71-5.76,15.16Z"/>
      <path class="cls-14" d="M431.41,533.41h76.96v33.55c0,19.6-15.92,35.52-35.52,35.52h-5.92c-19.6,0-35.52-15.92-35.52-35.52v-33.55h0Z"/>
      <g>
        <circle class="cls-5" cx="325.33" cy="439.93" r="43.87"/>
        <circle class="cls-5" cx="613.22" cy="439.93" r="43.87"/>
        <circle class="cls-13" cx="325.33" cy="439.93" r="25.55"/>
        <circle class="cls-13" cx="613.22" cy="439.93" r="25.55"/>
        <circle class="cls-11" cx="468.24" cy="412.89" r="151.45"/>
        <g>
          <circle class="cls-6" cx="441.04" cy="425.53" r="13.11"/>
          <circle class="cls-6" cx="491.61" cy="425.53" r="13.11"/>
          <path class="cls-6" d="M467.24,460.78c-5.75,0-11.15-3.29-13.79-8.43-.72-1.38-.17-3.09,1.22-3.8,1.39-.71,3.09-.17,3.8,1.22,1.68,3.26,5.12,5.36,8.77,5.36h.09c3.66-.04,6.98-2.09,8.66-5.36.71-1.4,2.42-1.94,3.8-1.22,1.39.71,1.94,2.41,1.22,3.8-2.64,5.13-7.86,8.37-13.63,8.43h-.14Z"/>
        </g>
        <path class="cls-7" d="M618.83,396.78c-8.04-76.07-72.39-135.34-150.58-135.34s-142.51,59.24-150.58,135.28l.03.02c12.61,3.97,57.52,16.42,108.7-3.99,49.15-19.6,73.03-57.12,79.87-68.84,4.07,9.45,22.57,49.47,66.68,66.07,18.1,6.81,34.58,7.45,45.88,6.79Z"/>
        <rect class="cls-15" x="508.37" y="439.93" width="47.85" height="22.27" rx="8.45" ry="8.45"/>
        <rect class="cls-15" x="380.08" y="439.93" width="47.85" height="22.27" rx="8.45" ry="8.45"/>
      </g>
      <path class="cls-9" d="M524.05,695.52c-.48,0-.97-.12-1.41-.38-34.28-19.82-24.47-83.28-24.03-85.97.24-1.54,1.73-2.61,3.23-2.33,1.54.25,2.59,1.69,2.34,3.23-.1.62-9.63,62.3,21.29,80.19,1.35.78,1.81,2.51,1.03,3.85-.52.9-1.47,1.41-2.44,1.41Z"/>
      <path class="cls-9" d="M431.41,695.52c-.97,0-1.92-.51-2.44-1.41-.78-1.35-.32-3.08,1.03-3.85,30.92-17.88,21.38-79.56,21.29-80.19-.25-1.54.79-2.98,2.34-3.23,1.49-.29,2.99.79,3.23,2.33.44,2.69,10.25,66.15-24.03,85.97-.44.26-.93.38-1.41.38Z"/>
    </g>
  </g>
  <g>
    <path class="cls-2" d="M299.71,198.53h-11.59c-4.03,0-7.3,3.27-7.3,7.3v11.59"/>
    <path class="cls-2" d="M650.29,586.88h11.59c4.03,0,7.3-3.27,7.3-7.3v-11.59"/>
    <path class="cls-2" d="M669.18,217.42v-11.59c0-4.03-3.27-7.3-7.3-7.3h-11.59"/>
    <path class="cls-2" d="M280.82,568v11.59c0,4.03,3.27,7.3,7.3,7.3h11.59"/>
  </g>
</svg>