<?xml version="1.0" encoding="UTF-8"?>
<svg id="_图层_1" data-name="图层 1" xmlns="http://www.w3.org/2000/svg" xmlns:xlink="http://www.w3.org/1999/xlink" viewBox="0 0 950 750">
  <defs>
    <style>
      .cls-1, .cls-2 {
        fill: none;
      }

      .cls-3 {
        fill: #ff5700;
      }

      .cls-4 {
        fill: #330;
      }

      .cls-5 {
        fill: #fff;
      }

      .cls-6 {
        fill: #5cc8ff;
      }

      .cls-7 {
        fill: #e1edff;
      }

      .cls-8 {
        fill: #989898;
      }

      .cls-9 {
        fill: #ff884d;
      }

      .cls-10 {
        fill: #333;
      }

      .cls-11 {
        clip-path: url(#clippath);
      }

      .cls-2 {
        stroke: #e1edff;
        stroke-miterlimit: 10;
        stroke-width: 4px;
      }
    </style>
    <clipPath id="clippath">
      <rect class="cls-1" x="169.46" y="400" width="570.03" height="350"/>
    </clipPath>
  </defs>
  <rect class="cls-6" width="950" height="750"/>
  <rect class="cls-5" x="196.87" y="105.94" width="500" height="220" rx="110" ry="110"/>
  <g>
    <path class="cls-9" d="M522.55,198.76c-.76-.77-3.65-.74-8.63-.17-7.98.63-21.03,4.44-28.39,5.6-5.39.8-7.95-1.26-7.97-6.95-.12-4.3.46-9.95.63-14.61.31-8.56-.22-27.33-3.08-29.79-.36-.14-.76,0-1.24.44-.54.49-1.17,1.35-1.91,2.54-1.06,1.69-2.34,4.06-3.83,6.88-4.54,8.37-9.9,19.86-14.26,27.95-5.81,10.58-8.06,1.98-12.33-6.42-5.28-11.79-13.18-24.18-20.94-34.32-2.37-3.1-4.39-5.79-6.82-8.43-2.79-2.96-3.62-2.13-4.15,2.6-.92,9.49-.55,19.34.54,29.06.5,4.41,1.2,8.78,2,12.77.73,3.73,1.46,7,1.71,9.46.47,4.03-.57,5.8-4.02,5.82-8.18-.49-15.44-3.71-24.47-5.84-3.54-.93-7.29-1.88-10.74-2.72-2.23-.35-11.79-3.43-10.87-.56,6.65,9.63,20.09,22.78,37.14,32.87,4.36,2.65,10.36,5.38,13.2,9.19,4.29,6.29-6.7,12.71-11.66,16.91-5.44,4.14-10.58,8.37-14.64,12.47-3.28,3.32-2.54,4.22,1.75,3.7,8.85-1.08,23.68-4.15,37.41-9.89,9.24-3.38,21.75-11.51,29.2-1.98,4.22,5.25,11.9,20.97,15.99,27.7,2.38,3.83,4.63,3.08,4.63,3.08,1.51.3,2.01-.55,1.17-2.26-2.28-4.51-9.12-15.82-11.24-20.07-1.66-3.17-4.74-9.39-3.05-11.28,2.22-2.54,6.36-1.92,12.12-1.64,11.01,1.1,23.6,2.28,34.64.83,9.55-.93,4.35-4.1.32-6.75-8.2-5.17-19.22-9-28.54-11.07-1.7-.56-8.16-1.48-7.26-2.86.36-.47,1.59-1.03,3.48-1.83,2.87-1.21,7.46-3,12.09-5.29,8.81-4.23,19.66-11.59,25.59-17,1.59-1.6,7.64-6.36,6.48-8.16l-.02-.02Z"/>
    <path class="cls-9" d="M374.67,233.27c-2.69-3.16-7.12-3.74-11.51-5.26-2.82-.91-5.5-2.16-8.05-3.94-2.25-1.16-10.39-9.49-11.55-4.85-.18,9.63,12.65,20.15,22.26,20.98,4.05.78,12.03-1.72,8.92-6.83l-.08-.1Z"/>
    <path class="cls-9" d="M502.73,154.93c-3.37.06.69,10.06.42,12.47.27,2.74,0,5.79,1.17,8.18,1.51,3.08,4.77,1.95,5.65-.97,1.83-4.56-1.49-17.95-7.17-19.68h-.07Z"/>
  </g>
  <g class="cls-11">
    <g>
      <path class="cls-5" d="M470.1,642.94c.73,12.53-8.83,23.28-21.36,24.01l-103.24,6.05-2.66-45.37,103.24-6.05c12.53-.73,23.28,8.83,24.01,21.36Z"/>
      <path class="cls-5" d="M266.53,534.43c10.19-7.07,14.99-22.62,22.32-12.61l79.13,109.72s0,.04,0,.06l-36.61,26.79s-.04,0-.06,0l-79.44-110.13c-7.53-10.29,4.11-6.51,14.66-13.82Z"/>
      <circle class="cls-10" cx="348.36" cy="649.7" r="32.97" transform="translate(-202.82 160.15) rotate(-20.19)"/>
      <path class="cls-10" d="M246.1,548.06c10.26.08,32.74-12.54,40.94-20.01,3.78-3.54,6.53-7.72,6.84-12.81.39-10.04-7.02-20.2-16.66-24.49-14.81-6.75-32.03,1.06-40.31,14.29-5.76,8.6-8.33,20.48-5.49,30.17,1.91,7.33,7.17,13.18,14.53,12.86h.14Z"/>
      <path class="cls-7" d="M416.25,668.86l32.5-1.9c12.53-.73,22.09-11.49,21.36-24.01-.55-9.4-6.74-17.13-15.09-20.09-20.45,7.81-32.09,25.62-38.76,46.01Z"/>
      <path class="cls-5" d="M633.37,790.32c9.6-44.15,22.21-107.87-2.94-144.44-17.57-24.31-51.45-28.66-79.61-32.07-24.88-2.42-53.26-4.73-76.17,1.51-37.24,9.4-48.9,48.75-52.69,83.72-2.7,29.3-3.04,61.27.1,91.27h211.31Z"/>
      <path class="cls-7" d="M474.65,615.32c-6.19,1.56-11.67,3.97-16.53,7.03,23.84,5.55,49.26,7.85,72.61,9.56,25.32,1.09,53.39,1.91,78.47-3.89-17.5-9.14-39.26-11.9-58.39-14.21-24.88-2.42-53.26-4.73-76.17,1.51Z"/>
      <path class="cls-7" d="M641.57,671.74c-1.29-.17-2.61-.23-3.95-.16-12.81.63-22.51,11.69-21.55,24.41,0,0,4.29,56.81,7.59,94.33h9.71c7.61-34.99,17.1-82.26,8.2-118.57Z"/>
      <path class="cls-5" d="M638.88,790.32h46.77c-7.97-31.42-26.05-110.45-26.05-110.45-2.77-12.09-14.59-20.16-26.75-17.7-12.57,2.54-20.51,14.92-17.67,27.35,0,0,14.92,65.11,23.7,100.8Z"/>
      <path class="cls-5" d="M515.06,450.62c56.57-6.53,126.08,10.16,162.51,51.85,27.5,31.19,23.43,69.22-9.4,93.64-52.68,38.71-137.43,38.14-196.38,15.91-21.23-8.07-42.28-19.98-56.88-36.65-29.76-33.34-16.85-73.35,19.91-97.4,20.23-14.04,51.16-24.38,80.01-27.33l.23-.03Z"/>
      <path class="cls-10" d="M447.86,577.15c16.52,8.75,34.09,9.34,56.2,11.7,7.07.64,14.16,1.26,21.23,1.87,26.85,1.51,56.7,7.09,74.4-12.84,11.05-12.87,12.96-33.72,3.94-48.27-5.67-9.47-15.77-15.01-26.3-17.69-16.94-4.62-42.58-5.23-63.13-6.51-21.32-.89-38.62-2.72-56.61,2-13.08,3.5-23.47,13.77-26.46,27.04-4.12,16.17,1.23,34.24,16.6,42.62l.12.07Z"/>
      <path class="cls-5" d="M524.85,545.71c-.9,10.25,5.54,19.08,14.45,19.72,8.99.65,17.07-7.27,17.99-17.69s-5.71-19.26-14.71-19.74c-8.92-.47-16.83,7.46-17.72,17.71Z"/>
      <path class="cls-5" d="M458.34,541.55c-.87,9.91,5.12,18.42,13.44,19.02,8.39.6,15.96-7.06,16.84-17.13.88-10.07-5.27-18.59-13.67-19.04-8.33-.44-15.73,7.23-16.6,17.14Z"/>
      <ellipse class="cls-2" cx="672.14" cy="555.44" rx="20.66" ry="12.4" transform="translate(60.23 1176.61) rotate(-85)"/>
      <g>
        <path class="cls-3" d="M283.41,465.28c8.76-3.75,17.59-12.84,23.73-24.39,2.57-4.85,4.79-11.03,3.61-15.24-1.05-3.75-24.84-15.23-26-10.8-1.86,7.13.6,7.87-.65,14.99-.75,4.28-2.87,8.4-5.01,12.21s-4.41,7.68-5.63,11.95c-1.22,4.27-1.06,9.11,1.23,10.56"/>
        <path class="cls-8" d="M220.13,622.29h0c-3.01-1.11-4.58-4.43-3.53-7.46l31.81-91.9,14.83,5.48-35.58,90.51c-1.17,2.99-4.52,4.49-7.53,3.37Z"/>
        <rect class="cls-8" x="262.01" y="477.1" width="17.16" height="17.16" rx="2.42" ry="2.42" transform="translate(185.08 -63.68) rotate(20.28)"/>
        <rect class="cls-4" x="267.12" y="460.57" width="18.62" height="18.62" rx="2.42" ry="2.42" transform="translate(179.97 -66.68) rotate(20.28)"/>
      </g>
    </g>
  </g>
</svg>