<?xml version="1.0" encoding="UTF-8"?>
<svg id="_图层_1" data-name="图层 1" xmlns="http://www.w3.org/2000/svg" xmlns:xlink="http://www.w3.org/1999/xlink" viewBox="0 0 950 750">
  <defs>
    <style>
      .cls-1, .cls-2 {
        fill: none;
      }

      .cls-3 {
        fill: #e6e6e6;
      }

      .cls-4 {
        fill: #00d6a3;
      }

      .cls-5 {
        fill: #0071bc;
      }

      .cls-6 {
        fill: #fff;
      }

      .cls-7 {
        fill: #f2f2f2;
      }

      .cls-8 {
        fill: #e1edff;
      }

      .cls-9 {
        fill: #333;
      }

      .cls-10 {
        clip-path: url(#clippath);
      }

      .cls-2 {
        stroke: #e1edff;
        stroke-miterlimit: 10;
        stroke-width: 4px;
      }
    </style>
    <clipPath id="clippath">
      <rect class="cls-1" x="290.16" y="360" width="482.09" height="390"/>
    </clipPath>
  </defs>
  <rect class="cls-4" width="950" height="750"/>
  <rect class="cls-6" x="163.27" y="105.94" width="500" height="220" rx="110" ry="110"/>
  <g>
    <circle class="cls-7" cx="436.51" cy="263.64" r="2.04"/>
    <path class="cls-3" d="M367.62,180.54l.33-10.09c-2.04,1.41-3.88,3.07-5.48,4.96l4.2,5.44c.31.4.94.19.95-.31Z"/>
    <path class="cls-3" d="M393.8,164.13l2.95,9.74c.14.45.74.52.97.11l3.65-6.37c-2.31-1.52-4.86-2.7-7.58-3.48Z"/>
    <path class="cls-3" d="M399.23,185.43c-.56-.75-1.75-.42-1.84.52l-1.9,20.15c4.68-2.11,8.79-5.49,11.76-9.93l-8.02-10.74Z"/>
    <path class="cls-3" d="M379.74,210.14l-10.43-21.23c-.43-.87-1.71-.71-1.92.23l-3.59,16.5c4.64,3.01,10.17,4.65,15.94,4.5Z"/>
    <circle class="cls-5" cx="380.16" cy="161.86" r="1.49"/>
    <path class="cls-5" d="M461.26,152.55c-.44-.55-3.93.36-3.93.36-.22-.93-.54-1.81-.97-2.63,0,0,2.53-3.08,1.95-3.77-.58-.69-3.86,1.11-3.86,1.11-.67-.7-1.43-1.31-2.26-1.82,0,0,1.25-3.02.27-3.58s-3.3,2.28-3.3,2.28c-.93-.25-1.89-.39-2.89-.39,0,0-1.41-2.85-2.04-2.65-.63.2-1.28,3.13-1.28,3.13-4.17,1.25-17.52,18.98-17.52,18.98-5.53-8-12-12.76-17.91-15.56.23-.77.52-1.51.89-2.2,1.34-2.51,6.01-8.13,5.78-8.8-.26-.74-.96-1.24-1.78-1.2-2.02.06-5.23.68-9.06,3.29-2.28,1.55-4.27,3.6-5.93,5.65-3.2-.58-5.68-.61-6.94-.51-7.71.6-14.11,3.2-19.33,7.28-2.6-1.68-6.32-3.62-10.31-4.17-4.17-.57-7.2.24-9.02,1.02-.76.33-1.25,1.13-1.16,1.89.07.64,5.83,3.34,7.73,4.86,2.04,1.63,3.31,4.59,3.89,6.21.01.04.04.07.06.11-1.98,3.16-3.61,6.66-4.92,10.43,0,0-8.82-12.39-12.27-13.43,0,0-.09-2.57-1.06-2.6-.98-.03-1.69,2.2-1.69,2.2-.83,0-1.63.12-2.4.33,0,0-2.43-2.09-3.08-1.61s.56,2.69.56,2.69c-.69.42-1.32.93-1.88,1.51,0,0-2.52-1.61-3.2-.92s1.62,3.13,1.62,3.13c-.35.68-.62,1.42-.8,2.18,0,0-3.32-.61-3.61.44s3.39,2.38,3.39,2.38c.3,4.23,20.58,24.32,20.58,24.32-.57,10.19.51,21.06,3.09,31.6,5.65,23.05,27.09,26.43,47.46,21.14,20.37-5.3,39.63-8.89,33.22-49.25-.72-4.55-1.66-8.7-2.76-12.49,0,0,22.66-22.08,23.02-27.18,0,0,4.86-2.27,3.66-3.77ZM373.58,158.1c1.59,0,2.99.83,3.79,2.08.4-2.07,2.23-3.64,4.42-3.64,2.49,0,4.51,2.02,4.51,4.51,0,2.49-2.02,4.51-4.51,4.51-1.59,0-2.99-.83-3.79-2.08-.4,2.07-2.23,3.64-4.42,3.64-2.49,0-4.51-2.02-4.51-4.51s2.02-4.51,4.51-4.51ZM388.55,203.2c-15.16,3-29.06-2.71-31.04-12.75s8.69-20.62,23.84-23.62c15.16-3,29.06,2.71,31.04,12.75,1.99,10.04-8.69,20.62-23.84,23.62Z"/>
    <circle class="cls-5" cx="375.44" cy="162.64" r="1.49"/>
    <ellipse class="cls-5" cx="425.64" cy="235.76" rx="13" ry="16.56"/>
    <ellipse class="cls-5" cx="376.81" cy="240.17" rx="11.61" ry="14.23"/>
    <rect class="cls-7" x="401.93" y="260.55" width="4.68" height="4.68" transform="translate(65.05 -79.85) rotate(12.26)"/>
    <rect class="cls-7" x="448.41" y="235.55" width="6.08" height="6.08" transform="translate(-37.14 386.95) rotate(-44.75)"/>
    <path class="cls-3" d="M444.79,278.99l31.65-33.42-6.74-2.33s-20.13,11.56-33.24,35.14c-27.23-11.03-51.49-10.87-51.49-10.87l-4.94,7.05,53.82,10.09,10.94-5.65Z"/>
    <polygon class="cls-5" points="392.29 286.29 438.23 293.03 447.18 288.54 471.52 264.43 479.38 244.96 477.8 244.15 444.79 278.99 433.85 284.64 378.01 274.17 376.82 275.96 392.29 286.29"/>
  </g>
  <g class="cls-10">
    <g>
      <path class="cls-6" d="M379.53,767.87l43.1,17.87c12.64-31.02,46.07-107.83,46.07-107.83,5.11-11.75.23-25.72-11.39-31.13-12.02-5.6-26.21-.17-31.46,11.91,0,0-31.73,74.11-46.32,109.18Z"/>
      <path class="cls-8" d="M468.7,677.91c5.11-11.75.23-25.72-11.39-31.13-12.02-5.6-26.21-.17-31.46,11.91,0,0-7.36,17.19-16.62,38.93-1.57,7.27-2.68,14.63-3.46,21.82-1.73,18.8-2.52,38.67-2.1,58.45l18.95,7.86c12.64-31.02,46.07-107.83,46.07-107.83Z"/>
      <path class="cls-6" d="M637.59,791.66c9.92-45.62,22.95-111.47-3.04-149.25-18.15-25.12-53.16-29.61-82.26-33.13-25.71-2.5-55.04-4.89-78.71,1.56-38.48,9.71-50.53,50.37-54.45,86.51-2.79,30.28-3.14,63.31.11,94.31h218.36Z"/>
      <path class="cls-8" d="M473.58,610.84c-6.4,1.62-12.05,4.1-17.08,7.27,24.63,5.73,50.9,8.11,75.03,9.88,26.17,1.12,55.17,1.97,81.08-4.02-18.08-9.45-40.57-12.29-60.33-14.69-25.71-2.5-55.04-4.89-78.71,1.56Z"/>
      <path class="cls-8" d="M654.07,676.63c-.87-1.02-1.84-1.98-2.92-2.86-10.26-8.39-25.36-6.63-33.43,3.78,0,0-36.07,46.52-59.54,77.57l7.45,6.73c30.07-21.55,70.1-51.21,88.44-85.21Z"/>
      <path class="cls-6" d="M569.84,765.66l35.85,32.4c15.66-29.61,56.56-102.72,56.56-102.72,6.26-11.19,2.78-25.57-8.24-32.11-11.4-6.77-26.06-2.77-32.49,8.73,0,0-33.68,60.25-51.68,93.69Z"/>
      <path class="cls-6" d="M515.33,440.64c58.46-6.75,130.28,10.5,167.93,53.58,28.42,32.23,24.21,71.53-9.71,96.76-54.44,40-142.02,39.41-202.93,16.44-21.94-8.34-43.69-20.64-58.77-37.87-30.75-34.45-17.41-75.8,20.57-100.65,20.9-14.51,52.87-25.2,82.67-28.24l.24-.03Z"/>
      <path class="cls-9" d="M445.89,571.39c17.07,9.04,35.23,9.65,58.08,12.09,7.3.66,14.63,1.3,21.94,1.93,27.75,1.56,58.59,7.33,76.88-13.27,11.41-13.3,13.4-34.84,4.07-49.88-5.86-9.79-16.29-15.51-27.18-18.28-17.51-4.77-44-5.4-65.23-6.72-22.03-.92-39.9-2.81-58.5,2.07-13.51,3.61-24.25,14.22-27.34,27.95-4.25,16.71,1.28,35.38,17.16,44.04l.12.07Z"/>
      <path class="cls-6" d="M556.76,520.04c1.78,10.66-4.33,20.3-13.57,21.51-9.15,1.2-17.93-6.33-19.68-16.82"/>
      <path class="cls-6" d="M460.75,514.6c-3.06,9.98,1.32,19.92,9.72,22.19,8.32,2.24,17.46-3.92,20.47-13.74"/>
      <path class="cls-6" d="M498.75,636.09c11.63-5.4,19.25-20.39,24.95-8.91l61.24,125.66s0,.05-.02.06l-42,20.83s-.05,0-.06-.02l-61.47-126.13c-5.85-11.8,5.33-5.9,17.36-11.49Z"/>
      <circle class="cls-9" cx="561.76" cy="767.87" r="34.07" transform="translate(-129.05 113.67) rotate(-10.37)"/>
      <path class="cls-9" d="M475.55,646.36c10.43,1.89,35.54-7,45.21-13.16,4.47-2.94,8-6.71,9.23-11.84,2.16-10.16-3.59-21.81-12.65-27.87-13.89-9.48-32.8-4.56-43.56,7.45-7.38,7.74-12.09,19.39-10.9,29.75.65,7.8,4.97,14.68,12.53,15.65l.15.02Z"/>
      <ellipse class="cls-2" cx="676.28" cy="548.96" rx="21.35" ry="12.82" transform="translate(70.47 1174.82) rotate(-85)"/>
    </g>
  </g>
  <circle class="cls-6" cx="465.58" cy="364.86" r="20.64"/>
  <circle class="cls-6" cx="503.68" cy="395.64" r="10.14"/>
</svg>