<?xml version="1.0" encoding="UTF-8"?>
<svg id="_图层_1" data-name="图层 1" xmlns="http://www.w3.org/2000/svg" viewBox="0 0 950 750">
  <defs>
    <style>
      .cls-1 {
        stroke: #00fd81;
      }

      .cls-1, .cls-2, .cls-3, .cls-4, .cls-5, .cls-6, .cls-7 {
        fill: none;
        stroke-miterlimit: 10;
      }

      .cls-2 {
        stroke: #ff5601;
      }

      .cls-8 {
        fill: #ffa9ab;
      }

      .cls-9 {
        fill: #00d6a3;
      }

      .cls-3 {
        stroke: #0bf;
      }

      .cls-10 {
        fill: #fff;
      }

      .cls-4 {
        stroke: #fbec00;
      }

      .cls-11 {
        fill: #ffc9ca;
      }

      .cls-12 {
        fill: #70818b;
      }

      .cls-13 {
        fill: #0bf;
      }

      .cls-5 {
        stroke: #ffa9ab;
        stroke-width: 2px;
      }

      .cls-6 {
        stroke: #ffc1c3;
      }

      .cls-14 {
        opacity: .15;
      }

      .cls-15 {
        fill: #00fd81;
      }

      .cls-16 {
        fill: #fbec00;
      }

      .cls-7 {
        stroke: #908aff;
      }

      .cls-17 {
        fill: #908aff;
      }

      .cls-18 {
        fill: #ff5601;
      }
    </style>
  </defs>
  <rect class="cls-9" width="950" height="750" transform="translate(950 750) rotate(180)"/>
  <g>
    <g id="_矩形_3207" data-name="矩形 3207">
      <g class="cls-14">
        <path class="cls-10" d="M378.92,181.17c-10.35-3.09-21.39-1.82-31.07,3.6-10.73,6-18.81,16.65-22.16,29.22l-.51,1.91-.12-5.34c-.59-25.42-19.87-46.41-42.99-46.78-10.72-.19-20.97,4.04-28.78,11.87-8.78,8.79-13.68,21.43-13.45,34.67l.99,56.64c-2.01-.49-4.07-.84-6.16-1.05-13.84-1.38-26.96,3.82-36,12.98-5.74-3.87-12.46-6.35-19.7-7.1-23.11-2.38-44.2,14.28-47.01,37.13l-11.76,95.47c-.74,6.04-.16,12.18,1.7,17.98-1.02,36.68,6.67,67.09,22.88,90.42,18.42,26.53,47.67,42.47,84.57,46.08,7.78.76,15.39,1.14,22.79,1.14,26.05,0,49.53-4.69,68.83-13.85,25.47-12.08,41.45-30.95,45-53.14,5.35-33.42,10.42-89.7,10.89-108.74.17-6.87-.63-13.48-2.38-19.71l33.15-127.17c6.36-24.39-6.52-49.62-28.7-56.25ZM377.01,229.43l-35.59,136.53,1.79,4.71c1.46,3.84,2.13,8.16,2.02,12.83-.44,17.78-5.43,72.83-10.5,104.53-4.87,30.43-55.84,43.9-102.3,39.35-37.23-3.65-80.84-24.62-78.94-103.29l1.85-3.51-2.97-6.94c-.74-1.74-1.01-3.56-.78-5.4l11.76-95.47c.73-5.88,6.29-10.14,12.37-9.52,4.3.44,7.89,3.18,9.36,7.15l.79,2.11,1.35,1.81c.36.48.65.95.89,1.39l23.39,44.3,6.73-53.07c.75-5.94,6.71-10.22,13.3-9.58,4.2.42,7.78,2.75,9.59,6.24,3.63,7,11.49,10.54,19.13,8.61,7.63-1.93,12.87-8.78,12.73-16.66l-1.5-85.82c-.08-4.72,1.45-9,4.2-11.76,1.75-1.75,3.75-2.58,5.89-2.59,5.44.09,11.66,6.63,11.87,15.87l2.35,102.1c.21,8.95,6.81,16.22,15.7,17.28,8.9,1.06,17.02-4.45,19.33-13.1l25.45-95.42c1.16-4.35,3.73-7.91,7.03-9.76,2.21-1.24,4.43-1.54,6.57-.9h0c5.84,1.74,9.18,10.13,7.14,17.95Z"/>
        <path class="cls-10" d="M840.61,387.35c-9.23-45.75-21.64-92.53-31.6-130.11-.52-1.98-1.01-3.97-1.5-5.96-1.96-7.96-4.18-16.99-8.68-25.67-7.07-13.63-19.53-20.06-34.17-17.63-14.77,2.45-24.68,12.5-27.18,27.57-.13.78-.24,1.56-.32,2.33-.44-1.28-.88-2.56-1.31-3.84-2.53-7.47-5.15-15.2-9.41-22.89-8.26-14.89-23.2-21.97-38.08-18.04-16.5,4.36-26.43,17.21-26.56,34.36-.03,4.57.42,8.65,1.4,12.43-1.24-2.46-2.49-4.92-3.74-7.38-2.57-5.04-6.84-12.43-14.29-18.35-11.11-8.85-24.51-10.6-36.76-4.81-12.16,5.75-19.55,17.07-20.27,31.06-.37,7.15,1.13,14.18,4.71,22.1-3.59-3.77-7.93-7.24-13.4-9.82-12.03-5.66-24.42-4.84-34.87,2.32-11.18,7.65-16.59,19.28-15.23,32.77.68,6.78,2.71,13.03,6.05,18.59,8.17,13.62,16.53,27.41,24.62,40.75,3.76,6.2,7.52,12.4,11.28,18.61l21.42,35.43c6.95,11.5,13.91,23.01,20.87,34.51-9.67-2.2-19.59-4.45-29.41-6.59-11.94-2.6-21.94-2.58-31.48.05-10.03,2.76-18.3,9.93-22.7,19.66-4.34,9.6-4.26,20.38.22,29.55,5.73,11.75,15.26,17.97,24.53,23.33,12.07,6.98,24.62,12.19,36.77,17.23,3.75,1.56,7.49,3.11,11.22,4.72,5.02,2.17,10.03,4.37,15.04,6.57,19.82,8.72,40.32,17.74,61.86,24.4,13.77,4.26,26.39,6.34,38.51,6.34.79,0,1.59,0,2.38-.03,18.93-.43,37.5-5.54,58.43-16.07,40.24-17.9,63.21-50.79,66.42-95.14,1.39-19.27-.15-39.66-4.73-62.33ZM813.78,447.4c-2.39,32.99-18.09,55.44-48.02,68.64l-.75.36c-16.72,8.45-31.09,12.54-45.24,12.86-9.37.21-19.47-1.39-30.83-4.9-19.8-6.12-38.58-14.39-58.46-23.13-5.08-2.24-10.16-4.47-15.26-6.67-3.85-1.66-7.73-3.27-11.61-4.88-11.72-4.87-22.79-9.46-33.06-15.4-6.6-3.82-10.26-6.38-11.93-9.8-.49-1.01.01-2.29.18-2.66.39-.86,1.19-1.89,2.26-2.18,2.04-.56,4.2-.84,6.59-.84,2.86,0,6.05.4,9.77,1.21,10.97,2.39,22.15,4.93,32.95,7.39,4.83,1.1,9.65,2.2,14.48,3.29l.65.15c1.28.3,2.88.67,4.75.9,8.97,1.12,17.37-2.85,21.92-10.37,4.36-7.2,4.26-15.96-.27-23.44-10.72-17.71-21.43-35.42-32.14-53.14l-21.43-35.43c-3.76-6.21-7.53-12.43-11.29-18.64-8.07-13.3-16.41-27.06-24.54-40.62-.92-1.53-1.49-3.37-1.7-5.47-.19-1.91.05-2.43,1.62-3.51.76-.52,1.27-.87,3.54.2,2.66,1.25,5.04,3.76,8.49,8.94,15,22.51,30.02,45.02,45.04,67.52,2.03,3.04,4.06,6.07,6.1,9.1,3.09,4.6,6.18,9.2,9.24,13.81,6.78,10.24,18.67,13.26,28.9,7.34,11.55-6.68,12.45-19.02,8.21-28.28-2.53-5.52-5.03-11.04-7.53-16.57-2.21-4.87-4.41-9.73-6.63-14.59-3.98-8.72-7.97-17.44-11.96-26.16-8.06-17.62-16.12-35.25-24.13-52.89-1.44-3.18-2.07-5.56-1.97-7.5.16-3.11,1.06-3.53,2.2-4.07.94-.44,1.45-.69,3.52.96,2.03,1.62,3.82,4.07,5.8,7.97,3.83,7.52,7.61,15.07,11.39,22.61,6.23,12.43,12.67,25.29,19.27,37.87,6.49,12.37,12.84,25.16,18.99,37.53l4.2,8.44c.8,1.61,1.7,3.14,2.67,4.56,6.57,9.55,17.58,12.77,27.42,8.01,10.01-4.84,14.43-15.6,10.99-26.76l-4.85-15.74c-5.1-16.54-10.36-33.63-15.47-50.46-3.08-10.15-6.11-20.54-9.04-30.58l-2.94-10.08c-.33-1.13-.48-2.62-.47-4.56.02-3.07.36-3.31,2.97-4,.38.19,1.34.94,2.36,2.78,2.88,5.2,4.94,11.27,7.11,17.69.68,2.01,1.36,4.03,2.07,6.03,4.83,13.63,9.63,27.58,14.27,41.06,2.22,6.44,4.44,12.89,6.67,19.33,1.56,4.5,3.13,9,4.7,13.5,2.09,5.98,4.18,11.97,6.24,17.96,4.97,14.45,17.28,18.08,26.63,15.33,13.52-3.97,16.63-16.31,15.19-25.66-4.08-26.45-8.15-52.91-12.18-79.39-.69-4.56-1.29-8.51-.78-11.61.11-.63.22-1.07.31-1.35.19-.05.46-.12.82-.18.11-.02.22-.03.31-.05.16.24.37.57.6,1.03,2.77,5.34,4.36,11.81,6.05,18.67.54,2.18,1.07,4.35,1.64,6.51,9.86,37.17,22.13,83.44,31.17,128.26h0c4,19.83,5.37,37.42,4.18,53.79Z"/>
      </g>
    </g>
    <g>
      <path class="cls-16" d="M103.31,185.73c-4.6,0-8.33-3.73-8.33-8.33v-18.59c0-4.6,3.73-8.33,8.33-8.33h19.21c4.6,0,8.33,3.73,8.33,8.33s-3.73,8.33-8.33,8.33h-10.88v10.26c0,4.6-3.73,8.33-8.33,8.33Z"/>
      <path class="cls-16" d="M420.03,185.93c-4.6,0-8.33-3.73-8.33-8.33v-10.26h-10.88c-4.6,0-8.33-3.73-8.33-8.33s3.73-8.33,8.33-8.33h19.21c4.6,0,8.33,3.73,8.33,8.33v18.59c0,4.6-3.73,8.33-8.33,8.33Z"/>
      <path class="cls-16" d="M117.67,561.72h-19.21c-4.6,0-8.33-3.73-8.33-8.33v-18.59c0-4.6,3.73-8.33,8.33-8.33s8.33,3.73,8.33,8.33v10.26h10.88c4.6,0,8.33,3.73,8.33,8.33s-3.73,8.33-8.33,8.33Z"/>
      <path class="cls-16" d="M415.18,561.92h-19.21c-4.6,0-8.33-3.73-8.33-8.33s3.73-8.33,8.33-8.33h10.88v-10.26c0-4.6,3.73-8.33,8.33-8.33s8.33,3.73,8.33,8.33v18.59c0,4.6-3.73,8.33-8.33,8.33Z"/>
    </g>
    <g>
      <path class="cls-16" d="M507.92,241.33c-4.53.79-8.85-2.25-9.63-6.78l-3.18-18.32c-.79-4.53,2.25-8.85,6.78-9.63l18.93-3.29c4.53-.79,8.85,2.25,9.63,6.78.79,4.53-2.25,8.85-6.78,9.63l-10.72,1.86,1.76,10.11c.79,4.53-2.25,8.85-6.78,9.63Z"/>
      <path class="cls-16" d="M820,187.29c-4.53.79-8.85-2.25-9.63-6.78l-1.76-10.11-10.72,1.86c-4.53.79-8.85-2.25-9.63-6.78s2.25-8.85,6.78-9.63l18.93-3.29c4.53-.79,8.85,2.25,9.63,6.78l3.18,18.32c.79,4.53-2.25,8.85-6.78,9.63Z"/>
      <path class="cls-16" d="M586.45,609.3l-18.93,3.29c-4.53.79-8.85-2.25-9.63-6.78l-3.18-18.32c-.79-4.53,2.25-8.85,6.78-9.63,4.53-.79,8.85,2.25,9.63,6.78l1.76,10.11,10.72-1.86c4.53-.79,8.85,2.25,9.63,6.78s-2.25,8.85-6.78,9.63Z"/>
      <path class="cls-16" d="M879.6,558.55l-18.93,3.29c-4.53.79-8.85-2.25-9.63-6.78s2.25-8.85,6.78-9.63l10.72-1.86-1.76-10.11c-.79-4.53,2.25-8.85,6.78-9.63s8.85,2.25,9.63,6.78l3.18,18.32c.79,4.53-2.25,8.85-6.78,9.63Z"/>
    </g>
    <g>
      <path class="cls-11" d="M353.35,356.42s8.13,9.65,7.69,27.48-5.35,73.2-10.7,106.64c-5.35,33.43-51.26,59.28-119.46,52.6-68.2-6.69-95.76-57.22-93.08-123.19l46.5-86.31,166.49-4.46,2.57,27.25Z"/>
      <path class="cls-8" d="M259.23,216.63l1.5,85.82c.02,1.13-1.48,1.5-2,.49-4.1-7.91-12.19-13.72-22.06-14.71-15.13-1.51-28.73,8.87-30.57,23.33l-.98,7.71c-.67-12.89-10.74-23.77-24.2-25.15h0c-14.7-1.51-27.91,8.87-29.69,23.33l-11.76,95.47c-1.81,14.69,8.85,28.02,23.77,29.72l.73.08c15.36,1.98,23.58-9.92,27.47-18.57,1.15-2.56,4.73-2.82,6.2-.42,4.27,6.98,11.78,12.02,20.83,13.02l.75.08c15.31,1.7,29.16-8.83,30.9-23.49l10.94-92.06.67,38.35"/>
      <path class="cls-11" d="M374.39,196.33c-14.14-4.23-29.09,5.5-33.42,21.74l-25.45,95.42c-.6,2.23-3.87,1.84-3.93-.47l-2.35-102.1c-.39-17.08-12.66-31.09-27.43-31.32-14.76-.24-26.46,13.38-26.16,30.44l1.5,85.82c.02,1.13-1.48,1.5-2,.49-4.1-7.91-12.19-13.72-22.06-14.71-15.13-1.51-28.73,8.87-30.57,23.33l-.98,7.71c-.67-12.89-10.74-23.77-24.2-25.15h0c-14.7-1.51-27.91,8.87-29.69,23.33l-11.76,95.47c-1.81,14.69,8.85,28.02,23.77,29.72l.73.08c14.88,1.7,28.32-8.83,30.02-23.49l.41-3.54c2.38,10.95,11.82,19.72,24.07,21.07l.75.08c15.31,1.7,29.16-8.83,30.9-23.49l10.94-92.06.67,38.35c.3,16.99,12.38,31.06,27.08,31.52l.8.03c7.84.25,14.83-3.45,19.67-9.48,2.97,7.7,8.79,13.82,16.51,16.25l.76.24c14.28,4.5,29.51-5.33,33.81-21.83l35.54-136.35c4.24-16.28-3.77-32.87-17.92-37.1Z"/>
      <path class="cls-8" d="M203.98,392.04l32.99,3.57s-.82,26.49-19.74,25.41c-23.38-1.34-13.25-28.97-13.25-28.97Z"/>
      <path class="cls-8" d="M149.7,400.94l28.95,3.13s-.72,23.25-17.33,22.3c-20.52-1.17-11.63-25.43-11.63-25.43Z"/>
      <path class="cls-8" d="M344.99,366.6l3.39-4.38c-.19-.15-19.08-14.74-39.1-28.44-39.65-27.13-48.08-26.74-52.87-24.25-7.9,4.11-15.05,13.56-18.2,24.08-2.22,7.41-3.51,18.69,2.99,30.33,9.25,16.58,39.07,39.75,51.46,48.94.48.36.75.92.73,1.52-.04.91-.74,1.63-1.66,1.71-7.76.7-22.63,3.46-34.95,14.04-14.68,12.6-21.52,32.09-20.35,57.93l11.06-.5c-.1-2.13-.11-4.16-.09-6.15l46.25-54.42c5.97-.98,10.55-6.04,10.8-12.15,0-.18-.01-.36-.01-.55l36.96-43.5c.07.05.13.1.2.15l3.39-4.38h0Z"/>
      <path class="cls-11" d="M355.46,373.78s-85.35-67.34-96.5-61.54c-11.14,5.79-23.62,27.64-12.93,46.8,10.7,19.17,53.04,49.48,53.04,49.48l-.45,10.7s-67.94-4.23-59.07,83.18"/>
      <path class="cls-8" d="M298.25,330.94l-8.44,14.15s-21.99-7.15-23.66-18.12c-1.67-10.97,1.91-14,1.91-14l30.19,17.97Z"/>
      <line class="cls-5" x1="201.54" y1="312.68" x2="190.81" y2="421.05"/>
    </g>
    <g>
      <path class="cls-11" d="M772.15,530.52c-16.68,8.43-33.61,14.14-52.02,14.56-12.3.28-24.19-2-35.86-5.61-25.95-8.02-50.44-19.67-75.31-30.39-15.59-6.72-31.57-12.58-46.33-21.12-7.26-4.2-14.37-8.65-18.23-16.56-5.13-10.52,1.15-23.92,12.46-27.03,8.01-2.21,16-1.56,23.92.16,15.88,3.45,31.71,7.13,47.56,10.71,1.28.29,2.57.62,3.87.78,2.69.34,5.01-.52,6.43-2.86,1.4-2.31,1.15-4.71-.27-7.06-17.87-29.52-35.71-59.05-53.57-88.58-11.96-19.77-23.98-39.49-35.86-59.3-2.19-3.65-3.44-7.74-3.87-12.03-.77-7.7,2.11-13.82,8.43-18.14,6.1-4.17,12.63-4.15,19.21-1.06,6.62,3.11,10.99,8.58,14.92,14.49,15,22.51,30.01,45.01,45.03,67.5,5.11,7.66,10.29,15.28,15.37,22.96,1.99,3,4.49,4.28,7.79,2.38,3.36-1.94,3.19-4.84,1.74-8-4.75-10.38-9.43-20.79-14.17-31.18-12.04-26.36-24.13-52.7-36.11-79.08-2.12-4.68-3.63-9.58-3.36-14.85.41-8,4.04-14.16,11.23-17.56,7.12-3.37,13.96-2.03,20.14,2.88,4.46,3.55,7.52,8.2,10.05,13.16,10.23,20.09,20.11,40.36,30.58,60.32,8.03,15.3,15.64,30.8,23.34,46.26.46.91.97,1.81,1.55,2.65,1.84,2.68,4.33,4.26,7.49,2.73,3.27-1.58,3.79-4.53,2.76-7.87-6.79-22.08-13.63-44.15-20.33-66.26-4.12-13.57-8.04-27.2-12.02-40.82-.87-2.97-1.13-6.04-1.11-9.12.08-10.09,5.12-16.63,14.79-19.18,7.81-2.06,15.5,1.94,20.2,10.42,4.58,8.25,7.14,17.3,10.26,26.11,7.13,20.12,13.99,40.33,20.98,60.5,3.64,10.5,7.34,20.98,10.95,31.49,1.43,4.16,3.98,6.25,7.21,5.3,4.1-1.21,4.59-4.37,4.02-8.07-4.08-26.46-8.15-52.93-12.18-79.41-.84-5.5-1.68-11.01-.75-16.6,1.4-8.48,5.96-13.19,14.15-14.55,7.86-1.3,13.59,1.69,17.54,9.31,4.63,8.94,6.39,18.81,8.94,28.4,11.36,42.84,22.62,85.72,31.39,129.19,3.86,19.15,5.87,38.5,4.46,58.06-2.82,38.96-22.1,66.39-57.41,81.97Z"/>
      <path class="cls-6" d="M669.74,421.08s57.59-7.78,80.11,37.06"/>
    </g>
    <circle class="cls-18" cx="633.08" cy="393.86" r="6.55"/>
    <circle class="cls-18" cx="561.78" cy="464.83" r="6.55"/>
    <circle class="cls-18" cx="608.44" cy="475.82" r="6.55"/>
    <circle class="cls-18" cx="654.13" cy="496.68" r="6.55"/>
    <circle class="cls-18" cx="758.79" cy="494.49" r="11.3"/>
    <circle class="cls-18" cx="603.91" cy="347.48" r="6.55"/>
    <circle class="cls-18" cx="566.77" cy="289.16" r="6.55"/>
    <circle class="cls-18" cx="623.18" cy="239.17" r="6.55"/>
    <circle class="cls-18" cx="651.46" cy="299.21" r="6.55"/>
    <circle class="cls-18" cx="682.17" cy="364.22" r="6.55"/>
    <circle class="cls-18" cx="734.77" cy="348.1" r="6.55"/>
    <circle class="cls-18" cx="715.98" cy="284.92" r="6.55"/>
    <circle class="cls-18" cx="696.2" cy="224.44" r="6.55"/>
    <circle class="cls-18" cx="771.44" cy="242.01" r="6.55"/>
    <circle class="cls-18" cx="783.99" cy="293" r="6.55"/>
    <circle class="cls-18" cx="791.47" cy="350.81" r="6.55"/>
    <polyline class="cls-2" points="561.3 462.87 608.44 475.82 654.13 496.68 758.79 494.49 633.7 396.39 603.91 347.48 566.77 289.16"/>
    <polyline class="cls-2" points="696.2 224.44 715.98 284.92 734.77 348.1 758.79 494.49 682.17 364.22 651.46 299.21 623.18 239.17"/>
    <polyline class="cls-2" points="771.44 242.01 783.99 293 791.96 352.82 760.71 494.01"/>
    <g>
      <circle class="cls-13" cx="285.67" cy="203.74" r="6.55"/>
      <circle class="cls-13" cx="285.67" cy="263.49" r="6.55"/>
      <circle class="cls-15" cx="370.58" cy="218.74" r="6.55"/>
      <circle class="cls-15" cx="357.47" cy="276.59" r="6.55"/>
      <circle class="cls-15" cx="341.41" cy="332.41" r="6.55"/>
      <circle class="cls-13" cx="289.83" cy="310.12" r="6.55"/>
      <circle class="cls-17" cx="271.12" cy="344.63" r="6.55"/>
      <circle class="cls-17" cx="332.5" cy="408.68" r="6.55"/>
      <circle class="cls-18" cx="222.36" cy="408.68" r="6.55"/>
      <circle class="cls-18" cx="232.66" cy="302.89" r="6.55"/>
      <circle class="cls-16" cx="177.61" cy="306.19" r="6.55"/>
      <circle class="cls-16" cx="166.19" cy="422.39" r="6.55"/>
      <circle class="cls-17" cx="310.83" cy="368.45" r="6.55"/>
      <polyline class="cls-2" points="252.31 525.97 232.66 302.89 222.36 408.68"/>
      <polyline class="cls-4" points="166.19 422.39 177.61 306.19 252.31 525.97"/>
      <polyline class="cls-3" points="285.67 203.74 285.67 263.49 289.83 310.12 252.31 525.97"/>
      <polyline class="cls-1" points="370.58 218.74 357.47 276.59 341.41 332.41 256.82 525.97"/>
      <polyline class="cls-7" points="256.82 525.97 332.5 408.68 310.83 368.45 271.12 344.63"/>
      <circle class="cls-12" cx="252.31" cy="525.97" r="9.88"/>
    </g>
  </g>
</svg>