<?xml version="1.0" encoding="UTF-8"?>
<svg id="_图层_1" data-name="图层 1" xmlns="http://www.w3.org/2000/svg" viewBox="0 0 950 750">
  <defs>
    <style>
      .cls-1 {
        fill: #fff;
      }

      .cls-2 {
        fill: #e1edff;
      }

      .cls-3 {
        fill: #bb8dff;
      }

      .cls-4 {
        fill: #ff884d;
      }

      .cls-5 {
        fill: #333;
      }

      .cls-6 {
        fill: none;
        stroke: #e1edff;
        stroke-miterlimit: 10;
        stroke-width: 4px;
      }
    </style>
  </defs>
  <rect class="cls-3" width="950" height="750"/>
  <rect class="cls-1" x="173.13" y="105.94" width="500" height="220" rx="110" ry="110"/>
  <g>
    <path class="cls-1" d="M467.36,656.02c-6.7,11.23-21.24,14.89-32.46,8.19l-92.5-55.23,24.27-40.65,92.5,55.23c11.23,6.7,14.89,21.23,8.19,32.46Z"/>
    <path class="cls-1" d="M310.79,447.27c12.48-3.35,22.65-16.92,26.32-4.53l39.05,135.4s0,.05-.03.05l-45.32,13.41s-.05,0-.05-.03l-39.21-135.91c-3.77-12.74,6.32-4.94,19.23-8.4Z"/>
    <circle class="cls-5" cx="358.5" cy="590.58" r="34.35" transform="translate(-301.27 795.53) rotate(-76)"/>
    <path class="cls-5" d="M285.97,453.45c10.03,3.68,36.51-.8,47.18-5.24,4.95-2.15,9.11-5.27,11.21-10.16,3.91-9.71.21-22.28-7.74-29.87-12.15-11.82-31.79-10.21-44.55-.15-8.67,6.41-15.37,17.16-15.98,27.66-.7,7.86,2.4,15.44,9.73,17.71l.14.05Z"/>
    <path class="cls-2" d="M469.57,646.37c-.57-9.79-7.02-17.84-15.72-20.93-15.16,5.79-25.67,16.85-32.98,30.41l14.02,8.37c11.23,6.7,25.76,3.04,32.46-8.19.73-1.23,1.34-2.5,1.83-3.8.36-1.89.5-3.85.38-5.86Z"/>
    <path class="cls-1" d="M639.65,799.89c10-46,23.13-112.37-3.06-150.46-18.3-25.33-53.59-29.85-82.93-33.4-25.92-2.52-55.48-4.92-79.35,1.57-38.79,9.79-50.94,50.78-54.89,87.21-2.81,30.52-3.17,63.82.11,95.08h220.13Z"/>
    <path class="cls-2" d="M474.3,617.6c-6.45,1.63-12.15,4.14-17.22,7.33,24.83,5.78,51.31,8.18,75.64,9.96,26.38,1.13,55.62,1.99,81.74-4.05-18.23-9.52-40.9-12.39-60.82-14.8-25.92-2.52-55.48-4.92-79.35,1.57Z"/>
    <path class="cls-2" d="M648.19,676.37c-1.34-.17-2.72-.24-4.12-.17-13.35.66-23.45,12.18-22.45,25.42,0,0,4.47,59.18,7.91,98.26h10.12c7.92-36.45,17.81-85.69,8.54-123.52Z"/>
    <path class="cls-1" d="M645.38,799.89h48.72c-8.3-32.73-27.13-115.06-27.13-115.06-2.88-12.6-15.2-21-27.87-18.44-13.1,2.65-21.37,15.54-18.4,28.49,0,0,15.54,67.82,24.69,105.01Z"/>
    <path class="cls-1" d="M516.4,446.02c58.93-6.81,131.34,10.58,169.29,54.01,28.65,32.5,24.41,72.11-9.79,97.55-54.88,40.32-143.17,39.73-204.57,16.57-22.12-8.4-44.04-20.81-59.25-38.17-31-34.73-17.55-76.41,20.74-101.47,21.07-14.63,53.3-25.4,83.34-28.47l.24-.03Z"/>
    <path class="cls-5" d="M446.39,577.83c17.21,9.12,35.52,9.73,58.55,12.19,7.36.66,14.75,1.32,22.12,1.95,27.97,1.57,59.06,7.39,77.5-13.38,11.51-13.41,13.5-35.13,4.11-50.28-5.91-9.87-16.42-15.64-27.4-18.43-17.65-4.81-44.36-5.45-65.76-6.78-22.21-.92-40.23-2.83-58.98,2.08-13.62,3.64-24.45,14.34-27.56,28.17-4.29,16.84,1.29,35.67,17.3,44.4l.13.07Z"/>
    <path class="cls-1" d="M532.17,541.54c-.93,10.68,5.77,19.88,15.05,20.54,9.36.67,17.79-7.57,18.74-18.43.95-10.86-5.95-20.06-15.32-20.56-9.3-.49-17.53,7.77-18.46,18.45Z"/>
    <path class="cls-1" d="M462.89,537.21c-.9,10.32,5.33,19.19,14,19.81,8.74.63,16.62-7.36,17.54-17.84.92-10.48-5.49-19.36-14.25-19.83-8.68-.46-16.39,7.54-17.29,17.86Z"/>
    <ellipse class="cls-6" cx="680.03" cy="555.22" rx="21.52" ry="12.92" transform="translate(67.66 1184.27) rotate(-85)"/>
    <ellipse class="cls-1" cx="511.91" cy="570.91" rx="5.77" ry="17.39" transform="translate(-93.53 1041.49) rotate(-85.98)"/>
  </g>
  <g>
    <rect class="cls-4" x="487.62" y="180.51" width="49.78" height="49.78" rx="12.56" ry="12.56" transform="translate(4.87 422.56) rotate(-45)"/>
    <path class="cls-4" d="M377.94,258.04l-7.69-3.47c.05-.11,1.19-2.63,3.72-6.45l7.04,4.65c-2.11,3.2-3.06,5.26-3.07,5.28ZM385.78,246.35l-6.5-5.38c1.48-1.79,3.07-3.56,4.72-5.27l6.07,5.86c-1.5,1.56-2.95,3.17-4.29,4.79ZM395.92,236.02l-5.52-6.38c1.76-1.52,3.6-3.01,5.48-4.42l5.07,6.74c-1.72,1.29-3.41,2.66-5.02,4.06ZM407.6,227.37l-4.5-7.14c1.96-1.23,3.99-2.43,6.05-3.55l4.04,7.41c-1.9,1.04-3.78,2.14-5.59,3.28ZM420.45,220.48l-3.47-7.69c2.1-.94,4.27-1.85,6.45-2.69l3.02,7.88c-2.03.78-4.05,1.62-6,2.5ZM434.15,215.34l-2.47-8.07c2.19-.67,4.44-1.3,6.7-1.87l2.06,8.18c-2.12.53-4.24,1.12-6.29,1.75ZM448.42,211.84l-1.56-8.29c2.24-.42,4.54-.8,6.84-1.13l1.18,8.35c-2.18.31-4.35.67-6.47,1.06ZM463.04,209.84l-.74-8.4c2.23-.2,4.53-.35,6.81-.47l.42,8.43c-2.18.11-4.36.26-6.49.44Z"/>
    <path class="cls-4" d="M363.27,269.56l7.69-3.47c-.05-.11-1.19-2.63-3.72-6.45l-7.04,4.65c2.11,3.2,3.06,5.26,3.07,5.28ZM355.44,257.87l6.5-5.38c-1.48-1.79-3.07-3.56-4.72-5.27l-6.07,5.86c1.5,1.56,2.95,3.17,4.29,4.79ZM345.29,247.54l5.52-6.38c-1.76-1.52-3.6-3.01-5.48-4.42l-5.07,6.74c1.72,1.29,3.41,2.66,5.02,4.06ZM333.61,238.89l4.5-7.14c-1.96-1.23-3.99-2.43-6.05-3.55l-4.04,7.41c1.9,1.04,3.78,2.14,5.59,3.28ZM320.76,232.01l3.47-7.69c-2.1-.94-4.27-1.85-6.45-2.69l-3.02,7.88c2.03.78,4.05,1.62,6,2.5ZM307.06,226.86l2.47-8.07c-2.19-.67-4.44-1.3-6.7-1.87l-2.06,8.18c2.12.53,4.24,1.12,6.29,1.75ZM292.79,223.36l1.56-8.29c-2.24-.42-4.54-.8-6.84-1.13l-1.18,8.35c2.18.31,4.35.67,6.47,1.06ZM278.17,221.36l.74-8.4c-2.23-.2-4.53-.35-6.81-.47l-.42,8.43c2.18.11,4.36.26,6.49.44Z"/>
  </g>
</svg>