<?xml version="1.0" encoding="UTF-8"?>
<svg id="_图层_1" data-name="图层 1" xmlns="http://www.w3.org/2000/svg" viewBox="0 0 950 750">
  <defs>
    <style>
      .cls-1 {
        fill: none;
        stroke: #adec00;
        stroke-linecap: round;
        stroke-miterlimit: 10;
        stroke-width: 20px;
      }

      .cls-2 {
        fill: #adec00;
        font-family: Urbanist-SemiBold, Urbanist;
        font-size: 110px;
        font-weight: 600;
      }

      .cls-3 {
        letter-spacing: -.01em;
      }

      .cls-4 {
        fill: #ff884d;
      }
    </style>
  </defs>
  <rect class="cls-4" width="950" height="750" transform="translate(950 750) rotate(180)"/>
  <text class="cls-2" transform="translate(392.21 175.21)"><tspan class="cls-3" x="0" y="0">c</tspan><tspan x="54.72" y="0">at</tspan></text>
  <g>
    <path d="M399.3,554.42c-8.43,7.31-23.56,12.99-32.19,4.94-2.46-2.3-3.82-5.75-3.56-8.87.96-11.72,15.4-8.72,19.29-19.13,5.45-14.58,4.44-32.88-10.91-41.28l-13.55-7.41c-4.39-2.4-7.34-6.46-8.85-11.31-11.16.76-21.74-1.59-30.95-8.05-20.07-14.09-30.48-43.47-14.51-64.21l-16.36-30.68c-1.29-2.41-.04-5.25,2.59-6.01,9.86-2.88,19.9.59,26.68,8.32,1.03,1.18,2.63,2.38,4.02,3.1,22.04-12.57,31.53,8.14,44.1-18.14,2.9-6.06,7.47-15.01,14.64-13.3,1.74.41,3.72,2.77,4.48,5.01,1.79,5.31,3.6,10.18,5.65,15.27,5.64,14.02-4.39,17.5.49,22.5,1.04-.25,2.73-2.28,3.09-3.48,2.1-7.09,5.75-12.48,10.67-17.78,30.5-32.88,74.71-37.77,115.05-20.38,15.69,6.76,29.3,16.24,41.72,27.99,3.05-.28,5.78-1.94,7.87-4.08,7.66-7.86,9.81-19.14,6.6-29.86-2.19-7.3-5.99-13.91-10.57-20.04l-17.33-23.17c-10.8-14.44-18.8-35.81-3.62-50.55,12.09-11.74,32.16-20.06,48.07-11.03,8.32,4.72,15.57,15.38,10.5,22.78-4.72,6.9-13.69.78-20.23,8.77-5.31,6.49,2.93,15.87,8.1,20.21,38.21,32.05,42.39,87.09,8.77,124.75,4.66,15.09.16,35.46-3.27,51.2-7.1,32.61,2.51,48.24-.06,75.65-.99,10.58-4.36,21.37-12.52,28.59-8.89,7.86-33.86,16.21-41.09,1.62-1.76-3.55-1.5-7.35.29-10.58,1.62-2.92,5.39-4.24,8.86-5.15,3.16-7.11,3.13-15.91-.05-23.67-6.58,10.03-14.14,27.61-28.18,27.79-6.94-.34-20.62-1.28-21.46-9.86-.33-3.35,1.25-6.31,4.16-8.36,2.66-1.88,6.59-1.86,9.93-1.79,9.85-9.32,10.4-23.58,2.62-34.6-10.91-15.47-16.73-32.91-15.66-52.58-13.63,4.78-28.14,11.23-28.11,27.36l.03,21.08c.04,26.16-11.31,51.24-28.53,70.61-7.25,8.16-15.82,12.87-25.62,16.6-6.76,2.57-13.45,4.8-20.1.44-3.18-2.08-5.97-5.54-6.71-8.65-2.32-9.72,5.75-15.62,14.05-19.1,3.77-3.86,3.68-11.22,4.21-16.78-4.15,5.54-7.5,10.91-12.54,15.28ZM407.36,565.4c-3.19.92-6.62,4.22-5.71,7.44,1.27,4.48,6.65,6.05,10.85,4.61,14.92-5.14,29.07-26.77,35.22-41.18,7.33-17.15,11.58-35.18,13.3-53.76.53-5.75-1.17-10.71-4.04-15.31-1.71-2.73-1.74-7.63,1.35-9.33,20.02-11.01,21.6-20.57,34.92-25.74,10.09-3.92,20.56.27,24.8,10.15,4.22,9.83,1.94,18.32,3.48,29.97,1.22,9.29,5.17,17.66,11.72,24.24,3.14,3.15,4.46,6.86,3.62,11.51l-4.52,25.22c-1.26,7.02-6.22,11.28-13.51,10.32-2.96-.39-6.03-.87-9.26.26,7.01,3.09,16.19,4.75,21.39-1.39,7.13-8.42,12.37-17.51,16.26-27.89.51-1.36,2.87-2.64,4.14-2.46,3.76.51,6.38,8.69,7.94,12.91,3.81,10.27,3.13,21.07-1.11,31.1-2.49,5.89-7.65.69-8.68,5.54-.69,3.23,6.51,5.42,13.45,2.31,14.33-6.41,18.3-23.57,17.23-38.11-1.84-25.09-7.29-35.95-1.45-62.06,2.02-9.03,3.84-17.81,5.39-26.93,1.15-6.78.46-13.21-1.52-19.59l-3.04-9.79c-.95-3.04.7-6.1,3.08-7.97,21.88-17.23,29.6-42.38,20.19-69.08-5.09-14.44-14.06-26.52-25.54-36.53-9.12-7.95-18.16-15.82-16.55-29.27.98-8.16,7.4-14.12,15.8-14.37,7.79-.23,18.35,2.83,19.04-.33,1.15-5.33-9.21-13.64-21.44-12.37-9.49.99-18.14,5.87-24.87,12.51-11.51,11.34-3,29.05,4.98,39.73l16.36,21.87c11.43,15.28,19.67,34,10.46,52.47-4.89,9.8-17.17,21.21-26.8,12.54-22.76-20.5-51.12-35.35-82.59-34.73-25.33.5-48.44,11.65-64.49,31.02-5.7,6.88-4.36,10.75-9.66,17.62,10.24,18.55,4.82,42.14-6.47,59.13-1.35,2.03-3.99,2.37-5.77,1.25-1.9-1.19-2.4-3.84-1.05-5.85,9.5-14.21,15.21-35.93,5.37-51.44-7.26-1.61-10.81-9.45-7.87-16.32,1.89-4.41,2.01-8.11.2-12.58l-5.26-12.98-8.17,14.68c-5.13,9.23-14.6,12.86-24.77,11.48-6.5-.88-12.94-.03-18.59,2.79-12.14,6.06-14.15-11.81-27.35-10.78l13.28,24.69c4.25,7.9-2.11,9.78-3.92,14.6-4.96,13.2-2.27,28.35,7.29,38.83,10.7,11.72,27.39,15.08,42.13,9.74,1.44-.52,4.04.14,4.76,1.28.54.85.75,2.57.65,4.1-1.03,16.18,28.79,12.02,31.93,38.81,1.14,9.74.27,19.62-2.27,29.04-4.69,17.43-20.27,15.15-19.94,20.65.36,6.08,20.19,4.89,30.68-13.58l9.48-16.69c.91-1.6,2.99-2.7,4.77-2.46,1.38.18,3.2,2.23,3.4,4.04,1.3,11.57.52,23.11-3.23,33.91-1.66,4.77-4.56,7.07-9.48,8.5Z"/>
    <path d="M504.6,394.44c-19.35-12.55-44.25-8.61-58.48,9.31-1.25,1.57-4.04,1.77-5.5.81-1.72-1.14-2.42-4.06-.93-5.94,16.58-20.98,46.3-25.91,68.76-11.36,1.69,1.1,2.12,3.67,1.56,5.02-.62,1.52-3.35,3.5-5.42,2.16Z"/>
    <path d="M366.77,413.62c-5.49,1.53-11.72-.73-15.1-4.8-2.5-3.02-.65-7.55,2.26-9.79l14.85-11.42c.67-.52,2.21-1.23,2.96-1.3,4.86-.41,7.67,23.79-4.97,27.31Z"/>
    <path d="M333.39,421.41c-4.71.82-9.06-1.99-11.53-5.49-5.28-7.5-7.07-20.76-1.43-18.84l19.56,6.63c3.94,1.33,6.59,5.66,4.6,9.4-2.16,4.06-6.22,7.44-11.2,8.3Z"/>
    <path d="M502.13,410.03c-1.38,8.34-14.07-4.24-27.57,10.17-1.47,1.57-4.19,1.57-5.66.31-1.72-1.47-1.82-4.31-.11-6.13,7.71-8.25,18.89-11.62,29.97-9.16,2.37.52,3.73,2.68,3.37,4.81Z"/>
    <path d="M360.64,427.71c2.16,1.84,1.8,4.54.15,6.24-1.55,1.61-4.29.91-6.11-.22-1.16,1.06-3.18,2.45-4.6,2.55-1.3.09-4-1.99-3.83-3.37l.96-7.81c.23-1.9,3.52-3.43,5.37-2.58,2.94,1.36,5.49,3.01,8.05,5.19Z"/>
  </g>
  <g>
    <path class="cls-1" d="M299.27,218.73h-11.12c-3.87,0-7.01,3.14-7.01,7.01v11.12"/>
    <path class="cls-1" d="M635.83,591.56h11.12c3.87,0,7.01-3.14,7.01-7.01v-11.12"/>
    <path class="cls-1" d="M653.96,236.87v-11.12c0-3.87-3.14-7.01-7.01-7.01h-11.12"/>
    <path class="cls-1" d="M281.14,573.43v11.12c0,3.87,3.14,7.01,7.01,7.01h11.12"/>
  </g>
</svg>