<?xml version="1.0" encoding="UTF-8"?>
<svg id="_图层_1" data-name="图层 1" xmlns="http://www.w3.org/2000/svg" viewBox="0 0 950 750">
  <defs>
    <style>
      .cls-1 {
        fill: #adec00;
      }

      .cls-2 {
        fill: #fff;
      }

      .cls-3 {
        fill: #00cfff;
      }

      .cls-4 {
        fill: #ffd70f;
      }

      .cls-5 {
        fill: #e1edff;
      }

      .cls-6 {
        fill: #333;
      }

      .cls-7 {
        fill: none;
        stroke: #e1edff;
        stroke-miterlimit: 10;
        stroke-width: 4px;
      }
    </style>
  </defs>
  <rect class="cls-1" width="950" height="750"/>
  <rect class="cls-2" x="152.34" y="105.94" width="500" height="220" rx="110" ry="110"/>
  <g>
    <path class="cls-3" d="M388.54,229.37l.08-30.58-39.13-9.77.09,42.32c.49,10.48-8.45,18.63-18.68,17.37-10.02-1.24-16.73-11.22-13.89-21.08,2.81-9.74,13.73-14.93,23.4-10.31l.07-49.46c0-2.73,2.83-4.74,5.4-4.09l48.17,12.02c2.12.53,3.58,2.23,3.58,4.48l.05,64.02c0,10.33-9.18,17.91-19.11,16.41-9.94-1.5-16.35-11.53-13.42-21.2,2.92-9.64,13.67-14.72,23.38-10.13Z"/>
    <path class="cls-3" d="M456.58,223.64l-17.2-4.18-.05,37.38c-.01,8.97-7.92,15.5-16.51,14.18-8.6-1.32-14.1-10-11.47-18.4,2.58-8.27,11.89-12.51,20.14-8.55l.03-42.62c0-2.54,2.28-4.45,4.76-3.84l21.61,5.37c1.85.46,3.08,1.99,3.08,3.89v13.03c0,2.1-2.05,4.31-4.38,3.74Z"/>
    <path class="cls-3" d="M300.03,194.35l-.11,23.13c-.03,6.45-5.83,11.16-12.09,10.23-6.11-.91-10.22-6.95-8.64-13.06,1.54-5.96,7.9-9.49,14.02-7.22l.06-17.69c0-2.05,2.03-3.4,3.94-3.12l10.64,2.67c1.91.48,2.93,2.4,2.39,4.25-.49,1.69-2.29,2.73-4.18,2.27l-6.02-1.48Z"/>
    <path class="cls-3" d="M510.25,182.89l-.17,34.83c-.05,9.72-8.79,16.81-18.21,15.41-9.2-1.37-15.39-10.47-13.01-19.67,2.32-8.98,11.9-14.29,21.11-10.88l.09-26.64c0-3.08,3.06-5.12,5.93-4.69l16.03,4.03c2.88.72,4.42,3.62,3.61,6.4-.74,2.55-3.46,4.12-6.29,3.42l-9.07-2.22Z"/>
  </g>
  <g>
    <path class="cls-2" d="M423.95,642.59c.78,13.37-9.42,24.85-22.8,25.63l-110.2,6.46-2.84-48.43,110.2-6.46c13.37-.78,24.85,9.42,25.63,22.8Z"/>
    <path class="cls-2" d="M206.66,526.77c10.88-7.54,16.01-24.15,23.83-13.46l84.46,117.11s.01.05,0,.06l-39.08,28.6s-.05.01-.06,0l-84.79-117.55c-8.04-10.98,4.39-6.95,15.64-14.75Z"/>
    <circle class="cls-6" cx="294" cy="649.8" r="35.2" transform="translate(-206.2 141.39) rotate(-20.19)"/>
    <path class="cls-6" d="M184.85,541.31c10.95.09,34.94-13.39,43.7-21.36,4.03-3.78,6.96-8.24,7.3-13.68.41-10.72-7.5-21.56-17.78-26.14-15.81-7.2-34.19,1.14-43.02,15.25-6.15,9.18-8.89,21.86-5.86,32.2,2.04,7.82,7.65,14.07,15.51,13.72h.15Z"/>
    <path class="cls-5" d="M366.47,670.25l34.69-2.03c13.37-.78,23.58-12.26,22.8-25.63-.59-10.03-7.2-18.28-16.11-21.45-21.82,8.33-34.25,27.34-41.37,49.11Z"/>
    <path class="cls-2" d="M559.57,642.7c-.81,13.37,9.38,24.86,22.75,25.67l110.19,6.64,2.92-48.42-110.19-6.64c-13.37-.81-24.86,9.38-25.67,22.75Z"/>
    <path class="cls-2" d="M777.05,527.24c-10.87-7.56-15.97-24.17-23.8-13.5l-84.66,116.97s-.01.05,0,.06l39.03,28.66s.05.01.06,0l84.98-117.41c8.06-10.97-4.38-6.96-15.62-14.78Z"/>
    <circle class="cls-6" cx="689.51" cy="650.12" r="35.2" transform="translate(-159.33 1071.49) rotate(-69.72)"/>
    <path class="cls-6" d="M798.84,541.81c-10.95.07-34.92-13.44-43.67-21.43-4.02-3.79-6.95-8.25-7.28-13.69-.4-10.72,7.53-21.55,17.83-26.11,15.82-7.18,34.19,1.19,43,15.32,6.13,9.19,8.86,21.88,5.8,32.21-2.05,7.82-7.67,14.05-15.53,13.7h-.15Z"/>
    <path class="cls-5" d="M617.01,670.46l-34.68-2.09c-13.37-.81-23.56-12.3-22.75-25.67.6-10.03,7.23-18.27,16.14-21.42,21.81,8.37,34.21,27.4,41.29,49.18Z"/>
    <path class="cls-2" d="M598.22,799.89c10.25-47.13,23.7-115.14-3.14-154.17-18.75-25.95-54.91-30.59-84.97-34.23-26.56-2.58-56.85-5.05-81.3,1.61-39.75,10.03-52.2,52.03-56.25,89.36-2.88,31.27-3.24,65.4.11,97.42h225.55Z"/>
    <path class="cls-5" d="M428.8,613.11c-6.61,1.67-12.45,4.24-17.64,7.51,25.45,5.92,52.57,8.38,77.51,10.2,27.03,1.16,56.99,2.04,83.76-4.15-18.68-9.76-41.9-12.7-62.32-15.17-26.56-2.58-56.85-5.05-81.3,1.61Z"/>
    <path class="cls-2" d="M457.34,437.3c60.38-6.97,134.57,10.85,173.46,55.34,29.35,33.3,25.01,73.89-10.03,99.95-56.23,41.31-146.69,40.71-209.61,16.98-22.66-8.61-45.13-21.32-60.71-39.11-31.76-35.59-17.98-78.3,21.25-103.97,21.59-14.99,54.61-26.03,85.4-29.17l.24-.03Z"/>
    <path class="cls-6" d="M416.63,572.36c17.64,9.34,36.39,9.97,59.99,12.49,7.54.68,15.12,1.35,22.66,1.99,28.66,1.61,60.52,7.57,79.41-13.71,11.79-13.74,13.84-35.99,4.21-51.52-6.06-10.11-16.83-16.02-28.07-18.88-18.08-4.93-45.45-5.58-67.38-6.94-22.76-.95-41.22-2.9-60.43,2.14-13.96,3.73-25.05,14.69-28.24,28.87-4.39,17.26,1.32,36.55,17.72,45.5l.13.07Z"/>
    <path class="cls-2" d="M515.26,539.27c1.23-10.92,9.87-19.17,19.38-18.42,9.59.75,16.42,10.36,15.17,21.45,0,0-8.86-6.14-17.1-6.81-8.24-.67-17.45,3.78-17.45,3.78Z"/>
    <path class="cls-2" d="M443.25,533.26c1.23-10.92,9.87-19.17,19.38-18.42,9.59.75,16.42,10.36,15.17,21.45,0,0-8.86-6.14-17.1-6.81-8.24-.67-17.45,3.78-17.45,3.78Z"/>
    <path class="cls-2" d="M518.41,561.68c-1.33,17.87-47.53,14.19-46.01-3.66,1.33-17.87,47.53-14.19,46.01,3.66Z"/>
    <ellipse class="cls-7" cx="347.15" cy="524.76" rx="22.05" ry="4.3" transform="translate(-205.87 824.85) rotate(-85)"/>
    <ellipse class="cls-7" cx="638.94" cy="546.73" rx="22.05" ry="4.3" transform="translate(38.6 1135.59) rotate(-85)"/>
    <path class="cls-4" d="M213.25,488.59l-17.86,3.56,17.54-95.33c.85-4.59,5.26-7.63,9.85-6.79h0c4.59.85,7.63,5.26,6.79,9.85l-16.33,88.71Z"/>
  </g>
</svg>