<?xml version="1.0" encoding="UTF-8"?>
<svg id="_图层_1" data-name="图层 1" xmlns="http://www.w3.org/2000/svg" viewBox="0 0 950 750">
  <defs>
    <style>
      .cls-1 {
        fill: #54ff8d;
      }

      .cls-2 {
        fill: #8d80ff;
      }

      .cls-3 {
        fill: #fa5f7a;
      }

      .cls-4 {
        fill: #fff;
      }

      .cls-5 {
        opacity: .1;
        stroke-miterlimit: 10;
        stroke-width: 130px;
      }

      .cls-5, .cls-6 {
        fill: none;
        stroke: #fff;
      }

      .cls-6 {
        stroke-linecap: round;
        stroke-linejoin: round;
        stroke-width: 16px;
      }

      .cls-7 {
        fill: #ffd70f;
      }

      .cls-8 {
        fill: #bb8dff;
      }
    </style>
  </defs>
  <rect class="cls-8" y="0" width="950" height="750"/>
  <path class="cls-5" d="M629.8,545.57c-51.93,11.5-103.32,8.97-157.43,9.62-31.92-.07-64.11.06-95.85-1.92-56.21-2.84-108.23-16.88-142.74-61.3-47.73-58.99-51.83-149.92-13.36-214.87,26.76-44.76,68.44-69.73,121.1-76.74,44.62-6.36,90.37-5.23,135.62-5.53,55.14.74,111.88-2.14,163.9,12.68,38.41,11.01,70.11,37.57,89.94,72.02,54.98,95.77,16.02,240.51-101,266.01l-.18.04Z"/>
  <path class="cls-4" d="M197.97,400.01c-3.32-18.89,11.78-41.28,31.84-40.74,9.49-.85,19.13,13.55,25.8,8.68,3.81-4.62-1.56-10.98-5.36-13.97-6.62-5.29-14.81-8.02-23.19-7.67-8.4.98-15.27-.79-16.47-10.35-3.43-18.31,7.4-42.08,26.94-44.9,5.39.13,10.3,5.17,15.36,7.45,5.71,2.62,14.04,3.67,19.3.09,3.22-1.96,4.06-6.58.04-8.46-3.89-1.99-8.67-1.55-12.86-3.18-7.89-2.96-11.45-11.69-12.65-19.65-4.12-24.11,16.65-48.07,41.02-47.62,16.34.51,37.17,7.46,38.99,26.51,1.23,5.14-.51,20.14,8.5,16.3,4.01-2.56,4.85-8.64,4.75-13.18-.39-27.28-20.33-29.16-19.75-39.86,7.74-18.5,34.54-24.21,51.63-15.75,10.47,5.04,20.78,15.43,21.69,27.1.18,15.29-.01,56.32.06,72.02,0,2.89-.2,5.53-3.94,4.91-5.88-1.03-14.82-2.36-21.22-.06-3.71,1.07-7.31,3.05-9.08,5.69-2.39,3.19-1.03,7.4,3.55,7.69,4.58.41,9.19-1.59,13.79-1.79,9.23-.4,18.08,3.71,16.83,13.82.02,13.1.03,33.15.02,43.77.09,3.18-.54,6.72-4.53,6.03-9.56-1.62-23.8-2.55-29.95,6.48-4.35,9.83,9.31,7,14.63,5.62,5.21-1.2,12.29.41,15.89,2.66,2.49,1.4,4.12,3.34,3.98,5.94.02,18.51.05,125.39.05,144.63.15,2.79-.92,5.42-2.45,7.94-8.1,14.51-28.88,23.67-44.79,16.06-5.2-3.04-1.79-8.67.25-12.71,3.75-7.21,4.99-15.52,3.12-23.4-.92-4.14-4.45-10.67-9.48-8.72-6.43,4.63.2,17.55-4.58,25.08-11.66,23.44-48.47,22.2-61.13.17-14.9-24.14,11.87-20.63,22.65-35.28,6.53-6.35,5.22-20.94-5.46-12.72-9.16,10.6-23.25,19.1-37.84,16.69-25.88-4.15-41.35-34.9-29.93-58.3,2.82-6.33,10.17-15.09,2.72-20.54-2.64-2.11-6.14-3.47-9.16-5.11-10.46-5.4-17.9-15.56-19.55-27.24l-.02-.17ZM320.7,347.38c5.06,3.79,11.41,2.15,10.38-4.68-.61-3.55-3.21-6.76-5.85-9.21-11.6-11.1-34.09-14.49-45.78-2.43-2.59,3.16-2.05,7.94,2.2,9.04,3.8,1.02,7.91-.72,12.17-1.71,11.58-2.83,18.14,2.13,26.73,8.9l.15.1ZM292.93,440.44c-2.76-1.94-6.18-3.46-8.93-5.62-4.95-3.8-8.1-9.38-9.06-15.62-.96-5.52-.8-15.74-8.32-14.47-5.13,1.78-5.82,8.84-5.49,13.65.96,13.55,8.83,25.5,20.97,31.36,3.13,1.48,6.95,2.63,10.32,1.87,6.25-1.47,5.82-7.79.64-11.07l-.14-.1ZM353.33,433.21c-3.29-.89-7.05-1.27-10.32-2.43-5.96-2.03-10.75-6.47-13.63-12.1-1.8-3.4-3.33-7.25-5.79-9.39-3.62-3.42-8.39-1.14-9.05,3.62-.83,18.45,20.69,35.32,38.46,32.52,8.61-1.59,9.71-9.92.5-12.18l-.17-.05Z"/>
  <polyline class="cls-6" points="406.07 449.03 550.27 449.03 581.22 479.98"/>
  <polyline class="cls-6" points="406.07 493.97 490.59 493.97 504.6 512.35"/>
  <polyline class="cls-6" points="406.07 407.52 589.46 407.52 626.75 453.04 688.49 453.04"/>
  <path class="cls-1" d="M724.78,481.2c-2.36,0-4.78-.3-7.2-.89-13.38-3.15-22.98-17.23-21.03-30.78l.02-.15c2.06-16.05,15.77-24.45,28.25-24.45,8.99,0,16.91,4.06,22.28,11.44l.04.06c6.28,8.95,7.07,19.98,2.11,29.53-4.88,9.4-14.26,15.24-24.48,15.24Z"/>
  <path class="cls-7" d="M697.39,335.33c-5.01,0-10.09-1.07-15.1-3.19-9.08-3.77-16.27-11.41-19.79-21.01-3.62-9.86-3.05-20.66,1.56-29.63l.09-.19c6.39-12.95,19.45-21,34.08-21,11.75,0,22.43,5.39,29.32,14.78l.18.25c8.51,11.74,9.69,25.85,3.17,38.62-6.62,12.98-19.78,21.36-33.52,21.36h0Z"/>
  <path class="cls-3" d="M525.92,565c-8.23,0-16.15-4.55-20.68-11.86-4.51-7.29-4.87-15.96-.98-23.78,3.92-8.02,12.59-13.16,22.11-13.16,5.83,0,11.29,2.01,15.38,5.66l.27.24c6.5,5.63,9.41,14.19,7.81,22.91-1.57,8.59-7.23,15.46-15.14,18.37-2.93,1.08-5.88,1.63-8.78,1.63Z"/>
  <path class="cls-2" d="M611.54,547.97c-12.43,0-24.17-7-30.63-18.25-6.49-11.31-6.39-24.35.29-35.78,6.16-10.63,17.99-17.2,30.89-17.2,10.86,0,20.74,4.66,27.11,12.79l.33.42c7.43,9.19,9.62,21.59,5.92,33.23-3.7,11.63-12.29,20.12-23.57,23.31-3.5.99-6.96,1.49-10.34,1.49h0Z"/>
  <path class="cls-3" d="M575.53,235.36c-8.49,0-16.67-4.69-21.35-12.25-4.66-7.52-5.02-16.46-1-24.54,4.05-8.28,12.99-13.58,22.82-13.58,6.01,0,11.65,2.08,15.87,5.84l.28.25c6.68,5.79,9.69,14.58,8.08,23.56-1.58,8.84-7.37,15.93-15.48,18.97-3.07,1.15-6.16,1.74-9.21,1.74h0Z"/>
  <path class="cls-1" d="M496.07,235.31c-5.61,0-10.91-3.16-13.83-8.24-2.93-5.11-2.88-11,.13-16.16,2.78-4.8,8.12-7.77,13.95-7.77,4.9,0,9.37,2.1,12.24,5.77l.15.19c3.35,4.15,4.35,9.75,2.67,15.01-1.67,5.25-5.55,9.09-10.64,10.52-1.58.45-3.14.68-4.67.68h0Z"/>
  <polyline class="cls-6" points="406.07 301.87 543.61 301.87 574.56 270.92 574.56 242.37"/>
  <polyline class="cls-6" points="406.07 256.93 472.26 256.93 486.26 238.55"/>
  <polyline class="cls-6" points="406.07 343.38 589.46 343.38 626.75 297.86 652.33 297.86"/>
</svg>