<?xml version="1.0" encoding="UTF-8"?>
<svg id="_图层_1" data-name="图层 1" xmlns="http://www.w3.org/2000/svg" viewBox="0 0 950 750">
  <defs>
    <style>
      .cls-1 {
        stroke: #ffd70f;
      }

      .cls-1, .cls-2 {
        fill: none;
        stroke-linecap: round;
        stroke-miterlimit: 10;
        stroke-width: 20px;
      }

      .cls-3 {
        fill: #fff;
      }

      .cls-2 {
        stroke: #ffa849;
      }

      .cls-4 {
        fill: #5cc8ff;
      }

      .cls-5 {
        fill: #bb8dff;
      }
    </style>
  </defs>
  <rect class="cls-4" width="950" height="750" transform="translate(950 750) rotate(180)"/>
  <g>
    <path class="cls-3" d="M282.59,523.16c25.77,0,46.74-20.97,46.74-46.74v-75.6c0-25.77-20.97-46.74-46.74-46.74s-46.74,20.97-46.74,46.74v75.6c0,25.77,20.97,46.74,46.74,46.74Z"/>
    <path class="cls-3" d="M353.4,434.14c-3.55,0-6.42,2.87-6.42,6.42v35.87c0,35.51-28.89,64.39-64.39,64.39s-64.39-28.89-64.39-64.39v-35.87c0-3.55-2.87-6.42-6.42-6.42s-6.42,2.87-6.42,6.42v35.87c0,40.42,31.22,73.69,70.81,76.97v36.67c0,3.55,2.87,6.42,6.42,6.42s6.42-2.87,6.42-6.42v-36.67c39.59-3.27,70.81-36.54,70.81-76.97v-35.87c0-3.55-2.87-6.42-6.42-6.42Z"/>
  </g>
  <g>
    <path class="cls-5" d="M754.67,596.92l-271.98,23.8c-27.05,2.37-50.89-17.64-53.26-44.69l-31.76-363.04c-2.37-27.05,17.64-50.89,44.69-53.26l251.23-21.98c29.61,24.85,46.22,38.78,75.83,63.63l29.95,342.28c2.37,27.05-17.64,50.89-44.69,53.26Z"/>
    <g>
      <path class="cls-3" d="M527.85,326.94l-5.42-11.18-37.48,3.28-3.37,12.21c-1.32,4.76-2.51,8-3.58,9.72-1.08,1.72-3,2.7-5.76,2.94-2.35.21-4.5-.47-6.45-2.03-1.95-1.56-3.03-3.43-3.22-5.61-.11-1.26-.01-2.58.29-3.95.3-1.38.83-3.3,1.58-5.78l18.34-61.93c.52-1.78,1.15-3.91,1.88-6.41.73-2.49,1.56-4.58,2.49-6.27.93-1.69,2.22-3.1,3.87-4.24,1.65-1.14,3.76-1.82,6.32-2.04,2.6-.23,4.81.08,6.64.91,1.82.83,3.34,1.98,4.54,3.44,1.21,1.46,2.25,3.04,3.14,4.76.89,1.72,2.03,4.01,3.42,6.89l29.29,57.38c2.28,4.36,3.51,7.57,3.69,9.63.19,2.14-.53,4.18-2.16,6.11-1.63,1.94-3.7,3.02-6.21,3.24-1.47.13-2.75-.02-3.84-.46s-2.04-1.07-2.83-1.91c-.79-.84-1.68-2.15-2.66-3.95-.98-1.79-1.83-3.38-2.54-4.75ZM488.63,304.58l27.54-2.41-17.22-36.83-10.32,39.24Z"/>
      <path class="cls-3" d="M601.77,330.99l-28.17,2.46c-4.07.36-7.05-.3-8.95-1.97-1.9-1.67-3.02-4.5-3.37-8.48l-6.06-69.3c-.36-4.07.28-7.07,1.91-9,1.62-1.94,4.43-3.08,8.41-3.43l29.87-2.61c4.4-.38,8.24-.45,11.52-.18,3.28.26,6.26,1.06,8.95,2.38,2.29,1.11,4.37,2.59,6.22,4.43,1.85,1.85,3.32,3.93,4.41,6.27,1.09,2.33,1.75,4.84,1.99,7.53.81,9.22-3.21,16.37-12.06,21.46,12.45,2.8,19.17,9.77,20.14,20.92.45,5.16-.46,9.92-2.74,14.28-2.28,4.36-5.58,7.72-9.89,10.08-2.71,1.42-5.86,2.53-9.47,3.33-3.6.8-7.84,1.42-12.7,1.84ZM574.11,254.65l2.09,23.83,17.1-1.5c4.65-.41,8.21-1.16,10.67-2.27,2.46-1.1,4.25-2.95,5.38-5.54.89-1.85,1.25-3.87,1.05-6.05-.41-4.65-2.33-7.6-5.78-8.84-3.45-1.24-8.57-1.56-15.36-.97l-15.15,1.33ZM596.8,290.17l-19.43,1.7,2.35,26.91,20.06-1.75c12.62-1.1,18.53-6.2,17.73-15.3-.41-4.65-2.34-7.89-5.79-9.7-3.45-1.81-8.43-2.43-14.93-1.86Z"/>
      <path class="cls-3" d="M731.02,290.34c.26,2.94-.19,6.17-1.34,9.72-1.15,3.54-3.13,7.1-5.94,10.66-2.82,3.56-6.54,6.58-11.18,9.06-4.64,2.48-10.17,4-16.58,4.56-4.86.43-9.33.35-13.39-.22-4.06-.57-7.8-1.69-11.22-3.36s-6.63-3.97-9.63-6.92c-2.68-2.68-5.04-5.74-7.07-9.17-2.03-3.43-3.66-7.15-4.87-11.14-1.22-3.99-2.02-8.27-2.42-12.84-.65-7.42-.15-14.16,1.5-20.22,1.64-6.06,4.3-11.35,7.96-15.87,3.66-4.52,8.1-8.11,13.31-10.76,5.22-2.65,10.88-4.25,17.01-4.79,7.46-.65,14.24.25,20.32,2.72,6.09,2.47,10.87,5.75,14.36,9.86,3.49,4.11,5.4,8.11,5.74,12.01.19,2.14-.4,4.09-1.77,5.86-1.37,1.77-3.12,2.74-5.26,2.93-2.39.21-4.23-.2-5.52-1.23-1.29-1.03-2.8-2.86-4.5-5.5-2.83-4.36-5.99-7.52-9.48-9.5-3.49-1.98-7.64-2.75-12.46-2.33-7.67.67-13.53,4.12-17.57,10.34-4.04,6.23-5.59,14.7-4.65,25.44.63,7.17,2.16,13.04,4.58,17.63,2.43,4.58,5.59,7.88,9.48,9.91s8.31,2.82,13.26,2.39c5.37-.47,9.79-2.2,13.27-5.18,3.48-2.99,5.93-7.14,7.37-12.46.58-2.5,1.4-4.57,2.43-6.2,1.04-1.63,2.86-2.56,5.46-2.79,2.22-.19,4.2.42,5.93,1.83s2.7,3.27,2.9,5.58Z"/>
    </g>
    <path class="cls-3" d="M769.4,201.19l-28.87,2.53c-22.46,1.97-42.27-14.65-44.23-37.12l-2.53-28.87,75.63,63.46Z"/>
  </g>
  <g>
    <line class="cls-2" x1="555.86" y1="447.24" x2="555.86" y2="503.33"/>
    <line class="cls-2" x1="587.68" y1="457.74" x2="587.68" y2="492.83"/>
    <line class="cls-2" x1="492.22" y1="436.72" x2="492.22" y2="513.85"/>
    <line class="cls-1" x1="460.4" y1="447.24" x2="460.4" y2="503.33"/>
    <line class="cls-1" x1="396.75" y1="457.74" x2="396.75" y2="492.83"/>
    <line class="cls-1" x1="428.58" y1="436.72" x2="428.58" y2="513.85"/>
    <line class="cls-2" x1="524.04" y1="425.28" x2="524.04" y2="525.28"/>
  </g>
</svg>