<?xml version="1.0" encoding="UTF-8"?>
<svg id="_图层_1" data-name="图层 1" xmlns="http://www.w3.org/2000/svg" viewBox="0 0 950 750">
  <defs>
    <style>
      .cls-1 {
        fill: #00d6a3;
      }

      .cls-2 {
        fill: #fff;
        opacity: .3;
      }

      .cls-3 {
        fill: #8c4735;
      }

      .cls-4 {
        fill: none;
        stroke: #adec00;
        stroke-linecap: round;
        stroke-miterlimit: 10;
        stroke-width: 20px;
      }

      .cls-5 {
        fill: #b16c46;
      }

      .cls-6 {
        fill: #febf8c;
      }

      .cls-7 {
        fill: #602f0f;
      }
    </style>
  </defs>
  <rect class="cls-1" width="950" height="750" transform="translate(950 750) rotate(180)"/>
  <path class="cls-2" d="M308.87,497.51c-32.78,0-64.05-9.34-90.43-27.01-23.37-15.65-42.67-37.83-55.83-64.12l-.9-1.8-1.9-.67c-9.06-3.21-16.88-9.06-22.61-16.89-8.76-11.97-12.14-27.78-9.25-43.35,1.18-6.13,3.36-11.91,6.48-17.14l1.79-3-2.2-2.71c-7.58-9.36-10.99-21.08-9.6-32.99,1.22-10.44,6.17-20.14,13.92-27.31l2.04-1.88-.52-2.73c-1.44-7.52-.44-15.26,2.9-22.37,3.47-7.39,9.07-13.22,16.2-16.85l2.34-1.19.35-2.6c.6-4.43,2.08-8.66,4.43-12.57,5.84-9.75,16.93-15.86,28.94-15.94l3.02-.02,1.39-1.18c29.6-25.13,68.41-38.98,109.28-38.98,15.16,0,30.33,1.9,45.08,5.65,46.7,11.87,85.39,43.9,106.15,87.88,11.38,24.13,17.32,50.84,17.64,79.39l.02,1.75,1.1,1.35c15.73,19.33,16.2,47.02,1.16,67.35-5.68,7.67-13.33,13.34-22.13,16.38l-1.92.67-.91,1.82c-12.8,25.59-31.52,47.35-54.13,62.93-25.81,17.79-56.45,27.51-88.6,28.11-1.09.02-2.19.03-3.28.03h0Z"/>
  <path class="cls-2" d="M691.55,654.35c-28.14-3.49-53.98-14.84-74.74-32.82-18.39-15.92-32.6-37.01-41.09-60.99l-.58-1.64-1.56-.78c-7.43-3.72-13.52-9.57-17.61-16.91-6.25-11.21-7.46-25.13-3.32-38.19,1.67-5.14,4.15-9.87,7.39-14.02l1.85-2.38-1.6-2.56c-5.51-8.84-7.19-19.26-4.72-29.33,2.16-8.83,7.44-16.63,14.86-21.96l1.95-1.4-.16-2.39c-.44-6.61,1.25-13.15,4.87-18.89,3.76-5.97,9.19-10.38,15.7-12.74l2.13-.77.58-2.19c.98-3.74,2.71-7.21,5.14-10.32,6.05-7.75,16.22-11.81,26.53-10.6l2.6.31,1.31-.86c28.08-18.42,62.87-26.17,97.94-21.81,13.02,1.62,25.83,4.86,38.09,9.65,38.82,15.16,68.62,46.77,81.75,86.73,7.2,21.92,9.45,45.48,6.69,70.02l-.17,1.5.8,1.28c11.44,18.26,8.9,42.09-6.18,57.93-5.69,5.98-12.86,10.03-20.74,11.7l-1.72.37-.98,1.47c-13.71,20.6-32.1,37.29-53.17,48.25-24.05,12.52-51.38,17.6-79.04,14.69-.94-.1-1.88-.21-2.82-.32h0Z"/>
  <g>
    <path class="cls-6" d="M459.79,322.29c1.22.77,2.78,2.65,4.1,3.91,14.29,13.78,15.69,36.56,3.93,52.44-5.51,7.45-13.29,11.79-22.46,12.79-23.61,54.63-73.49,89.93-133.46,91.05-62.32,1.16-114.92-33.98-139.65-90.98-21.88-2.72-33.45-23.9-29.52-45.12,1.91-9.95,7.34-17.93,15.6-24.22,10.12,1.28,20.08,1.46,30.86,1.3,28.85-.41,56.89-2.87,85.13-8.69,46.36-9.82,91.23-28.2,124.25-63.02,14.56,28.73,34.56,53.73,61.23,70.53ZM260.69,351.09c.7-10.48-7.72-19.11-17.67-19.32-9.98-.21-17.53,8.03-17.77,17.23-.24,9.7,7.23,17.72,16.71,18.29,9.12.55,18.04-5.95,18.73-16.2ZM389.43,350.35c.28-9.93-7.65-17.99-17.04-18.55-10.24-.6-18.18,7.74-18.44,17.2-.26,9.75,7.24,17.77,16.77,18.3,9.4.53,18.41-6.44,18.71-16.95ZM337.38,410.32c-14.94,17.64-42.51,16.92-57.18-.14-2.38-2.76-6.78-1.89-8.9.08-2.17,2.02-3.42,6.11-1.34,8.8,18.87,24.46,60.33,24.5,78.03-.56,1.95-2.76.06-6.86-1.96-8.54-2.14-1.78-6.31-2.39-8.65.37Z"/>
    <path class="cls-5" d="M459.79,322.29c-26.67-16.8-46.67-41.8-61.23-70.53-33.02,34.82-77.89,53.2-124.25,63.02-28.24,5.82-56.28,8.28-85.13,8.69-10.78.15-20.74-.02-30.86-1.3-2.22-.03-2.68-2.53-3.78-3.35-10.57-6.08-16.61-17.12-15.19-29.26,1.34-11.48,9.42-21.48,21.51-24.93-6.72-6.65-8.4-16.43-4.5-24.74,3.9-8.31,12.47-13.17,22.86-12.24-3.56-6.71-3.98-13.42-.26-19.63,3.11-5.19,9.23-8.6,16.17-8.65l8.75-.06c38.89-36.5,94.98-47.95,146.22-34.93,42.71,10.85,77.5,39.95,96.27,79.74,11.01,23.34,16.1,48.59,16.22,74.49.01,2.12-.98,3.18-2.82,3.68Z"/>
    <path class="cls-3" d="M337.38,410.32c2.34-2.76,6.51-2.15,8.65-.37,2.02,1.68,3.91,5.78,1.96,8.54-17.7,25.06-59.15,25.02-78.03.56-2.08-2.69-.83-6.77,1.34-8.8,2.12-1.97,6.52-2.84,8.9-.08,14.67,17.06,42.24,17.78,57.18.14Z"/>
    <path class="cls-7" d="M389.43,350.35c-.3,10.51-9.32,17.48-18.71,16.95-9.53-.54-17.03-8.55-16.77-18.3.25-9.46,8.19-17.8,18.44-17.2,9.39.55,17.32,8.62,17.04,18.55Z"/>
    <path class="cls-7" d="M260.69,351.09c-.69,10.24-9.61,16.75-18.73,16.2-9.48-.57-16.95-8.59-16.71-18.29.23-9.19,7.78-17.44,17.77-17.23,9.95.21,18.37,8.84,17.67,19.32Z"/>
  </g>
  <g>
    <path class="cls-6" d="M839.75,520.03c.96.79,2.11,2.57,3.1,3.79,10.79,13.35,9.57,33.05-2.21,45.43-5.52,5.81-12.67,8.7-20.64,8.58-26.08,44.37-72.65,69.36-124.25,63.94-53.61-5.64-95.02-41.4-110.18-92.96-18.49-4.67-26.17-24.07-20.53-41.87,2.7-8.33,8.21-14.61,15.97-19.12,8.55,2.18,17.08,3.39,26.34,4.4,24.81,2.72,49.14,3.6,73.99,1.61,40.84-3.49,81.3-14.49,113.36-40.86,9.44,26.21,23.94,49.8,45.04,67.06ZM665.79,523.55c1.72-8.92-4.59-17.23-13.11-18.46s-15.91,5.03-17.08,12.89c-1.24,8.3,4.32,15.98,12.39,17.48,7.77,1.45,16.12-3.19,17.8-11.91ZM776.37,536.62c1.3-8.49-4.65-16.26-12.65-17.73-8.73-1.61-16.43,4.7-17.66,12.8-1.26,8.34,4.32,16.02,12.44,17.49,8.01,1.45,16.49-3.57,17.87-12.56ZM725.31,582.55c-14.7,13.55-38.29,9.99-49.06-6.21-1.74-2.62-5.62-2.34-7.65-.88s-3.58,4.88-2.09,7.41c13.59,23,49.17,27.45,67.03,7.83,1.96-2.16.78-5.89-.77-7.54-1.65-1.75-5.16-2.72-7.46-.61Z"/>
    <path class="cls-5" d="M839.75,520.03c-21.1-17.26-35.61-40.85-45.04-67.06-32.05,26.37-72.52,37.37-113.36,40.86-24.86,1.99-49.19,1.11-73.99-1.61-9.27-1.02-17.8-2.23-26.34-4.4-1.9-.26-2.03-2.46-2.89-3.28-8.42-6.35-12.44-16.47-9.92-26.73,2.38-9.71,10.37-17.44,21.12-19.1-5.06-6.43-5.46-15-1.23-21.72,4.23-6.72,12.11-9.98,20.92-8.08-2.34-6.14-1.99-11.94,1.87-16.88,3.22-4.13,8.83-6.4,14.8-5.7l7.52.88c37.27-27.19,86.63-31.04,129.22-14.4,35.5,13.86,62.26,42.54,74.14,78.69,6.97,21.2,8.64,43.42,5.99,65.66-.22,1.82-1.18,2.62-2.81,2.86Z"/>
    <path class="cls-6" d="M725.31,582.55c2.3-2.12,5.81-1.15,7.46.61,1.55,1.65,2.74,5.38.77,7.54-17.86,19.62-53.43,15.17-67.03-7.83-1.5-2.53,0-5.9,2.09-7.41s5.9-1.74,7.65.88c10.77,16.2,34.36,19.76,49.06,6.21Z"/>
    <path class="cls-3" d="M722.64,604.12c1.71,2.62,5.36,2.53,7.38,1.24,1.91-1.22,3.97-4.55,2.59-7.12-12.52-23.39-48.1-27.77-66.91-8.79-2.07,2.09-1.44,5.73.21,7.69s5.3,3.13,7.63,1.02c14.41-13.08,38.15-10.76,49.09,5.97Z"/>
    <path class="cls-6" d="M776.37,536.62c-1.37,8.99-9.86,14.01-17.87,12.56-8.12-1.48-13.7-9.15-12.44-17.49,1.23-8.09,8.93-14.41,17.66-12.8,8,1.48,13.95,9.24,12.65,17.73Z"/>
    <path class="cls-6" d="M665.79,523.55c-1.68,8.72-10.03,13.35-17.8,11.91-8.08-1.5-13.64-9.18-12.39-17.48,1.18-7.87,8.54-14.14,17.08-12.89s14.83,9.54,13.11,18.46Z"/>
    <path class="cls-7" d="M787.05,526.3c2.3-2.12,5.81-1.15,7.46.61,1.55,1.65,2.74,5.38.77,7.54-17.86,19.62-53.43,15.17-67.03-7.83-1.5-2.53,0-5.9,2.09-7.41,2.03-1.47,5.9-1.74,7.65.88,10.77,16.2,34.36,19.76,49.06,6.21Z"/>
    <path class="cls-7" d="M676.59,512.59c2.3-2.12,5.81-1.15,7.46.61,1.55,1.65,2.74,5.38.77,7.54-17.86,19.62-53.43,15.17-67.03-7.83-1.5-2.53,0-5.9,2.09-7.41,2.03-1.47,5.9-1.74,7.65.88,10.77,16.2,34.36,19.76,49.06,6.21Z"/>
  </g>
  <g>
    <path class="cls-4" d="M586.44,319.44l-9.55-1.18c-3.32-.41-6.35,1.95-6.76,5.27l-1.18,9.55"/>
    <path class="cls-4" d="M835.6,675.28l9.55,1.18c3.32.41,6.35-1.95,6.76-5.27l1.18-9.55"/>
    <path class="cls-4" d="M888.94,372.78l1.18-9.55c.41-3.32-1.95-6.35-5.27-6.76l-9.55-1.18"/>
    <path class="cls-4" d="M533.1,621.94l-1.18,9.55c-.41,3.32,1.95,6.35,5.27,6.76l9.55,1.18"/>
  </g>
  <g>
    <path class="cls-4" d="M132.6,137.11h-11.12c-3.87,0-7.01,3.14-7.01,7.01v11.12"/>
    <path class="cls-4" d="M469.16,509.93h11.12c3.87,0,7.01-3.14,7.01-7.01v-11.12"/>
    <path class="cls-4" d="M487.29,155.24v-11.12c0-3.87-3.14-7.01-7.01-7.01h-11.12"/>
    <path class="cls-4" d="M114.47,491.8v11.12c0,3.87,3.14,7.01,7.01,7.01h11.12"/>
  </g>
</svg>