<?xml version="1.0" encoding="UTF-8"?>
<svg id="_图层_1" data-name="图层 1" xmlns="http://www.w3.org/2000/svg" viewBox="0 0 950 750">
  <defs>
    <style>
      .cls-1 {
        fill: #8aceed;
      }

      .cls-2 {
        fill: #f3d62d;
      }

      .cls-3 {
        fill: #92929a;
      }

      .cls-4 {
        fill: #00d6a3;
      }

      .cls-5 {
        fill: #7dccf3;
      }

      .cls-6 {
        fill: #363c3c;
      }

      .cls-7 {
        fill: #fff;
      }

      .cls-8 {
        fill: none;
        stroke: #bb8dff;
        stroke-linecap: round;
        stroke-miterlimit: 10;
        stroke-width: 20px;
      }

      .cls-9 {
        opacity: .56;
      }

      .cls-10 {
        fill: #e95532;
      }

      .cls-11 {
        fill: #d2d2d3;
      }

      .cls-12 {
        fill: #bb8dff;
      }

      .cls-13 {
        fill: #e4c200;
      }

      .cls-14 {
        fill: #c11e29;
      }

      .cls-15 {
        fill: #52a8d0;
      }

      .cls-16 {
        fill: #333;
      }

      .cls-17 {
        fill: #dadada;
      }
    </style>
  </defs>
  <rect class="cls-4" width="950" height="750"/>
  <g>
    <rect class="cls-7" x="221.45" y="159.05" width="489.05" height="531.04" rx="9.51" ry="9.51" transform="translate(839.51 -83.24) rotate(84)"/>
    <g>
      <path class="cls-5" d="M232.34,213.55h445.94c5.52,0,10,4.48,10,10v216.9H222.83v-217.39c0-5.25,4.26-9.51,9.51-9.51Z" transform="translate(-31.69 49.41) rotate(-6)"/>
      <path class="cls-16" d="M265.93,658.33l443.99-46.67c5.22-.55,9.01-5.23,8.46-10.45l-19.52-185.71-462.9,48.65,19.52,185.71c.55,5.22,5.23,9.01,10.45,8.46Z"/>
      <path class="cls-7" d="M701.67,526.19l-33.41,3.51-.72-6.82,33.41-3.51.72,6.82ZM634.86,533.21l-33.41,3.51-.72-6.82,33.41-3.51.72,6.82ZM568.04,540.24l-33.41,3.51-.72-6.82,33.41-3.51.72,6.82ZM501.22,547.26l-33.41,3.51-.72-6.82,33.41-3.51.72,6.82ZM434.4,554.28l-33.41,3.51-.72-6.82,33.41-3.51.72,6.82ZM367.58,561.31l-33.41,3.51-.72-6.82,33.41-3.51.72,6.82ZM300.76,568.33l-33.41,3.51-.72-6.82,33.41-3.51.72,6.82Z"/>
      <g>
        <rect class="cls-6" x="362.86" y="322.12" width="10.63" height="10.13" transform="translate(-32.18 40.28) rotate(-6)"/>
        <rect class="cls-6" x="409.79" y="317.19" width="10.63" height="10.13" transform="translate(-31.41 45.16) rotate(-6)"/>
        <path class="cls-10" d="M449.4,342.73h162.35c7.07,0,12.81,5.74,12.81,12.81v120.6h-175.16v-133.41h0Z" transform="translate(-39.86 58.37) rotate(-6)"/>
        <path class="cls-10" d="M451.33,402.31l-133.99,22.1,9.06-58.94c2.85-18.53,17.83-32.81,36.47-34.77l64.58-6.79c8.55-.9,16.2,5.3,17.1,13.85l6.79,64.56Z"/>
        <path class="cls-10" d="M326.32,403.44h154.66v87.72h-171.57v-70.82c0-9.33,7.57-16.9,16.9-16.9Z" transform="translate(-44.59 43.76) rotate(-6)"/>
        <path class="cls-2" d="M320.66,447.79l-11.54,1.21,3.2,30.4,11.54-1.21c5.19-.55,8.95-5.19,8.4-10.38l-1.22-11.62c-.55-5.19-5.19-8.95-10.38-8.4Z"/>
        <rect class="cls-14" x="307.23" y="472.44" width="327.96" height="18.61" rx="8.59" ry="8.59" transform="translate(-47.77 51.89) rotate(-6)"/>
        <circle class="cls-6" cx="383.78" cy="487.56" r="37.19"/>
        <circle class="cls-11" cx="383.78" cy="487.56" r="15.56"/>
        <circle class="cls-6" cx="558.58" cy="469.19" r="37.19"/>
        <circle class="cls-11" cx="558.58" cy="469.19" r="15.56"/>
        <rect class="cls-1" x="400.34" y="341.04" width="35.44" height="59.59" rx="8.9" ry="8.9" transform="translate(-36.47 45.73) rotate(-6)"/>
        <path class="cls-1" d="M384.27,404.35l-38.68,4.07c-4.26.45-7.67-3.49-6.62-7.64l9.78-38.65c2.18-8.62,9.5-14.96,18.34-15.89l10.95-1.15c5.3-.56,10.04,3.29,10.6,8.58l4.21,40.09c.56,5.3-3.29,10.04-8.58,10.6Z"/>
        <rect class="cls-10" x="344.7" y="304.72" width="90.6" height="15.68" rx="7.24" ry="7.24" transform="translate(-30.53 42.48) rotate(-6)"/>
        <rect class="cls-15" x="378.4" y="304.83" width="21.02" height="15.68" transform="translate(-30.55 42.37) rotate(-6)"/>
        <g>
          <path class="cls-3" d="M619.01,335.12l-164.77,17.32c-2.2.23-4.16-1.36-4.39-3.56s1.36-4.16,3.56-4.39l164.77-17.32c2.2-.23,4.16,1.36,4.39,3.56s-1.36,4.16-3.56,4.39Z"/>
          <path class="cls-3" d="M615.33,300.14l-164.77,17.32c-2.2.23-4.16-1.36-4.39-3.56s1.36-4.16,3.56-4.39l164.77-17.32c2.2-.23,4.16,1.36,4.39,3.56s-1.36,4.16-3.56,4.39Z"/>
          <path class="cls-3" d="M466.51,349.81c-2.2.23-4.16-1.36-4.39-3.56l-3.54-33.66c-.23-2.2,1.36-4.16,3.56-4.39s4.16,1.36,4.39,3.56l3.54,33.66c.23,2.2-1.36,4.16-3.56,4.39Z"/>
          <path class="cls-3" d="M517.89,344.41c-2.2.23-4.16-1.36-4.39-3.56l-3.54-33.66c-.23-2.2,1.36-4.16,3.56-4.39s4.16,1.36,4.39,3.56l3.54,33.66c.23,2.2-1.36,4.16-3.56,4.39Z"/>
          <path class="cls-3" d="M492.2,347.11c-2.2.23-4.16-1.36-4.39-3.56l-3.54-33.66c-.23-2.2,1.36-4.16,3.56-4.39s4.16,1.36,4.39,3.56l3.54,33.66c.23,2.2-1.36,4.16-3.56,4.39Z"/>
          <path class="cls-3" d="M543.58,341.71c-2.2.23-4.16-1.36-4.39-3.56l-3.54-33.66c-.23-2.2,1.36-4.16,3.56-4.39,2.2-.23,4.16,1.36,4.39,3.56l3.54,33.66c.23,2.2-1.36,4.16-3.56,4.39Z"/>
          <path class="cls-3" d="M569.28,339.01c-2.2.23-4.16-1.36-4.39-3.56l-3.54-33.66c-.23-2.2,1.36-4.16,3.56-4.39,2.2-.23,4.16,1.36,4.39,3.56l3.54,33.66c.23,2.2-1.36,4.16-3.56,4.39Z"/>
          <path class="cls-3" d="M594.97,336.31c-2.2.23-4.16-1.36-4.39-3.56l-3.54-33.66c-.23-2.2,1.36-4.16,3.56-4.39s4.16,1.36,4.39,3.56l3.54,33.66c.23,2.2-1.36,4.16-3.56,4.39Z"/>
        </g>
        <g>
          <rect class="cls-2" x="602.33" y="385.34" width="8.2" height="23.81" transform="translate(-38.2 65.57) rotate(-6)"/>
          <g>
            <circle class="cls-2" cx="576.43" cy="389.13" r="33.09"/>
            <path class="cls-13" d="M598.38,409.85h-.04c-1.1.09-2.07-.72-2.16-1.82l-.29-3.65c-.36-4.61-.74-9.37-1.4-13.95-.72-5.02-2.14-8.8-4.35-11.57-4.34-5.44-11.78-7.63-18.98-5.6-6.52,1.85-10.88,6.72-11.65,13.05-.62,5.11,1.68,12.24,6.49,14.85,3.32,1.8,7.74,1.77,10.75-.06,1.6-.98,3.5-2.91,3.41-6.5-.05-2.1-.81-3.76-2.24-4.93-1.83-1.48-4.65-2.04-7.56-1.48-1.09.19-2.13-.51-2.33-1.6-.2-1.08.51-2.13,1.6-2.33,4.09-.75,8.04.07,10.81,2.31,2.36,1.91,3.64,4.65,3.73,7.93.11,4.29-1.78,7.84-5.32,10.01-4.24,2.59-10.16,2.66-14.75.17-6.37-3.46-9.35-12.3-8.55-18.84.98-7.98,6.41-14.12,14.53-16.41,8.74-2.48,17.85.26,23.19,6.96,2.66,3.34,4.36,7.75,5.18,13.49.68,4.71,1.06,9.53,1.42,14.2l.29,3.63c.09,1.09-.7,2.04-1.78,2.15Z"/>
            <path class="cls-17" d="M593.26,408.83l.54,5.1c.15,1.44,1.24,2.6,2.67,2.84l1.84.31c1.31.22,2.35,1.22,2.62,2.52l1.49,7.17c.34,1.62,1.85,2.72,3.49,2.55l1.31-.14c1.61-.17,2.85-1.51,2.88-3.13l.17-7.48c.03-1.31.84-2.46,2.06-2.93l1.94-.75c1.36-.52,2.2-1.89,2.05-3.34l-.53-5.08c-.19-1.77-1.77-3.05-3.54-2.87l-16.12,1.69c-1.77.19-3.05,1.77-2.87,3.54Z"/>
          </g>
        </g>
        <g>
          <g class="cls-9">
            <path class="cls-14" d="M506.25,373.9l-40.77,4.29c-2.15.23-4.08-1.34-4.31-3.49s1.34-4.08,3.49-4.31l40.77-4.29c2.15-.23,4.08,1.34,4.31,3.49s-1.34,4.08-3.49,4.31Z"/>
          </g>
          <g class="cls-9">
            <path class="cls-14" d="M508.41,394.46l-40.77,4.29c-2.15.23-4.08-1.34-4.31-3.49s1.34-4.08,3.49-4.31l40.77-4.29c2.15-.23,4.08,1.34,4.31,3.49s-1.34,4.08-3.49,4.31Z"/>
          </g>
          <g class="cls-9">
            <path class="cls-14" d="M510.57,415.02l-40.77,4.29c-2.15.23-4.08-1.34-4.31-3.49s1.34-4.08,3.49-4.31l40.77-4.29c2.15-.23,4.08,1.34,4.31,3.49s-1.34,4.08-3.49,4.31Z"/>
          </g>
          <g class="cls-9">
            <path class="cls-14" d="M512.73,435.58l-40.77,4.29c-2.15.23-4.08-1.34-4.31-3.49s1.34-4.08,3.49-4.31l40.77-4.29c2.15-.23,4.08,1.34,4.31,3.49s-1.34,4.08-3.49,4.31Z"/>
          </g>
        </g>
      </g>
    </g>
  </g>
  <g>
    <path class="cls-12" d="M334.18,100.82h-3.58v-6.53h3.58v-1.59c0-7.72,4.37-11.29,13.23-11.07v6.7c-3.86-.11-5.17,1.14-5.17,4.66v1.31h5.51v6.53h-5.51v24.92h-8.06v-24.92Z"/>
    <path class="cls-12" d="M350.63,85.89c0-2.61,2.04-4.65,4.88-4.65s4.88,2.04,4.88,4.65-2.1,4.65-4.88,4.65-4.88-2.04-4.88-4.65ZM351.48,94.3h7.95v31.45h-7.95v-31.45Z"/>
    <path class="cls-12" d="M373.78,125.74h-7.95v-31.45h7.95v4.88c1.99-3.23,5.28-5.33,9.65-5.33v8.34h-2.1c-4.71,0-7.55,1.82-7.55,7.89v15.67Z"/>
    <path class="cls-12" d="M401.08,126.25c-9.14,0-15.78-6.36-15.78-16.23s6.47-16.24,15.78-16.24,15.49,6.19,15.49,15.56c0,1.02-.06,2.04-.22,3.06h-22.99c.4,4.65,3.58,7.27,7.55,7.27,3.4,0,5.28-1.7,6.3-3.8h8.57c-1.7,5.79-6.93,10.39-14.7,10.39ZM393.41,107.07h14.93c-.11-4.14-3.41-6.76-7.49-6.76-3.81,0-6.81,2.44-7.44,6.76Z"/>
    <path class="cls-12" d="M446.75,126.25c-9.14,0-15.78-6.36-15.78-16.23s6.47-16.24,15.78-16.24,15.49,6.19,15.49,15.56c0,1.02-.06,2.04-.22,3.06h-22.99c.4,4.65,3.58,7.27,7.55,7.27,3.4,0,5.28-1.7,6.3-3.8h8.57c-1.7,5.79-6.93,10.39-14.7,10.39ZM439.08,107.07h14.93c-.11-4.14-3.41-6.76-7.49-6.76-3.81,0-6.81,2.44-7.44,6.76Z"/>
    <path class="cls-12" d="M488.62,108.37c0-5.05-2.79-7.78-6.98-7.78s-7.1,2.72-7.1,7.78v17.37h-7.95v-31.45h7.95v3.91c2.04-2.67,5.45-4.37,9.48-4.37,7.32,0,12.55,4.77,12.55,13.45v18.45h-7.95v-17.37Z"/>
    <path class="cls-12" d="M514.99,93.78c4.94,0,8.52,2.27,10.39,5v-4.48h8.01v31.67c0,8.52-5.22,15.27-15.55,15.27-8.86,0-15.05-4.43-15.84-11.64h7.89c.79,2.84,3.74,4.71,7.72,4.71,4.37,0,7.78-2.5,7.78-8.35v-4.88c-1.87,2.72-5.45,5.16-10.39,5.16-8,0-14.36-6.53-14.36-16.35s6.36-16.12,14.36-16.12ZM517.04,100.77c-4.25,0-8.29,3.18-8.29,9.14s4.03,9.37,8.29,9.37,8.35-3.29,8.35-9.25-3.97-9.25-8.35-9.25Z"/>
    <path class="cls-12" d="M538.87,85.89c0-2.61,2.04-4.65,4.88-4.65s4.88,2.04,4.88,4.65-2.1,4.65-4.88,4.65-4.88-2.04-4.88-4.65ZM539.73,94.3h7.95v31.45h-7.95v-31.45Z"/>
    <path class="cls-12" d="M576.11,108.37c0-5.05-2.79-7.78-6.98-7.78s-7.1,2.72-7.1,7.78v17.37h-7.95v-31.45h7.95v3.91c2.04-2.67,5.45-4.37,9.48-4.37,7.32,0,12.55,4.77,12.55,13.45v18.45h-7.95v-17.37Z"/>
    <path class="cls-12" d="M603.9,126.25c-9.14,0-15.78-6.36-15.78-16.23s6.47-16.24,15.78-16.24,15.49,6.19,15.49,15.56c0,1.02-.06,2.04-.22,3.06h-22.99c.4,4.65,3.58,7.27,7.55,7.27,3.4,0,5.28-1.7,6.3-3.8h8.57c-1.7,5.79-6.93,10.39-14.7,10.39ZM596.23,107.07h14.93c-.11-4.14-3.41-6.76-7.49-6.76-3.81,0-6.81,2.44-7.44,6.76Z"/>
  </g>
  <g>
    <path class="cls-8" d="M294.03,187.97h-13.08c-4.55,0-8.24,3.69-8.24,8.24v13.08"/>
    <path class="cls-8" d="M689.84,626.43h13.08c4.55,0,8.24-3.69,8.24-8.24v-13.08"/>
    <path class="cls-8" d="M711.17,209.3v-13.08c0-4.55-3.69-8.24-8.24-8.24h-13.08"/>
    <path class="cls-8" d="M272.71,605.11v13.08c0,4.55,3.69,8.24,8.24,8.24h13.08"/>
  </g>
</svg>