<?xml version="1.0" encoding="UTF-8"?>
<svg id="_图层_1" data-name="图层 1" xmlns="http://www.w3.org/2000/svg" xmlns:xlink="http://www.w3.org/1999/xlink" viewBox="0 0 950 750">
  <defs>
    <style>
      .cls-1, .cls-2, .cls-3, .cls-4 {
        fill: none;
      }

      .cls-5 {
        fill: #1a81c5;
      }

      .cls-6 {
        fill: #363c3c;
      }

      .cls-7 {
        fill: #58c8ff;
      }

      .cls-2 {
        stroke: #acff5d;
      }

      .cls-2, .cls-3, .cls-4 {
        stroke-linecap: round;
        stroke-miterlimit: 10;
        stroke-width: 20px;
      }

      .cls-8 {
        fill: #fff;
      }

      .cls-9 {
        fill: #ffd70f;
      }

      .cls-3 {
        stroke: #5cc8ff;
      }

      .cls-4 {
        stroke: #00d6a3;
      }

      .cls-10 {
        clip-path: url(#clippath);
      }
    </style>
    <clipPath id="clippath">
      <rect class="cls-1" x="193.99" y="-860.12" width="562.03" height="562.03"/>
    </clipPath>
  </defs>
  <rect class="cls-7" width="950" height="750" transform="translate(950 750) rotate(180)"/>
  <g class="cls-10">
    <g>
      <rect class="cls-8" x="383.14" y="-311.09" width="66.81" height="487.53"/>
      <path class="cls-6" d="M363.72,121.58h91.59c3.23,0,5.85-2.62,5.85-5.85v-496.03s-103.29,0-103.29,0V115.73c0,3.23,2.62,5.85,5.85,5.85Z"/>
      <path class="cls-5" d="M364.92,165.44h90.05c3.41,0,6.19,2.77,6.19,6.19v36.51c0,3.41-2.77,6.19-6.19,6.19h-119.19c-3.35,0-6.06-2.72-6.06-6.06v-7.62c0-19.43,15.77-35.2,35.2-35.2Z"/>
      <polyline class="cls-6" points="383.14 134.3 383.14 126.75 449.95 126.75 449.95 134.3"/>
      <rect class="cls-6" x="383.14" y="139.73" width="66.81" height="7.55"/>
      <rect class="cls-8" x="482.92" y="-311.09" width="66.81" height="487.53" transform="translate(1032.64 -134.66) rotate(-180)"/>
      <path class="cls-6" d="M569.15,121.58h-91.59c-3.23,0-5.85-2.62-5.85-5.85v-496.03h103.29V115.73c0,3.23-2.62,5.85-5.85,5.85Z"/>
      <path class="cls-5" d="M477.77,165.44h119.19c3.41,0,6.19,2.77,6.19,6.19v36.51c0,3.41-2.77,6.19-6.19,6.19h-90.05c-19.43,0-35.2-15.77-35.2-35.2v-7.62c0-3.35,2.72-6.06,6.06-6.06Z" transform="translate(1074.86 379.76) rotate(-180)"/>
      <polyline class="cls-6" points="549.73 134.3 549.73 126.75 482.92 126.75 482.92 134.3"/>
      <rect class="cls-6" x="482.92" y="139.73" width="66.81" height="7.55"/>
    </g>
  </g>
  <g>
    <path class="cls-9" d="M569.4,596.09l-281.61,24.64c-24.39,2.13-45.89-15.91-48.03-40.3l-32.6-372.66c-2.13-24.39,15.91-45.89,40.3-48.03l255.12-22.32c30.01,25.18,46.83,39.29,76.83,64.47l30.29,346.17c2.13,24.39-15.91,45.89-40.3,48.03Z"/>
    <g>
      <path class="cls-8" d="M337.79,326.52l-5.41-11.18-37.48,3.28-3.37,12.21c-1.32,4.76-2.51,8-3.58,9.72-1.08,1.72-3,2.7-5.76,2.94-2.35.21-4.5-.47-6.45-2.03-1.95-1.56-3.02-3.43-3.22-5.61-.11-1.26-.01-2.58.29-3.95.3-1.38.83-3.3,1.59-5.78l18.34-61.93c.52-1.78,1.15-3.91,1.88-6.41.73-2.49,1.56-4.58,2.49-6.27.93-1.69,2.22-3.1,3.87-4.24,1.65-1.14,3.76-1.82,6.32-2.04,2.6-.23,4.81.08,6.64.91,1.83.83,3.34,1.98,4.55,3.44,1.2,1.46,2.25,3.04,3.14,4.76.89,1.72,2.03,4.02,3.42,6.89l29.29,57.38c2.28,4.36,3.51,7.57,3.69,9.62.19,2.14-.53,4.18-2.16,6.11-1.63,1.94-3.7,3.02-6.21,3.24-1.47.13-2.75-.02-3.84-.46-1.09-.43-2.04-1.07-2.83-1.91-.79-.84-1.68-2.16-2.66-3.95-.98-1.79-1.83-3.38-2.54-4.75ZM298.58,304.16l27.54-2.41-17.23-36.83-10.32,39.24Z"/>
      <path class="cls-8" d="M411.71,330.57l-28.17,2.46c-4.07.36-7.05-.3-8.95-1.97-1.9-1.67-3.02-4.5-3.37-8.48l-6.06-69.3c-.36-4.07.28-7.07,1.9-9,1.63-1.94,4.43-3.08,8.41-3.43l29.87-2.61c4.4-.38,8.24-.45,11.52-.18s6.26,1.06,8.95,2.38c2.29,1.11,4.37,2.59,6.22,4.43,1.85,1.85,3.32,3.93,4.41,6.27,1.09,2.33,1.75,4.84,1.99,7.53.81,9.22-3.21,16.37-12.06,21.46,12.45,2.8,19.17,9.77,20.14,20.92.45,5.16-.46,9.92-2.74,14.28-2.28,4.36-5.58,7.72-9.89,10.08-2.71,1.42-5.86,2.53-9.47,3.33-3.6.8-7.84,1.42-12.7,1.84ZM384.06,254.23l2.09,23.83,17.1-1.5c4.65-.41,8.21-1.16,10.67-2.26,2.46-1.1,4.25-2.95,5.38-5.54.89-1.85,1.25-3.87,1.06-6.05-.41-4.65-2.33-7.6-5.78-8.84-3.45-1.24-8.56-1.56-15.36-.97l-15.15,1.33ZM406.75,289.75l-19.43,1.7,2.35,26.91,20.06-1.75c12.62-1.1,18.53-6.2,17.73-15.3-.41-4.65-2.34-7.88-5.79-9.7-3.45-1.81-8.43-2.43-14.93-1.86Z"/>
      <path class="cls-8" d="M540.96,289.92c.26,2.94-.19,6.17-1.34,9.72-1.15,3.54-3.13,7.1-5.94,10.66-2.82,3.56-6.54,6.58-11.18,9.06-4.64,2.48-10.17,3.99-16.58,4.55-4.86.43-9.33.35-13.39-.22-4.06-.57-7.81-1.69-11.22-3.36-3.42-1.67-6.63-3.97-9.63-6.92-2.68-2.68-5.04-5.74-7.08-9.17-2.03-3.43-3.66-7.15-4.87-11.14-1.22-3.99-2.02-8.27-2.42-12.84-.65-7.42-.15-14.16,1.49-20.22,1.64-6.06,4.3-11.35,7.96-15.87,3.66-4.52,8.1-8.11,13.31-10.76,5.22-2.65,10.89-4.25,17.01-4.78,7.46-.65,14.24.25,20.32,2.72,6.09,2.47,10.87,5.75,14.36,9.86,3.49,4.11,5.4,8.11,5.74,12.01.19,2.14-.4,4.09-1.77,5.86s-3.12,2.74-5.26,2.93c-2.39.21-4.23-.2-5.52-1.23-1.29-1.03-2.8-2.86-4.5-5.5-2.83-4.36-5.99-7.52-9.48-9.5-3.49-1.98-7.64-2.75-12.46-2.33-7.67.67-13.53,4.12-17.57,10.34-4.04,6.23-5.59,14.71-4.65,25.44.63,7.17,2.16,13.04,4.58,17.62,2.43,4.58,5.59,7.89,9.48,9.91,3.89,2.03,8.31,2.82,13.26,2.39,5.37-.47,9.79-2.2,13.26-5.18,3.48-2.99,5.93-7.14,7.37-12.46.58-2.5,1.4-4.57,2.44-6.2,1.04-1.63,2.86-2.56,5.46-2.79,2.22-.19,4.2.42,5.93,1.83,1.73,1.41,2.69,3.27,2.9,5.58Z"/>
    </g>
    <path class="cls-8" d="M579.32,200.79l-25.43,2.23c-24.36,2.13-45.84-15.89-47.97-40.25l-2.23-25.43,75.63,63.46Z"/>
  </g>
  <path class="cls-8" d="M719.52,360.18h-264.52c-57.39,0-103.92,46.53-103.92,103.92h0c0,57.39,46.53,103.92,103.92,103.92h176.98c24.46,43.68,72.18,47.62,72.18,47.62-17.87-11.49-22.46-33.95-23.53-47.62h38.9c57.39,0,103.92-46.53,103.92-103.92h0c0-57.39-46.53-103.92-103.92-103.92Z"/>
  <g>
    <line class="cls-4" x1="635.96" y1="436.72" x2="635.96" y2="498.63"/>
    <line class="cls-4" x1="671.08" y1="448.31" x2="671.08" y2="487.04"/>
    <line class="cls-3" x1="565.71" y1="425.12" x2="565.71" y2="510.24"/>
    <line class="cls-4" x1="706.2" y1="429.17" x2="706.2" y2="506.19"/>
    <line class="cls-3" x1="530.59" y1="436.72" x2="530.59" y2="498.63"/>
    <line class="cls-2" x1="460.35" y1="448.31" x2="460.35" y2="487.04"/>
    <line class="cls-2" x1="495.47" y1="425.12" x2="495.47" y2="510.24"/>
    <line class="cls-3" x1="600.84" y1="412.49" x2="600.84" y2="522.86"/>
  </g>
</svg>