<?xml version="1.0" encoding="UTF-8"?>
<svg id="_图层_1" data-name="图层 1" xmlns="http://www.w3.org/2000/svg" viewBox="0 0 950 750">
  <defs>
    <style>
      .cls-1 {
        fill: #54ff8d;
      }

      .cls-2 {
        fill: #00d6a3;
      }

      .cls-3 {
        fill: #8d80ff;
      }

      .cls-4 {
        fill: #fa5f7a;
      }

      .cls-5 {
        opacity: .1;
        stroke-miterlimit: 10;
        stroke-width: 130px;
      }

      .cls-5, .cls-6 {
        fill: none;
        stroke: #fff;
      }

      .cls-6 {
        stroke-linecap: round;
        stroke-linejoin: round;
        stroke-width: 16px;
      }

      .cls-7 {
        fill: #ffd70f;
      }
    </style>
  </defs>
  <rect class="cls-2" x="2.5" y="0" width="950" height="750" transform="translate(954.99 750) rotate(180)"/>
  <line class="cls-6" x1="486.59" y1="290.4" x2="691.06" y2="350.66"/>
  <line class="cls-6" x1="469.46" y1="290.4" x2="265" y2="350.66"/>
  <path class="cls-5" d="M632.3,545.56c-51.93,11.5-103.32,8.97-157.43,9.62-31.92-.07-64.11.06-95.85-1.92-56.21-2.84-108.23-16.88-142.74-61.3-47.73-58.99-51.83-149.92-13.36-214.87,26.76-44.76,68.44-69.73,121.1-76.74,44.62-6.36,90.37-5.23,135.62-5.53,55.14.74,111.88-2.14,163.9,12.68,38.41,11.01,70.11,37.57,89.94,72.02,54.98,95.77,16.02,240.51-101,266.01l-.18.04Z"/>
  <line class="cls-6" x1="478.03" y1="246.69" x2="478.03" y2="408.05"/>
  <line class="cls-6" x1="467.12" y1="446.26" x2="435.47" y2="510.13"/>
  <line class="cls-6" x1="488.87" y1="446.26" x2="520.53" y2="510.13"/>
  <line class="cls-6" x1="680.18" y1="369.09" x2="648.53" y2="432.96"/>
  <line class="cls-6" x1="701.93" y1="369.09" x2="733.58" y2="432.96"/>
  <path class="cls-4" d="M502.25,409.97c-11.86-16.82-38.07-16.16-49.24,1.05-11.57,17.16-2.02,41.3,18.15,45.93,27.15,6.3,47.12-24.27,31.19-46.84l-.1-.14Z"/>
  <path class="cls-3" d="M540.86,507c-16.36-9.24-36.28,4.9-33.33,23.35,2.26,15.45,20.02,24.04,33.49,16.05,15.09-8.53,15.15-30.83-.01-39.32l-.15-.08Z"/>
  <path class="cls-1" d="M441.57,510.02c-10.43-9.89-28.44-6.86-35.14,5.83-9.71,18.05,7.45,38.83,26.99,32.5,16.29-5.27,20.79-26.68,8.27-38.22l-.12-.12Z"/>
  <path class="cls-1" d="M719.12,329.54c-16.68-22.62-51.87-16.43-61.03,9.81-6.21,16.71,2.31,36.79,18.94,43.47,32.58,13.6,63.01-24.42,42.22-53.12l-.12-.16Z"/>
  <path class="cls-4" d="M654.12,432.35c-10.66-9.54-28.73-5.93-35,6.92-9.21,18.39,8.7,38.64,28.06,31.65,16.06-5.72,19.91-27.4,7.06-38.45l-.13-.11Z"/>
  <path class="cls-7" d="M760.45,435.33c-11.05-14.09-34.13-9.53-39.23,7.56-4.93,15.69,8.42,31.46,24.71,29.14,17.26-2.25,25.43-23.05,14.63-36.57l-.11-.13Z"/>
  <path class="cls-7" d="M519.49,194.69c-22.16-30.07-67.48-27.46-87.13,3.98-12.19,18.93-10.52,45.46,4.38,62.43,18.24,21.8,52.91,24.38,74.21,5.56,20.9-17.24,25.34-50.17,8.63-71.85l-.09-.13Z"/>
  <polyline class="cls-6" points="458.89 230.67 474.99 244.9 495.83 217.11"/>
  <line class="cls-6" x1="258.83" y1="369.09" x2="227.18" y2="432.96"/>
  <line class="cls-6" x1="280.59" y1="369.09" x2="312.24" y2="432.96"/>
  <path class="cls-7" d="M297.77,329.54c-16.68-22.62-51.87-16.43-61.03,9.81-6.21,16.71,2.31,36.79,18.94,43.47,32.58,13.6,63.01-24.42,42.22-53.12l-.12-.16Z"/>
  <path class="cls-3" d="M232.78,432.35c-10.66-9.54-28.73-5.93-35,6.92-9.21,18.39,8.7,38.64,28.06,31.65,16.06-5.72,19.91-27.4,7.06-38.45l-.13-.11Z"/>
  <path class="cls-7" d="M339.11,435.33c-11.05-14.09-34.13-9.53-39.23,7.56-4.93,15.69,8.42,31.46,24.71,29.14,17.26-2.25,25.43-23.05,14.63-36.57l-.11-.13Z"/>
</svg>