<?xml version="1.0" encoding="UTF-8"?>
<svg id="_图层_1" data-name="图层_1" xmlns="http://www.w3.org/2000/svg" version="1.1" viewBox="0 0 950 750">
  <!-- Generator: Adobe Illustrator 30.3.0, SVG Export Plug-In . SVG Version: 2.1.3 Build 182)  -->
  <defs>
    <style>
      .st0 {
        fill: none;
      }

      .st1 {
        fill: #ff8874;
      }

      .st2 {
        fill: #ffb3b4;
      }

      .st3 {
        opacity: .1;
        stroke: #fffaf1;
        stroke-linecap: round;
        stroke-linejoin: round;
        stroke-width: 23px;
      }

      .st3, .st4 {
        fill: #fffaf1;
      }

      .st5 {
        fill: #432626;
      }

      .st6 {
        fill: #ffc9ca;
      }

      .st7 {
        fill: #fbec00;
      }

      .st8 {
        fill: #00e752;
      }

      .st9 {
        fill: #ffefca;
      }

      .st10 {
        fill: #ff5601;
      }
    </style>
  </defs>
  <rect class="st10" y="0" width="950" height="750"/>
  <g>
    <path class="st3" d="M575.4,230.9h-259.7c-47.5,0-86.1,38.5-86.1,86.1v7.5c0,47.5,38.5,86.1,86.1,86.1h154.4l39.9,29.4v-29.4h65.5c47.5,0,86.1-38.5,86.1-86.1v-7.5c0-47.5-38.5-86.1-86.1-86.1Z"/>
    <g>
      <path class="st7" d="M200.3,248.7c-4.6,0-8.3-3.7-8.3-8.3v-18.6c0-4.6,3.7-8.3,8.3-8.3h19.2c4.6,0,8.3,3.7,8.3,8.3s-3.7,8.3-8.3,8.3h-10.9v10.3c0,4.6-3.7,8.3-8.3,8.3Z"/>
      <path class="st7" d="M687.7,248.9c-4.6,0-8.3-3.7-8.3-8.3v-10.3h-10.9c-4.6,0-8.3-3.7-8.3-8.3s3.7-8.3,8.3-8.3h19.2c4.6,0,8.3,3.7,8.3,8.3v18.6c0,4.6-3.7,8.3-8.3,8.3Z"/>
      <path class="st7" d="M219.5,427.9h-19.2c-4.6,0-8.3-3.7-8.3-8.3v-18.6c0-4.6,3.7-8.3,8.3-8.3s8.3,3.7,8.3,8.3v10.3h10.9c4.6,0,8.3,3.7,8.3,8.3s-3.7,8.3-8.3,8.3Z"/>
      <path class="st7" d="M687.7,428.1h-19.2c-4.6,0-8.3-3.7-8.3-8.3s3.7-8.3,8.3-8.3h10.9v-10.3c0-4.6,3.7-8.3,8.3-8.3s8.3,3.7,8.3,8.3v18.6c0,4.6-3.7,8.3-8.3,8.3Z"/>
    </g>
    <g>
      <path class="st6" d="M278.6,664.9l2-13.1c.4-2.5-.7-5-2.8-6.4-6.3-4.5-19.4-16.4-22.3-40.6-3.8-32.1-1.1-54,23.4-51.4,0,0,8.7-12.8,24.6-7.6,0,0,8.7-14,23.8-7.9v-45.7c0-8.8,7.1-15.9,15.9-15.9h0c8.6,0,15.6,6.9,15.9,15.5.4,17.2,1.2,43.3,1.9,49.8,1.1,9.9,5.7,13,14,24.7,8.3,11.7,9.1,25.7,0,41.2s-32.5,31.3-42,38.2c-2.3,1.7-3.7,4.4-3.6,7.2l.3,14.7-51-2.6Z"/>
      <path class="st9" d="M711.8,753.8c-5.3-6.1-11-11.7-17.1-16.5-43.1-34.2-81.5-52.2-97.7-59.1-5.4-2.3-10-6.3-12.8-11.5l-9.7-17.7c-1.9-3.4-5.4-5.5-9.3-5.5h-53c-5.3,0-9.8,4-10.5,9.2l-.6,4.9c-.5,3.7-2.7,7-6.1,8.8-21.2,11.2-100.8,52.9-124.4,65.3-3.4,1.8-7.6,0-8.6-3.8l-16.2-60.5c-1.5-5.7-6.7-9.6-12.6-9.5l-60.3.8c-7.2,0-13,6.2-12.6,13.4l3.5,81.7h448.1Z"/>
      <path class="st2" d="M309.2,581.4s13,7.9,33.2,2.8l-27.6,30.2-5.7-33.1Z"/>
      <path class="st6" d="M639,575.6c.3-3.2.5-6.4.5-9.7,0-52-42.2-94.2-94.2-94.2s-94.2,42.2-94.2,94.2,42.2,94.2,94.2,94.2,58.2-14.8,75.4-37.8c2.2.7,4.6,1,7.1,1,13.9,0,25.2-11.3,25.2-25.2s-5.7-18.4-14-22.6Z"/>
      <path class="st1" d="M554.3,605.8c-1.6,12.2-12.8,20.7-25,19.1s-20.7-12.8-19.1-25c1.6-12.2,10.3-15.6,22.5-14,12.2,1.6,23.2,7.7,21.6,19.8Z"/>
      <path class="st5" d="M545.3,523.4c22.7,39.5,73.5,46.3,93.7,51.6.3-3,.4-6,.4-9.1,0-52-42.2-94.2-94.2-94.2s-94.2,42.2-94.2,94.2c58.9-10.3,94.2-42.6,94.2-42.6Z"/>
      <rect class="st5" x="516.6" y="552.7" width="11.6" height="20.3" rx="5.8" ry="5.8" transform="translate(78.4 -63.7) rotate(7.5)"/>
      <rect class="st5" x="548.6" y="558.2" width="11.6" height="20.3" rx="5.8" ry="5.8" transform="translate(79.4 -67.9) rotate(7.5)"/>
    </g>
    <g id="_矩形_3207" data-name="矩形_3207">
      <rect class="st0" y="164.8" width="950" height="589"/>
    </g>
    <rect class="st4" x="229.5" y="230.9" width="431.9" height="179.6" rx="86.1" ry="86.1"/>
    <polyline class="st4" points="451.3 396.7 509.9 439.9 509.9 372.7"/>
    <g>
      <g>
        <path class="st8" d="M343.5,353.6c-3.7,0-6.8-3-6.8-6.8v-52.4c0-3.7,3-6.8,6.8-6.8s6.8,3,6.8,6.8v52.4c0,3.7-3,6.8-6.8,6.8Z"/>
        <path class="st8" d="M320.6,340c-3.7,0-6.8-3-6.8-6.8v-25.1c0-3.7,3-6.8,6.8-6.8s6.8,3,6.8,6.8v25.1c0,3.7-3,6.8-6.8,6.8Z"/>
        <path class="st8" d="M366.4,340c-3.7,0-6.8-3-6.8-6.8v-25.1c0-3.7,3-6.8,6.8-6.8s6.8,3,6.8,6.8v25.1c0,3.7-3,6.8-6.8,6.8Z"/>
      </g>
      <g>
        <path class="st8" d="M559.2,343.7c-3.7,0-6.8-3-6.8-6.8v-32.6c0-3.7,3-6.8,6.8-6.8s6.8,3,6.8,6.8v32.6c0,3.7-3,6.8-6.8,6.8Z"/>
        <path class="st8" d="M536.3,350c-3.7,0-6.8-3-6.8-6.8v-45.2c0-3.7,3-6.8,6.8-6.8s6.8,3,6.8,6.8v45.2c0,3.7-3,6.8-6.8,6.8Z"/>
        <path class="st8" d="M582.1,340c-3.7,0-6.8-3-6.8-6.8v-25.1c0-3.7,3-6.8,6.8-6.8s6.8,3,6.8,6.8v25.1c0,3.7-3,6.8-6.8,6.8Z"/>
      </g>
      <g>
        <path class="st8" d="M414.8,370c-3.7,0-6.8-3-6.8-6.8v-85.1c0-3.7,3-6.8,6.8-6.8s6.8,3,6.8,6.8v85.1c0,3.7-3,6.8-6.8,6.8Z"/>
        <path class="st8" d="M391.9,340c-3.7,0-6.8-3-6.8-6.8v-25.1c0-3.7,3-6.8,6.8-6.8s6.8,3,6.8,6.8v25.1c0,3.7-3,6.8-6.8,6.8Z"/>
        <path class="st8" d="M437.7,347.8c-3.7,0-6.8-3-6.8-6.8v-40.8c0-3.7,3-6.8,6.8-6.8s6.8,3,6.8,6.8v40.8c0,3.7-3,6.8-6.8,6.8Z"/>
      </g>
      <g>
        <path class="st8" d="M488.2,353.6c-3.7,0-6.8-3-6.8-6.8v-52.4c0-3.7,3-6.8,6.8-6.8s6.8,3,6.8,6.8v52.4c0,3.7-3,6.8-6.8,6.8Z"/>
        <path class="st8" d="M465.3,340c-3.7,0-6.8-3-6.8-6.8v-25.1c0-3.7,3-6.8,6.8-6.8s6.8,3,6.8,6.8v25.1c0,3.7-3,6.8-6.8,6.8Z"/>
        <path class="st8" d="M511.1,340c-3.7,0-6.8-3-6.8-6.8v-25.1c0-3.7,3-6.8,6.8-6.8s6.8,3,6.8,6.8v25.1c0,3.7-3,6.8-6.8,6.8Z"/>
      </g>
    </g>
  </g>
</svg>