<?xml version="1.0" encoding="UTF-8"?>
<svg id="_图层_1" data-name="图层 1" xmlns="http://www.w3.org/2000/svg" viewBox="0 0 950 750">
  <defs>
    <style>
      .cls-1 {
        fill: #ff9119;
      }

      .cls-2 {
        fill: none;
        stroke: #ffe4c7;
        stroke-miterlimit: 10;
      }

      .cls-3 {
        fill: #fff;
      }

      .cls-4 {
        fill: #ff9d33;
      }

      .cls-5 {
        opacity: .15;
      }

      .cls-6 {
        fill: #ffa849;
      }

      .cls-7 {
        fill: #fbec00;
      }
    </style>
  </defs>
  <rect class="cls-6" width="950" height="750" transform="translate(950 750) rotate(180)"/>
  <g>
    <g id="_矩形_3207" data-name="矩形 3207">
      <g class="cls-5">
        <path class="cls-1" d="M579.12,429.57c-10.33-51.19-24.21-103.52-35.36-145.56-.59-2.21-1.13-4.44-1.68-6.67-2.19-8.91-4.68-19.01-9.71-28.72-7.91-15.25-21.85-22.44-38.23-19.73-16.53,2.74-27.61,13.98-30.4,30.85-.15.88-.26,1.75-.36,2.6-.5-1.43-.98-2.86-1.47-4.3-2.83-8.36-5.76-17.01-10.53-25.61-9.24-16.66-25.96-24.58-42.6-20.18-18.46,4.88-29.57,19.25-29.72,38.44-.04,5.11.47,9.67,1.56,13.91-1.39-2.75-2.79-5.51-4.19-8.26-2.87-5.64-7.66-13.9-15.98-20.53-12.43-9.9-27.42-11.86-41.12-5.38-13.61,6.44-21.87,19.1-22.68,34.74-.41,8,1.27,15.86,5.27,24.72-4.01-4.22-8.87-8.1-14.99-10.99-13.46-6.33-27.32-5.41-39.01,2.59-12.5,8.55-18.56,21.57-17.04,36.66.76,7.58,3.03,14.58,6.76,20.79,9.14,15.24,18.49,30.67,27.54,45.59,4.21,6.94,8.41,13.88,12.61,20.82l23.97,39.64c7.78,12.87,15.56,25.74,23.34,38.61-10.82-2.47-21.92-4.98-32.9-7.37-13.36-2.91-24.55-2.89-35.21.05-11.22,3.09-20.47,11.11-25.39,22-4.85,10.74-4.76,22.79.24,33.06,6.41,13.15,17.07,20.1,27.44,26.1,13.5,7.8,27.55,13.64,41.13,19.28,4.19,1.74,8.38,3.48,12.55,5.28,5.62,2.42,11.22,4.89,16.83,7.35,22.18,9.76,45.11,19.85,69.2,27.3,15.4,4.76,29.53,7.09,43.09,7.09.89,0,1.77,0,2.66-.03,21.17-.48,41.96-6.19,65.37-17.98,45.02-20.03,70.71-56.82,74.31-106.43,1.56-21.56-.17-44.37-5.29-69.73ZM549.1,496.75c-2.67,36.9-20.24,62.02-53.72,76.79l-.84.4c-18.7,9.46-34.78,14.03-50.61,14.38-10.49.24-21.78-1.56-34.49-5.49-22.15-6.85-43.16-16.09-65.4-25.88-5.68-2.5-11.37-5-17.07-7.46-4.31-1.86-8.65-3.66-12.99-5.46-13.11-5.44-25.5-10.59-36.99-17.23-7.39-4.27-11.48-7.14-13.34-10.97-.55-1.13.01-2.57.2-2.98.43-.96,1.33-2.11,2.53-2.44,2.28-.63,4.7-.94,7.37-.94,3.19,0,6.76.45,10.93,1.36,12.28,2.67,24.78,5.52,36.87,8.27,5.4,1.23,10.8,2.46,16.19,3.68l.73.17c1.44.33,3.22.75,5.31,1.01,10.03,1.25,19.43-3.19,24.52-11.6,4.87-8.05,4.76-17.86-.3-26.23-11.99-19.81-23.97-39.63-35.96-59.45l-23.97-39.64c-4.21-6.95-8.42-13.9-12.63-20.85-9.02-14.88-18.36-30.27-27.45-45.44-1.02-1.71-1.66-3.77-1.9-6.12-.21-2.14.06-2.72,1.81-3.92.86-.58,1.42-.97,3.96.22,2.97,1.4,5.64,4.2,9.5,10,16.78,25.19,33.58,50.36,50.39,75.53,2.27,3.4,4.55,6.79,6.83,10.18,3.46,5.14,6.91,10.29,10.33,15.46,7.58,11.46,20.88,14.83,32.33,8.21,12.93-7.47,13.93-21.27,9.18-31.64-2.82-6.17-5.63-12.35-8.43-18.54-2.47-5.45-4.93-10.89-7.42-16.33-4.46-9.76-8.92-19.52-13.38-29.27-9.02-19.72-18.04-39.43-27-59.17-1.62-3.56-2.32-6.23-2.2-8.39.18-3.48,1.19-3.95,2.46-4.56,1.05-.5,1.63-.77,3.94,1.07,2.27,1.81,4.27,4.56,6.49,8.91,4.29,8.41,8.52,16.86,12.75,25.3,6.97,13.91,14.17,28.29,21.56,42.37,7.26,13.84,14.37,28.15,21.24,41.98l4.7,9.44c.9,1.8,1.9,3.51,2.99,5.1,7.35,10.68,19.67,14.28,30.67,8.96,11.2-5.42,16.14-17.45,12.3-29.94l-5.42-17.61c-5.7-18.5-11.6-37.63-17.3-56.45-3.44-11.35-6.83-22.97-10.11-34.22l-3.29-11.28c-.37-1.26-.54-2.93-.52-5.1.03-3.43.4-3.7,3.32-4.47.42.21,1.5,1.06,2.65,3.12,3.22,5.81,5.52,12.6,7.96,19.8.76,2.25,1.53,4.5,2.32,6.74,5.41,15.25,10.78,30.85,15.97,45.94,2.48,7.21,4.96,14.42,7.46,21.62,1.74,5.04,3.5,10.07,5.26,15.1,2.34,6.69,4.68,13.39,6.98,20.09,5.56,16.17,19.34,20.23,29.79,17.15,15.13-4.45,18.61-18.24,16.99-28.71-4.57-29.6-9.12-59.19-13.62-88.82-.78-5.11-1.45-9.52-.87-12.99.12-.71.25-1.2.35-1.51.22-.06.52-.13.92-.2.13-.02.24-.04.35-.05.18.26.41.64.67,1.15,3.09,5.97,4.88,13.22,6.76,20.89.6,2.43,1.2,4.87,1.84,7.29,11.03,41.59,24.76,93.35,34.87,143.49h0c4.47,22.18,6.01,41.86,4.68,60.18Z"/>
      </g>
    </g>
    <g>
      <path class="cls-1" d="M206.92,266.2c-5.07.88-9.9-2.51-10.78-7.59l-3.56-20.5c-.88-5.07,2.51-9.9,7.59-10.78l21.18-3.68c5.07-.88,9.9,2.51,10.78,7.59.88,5.07-2.51,9.9-7.59,10.78l-11.99,2.09,1.97,11.31c.88,5.07-2.51,9.9-7.59,10.78Z"/>
      <path class="cls-1" d="M556.06,205.75c-5.07.88-9.9-2.51-10.78-7.59l-1.97-11.31-11.99,2.08c-5.07.88-9.9-2.51-10.78-7.59-.88-5.07,2.51-9.9,7.59-10.78l21.18-3.68c5.07-.88,9.9,2.51,10.78,7.59l3.56,20.5c.88,5.07-2.51,9.9-7.59,10.78Z"/>
      <path class="cls-1" d="M294.78,677.88l-21.18,3.68c-5.07.88-9.9-2.51-10.78-7.59l-3.56-20.5c-.88-5.07,2.51-9.9,7.59-10.78,5.07-.88,9.9,2.51,10.78,7.59l1.97,11.31,11.99-2.09c5.07-.88,9.9,2.51,10.78,7.59.88,5.07-2.51,9.9-7.59,10.78Z"/>
      <path class="cls-1" d="M622.74,621.1l-21.18,3.68c-5.07.88-9.9-2.51-10.78-7.59s2.51-9.9,7.59-10.78l11.99-2.08-1.97-11.31c-.88-5.07,2.51-9.9,7.59-10.78,5.07-.88,9.9,2.51,10.78,7.59l3.56,20.5c.88,5.07-2.51,9.9-7.59,10.78Z"/>
    </g>
    <g>
      <path class="cls-1" d="M502.53,589.74c-18.66,9.44-37.6,15.82-58.2,16.28-13.76.31-27.07-2.24-40.12-6.27-29.03-8.98-56.43-22.01-84.25-34-17.44-7.52-35.32-14.08-51.83-23.62-8.13-4.7-16.08-9.68-20.39-18.53-5.74-11.77,1.29-26.76,13.94-30.24,8.96-2.47,17.9-1.75,26.76.18,17.76,3.86,35.47,7.98,53.21,11.99,1.44.32,2.87.7,4.33.88,3.01.38,5.61-.58,7.19-3.2,1.57-2.59,1.28-5.27-.3-7.9-19.99-33.02-39.95-66.07-59.93-99.09-13.38-22.11-26.83-44.18-40.12-66.35-2.45-4.08-3.85-8.66-4.33-13.45-.86-8.62,2.36-15.46,9.43-20.3,6.83-4.67,14.13-4.64,21.49-1.18,7.41,3.48,12.29,9.59,16.7,16.21,16.78,25.18,33.58,50.35,50.38,75.52,5.72,8.57,11.51,17.1,17.2,25.69,2.23,3.36,5.03,4.79,8.72,2.66,3.76-2.17,3.57-5.42,1.95-8.95-5.31-11.61-10.55-23.26-15.85-34.88-13.47-29.49-26.99-58.96-40.4-88.48-2.37-5.23-4.07-10.72-3.76-16.62.46-8.95,4.52-15.84,12.57-19.65,7.96-3.77,15.62-2.27,22.53,3.22,4.99,3.98,8.41,9.17,11.24,14.72,11.45,22.47,22.5,45.15,34.21,67.48,8.98,17.12,17.49,34.46,26.11,51.76.51,1.02,1.09,2.02,1.73,2.96,2.06,3,4.85,4.76,8.38,3.05,3.66-1.77,4.24-5.07,3.09-8.81-7.6-24.7-15.25-49.4-22.75-74.13-4.61-15.18-8.99-30.43-13.45-45.66-.97-3.32-1.26-6.75-1.24-10.21.09-11.29,5.73-18.61,16.54-21.46,8.74-2.31,17.34,2.17,22.6,11.66,5.12,9.23,7.99,19.35,11.48,29.21,7.98,22.51,15.65,45.12,23.47,67.69,4.07,11.75,8.21,23.47,12.25,35.22,1.6,4.65,4.46,6.99,8.06,5.93,4.59-1.35,5.13-4.89,4.5-9.03-4.57-29.61-9.12-59.22-13.62-88.84-.94-6.15-1.88-12.31-.84-18.57,1.57-9.49,6.67-14.76,15.84-16.28,8.79-1.46,15.21,1.89,19.63,10.41,5.18,10,7.15,21.05,10,31.78,12.71,47.93,25.3,95.9,35.12,144.53,4.32,21.42,6.57,43.07,4.99,64.95-3.15,43.59-24.73,74.28-64.23,91.71Z"/>
      <path class="cls-1" d="M387.95,467.3s64.43-8.71,89.62,41.46"/>
    </g>
  </g>
  <g>
    <g id="_矩形_3207-2" data-name="矩形 3207">
      <g class="cls-5">
        <path class="cls-4" d="M633.59,387.05c-10.33-51.19-24.21-103.52-35.36-145.56-.59-2.21-1.13-4.44-1.68-6.67-2.19-8.91-4.68-19.01-9.71-28.72-7.91-15.25-21.85-22.44-38.23-19.73-16.53,2.74-27.61,13.98-30.4,30.85-.15.88-.26,1.75-.36,2.6-.5-1.43-.98-2.86-1.47-4.3-2.83-8.36-5.76-17.01-10.53-25.61-9.24-16.66-25.96-24.58-42.6-20.18-18.46,4.88-29.57,19.25-29.72,38.44-.04,5.11.47,9.67,1.56,13.91-1.39-2.75-2.79-5.51-4.19-8.26-2.87-5.64-7.66-13.9-15.98-20.53-12.43-9.9-27.42-11.86-41.12-5.38-13.61,6.44-21.87,19.1-22.68,34.74-.41,8,1.27,15.86,5.27,24.72-4.01-4.22-8.87-8.1-14.99-10.99-13.46-6.33-27.32-5.41-39.01,2.59-12.5,8.55-18.56,21.57-17.04,36.66.76,7.58,3.03,14.58,6.76,20.79,9.14,15.24,18.49,30.67,27.54,45.59,4.21,6.94,8.41,13.88,12.61,20.82l23.97,39.64c7.78,12.87,15.56,25.74,23.34,38.61-10.82-2.47-21.92-4.98-32.9-7.37-13.36-2.91-24.55-2.89-35.21.05-11.22,3.09-20.47,11.11-25.39,22-4.85,10.74-4.76,22.79.24,33.06,6.41,13.15,17.07,20.1,27.44,26.1,13.5,7.8,27.55,13.64,41.13,19.28,4.19,1.74,8.38,3.48,12.55,5.28,5.62,2.42,11.22,4.89,16.83,7.35,22.18,9.76,45.11,19.85,69.2,27.3,15.4,4.76,29.53,7.09,43.09,7.09.89,0,1.77,0,2.66-.03,21.17-.48,41.96-6.19,65.37-17.98,45.02-20.03,70.71-56.82,74.31-106.43,1.56-21.56-.17-44.37-5.29-69.73ZM603.58,454.23c-2.67,36.9-20.24,62.02-53.72,76.79l-.84.4c-18.7,9.46-34.78,14.03-50.61,14.38-10.49.24-21.78-1.56-34.49-5.49-22.15-6.85-43.16-16.09-65.4-25.88-5.68-2.5-11.37-5-17.07-7.46-4.31-1.86-8.65-3.66-12.99-5.46-13.11-5.44-25.5-10.59-36.99-17.23-7.39-4.27-11.48-7.14-13.34-10.97-.55-1.13.01-2.57.2-2.98.43-.96,1.33-2.11,2.53-2.44,2.28-.63,4.7-.94,7.37-.94,3.19,0,6.76.45,10.93,1.36,12.28,2.67,24.78,5.52,36.87,8.27,5.4,1.23,10.8,2.46,16.19,3.68l.73.17c1.44.33,3.22.75,5.31,1.01,10.03,1.25,19.43-3.19,24.52-11.6,4.87-8.05,4.76-17.86-.3-26.23-11.99-19.81-23.97-39.63-35.96-59.45l-23.97-39.64c-4.21-6.95-8.42-13.9-12.63-20.85-9.02-14.88-18.36-30.27-27.45-45.44-1.02-1.71-1.66-3.77-1.9-6.12-.21-2.14.06-2.72,1.81-3.92.86-.58,1.42-.97,3.96.22,2.97,1.4,5.64,4.2,9.5,10,16.78,25.19,33.58,50.36,50.39,75.53,2.27,3.4,4.55,6.79,6.83,10.18,3.46,5.14,6.91,10.29,10.33,15.46,7.58,11.46,20.88,14.83,32.33,8.21,12.93-7.47,13.93-21.27,9.18-31.64-2.82-6.17-5.63-12.35-8.43-18.54-2.47-5.45-4.93-10.89-7.42-16.33-4.46-9.76-8.92-19.52-13.38-29.27-9.02-19.72-18.04-39.43-27-59.17-1.62-3.56-2.32-6.23-2.2-8.39.18-3.48,1.19-3.95,2.46-4.56,1.05-.5,1.63-.77,3.94,1.07,2.27,1.81,4.27,4.56,6.49,8.91,4.29,8.41,8.52,16.86,12.75,25.3,6.97,13.91,14.17,28.29,21.56,42.37,7.26,13.84,14.37,28.15,21.24,41.98l4.7,9.44c.9,1.8,1.9,3.51,2.99,5.1,7.35,10.68,19.67,14.28,30.67,8.96,11.2-5.42,16.14-17.45,12.3-29.94l-5.42-17.61c-5.7-18.5-11.6-37.63-17.3-56.45-3.44-11.35-6.83-22.97-10.11-34.22l-3.29-11.28c-.37-1.26-.54-2.93-.52-5.1.03-3.43.4-3.7,3.32-4.47.42.21,1.5,1.06,2.65,3.12,3.22,5.81,5.52,12.6,7.96,19.8.76,2.25,1.53,4.5,2.32,6.74,5.41,15.25,10.78,30.85,15.97,45.94,2.48,7.21,4.96,14.42,7.46,21.62,1.74,5.04,3.5,10.07,5.26,15.1,2.34,6.69,4.68,13.39,6.98,20.09,5.56,16.17,19.34,20.23,29.79,17.15,15.13-4.45,18.61-18.24,16.99-28.71-4.57-29.6-9.12-59.19-13.62-88.82-.78-5.11-1.45-9.52-.87-12.99.12-.71.25-1.2.35-1.51.22-.06.52-.13.92-.2.13-.02.24-.04.35-.05.18.26.41.64.67,1.15,3.09,5.97,4.88,13.22,6.76,20.89.6,2.43,1.2,4.87,1.84,7.29,11.03,41.59,24.76,93.35,34.87,143.49h0c4.47,22.18,6.01,41.86,4.68,60.18Z"/>
      </g>
    </g>
    <g>
      <path class="cls-4" d="M261.39,223.68c-5.07.88-9.9-2.51-10.78-7.59l-3.56-20.5c-.88-5.07,2.51-9.9,7.59-10.78l21.18-3.68c5.07-.88,9.9,2.51,10.78,7.59.88,5.07-2.51,9.9-7.59,10.78l-11.99,2.09,1.97,11.31c.88,5.07-2.51,9.9-7.59,10.78Z"/>
      <path class="cls-4" d="M610.53,163.22c-5.07.88-9.9-2.51-10.78-7.59l-1.97-11.31-11.99,2.08c-5.07.88-9.9-2.51-10.78-7.59s2.51-9.9,7.59-10.78l21.18-3.68c5.07-.88,9.9,2.51,10.78,7.59l3.56,20.5c.88,5.07-2.51,9.9-7.59,10.78Z"/>
      <path class="cls-4" d="M349.25,635.36l-21.18,3.68c-5.07.88-9.9-2.51-10.78-7.59l-3.56-20.5c-.88-5.07,2.51-9.9,7.59-10.78,5.07-.88,9.9,2.51,10.78,7.59l1.97,11.31,11.99-2.09c5.07-.88,9.9,2.51,10.78,7.59s-2.51,9.9-7.59,10.78Z"/>
      <path class="cls-4" d="M677.22,578.58l-21.18,3.68c-5.07.88-9.9-2.51-10.78-7.59s2.51-9.9,7.59-10.78l11.99-2.08-1.97-11.31c-.88-5.07,2.51-9.9,7.59-10.78s9.9,2.51,10.78,7.59l3.56,20.5c.88,5.07-2.51,9.9-7.59,10.78Z"/>
    </g>
    <g>
      <path class="cls-4" d="M557,547.21c-18.66,9.44-37.6,15.82-58.2,16.28-13.76.31-27.07-2.24-40.12-6.27-29.03-8.98-56.43-22.01-84.25-34-17.44-7.52-35.32-14.08-51.83-23.62-8.13-4.7-16.08-9.68-20.39-18.53-5.74-11.77,1.29-26.76,13.94-30.24,8.96-2.47,17.9-1.75,26.76.18,17.76,3.86,35.47,7.98,53.21,11.99,1.44.32,2.87.7,4.33.88,3.01.38,5.61-.58,7.19-3.2,1.57-2.59,1.28-5.27-.3-7.9-19.99-33.02-39.95-66.07-59.93-99.09-13.38-22.11-26.83-44.18-40.12-66.35-2.45-4.08-3.85-8.66-4.33-13.45-.86-8.62,2.36-15.46,9.43-20.3,6.83-4.67,14.13-4.64,21.49-1.18,7.41,3.48,12.29,9.59,16.7,16.21,16.78,25.18,33.58,50.35,50.38,75.52,5.72,8.57,11.51,17.1,17.2,25.69,2.23,3.36,5.03,4.79,8.72,2.66,3.76-2.17,3.57-5.42,1.95-8.95-5.31-11.61-10.55-23.26-15.85-34.88-13.47-29.49-26.99-58.96-40.4-88.48-2.37-5.23-4.07-10.72-3.76-16.62.46-8.95,4.52-15.84,12.57-19.65,7.96-3.77,15.62-2.27,22.53,3.22,4.99,3.98,8.41,9.17,11.24,14.72,11.45,22.47,22.5,45.15,34.21,67.48,8.98,17.12,17.49,34.46,26.11,51.76.51,1.02,1.09,2.02,1.73,2.96,2.06,3,4.85,4.76,8.38,3.05,3.66-1.77,4.24-5.07,3.09-8.81-7.6-24.7-15.25-49.4-22.75-74.13-4.61-15.18-8.99-30.43-13.45-45.66-.97-3.32-1.26-6.75-1.24-10.21.09-11.29,5.73-18.61,16.54-21.46,8.74-2.31,17.34,2.17,22.6,11.66,5.12,9.23,7.99,19.35,11.48,29.21,7.98,22.51,15.65,45.12,23.47,67.69,4.07,11.75,8.21,23.47,12.25,35.22,1.6,4.65,4.46,6.99,8.06,5.93,4.59-1.35,5.13-4.89,4.5-9.03-4.57-29.61-9.12-59.22-13.62-88.84-.94-6.15-1.88-12.31-.84-18.57,1.57-9.49,6.67-14.76,15.84-16.28,8.79-1.46,15.21,1.89,19.63,10.41,5.18,10,7.15,21.05,10,31.78,12.71,47.93,25.3,95.9,35.12,144.53,4.32,21.42,6.57,43.07,4.99,64.95-3.15,43.59-24.73,74.28-64.23,91.71Z"/>
      <path class="cls-4" d="M442.43,424.78s64.43-8.71,89.62,41.46"/>
    </g>
  </g>
  <g>
    <g id="_矩形_3207-3" data-name="矩形 3207">
      <g class="cls-5">
        <path class="cls-3" d="M688.07,344.53c-10.33-51.19-24.21-103.52-35.36-145.56-.59-2.21-1.13-4.44-1.68-6.67-2.19-8.91-4.68-19.01-9.71-28.72-7.91-15.25-21.85-22.44-38.23-19.73-16.53,2.74-27.61,13.98-30.4,30.85-.15.88-.26,1.75-.36,2.6-.5-1.43-.98-2.86-1.47-4.3-2.83-8.36-5.76-17.01-10.53-25.61-9.24-16.66-25.96-24.58-42.6-20.18-18.46,4.88-29.57,19.25-29.72,38.44-.04,5.11.47,9.67,1.56,13.91-1.39-2.75-2.79-5.51-4.19-8.26-2.87-5.64-7.66-13.9-15.98-20.53-12.43-9.9-27.42-11.86-41.12-5.38-13.61,6.44-21.87,19.1-22.68,34.74-.41,8,1.27,15.86,5.27,24.72-4.01-4.22-8.87-8.1-14.99-10.99-13.46-6.33-27.32-5.41-39.01,2.59-12.5,8.55-18.56,21.57-17.04,36.66.76,7.58,3.03,14.58,6.76,20.79,9.14,15.24,18.49,30.67,27.54,45.59,4.21,6.94,8.41,13.88,12.61,20.82l23.97,39.64c7.78,12.87,15.56,25.74,23.34,38.61-10.82-2.47-21.92-4.98-32.9-7.37-13.36-2.91-24.55-2.89-35.21.05-11.22,3.09-20.47,11.11-25.39,22-4.85,10.74-4.76,22.79.24,33.06,6.41,13.15,17.07,20.1,27.44,26.1,13.5,7.8,27.55,13.64,41.13,19.28,4.19,1.74,8.38,3.48,12.55,5.28,5.62,2.42,11.22,4.89,16.83,7.35,22.18,9.76,45.11,19.85,69.2,27.3,15.4,4.76,29.53,7.09,43.09,7.09.89,0,1.77,0,2.66-.03,21.17-.48,41.96-6.19,65.37-17.98,45.02-20.03,70.71-56.82,74.31-106.43,1.56-21.56-.17-44.37-5.29-69.73ZM658.05,411.7c-2.67,36.9-20.24,62.02-53.72,76.79l-.84.4c-18.7,9.46-34.78,14.03-50.61,14.38-10.49.24-21.78-1.56-34.49-5.49-22.15-6.85-43.16-16.09-65.4-25.88-5.68-2.5-11.37-5-17.07-7.46-4.31-1.86-8.65-3.66-12.99-5.46-13.11-5.44-25.5-10.59-36.99-17.23-7.39-4.27-11.48-7.14-13.34-10.97-.55-1.13.01-2.57.2-2.98.43-.96,1.33-2.11,2.53-2.44,2.28-.63,4.7-.94,7.37-.94,3.19,0,6.76.45,10.93,1.36,12.28,2.67,24.78,5.52,36.87,8.27,5.4,1.23,10.8,2.46,16.19,3.68l.73.17c1.44.33,3.22.75,5.31,1.01,10.03,1.25,19.43-3.19,24.52-11.6,4.87-8.05,4.76-17.86-.3-26.23-11.99-19.81-23.97-39.63-35.96-59.45l-23.97-39.64c-4.21-6.95-8.42-13.9-12.63-20.85-9.02-14.88-18.36-30.27-27.45-45.44-1.02-1.71-1.66-3.77-1.9-6.12-.21-2.14.06-2.72,1.81-3.92.86-.58,1.42-.97,3.96.22,2.97,1.4,5.64,4.2,9.5,10,16.78,25.19,33.58,50.36,50.39,75.53,2.27,3.4,4.55,6.79,6.83,10.18,3.46,5.14,6.91,10.29,10.33,15.46,7.58,11.46,20.88,14.83,32.33,8.21,12.93-7.47,13.93-21.27,9.18-31.64-2.82-6.17-5.63-12.35-8.43-18.54-2.47-5.45-4.93-10.89-7.42-16.33-4.46-9.76-8.92-19.52-13.38-29.27-9.02-19.72-18.04-39.43-27-59.17-1.62-3.56-2.32-6.23-2.2-8.39.18-3.48,1.19-3.95,2.46-4.56,1.05-.5,1.63-.77,3.94,1.07,2.27,1.81,4.27,4.56,6.49,8.91,4.29,8.41,8.52,16.86,12.75,25.3,6.97,13.91,14.17,28.29,21.56,42.37,7.26,13.84,14.37,28.15,21.24,41.98l4.7,9.44c.9,1.8,1.9,3.51,2.99,5.1,7.35,10.68,19.67,14.28,30.67,8.96,11.2-5.42,16.14-17.45,12.3-29.94l-5.42-17.61c-5.7-18.5-11.6-37.63-17.3-56.45-3.44-11.35-6.83-22.97-10.11-34.22l-3.29-11.28c-.37-1.26-.54-2.93-.52-5.1.03-3.43.4-3.7,3.32-4.47.42.21,1.5,1.06,2.65,3.12,3.22,5.81,5.52,12.6,7.96,19.8.76,2.25,1.53,4.5,2.32,6.74,5.41,15.25,10.78,30.85,15.97,45.94,2.48,7.21,4.96,14.42,7.46,21.62,1.74,5.04,3.5,10.07,5.26,15.1,2.34,6.69,4.68,13.39,6.98,20.09,5.56,16.17,19.34,20.23,29.79,17.15,15.13-4.45,18.61-18.24,16.99-28.71-4.57-29.6-9.12-59.19-13.62-88.82-.78-5.11-1.45-9.52-.87-12.99.12-.71.25-1.2.35-1.51.22-.06.52-.13.92-.2.13-.02.24-.04.35-.05.18.26.41.64.67,1.15,3.09,5.97,4.88,13.22,6.76,20.89.6,2.43,1.2,4.87,1.84,7.29,11.03,41.59,24.76,93.35,34.87,143.49h0c4.47,22.18,6.01,41.86,4.68,60.18Z"/>
      </g>
    </g>
    <g>
      <path class="cls-7" d="M315.86,181.16c-5.07.88-9.9-2.51-10.78-7.59l-3.56-20.5c-.88-5.07,2.51-9.9,7.59-10.78l21.18-3.68c5.07-.88,9.9,2.51,10.78,7.59.88,5.07-2.51,9.9-7.59,10.78l-11.99,2.09,1.97,11.31c.88,5.07-2.51,9.9-7.59,10.78Z"/>
      <path class="cls-7" d="M665,120.7c-5.07.88-9.9-2.51-10.78-7.59l-1.97-11.31-11.99,2.08c-5.07.88-9.9-2.51-10.78-7.59s2.51-9.9,7.59-10.78l21.18-3.68c5.07-.88,9.9,2.51,10.78,7.59l3.56,20.5c.88,5.07-2.51,9.9-7.59,10.78Z"/>
      <path class="cls-7" d="M403.73,592.83l-21.18,3.68c-5.07.88-9.9-2.51-10.78-7.59l-3.56-20.5c-.88-5.07,2.51-9.9,7.59-10.78,5.07-.88,9.9,2.51,10.78,7.59l1.97,11.31,11.99-2.09c5.07-.88,9.9,2.51,10.78,7.59.88,5.07-2.51,9.9-7.59,10.78Z"/>
      <path class="cls-7" d="M731.69,536.06l-21.18,3.68c-5.07.88-9.9-2.51-10.78-7.59s2.51-9.9,7.59-10.78l11.99-2.08-1.97-11.31c-.88-5.07,2.51-9.9,7.59-10.78,5.07-.88,9.9,2.51,10.78,7.59l3.56,20.5c.88,5.07-2.51,9.9-7.59,10.78Z"/>
    </g>
    <g>
      <path class="cls-3" d="M611.47,504.69c-18.66,9.44-37.6,15.82-58.2,16.28-13.76.31-27.07-2.24-40.12-6.27-29.03-8.98-56.43-22.01-84.25-34-17.44-7.52-35.32-14.08-51.83-23.62-8.13-4.7-16.08-9.68-20.39-18.53-5.74-11.77,1.29-26.76,13.94-30.24,8.96-2.47,17.9-1.75,26.76.18,17.76,3.86,35.47,7.98,53.21,11.99,1.44.32,2.87.7,4.33.88,3.01.38,5.61-.58,7.19-3.2,1.57-2.59,1.28-5.27-.3-7.9-19.99-33.02-39.95-66.07-59.93-99.09-13.38-22.11-26.83-44.18-40.12-66.35-2.45-4.08-3.85-8.66-4.33-13.45-.86-8.62,2.36-15.46,9.43-20.3,6.83-4.67,14.13-4.64,21.49-1.18,7.41,3.48,12.29,9.59,16.7,16.21,16.78,25.18,33.58,50.35,50.38,75.52,5.72,8.57,11.51,17.1,17.2,25.69,2.23,3.36,5.03,4.79,8.72,2.66,3.76-2.17,3.57-5.42,1.95-8.95-5.31-11.61-10.55-23.26-15.85-34.88-13.47-29.49-26.99-58.96-40.4-88.48-2.37-5.23-4.07-10.72-3.76-16.62.46-8.95,4.52-15.84,12.57-19.65,7.96-3.77,15.62-2.27,22.53,3.22,4.99,3.98,8.41,9.17,11.24,14.72,11.45,22.47,22.5,45.15,34.21,67.48,8.98,17.12,17.49,34.46,26.11,51.76.51,1.02,1.09,2.02,1.73,2.96,2.06,3,4.85,4.76,8.38,3.05,3.66-1.77,4.24-5.07,3.09-8.81-7.6-24.7-15.25-49.4-22.75-74.13-4.61-15.18-8.99-30.43-13.45-45.66-.97-3.32-1.26-6.75-1.24-10.21.09-11.29,5.73-18.61,16.54-21.46,8.74-2.31,17.34,2.17,22.6,11.66,5.12,9.23,7.99,19.35,11.48,29.21,7.98,22.51,15.65,45.12,23.47,67.69,4.07,11.75,8.21,23.47,12.25,35.22,1.6,4.65,4.46,6.99,8.06,5.93,4.59-1.35,5.13-4.89,4.5-9.03-4.57-29.61-9.12-59.22-13.62-88.84-.94-6.15-1.88-12.31-.84-18.57,1.57-9.49,6.67-14.76,15.84-16.28,8.79-1.46,15.21,1.89,19.63,10.41,5.18,10,7.15,21.05,10,31.78,12.71,47.93,25.3,95.9,35.12,144.53,4.32,21.42,6.57,43.07,4.99,64.95-3.15,43.59-24.73,74.28-64.23,91.71Z"/>
      <path class="cls-2" d="M496.9,382.26s64.43-8.71,89.62,41.46"/>
    </g>
  </g>
</svg>