<?xml version="1.0" encoding="UTF-8"?>
<svg id="_图层_1" data-name="图层 1" xmlns="http://www.w3.org/2000/svg" viewBox="0 0 950 750">
  <defs>
    <style>
      .cls-1 {
        fill: #ff7079;
      }

      .cls-2 {
        fill: #54ff8d;
      }

      .cls-3 {
        fill: #ccc;
      }

      .cls-4 {
        fill: #8d80ff;
      }

      .cls-5 {
        fill: #fa5f7a;
      }

      .cls-6 {
        fill: #fff;
      }

      .cls-7 {
        opacity: .1;
        stroke-miterlimit: 10;
        stroke-width: 130px;
      }

      .cls-7, .cls-8 {
        fill: none;
        stroke: #fff;
      }

      .cls-8 {
        stroke-linecap: round;
        stroke-linejoin: round;
        stroke-width: 16px;
      }

      .cls-9 {
        fill: #5cc8ff;
      }

      .cls-10 {
        fill: #ffd70f;
      }

      .cls-11 {
        fill: #b3b3b3;
      }
    </style>
  </defs>
  <rect class="cls-9" y="0" width="950" height="750"/>
  <path class="cls-7" d="M629.8,545.56c-51.93,11.5-103.32,8.97-157.43,9.62-31.92-.07-64.11.06-95.85-1.92-56.21-2.84-108.23-16.88-142.74-61.3-47.73-58.99-51.83-149.92-13.36-214.87,26.76-44.76,68.44-69.73,121.1-76.74,44.62-6.36,90.37-5.23,135.62-5.53,55.14.74,111.88-2.14,163.9,12.68,38.41,11.01,70.11,37.57,89.94,72.02,54.98,95.77,16.02,240.51-101,266.01l-.18.04Z"/>
  <path class="cls-6" d="M470.68,490.67c-28.88-.77-73.7-5.47-84.56-30.72-5.45-11.87-4.98-26.21-4.64-39.18.08-29.28.3-58.47-.23-87.82.17-14.71-.53-31.14,5.02-43.49,17.71-31.31,83.12-31.4,116.06-26.43,27.85,4.6,56.77,14.38,56.24,44.45,1.66,20-.12,39.97.39,60.15.51,15.91-.46,31.92-.07,47.75.04,14.53,1.84,31.75-4.37,44.88-14.4,25.21-56.08,30.32-83.61,30.42h-.23Z"/>
  <polyline class="cls-8" points="312.19 248.03 312.19 274.04 381.41 325.14"/>
  <polyline class="cls-8" points="628.52 248.03 628.52 274.04 559.3 325.14"/>
  <polyline class="cls-8" points="312.19 510.22 312.19 484.2 381.41 433.1"/>
  <polyline class="cls-8" points="628.52 510.22 628.52 484.2 559.3 433.1"/>
  <line class="cls-8" x1="470.27" y1="230.14" x2="470.27" y2="272.68"/>
  <line class="cls-8" x1="470.35" y1="528.1" x2="470.35" y2="479.06"/>
  <line class="cls-8" x1="611.79" y1="379.12" x2="559.3" y2="379.12"/>
  <line class="cls-8" x1="328.92" y1="379.12" x2="381.41" y2="379.12"/>
  <g>
    <path class="cls-11" d="M401.62,413.32c27.21,20.83,128.37,24.22,145.82-10.12.81-2.44,1.04-5.08,1.16-7.65.22-8.05.14-16.87.23-25.2-.11-9.09,1.24-13.05-7.37-5.87-26.89,17.84-87.64,22.14-128.51,6.8-4.57-1.71-9.16-3.82-13.06-6.53-2.84-1.89-5.44-4.54-6.78-4.46-1.8.24-1.36,3.65-1.49,5.21,0,5.89.04,11.92.05,17.97.15,12.29-1.54,22.2,9.8,29.74l.15.11Z"/>
    <path class="cls-11" d="M548.24,309.08c-1.1-1.07-3.47,1.17-4.64,1.99-3.12,2.46-6.77,4.65-10.1,6.23-34.29,15.31-87.29,15.41-121.82,1.93-5.23-2.08-9.77-4.33-14.39-7.92-1.99-1.5-5.4-4.68-5.64-.13-.41,7.94.04,16.26-.04,24.29.08,6.65-.54,14.19,3.22,19.7,23.96,29.85,123.36,29.15,149.07,2.38,4.21-4.44,5.03-10.83,5.05-16.75.07-4.66.03-9.11.05-13.94.01-4.12.02-8.36.02-12.46.03-1.67.07-4.18-.72-5.27l-.05-.06Z"/>
    <path class="cls-11" d="M401.62,464.6c27.22,20.83,128.37,24.22,145.82-10.12.81-2.44,1.04-5.08,1.16-7.65.22-8.05.14-16.87.23-25.21-.11-9.09,1.24-13.05-7.37-5.87-28.03,19.17-103.41,23.79-141.57.27-3.73-2.23-7.52-7.53-8.16-2.06-.29,6.85,0,13.78-.06,20.79.15,12.29-1.54,22.2,9.8,29.73l.15.11Z"/>
    <path class="cls-3" d="M547.58,299.73v-.1c1.07-8.88-9.38-15.08-15.74-18-27.73-11.27-61.94-13.79-98.94-7.28-12.34,2.55-25.26,5.75-34.84,14.05-4.22,4.2-5.9,8.21-4.99,11.92,2.03,8.36,16.39,15.62,28.87,18.81,32.52,8.34,66.61,8.16,98.58-.52,6.85-2.19,24.87-7.97,27.06-18.88Z"/>
  </g>
  <path class="cls-1" d="M421.49,343.91c3.17-.33,5.67,1.43,6.08,3.21.48,2.1-1.2,3.85-3.8,4.16-2.65.31-5.23-1.05-5.92-2.85-.79-2.03.5-4.18,3.65-4.51Z"/>
  <path class="cls-1" d="M435.93,347.85c3.01-.57,5.81.91,6.51,2.86.66,1.84-.67,3.83-3.3,4.31-2.47.45-5.33-.54-6.38-2.75-.72-1.51.11-3.84,3.18-4.42Z"/>
  <path class="cls-2" d="M406.44,336.95c2.88-.16,5.46,1.59,6.03,3.55.6,2.04-.81,4.01-3.71,4.09-2.26.06-4.88-1.18-5.76-3.31-.77-1.86.23-4.15,3.44-4.33Z"/>
  <path class="cls-2" d="M421.49,395.06c3.17-.33,5.67,1.43,6.08,3.21.48,2.1-1.2,3.85-3.8,4.16-2.65.31-5.23-1.05-5.92-2.85-.79-2.03.5-4.18,3.65-4.51Z"/>
  <path class="cls-1" d="M435.93,399c3.01-.57,5.81.91,6.51,2.86.66,1.84-.67,3.83-3.3,4.31-2.47.45-5.33-.54-6.38-2.75-.72-1.51.11-3.84,3.18-4.42Z"/>
  <path class="cls-2" d="M406.44,388.1c2.88-.16,5.46,1.59,6.03,3.55.6,2.04-.81,4.01-3.71,4.09-2.26.06-4.88-1.18-5.76-3.31-.77-1.86.23-4.15,3.44-4.33Z"/>
  <path class="cls-1" d="M421.49,446.21c3.17-.33,5.67,1.43,6.08,3.21.48,2.1-1.2,3.85-3.8,4.16-2.65.31-5.23-1.05-5.92-2.85-.79-2.03.5-4.18,3.65-4.51Z"/>
  <path class="cls-2" d="M435.93,450.15c3.01-.57,5.81.91,6.51,2.86.66,1.84-.67,3.83-3.3,4.31-2.47.45-5.33-.54-6.38-2.75-.72-1.51.11-3.84,3.18-4.42Z"/>
  <path class="cls-2" d="M406.44,439.26c2.88-.16,5.46,1.59,6.03,3.55.6,2.04-.81,4.01-3.71,4.09-2.26.06-4.88-1.18-5.76-3.31-.77-1.86.23-4.15,3.44-4.33Z"/>
  <path class="cls-5" d="M311.95,245.18c-13.7.09-22.69-13.14-19.13-26.04,5.26-18.86,32.03-18.69,38.33-.6,4.73,13.13-5.04,26.96-19.04,26.63h-.16Z"/>
  <path class="cls-2" d="M470.08,227.3c-15.21.1-25.19-14.59-21.25-28.91,5.84-20.94,35.57-20.76,42.56-.66,5.25,14.58-5.59,29.94-21.14,29.57h-.17Z"/>
  <path class="cls-4" d="M628.08,245.17c-25.22.17-41.77-24.2-35.23-47.93,9.68-34.72,58.97-34.42,70.57-1.1,8.71,24.17-9.27,49.64-35.06,49.03h-.29Z"/>
  <path class="cls-4" d="M311.92,559.73c-15.21.1-25.19-14.59-21.25-28.91,5.84-20.94,35.57-20.76,42.56-.66,5.25,14.58-5.59,29.94-21.14,29.57h-.17Z"/>
  <path class="cls-10" d="M469.96,596.95c-21.8.15-36.11-20.92-30.45-41.44,8.37-30.01,50.98-29.75,61.01-.95,7.53,20.9-8.02,42.91-30.31,42.39h-.25Z"/>
  <path class="cls-5" d="M628.33,550.34c-12.01.08-19.89-11.52-16.78-22.83,4.61-16.53,28.08-16.39,33.61-.52,4.15,11.51-4.42,23.64-16.7,23.35h-.14Z"/>
  <path class="cls-5" d="M289.93,412.14c-23.38.16-38.71-22.43-32.65-44.43,8.98-32.18,54.66-31.9,65.41-1.02,8.07,22.41-8.6,46.01-32.5,45.44h-.27Z"/>
  <path class="cls-2" d="M634.34,397.64c-12.62.09-20.91-12.11-17.63-23.99,4.85-17.38,29.52-17.23,35.32-.55,4.36,12.1-4.64,24.85-17.55,24.54h-.14Z"/>
</svg>