<?xml version="1.0" encoding="UTF-8"?>
<svg id="_图层_1" data-name="图层 1" xmlns="http://www.w3.org/2000/svg" viewBox="0 0 950 750">
  <defs>
    <style>
      .cls-1 {
        fill: none;
        stroke: #ff5601;
        stroke-miterlimit: 10;
      }

      .cls-2 {
        fill: #1f669a;
      }

      .cls-3 {
        opacity: .15;
      }

      .cls-3, .cls-4 {
        fill: #fff;
      }

      .cls-5 {
        fill: #ffc9ca;
      }

      .cls-6 {
        fill: #0bf;
      }

      .cls-7 {
        fill: #70ff8b;
      }

      .cls-8 {
        fill: aqua;
      }

      .cls-9 {
        fill: #ff5601;
      }
    </style>
  </defs>
  <rect class="cls-6" width="950" height="750" transform="translate(950 750) rotate(180)"/>
  <g>
    <path class="cls-3" d="M714.37,564.31c-1.19-16.79-12.69-30.72-29.32-35.49h0c-9.21-2.65-20.92-.77-36.31,5.91-9.32-16.32-27.72-47.48-53.08-85.41-6.88-10.29-15.18-21.33-24.67-32.81-1.94-2.34-3.89-4.66-5.85-6.96-3.01-3.52-6.17-7.14-9.39-10.74-1.33-1.49-2.67-2.97-4-4.43-.12-.13-.23-.25-.35-.38,5.95,4.89,11.17,7.7,15.27,9.31,14.6,5.73,31.39,3.3,49.91-7.23,16.38-9.32,30.49-22.92,39.36-32.61l.13-.14c1.12-1.22,2.2-2.43,3.27-3.66l.54-.62c1.02-1.18,2.02-2.35,2.98-3.51l.09-.11c4.95-6.02,8.08-13.27,9.05-21,.15-1.24.25-2.51.3-3.76.08-2.51-.07-5.04-.44-7.51-.38-2.49-.99-4.96-1.81-7.35-2.13-6.13-5.75-11.74-10.47-16.24-7.52-7.16-17.36-11.18-27.73-11.32-1.51-.02-3.06.05-4.76.22-2.33.24-4.68.69-6.98,1.34-5.95,1.67-11.3,4.56-15.89,8.58-2.26,1.98-4.31,4.22-6.09,6.66l-.67.92-30.34-72.75c18.2-8.11,30.82-26.41,30.82-47.36s-12-38.9-30.54-47.24l-.28-.13c-2.05-.91-4.18-1.69-6.31-2.32l-.61-.17c-.91-.26-1.83-.49-2.75-.69-.19-.05-.39-.09-.55-.12-1.06-.22-2.14-.42-3.27-.58l-.63-.08c-.88-.12-1.76-.21-2.65-.28-.31-.03-.63-.05-.92-.07-.8-.05-1.6-.09-2.41-.11h-.91c-1.39,0-2.81.05-4.41.19-.19.01-.39.03-.55.04-1.36.13-2.72.32-4.3.6l-.5.09c-1.35.26-2.7.57-4.07.95l-.51.14c-1.39.4-2.74.85-4.14,1.38l-.13.05c-19.87,7.65-33.21,27.08-33.21,48.36,0,1.33.05,2.65.15,3.96-15.23-3.36-32.54-6.48-49.29-8.01-28.79-2.62-84.15-1.15-125.52.55l-25.13,1.12s-.07,0-.1,0h-.14c-.16.02-.32.03-.47.05-3.41.22-6.82.88-10.14,1.95-5.2,1.67-9.96,4.3-14.11,7.78-.27.21-.53.43-.78.65-9.11,8-14.33,19.54-14.33,31.66s4.8,22.68,13.17,30.61c8.36,7.92,19.75,12.09,31.13,11.47h.27c1.46-.09,2.97-.17,4.51-.25l5.83-.29c3.63-.17,7.42-.33,11.32-.48,17.49-.67,33.52-.92,47.65-.73,19.32.25,33.92.51,44.33.72-7.24,13.11-17.05,30.86-27.43,49.54l-33.47,59.78-14.88,25.73-.95.17c-1.91.34-4.18.71-6.75,1.11-1.97.31-4.12.63-6.4.96-4.63.67-9.84,1.4-15.43,2.15l-2.84.38c-25.51,3.39-58.11,7.27-77.34,9.52-4.75-1.71-9.81-2.4-14.85-1.98-16.57,1.37-44.33,11.89-44.01,66.98.34,59.87,26.52,75.71,37.76,79.75,15.84,5.68,33.23.77,44.3-12.52,6.7-8.04,9.68-21.11,9.17-40.61,6.63-.71,13.65-1.47,20.8-2.24l13.21-1.43c7.53-.82,15.02-1.64,22.17-2.43l3.05-.34c6.06-.67,11.83-1.32,17.15-1.92l2.62-.3c6.04-.69,11.4-1.32,15.78-1.85,1.9-.23,3.61-.44,5.14-.64,1.02-.13,1.95-.25,2.78-.36l1.2-.16c3.38-.47,6.96-1.57,10.63-3.26,2.09-.96,4.27-2.15,6.48-3.52,5.79-3.59,12.08-8.65,18.71-15.04,3-2.89,6.1-6.08,9.22-9.49,4.96-5.43,9.95-11.4,14.83-17.73,1.89-2.46,3.78-4.98,5.6-7.5.91-1.26,1.81-2.52,2.7-3.79,1.76-2.52,3.5-5.07,5.16-7.6,2.59-3.94,5-7.83,7.21-11.61,11.97,13.06,31.08,34.55,51.86,60.42,2.05,2.56,4.13,5.16,6.22,7.81,1.04,1.32,2.09,2.65,3.13,3.99,4.32,5.53,8.58,11.09,12.65,16.52,6.62,8.83,12.97,17.61,18.87,26.09,9.81,14.1,18.7,27.84,26.42,40.83.91,1.53,1.81,3.06,2.69,4.58,3.02,5.19,5.91,10.38,8.63,15.49-2.17,8.63-1.11,17.82,3.14,25.65,5.44,10.02,16.93,23.11,39.81,23.11,10.5,0,23.41-2.76,39.23-9.84,54.65-24.45,58.59-54.8,57.75-66.71ZM526.95,368.41c-11.63-11.65-21.76-21.15-28.58-27.39l9.69-13.57c9.08,22.02,18.33,37.83,26.97,49.18-2.75-2.84-5.46-5.58-8.09-8.21ZM345.99,412.43l-8.52-5.68-1.35-1.08,9.87,6.77Z"/>
    <g>
      <path class="cls-4" d="M141.49,169.67c-4.61,0-8.34-3.73-8.34-8.34v-18.61c0-4.61,3.73-8.34,8.34-8.34h19.23c4.61,0,8.34,3.73,8.34,8.34s-3.73,8.34-8.34,8.34h-10.89v10.27c0,4.61-3.73,8.34-8.34,8.34Z"/>
      <path class="cls-4" d="M823.22,169.87c-4.61,0-8.34-3.73-8.34-8.34v-10.27h-10.89c-4.61,0-8.34-3.73-8.34-8.34s3.73-8.34,8.34-8.34h19.23c4.61,0,8.34,3.73,8.34,8.34v18.61c0,4.61-3.73,8.34-8.34,8.34Z"/>
      <path class="cls-4" d="M160.72,589.35h-19.23c-4.61,0-8.34-3.73-8.34-8.34v-18.61c0-4.61,3.73-8.34,8.34-8.34s8.34,3.73,8.34,8.34v10.27h10.89c4.61,0,8.34,3.73,8.34,8.34s-3.73,8.34-8.34,8.34Z"/>
      <path class="cls-4" d="M823.22,589.56h-19.23c-4.61,0-8.34-3.73-8.34-8.34s3.73-8.34,8.34-8.34h10.89v-10.27c0-4.61,3.73-8.34,8.34-8.34s8.34,3.73,8.34,8.34v18.61c0,4.61-3.73,8.34-8.34,8.34Z"/>
    </g>
    <g>
      <path class="cls-7" d="M546.12,217.87s-53.76-18.23-102.18-22.64c-34.34-3.12-108.53-.23-148.77,1.71-15.28.74-27.28,13.34-27.28,28.64h0c0,16.45,13.8,29.53,30.22,28.63,19.42-1.07,45.58-2.09,70.38-1.77,31.8.42,50.79.84,59.94,1.07,3.07.08,4.96,3.37,3.47,6.06-15.7,28.5-83.34,151.05-86.68,153.83-3.77,3.14-136.44,18.23-136.44,18.23l5.03,67.28s125.12-13.2,147.76-16.35c22.64-3.14,64.76-56.59,79.22-89.28,0,0,106.89,110.03,154.05,209.38l49.04-33.95v-15.09s-22-40.87-59.41-96.83c-37.41-55.96-104.06-113.81-104.06-113.81l28.02-39.23c1.42-1.98,4.47-1.56,5.28.74,6.35,18.03,28.35,74.68,57.87,86.28,25.99,10.21,60.88-19.66,80.92-43.84,9.26-11.18,8.3-27.6-2.21-37.61h0c-12.06-11.48-31.47-9.75-41.3,3.68l-9.77,13.34c-2.2,3-6.83,2.45-8.26-.98l-44.84-107.5Z"/>
      <path class="cls-8" d="M643.89,568.72v-15.09s-22-40.87-59.41-96.83c-37.41-55.96-104.06-113.81-104.06-113.81l-82.75-21.52c-23.75,42.74-50.38,90.22-52.44,91.94-3.77,3.14-136.44,18.23-136.44,18.23l5.03,67.28s125.12-13.2,147.76-16.35c22.64-3.14,64.76-56.59,79.22-89.28,0,0,106.89,110.03,154.05,209.38l49.04-33.95Z"/>
      <path class="cls-2" d="M213.42,427.41c11.29-.93,21.39,7.01,23.81,18.08,5.72,26.19,15.26,79.14,2.8,94.1-16.77,20.12-57.85,14.25-58.27-58.68-.24-41.94,16.98-52.28,31.66-53.49Z"/>
      <path class="cls-2" d="M589.41,611.33c-5.4-9.95-2.21-22.4,6.94-29.07,21.66-15.79,66.27-45.88,84.98-40.5,25.17,7.23,36.37,47.19-30.21,76.98-38.28,17.13-54.69,5.54-61.72-7.41Z"/>
      <circle class="cls-5" cx="546.12" cy="185.88" r="38.35"/>
      <path class="cls-2" d="M580.19,168.29c-6.38-12.33-19.22-20.77-34.06-20.77-19.24,0-35.13,14.19-37.89,32.67,45.28,7.72,71.62-11.65,71.95-11.89Z"/>
      <path class="cls-5" d="M298.12,254.22c6.67-.37,14.15-.73,22.08-1.03h0v-57.36h0c-9.17.38-17.66.76-25.02,1.12-15.28.74-27.28,13.34-27.28,28.64,0,16.45,13.8,29.53,30.22,28.63Z"/>
      <path class="cls-5" d="M650.29,309.33c-12.06-11.48-31.47-9.75-41.3,3.68l-5.56,7.59,35.56,41.05c4.96-4.89,9.53-9.91,13.51-14.71,9.26-11.18,8.3-27.6-2.21-37.61Z"/>
    </g>
    <g>
      <circle class="cls-9" cx="507.77" cy="236.29" r="14.63"/>
      <circle class="cls-9" cx="571.4" cy="477.69" r="14.63"/>
      <circle class="cls-9" cx="358.07" cy="457.88" r="14.63"/>
      <circle class="cls-9" cx="379.75" cy="220.02" r="14.63"/>
      <circle class="cls-9" cx="586.03" cy="359.48" r="14.63"/>
      <circle class="cls-9" cx="451.91" cy="220.02" r="8.13"/>
      <circle class="cls-9" cx="527.29" cy="186.62" r="5.03"/>
      <circle class="cls-9" cx="560.93" cy="196.68" r="5.03"/>
      <circle class="cls-9" cx="575.38" cy="188.81" r="5.03"/>
      <circle class="cls-9" cx="519.96" cy="171.69" r="5.03"/>
      <circle class="cls-9" cx="543.37" cy="193.6" r="8.13"/>
      <circle class="cls-9" cx="456.34" cy="361.97" r="8.13"/>
      <circle class="cls-9" cx="414.59" cy="352.26" r="8.13"/>
      <circle class="cls-9" cx="207.36" cy="471.02" r="8.13"/>
      <circle class="cls-9" cx="619.76" cy="610.89" r="8.13"/>
      <circle class="cls-9" cx="547.67" cy="308.75" r="8.13"/>
      <circle class="cls-9" cx="645.35" cy="315.34" r="8.13"/>
      <circle class="cls-9" cx="280.52" cy="225.05" r="8.13"/>
      <polyline class="cls-1" points="508.24 233.46 451.91 220.02 379.75 220.02 280.52 225.05"/>
      <polyline class="cls-1" points="645.35 313.98 586.03 360.57 547.67 308.75 514.93 234.65"/>
      <polyline class="cls-1" points="507.77 234.65 414.43 352.84 363.17 461.08 207.36 471.02"/>
      <polyline class="cls-1" points="619.76 610.89 571.4 477.69 456.34 361.97 507.77 234.65"/>
      <line class="cls-1" x1="543.37" y1="193.6" x2="510.72" y2="233.46"/>
    </g>
  </g>
</svg>