<?xml version="1.0" encoding="UTF-8"?>
<svg id="_图层_1" data-name="图层 1" xmlns="http://www.w3.org/2000/svg" viewBox="0 0 950 750">
  <defs>
    <style>
      .cls-1 {
        stroke: #00d6a3;
        stroke-miterlimit: 10;
        stroke-width: 10px;
      }

      .cls-1, .cls-2 {
        fill: #fff;
      }

      .cls-3 {
        fill: #ff6141;
      }

      .cls-4 {
        fill: #00d6a3;
      }

      .cls-5 {
        fill: #5cc8ff;
      }
    </style>
  </defs>
  <rect class="cls-4" width="950" height="750" transform="translate(950 750) rotate(180)"/>
  <path class="cls-2" d="M471.34,177.63h-197.44c-61.15,0-110.72,49.57-110.72,110.72h0c0,61.15,49.57,110.72,110.72,110.72h3.39c-1.1,13.95-5.78,36.89-24.03,48.62,0,0,48.72-4.02,73.7-48.62h144.38c61.15,0,110.72-49.57,110.72-110.72h0c0-61.15-49.57-110.72-110.72-110.72Z"/>
  <path class="cls-1" d="M688.88,369.96h-197.44c-61.15,0-110.72,49.57-110.72,110.72h0c0,61.15,49.57,110.72,110.72,110.72h144.38c24.98,44.6,73.7,48.62,73.7,48.62-18.24-11.73-22.93-34.67-24.03-48.62h3.39c61.15,0,110.72-49.57,110.72-110.72h0c0-61.15-49.57-110.72-110.72-110.72Z"/>
  <path class="cls-5" d="M289.95,228.18c-1.25-8.64.26-17.8,4.53-27.47,4.27-9.67,11.3-18.19,21.1-25.55,9.8-7.36,21.8-12.07,35.99-14.12,13.19-1.91,25.19-1.16,35.99,2.25,10.8,3.41,19.56,8.9,26.27,16.47,6.71,7.58,10.78,16.27,12.2,26.1,1.12,7.73.53,14.74-1.77,21.01-2.3,6.28-5.3,11.84-9.01,16.7-3.71,4.85-10.44,13.1-20.18,24.72-2.69,3.27-4.81,6.11-6.36,8.51-1.56,2.41-2.66,4.56-3.31,6.47-.65,1.91-1.1,3.78-1.35,5.63-.24,1.85-.54,5.07-.9,9.67-.36,9.71-5.09,15.22-14.19,16.54-4.73.68-8.94-.29-12.61-2.91-3.68-2.62-5.96-6.99-6.84-13.08-1.1-7.64-.88-14.43.68-20.37,1.56-5.94,3.98-11.3,7.29-16.1,3.3-4.8,7.85-10.58,13.65-17.37,5.09-5.94,8.74-10.39,10.96-13.36,2.22-2.97,3.98-6.17,5.3-9.61,1.31-3.44,1.7-7.02,1.16-10.76-1.05-7.28-4.65-13.03-10.78-17.25-6.14-4.22-13.48-5.71-22.03-4.48-10.01,1.45-17.01,5.04-21.01,10.77-4,5.73-6.93,13.75-8.78,24.05-1.61,10.73-6.73,16.72-15.37,17.97-5.1.74-9.65-.44-13.67-3.53-4.02-3.09-6.34-6.72-6.94-10.91ZM378.16,368.12c-5.55.8-10.65-.3-15.31-3.29-4.66-2.99-7.45-7.72-8.39-14.18-.83-5.73.47-10.84,3.91-15.33,3.44-4.49,8.07-7.16,13.89-8,5.73-.83,10.84.43,15.31,3.78,4.48,3.35,7.13,7.88,7.96,13.62.92,6.37-.4,11.67-3.97,15.9-3.57,4.23-8.04,6.73-13.4,7.51Z"/>
  <path class="cls-3" d="M582.8,455.33l18.07-63.68c3.55-12.4,6.27-21.23,8.16-26.52,2.57-7.18,6.45-12.12,11.66-14.8,5.2-2.68,10.88-2.92,17.02-.73,7.44,2.66,11.5,7.01,12.17,13.06.67,6.05-.73,13.92-4.19,23.61-2.04,5.71-4.42,11.4-7.13,17.07l-28.46,62.02c-3.33,7.4-6.71,12.78-10.16,16.14-3.45,3.36-7.46,4.22-12.05,2.58-4.67-1.67-7.22-4.8-7.63-9.39-.41-4.59.43-11.05,2.53-19.38ZM566.68,545.92c-5.28-1.89-9.28-5.24-11.99-10.07-2.72-4.83-2.98-10.31-.78-16.46,1.92-5.37,5.43-9.26,10.54-11.68,5.11-2.42,10.39-2.66,15.85-.71,5.45,1.95,9.43,5.49,11.94,10.64,2.5,5.14,2.8,10.4.88,15.76-2.17,6.06-5.81,10.13-10.95,12.2-5.13,2.07-10.29,2.18-15.49.32Z"/>
</svg>