<?xml version="1.0" encoding="UTF-8"?>
<svg id="_图层_1" data-name="图层 1" xmlns="http://www.w3.org/2000/svg" viewBox="0 0 950 750">
  <defs>
    <style>
      .cls-1 {
        fill: #acff5d;
      }

      .cls-2 {
        stroke: aqua;
      }

      .cls-2, .cls-3 {
        fill: none;
        stroke-linecap: round;
        stroke-miterlimit: 10;
        stroke-width: 20px;
      }

      .cls-4 {
        fill: #fff;
      }

      .cls-5 {
        fill: #ffa849;
      }

      .cls-3 {
        stroke: #5cc8ff;
      }

      .cls-6 {
        fill: #bb8dff;
      }
    </style>
  </defs>
  <rect class="cls-1" width="950" height="750" transform="translate(950 750) rotate(180)"/>
  <path class="cls-5" d="M783.97,228.56h-102.32c-40.51,0-73.35,32.84-73.35,73.35v118.85c0,40.51,32.84,73.35,73.35,73.35h59.6c17.7,31.61,52.23,34.46,52.23,34.46-12.93-8.32-16.25-24.57-17.03-34.46h7.52c40.51,0,73.35-32.84,73.35-73.35v-118.85c0-40.51-32.84-73.35-73.35-73.35Z"/>
  <path class="cls-6" d="M170.43,248.56h102.32c40.51,0,73.35,32.84,73.35,73.35v118.85c0,40.51-32.84,73.35-73.35,73.35h-59.6c-17.7,31.61-52.23,34.46-52.23,34.46,12.93-8.32,16.25-24.57,17.03-34.46h-7.52c-40.51,0-73.35-32.84-73.35-73.35v-118.85c0-40.51,32.84-73.35,73.35-73.35Z"/>
  <g>
    <line class="cls-3" x1="538.64" y1="346.95" x2="538.64" y2="403.05"/>
    <line class="cls-3" x1="570.46" y1="357.46" x2="570.46" y2="392.54"/>
    <line class="cls-3" x1="475" y1="336.44" x2="475" y2="413.56"/>
    <line class="cls-2" x1="443.18" y1="346.95" x2="443.18" y2="403.05"/>
    <line class="cls-2" x1="379.54" y1="357.46" x2="379.54" y2="392.54"/>
    <line class="cls-2" x1="411.36" y1="336.44" x2="411.36" y2="413.56"/>
    <line class="cls-3" x1="506.82" y1="325" x2="506.82" y2="425"/>
  </g>
  <path class="cls-4" d="M252.91,430.27l-5.86-15.41h-49.9l-5.86,15.74c-2.29,6.14-4.24,10.29-5.86,12.43-1.62,2.15-4.27,3.22-7.95,3.22-3.13,0-5.89-1.14-8.29-3.43-2.4-2.29-3.6-4.88-3.6-7.79,0-1.67.28-3.4.84-5.19.56-1.79,1.48-4.27,2.76-7.45l31.4-79.71c.89-2.29,1.97-5.04,3.22-8.25,1.26-3.21,2.6-5.87,4.02-8,1.42-2.12,3.29-3.84,5.61-5.15,2.32-1.31,5.18-1.97,8.58-1.97s6.35.66,8.67,1.97c2.32,1.31,4.19,3,5.61,5.07,1.42,2.07,2.62,4.28,3.6,6.66.98,2.37,2.22,5.54,3.73,9.5l32.07,79.21c2.51,6.03,3.77,10.41,3.77,13.15s-1.19,5.46-3.56,7.83c-2.37,2.37-5.23,3.56-8.58,3.56-1.96,0-3.63-.35-5.02-1.05-1.4-.7-2.57-1.65-3.52-2.85-.95-1.2-1.97-3.04-3.06-5.53-1.09-2.48-2.02-4.67-2.8-6.57ZM203.68,396.19h36.67l-18.5-50.66-18.17,50.66Z"/>
  <path class="cls-4" d="M677.43,417.41c-3.88-6.1-1.71-10.44,6.51-13.02,15.05-5.17,27.99-11.91,38.79-20.23-11.73-13.58-21.47-30.85-29.23-51.82h-11.5c-5.36,0-8.03-2.68-8.03-8.03s2.68-8.04,8.03-8.04h45.72v-13.72c0-5.45,2.77-8.17,8.31-8.17s8.17,2.73,8.17,8.17v13.72h46.41c5.36,0,8.04,2.68,8.04,8.04s-2.68,8.03-8.04,8.03h-11.64c-7.39,20.23-17.41,37.27-30.06,51.12,11.17,8.59,23.88,15.24,38.1,19.95,9.51,2.59,11.87,7.25,7.07,13.99-3.05,4.34-7.62,5.59-13.72,3.74-17.55-5.73-32.61-13.95-45.17-24.66-12.66,10.16-27.53,18.38-44.61,24.66-5.91,2.03-10.3.78-13.16-3.74ZM736.17,371.83c9.88-10.9,17.73-24.06,23.55-39.49h-47.94c5.73,15.15,13.86,28.31,24.38,39.49Z"/>
</svg>