<?xml version="1.0" encoding="UTF-8"?>
<svg id="_图层_1" data-name="图层 1" xmlns="http://www.w3.org/2000/svg" viewBox="0 0 950 750">
  <defs>
    <style>
      .cls-1, .cls-2, .cls-3 {
        opacity: .15;
      }

      .cls-1, .cls-4 {
        fill: #b380ff;
      }

      .cls-5 {
        fill: #1f669a;
      }

      .cls-6, .cls-3 {
        fill: #ae78ff;
      }

      .cls-2, .cls-7 {
        fill: #fff;
      }

      .cls-8 {
        fill: #ffc9ca;
      }

      .cls-9 {
        fill: #70ff8b;
      }

      .cls-10 {
        fill: aqua;
      }

      .cls-11 {
        fill: #bb8dff;
      }
    </style>
  </defs>
  <rect class="cls-11" width="950" height="750" transform="translate(950 750) rotate(180)"/>
  <g>
    <path class="cls-3" d="M780.42,524.78c-3.54-14.14-15.45-24.29-30.35-25.87h0c-8.26-.87-17.96,2.49-30.08,10.51-10.41-12.52-30.78-36.33-58.12-64.88-7.42-7.74-16.16-15.91-25.98-24.28-2-1.71-4.02-3.39-6.04-5.06-3.1-2.55-6.34-5.16-9.63-7.75-1.36-1.07-2.72-2.13-4.08-3.18-.12-.09-.24-.18-.35-.27,5.81,3.28,10.68,4.89,14.42,5.65,13.31,2.7,27.28-1.9,41.49-13.67,12.58-10.41,22.56-24.14,28.67-33.74l.09-.14c.77-1.21,1.51-2.41,2.24-3.61l.37-.61c.69-1.16,1.37-2.31,2.01-3.44l.06-.11c3.32-5.88,4.9-12.54,4.57-19.27-.05-1.08-.16-2.18-.31-3.25-.31-2.15-.81-4.29-1.51-6.34-.7-2.07-1.59-4.08-2.65-5.99-2.74-4.91-6.67-9.15-11.37-12.28-7.49-4.98-16.49-6.92-25.35-5.49-1.29.21-2.6.5-4.02.91-1.95.55-3.88,1.29-5.75,2.19-4.83,2.32-8.95,5.59-12.26,9.71-1.63,2.03-3.04,4.25-4.2,6.6l-.44.89-36.83-57.5c14.31-9.66,22.32-27.16,19.17-45.03s-16.09-31.38-33.16-35.71l-.26-.07c-1.89-.47-3.82-.81-5.73-1.03l-.55-.06c-.81-.08-1.63-.14-2.45-.18-.17-.01-.34-.02-.49-.02-.94-.03-1.89-.04-2.87,0l-.55.03c-.76.03-1.53.08-2.3.16-.27.02-.54.05-.79.08-.69.08-1.38.17-2.07.27l-.78.13c-1.19.21-2.39.48-3.73.83-.16.04-.33.08-.46.12-1.14.31-2.27.68-3.58,1.16l-.41.15c-1.11.42-2.22.9-3.32,1.42l-.41.2c-1.12.55-2.21,1.13-3.32,1.8l-.1.06c-15.8,9.51-24.26,28.1-21.06,46.25.2,1.13.44,2.25.72,3.36-13.5-.57-28.73-.64-43.25.58-24.96,2.1-71.96,11.68-106.99,19.35l-21.27,4.74s-.06.01-.09.02l-.12.03c-.13.03-.27.07-.4.11-2.88.7-5.69,1.78-8.36,3.18-4.19,2.21-7.85,5.17-10.86,8.76-.19.22-.39.45-.57.67-6.57,8.2-9.29,18.83-7.46,29.16,1.73,9.83,7.51,18.63,15.84,24.13,8.32,5.49,18.67,7.34,28.28,5.1l.23-.05c1.23-.29,2.51-.58,3.81-.88l4.93-1.12c3.07-.69,6.28-1.4,9.58-2.12,14.82-3.2,28.45-5.82,40.53-7.79,16.52-2.69,29.01-4.67,37.93-6.05-4.2,12.27-9.9,28.89-15.95,46.39l-19.56,56.03-8.82,24.19-.78.29c-1.58.58-3.46,1.24-5.59,1.96-1.64.56-3.42,1.15-5.32,1.78-3.84,1.27-8.18,2.67-12.84,4.15l-2.36.75c-21.25,6.73-48.47,14.94-64.54,19.76-4.31-.75-8.73-.57-12.97.55-13.93,3.66-36.03,16.81-27.47,63.76,9.3,51.02,34.01,60.6,44.21,62.35,14.37,2.46,28.46-4.34,35.91-17.35,4.51-7.87,5.09-19.46,1.71-36.02,5.55-1.6,11.42-3.3,17.41-5.04l11.05-3.21c6.3-1.83,12.56-3.66,18.55-5.41l2.55-.75c5.06-1.48,9.9-2.91,14.34-4.22l2.19-.65c5.05-1.5,9.52-2.84,13.18-3.95,1.58-.48,3.01-.92,4.29-1.31.85-.27,1.63-.51,2.32-.73l1-.32c2.82-.91,5.7-2.38,8.58-4.38,1.64-1.14,3.32-2.48,4.99-3.98,4.4-3.94,9-9.2,13.7-15.64,2.13-2.92,4.29-6.11,6.44-9.48,3.42-5.38,6.78-11.22,9.99-17.35,1.25-2.38,2.47-4.81,3.65-7.24.59-1.21,1.17-2.43,1.73-3.64,1.13-2.41,2.22-4.85,3.26-7.26,1.61-3.75,3.09-7.43,4.4-10.99,12.18,9.34,31.71,24.8,53.33,43.74,2.14,1.87,4.3,3.78,6.48,5.73,1.09.97,2.18,1.95,3.27,2.93,4.52,4.07,8.99,8.17,13.28,12.19,6.98,6.54,13.71,13.07,20.02,19.42,10.49,10.55,20.14,20.94,28.68,30.86,1,1.17,2,2.34,2.99,3.51,3.35,3.97,6.6,7.97,9.69,11.92-.55,7.69,1.73,15.37,6.54,21.41,6.15,7.73,17.92,17.16,37.44,13.72,8.96-1.58,19.55-5.87,31.98-14.29,42.94-29.08,41.74-55.56,39.23-65.59ZM591.07,385.86c-11.67-8.19-21.74-14.77-28.5-19.07l6.23-13.03c11.06,17.42,21.33,29.51,30.41,37.89-2.78-2.01-5.49-3.94-8.13-5.79ZM443.33,450.63l-8.12-3.57-1.32-.72,9.44,4.29Z"/>
    <g>
      <path class="cls-6" d="M232.37,274.31c-3.93.69-7.67-1.93-8.37-5.86l-2.8-15.88c-.69-3.93,1.93-7.67,5.86-8.37l16.4-2.89c3.93-.69,7.67,1.93,8.37,5.86s-1.93,7.67-5.86,8.37l-9.29,1.64,1.55,8.76c.69,3.93-1.93,7.67-5.86,8.37Z"/>
      <path class="cls-6" d="M813.94,171.94c-3.93.69-7.67-1.93-8.37-5.86l-1.55-8.76-9.29,1.64c-3.93.69-7.67-1.93-8.37-5.86s1.93-7.67,5.86-8.37l16.4-2.89c3.93-.69,7.67,1.93,8.37,5.86l2.8,15.88c.69,3.93-1.93,7.67-5.86,8.37Z"/>
      <path class="cls-6" d="M311.9,629.42l-16.4,2.89c-3.93.69-7.67-1.93-8.37-5.86l-2.8-15.88c-.69-3.93,1.93-7.67,5.86-8.37s7.67,1.93,8.37,5.86l1.55,8.76,9.29-1.64c3.93-.69,7.67,1.93,8.37,5.86s-1.93,7.67-5.86,8.37Z"/>
      <path class="cls-6" d="M877.06,529.95l-16.4,2.89c-3.93.69-7.67-1.93-8.37-5.86s1.93-7.67,5.86-8.37l9.29-1.64-1.55-8.76c-.69-3.93,1.93-7.67,5.86-8.37s7.67,1.93,8.37,5.86l2.8,15.88c.69,3.93-1.93,7.67-5.86,8.37Z"/>
    </g>
    <g>
      <path class="cls-6" d="M584.79,254.56s-48.6-7.47-90.57-3.94c-29.76,2.5-92.62,16.12-126.65,23.84-12.93,2.93-21.27,15.48-18.97,28.54h0c2.47,14.03,16.21,23.12,30.09,19.88,16.41-3.83,38.57-8.64,59.77-12.09,27.19-4.43,43.45-6.93,51.29-8.1,2.63-.4,4.73,2.13,3.87,4.65-9.11,26.67-48.38,141.39-50.8,144.26-2.75,3.25-113.65,36.08-113.65,36.08l14.41,56.63s104.75-30.08,123.59-36.17c18.84-6.09,46.73-58.01,54.15-88.08,0,0,107.73,77.79,162.9,155.44l36.73-36.34-2.27-12.87s-24.91-31.55-65.25-73.66c-40.33-42.11-105.89-81.43-105.89-81.43l18-37.68c.91-1.91,3.58-2,4.62-.16,8.13,14.43,35.42,59.44,62.34,64.89,23.7,4.8,48.98-25.92,62.43-49.57,6.22-10.93,2.93-24.8-7.54-31.75h0c-12.01-7.98-28.31-3.59-34.68,9.35l-6.33,12.85c-1.42,2.89-5.46,3.12-7.19.4l-54.42-84.96Z"/>
      <path class="cls-6" d="M720.96,539.14l-2.27-12.87s-24.91-31.55-65.25-73.66c-40.33-42.11-105.89-81.43-105.89-81.43l-73.82-5.91c-13.83,40.03-29.4,84.54-30.9,86.32-2.75,3.25-113.65,36.08-113.65,36.08l14.41,56.63s104.75-30.08,123.59-36.17c18.84-6.09,46.73-58.01,54.15-88.08,0,0,107.73,77.79,162.9,155.44l36.73-36.34Z"/>
      <path class="cls-6" d="M332.49,483.35c9.49-2.49,19.3,2.77,23.03,11.84,8.82,21.48,24.92,65.21,16.54,79.85-11.28,19.69-47.2,20.86-58.53-41.3-6.51-35.74,6.62-47.15,18.96-50.39Z"/>
      <path class="cls-6" d="M680.89,583.69c-6.11-7.68-5.25-18.78,1.55-25.85,16.1-16.73,49.63-49.1,66.4-47.33,22.56,2.38,38.12,34.78-14.19,70.21-30.08,20.37-45.82,12.95-53.76,2.96Z"/>
      <circle class="cls-6" cx="579.97" cy="227.27" r="33.22"/>
      <path class="cls-6" d="M606.38,207.15c-7.3-9.56-19.52-14.83-32.18-12.6-16.42,2.89-27.83,17.39-27.41,33.56,39.79-.22,59.34-20.71,59.59-20.97Z"/>
      <path class="cls-6" d="M378.69,322.87c5.64-1.32,11.96-2.75,18.68-4.2h0l-8.63-48.93h0c-7.77,1.7-14.95,3.31-21.17,4.72-12.93,2.93-21.27,15.48-18.97,28.54,2.47,14.03,16.21,23.12,30.09,19.88Z"/>
      <path class="cls-6" d="M687.4,316.91c-12.01-7.98-28.31-3.59-34.68,9.35l-3.6,7.31,36.51,29.67c3.5-4.92,6.64-9.89,9.31-14.58,6.22-10.93,2.93-24.8-7.54-31.75Z"/>
    </g>
  </g>
  <g>
    <path class="cls-1" d="M736.51,499.71c-3.54-14.14-15.45-24.29-30.35-25.87h0c-8.26-.87-17.96,2.49-30.08,10.51-10.41-12.52-30.78-36.33-58.12-64.88-7.42-7.74-16.16-15.91-25.98-24.28-2-1.71-4.02-3.39-6.04-5.06-3.1-2.55-6.34-5.16-9.63-7.75-1.36-1.07-2.72-2.13-4.08-3.18-.12-.09-.24-.18-.35-.27,5.81,3.28,10.68,4.89,14.42,5.65,13.31,2.7,27.28-1.9,41.49-13.67,12.58-10.41,22.56-24.14,28.67-33.74l.09-.14c.77-1.21,1.51-2.41,2.24-3.61l.37-.61c.69-1.16,1.37-2.31,2.01-3.44l.06-.11c3.32-5.88,4.9-12.54,4.57-19.27-.05-1.08-.16-2.18-.31-3.25-.31-2.15-.81-4.29-1.51-6.34-.7-2.07-1.59-4.08-2.65-5.99-2.74-4.91-6.67-9.15-11.37-12.28-7.49-4.98-16.49-6.92-25.35-5.49-1.29.21-2.6.5-4.02.91-1.95.55-3.88,1.29-5.75,2.19-4.83,2.32-8.95,5.59-12.26,9.71-1.63,2.03-3.04,4.25-4.2,6.6l-.44.89-36.83-57.5c14.31-9.66,22.32-27.16,19.17-45.03s-16.09-31.38-33.16-35.71l-.26-.07c-1.89-.47-3.82-.81-5.73-1.03l-.55-.06c-.81-.08-1.63-.14-2.45-.18-.17-.01-.34-.02-.49-.02-.94-.03-1.89-.04-2.87,0l-.55.03c-.76.03-1.53.08-2.3.16-.27.02-.54.05-.79.08-.69.08-1.38.17-2.07.27l-.78.13c-1.19.21-2.39.48-3.73.83-.16.04-.33.08-.46.12-1.14.31-2.27.68-3.58,1.16l-.41.15c-1.11.42-2.22.9-3.32,1.42l-.41.2c-1.12.55-2.21,1.13-3.32,1.8l-.1.06c-15.8,9.51-24.26,28.1-21.06,46.25.2,1.13.44,2.25.72,3.36-13.5-.57-28.73-.64-43.25.58-24.96,2.1-71.96,11.68-106.99,19.35l-21.27,4.74s-.06.01-.09.02l-.12.03c-.13.03-.27.07-.4.11-2.88.7-5.69,1.78-8.36,3.18-4.19,2.21-7.85,5.17-10.86,8.76-.19.22-.39.45-.57.67-6.57,8.2-9.29,18.83-7.46,29.16s7.51,18.63,15.84,24.13c8.32,5.49,18.67,7.34,28.28,5.1l.23-.05c1.23-.29,2.51-.58,3.81-.88l4.93-1.12c3.07-.69,6.28-1.4,9.58-2.12,14.82-3.2,28.45-5.82,40.53-7.79,16.52-2.69,29.01-4.67,37.93-6.05-4.2,12.27-9.9,28.89-15.95,46.39l-19.56,56.03-8.82,24.19-.78.29c-1.58.58-3.46,1.24-5.59,1.96-1.64.56-3.42,1.15-5.32,1.78-3.84,1.27-8.18,2.67-12.84,4.15l-2.36.75c-21.25,6.73-48.47,14.94-64.54,19.76-4.31-.75-8.73-.57-12.97.55-13.93,3.66-36.03,16.81-27.47,63.76,9.3,51.02,34.01,60.6,44.21,62.35,14.37,2.46,28.46-4.34,35.91-17.35,4.51-7.87,5.09-19.46,1.71-36.02,5.55-1.6,11.42-3.3,17.41-5.04l11.05-3.21c6.3-1.83,12.56-3.66,18.55-5.41l2.55-.75c5.06-1.48,9.9-2.91,14.34-4.22l2.19-.65c5.05-1.5,9.52-2.84,13.18-3.95,1.58-.48,3.01-.92,4.29-1.31.85-.27,1.63-.51,2.32-.73l1-.32c2.82-.91,5.7-2.38,8.58-4.38,1.64-1.14,3.32-2.48,4.99-3.98,4.4-3.94,9-9.2,13.7-15.64,2.13-2.92,4.29-6.11,6.44-9.48,3.42-5.38,6.78-11.22,9.99-17.35,1.25-2.38,2.47-4.81,3.65-7.24.59-1.21,1.17-2.43,1.73-3.64,1.13-2.41,2.22-4.85,3.26-7.26,1.61-3.75,3.09-7.43,4.4-10.99,12.18,9.34,31.71,24.8,53.33,43.74,2.14,1.87,4.3,3.78,6.48,5.73,1.09.97,2.18,1.95,3.27,2.93,4.52,4.07,8.99,8.17,13.28,12.19,6.98,6.54,13.71,13.07,20.02,19.42,10.49,10.55,20.14,20.94,28.68,30.86,1,1.17,2,2.34,2.99,3.51,3.35,3.97,6.6,7.97,9.69,11.92-.55,7.69,1.73,15.37,6.54,21.41,6.15,7.73,17.92,17.16,37.44,13.72,8.96-1.58,19.55-5.87,31.98-14.29,42.94-29.08,41.74-55.56,39.23-65.59ZM547.17,360.79c-11.67-8.19-21.74-14.77-28.5-19.07l6.23-13.03c11.06,17.42,21.33,29.51,30.41,37.89-2.78-2.01-5.49-3.94-8.13-5.79ZM399.43,425.56l-8.12-3.57-1.32-.72,9.44,4.29Z"/>
    <g>
      <path class="cls-4" d="M188.46,249.23c-3.93.69-7.67-1.93-8.37-5.86l-2.8-15.88c-.69-3.93,1.93-7.67,5.86-8.37l16.4-2.89c3.93-.69,7.67,1.93,8.37,5.86s-1.93,7.67-5.86,8.37l-9.29,1.64,1.55,8.76c.69,3.93-1.93,7.67-5.86,8.37Z"/>
      <path class="cls-4" d="M770.03,146.87c-3.93.69-7.67-1.93-8.37-5.86l-1.55-8.76-9.29,1.64c-3.93.69-7.67-1.93-8.37-5.86s1.93-7.67,5.86-8.37l16.4-2.89c3.93-.69,7.67,1.93,8.37,5.86l2.8,15.88c.69,3.93-1.93,7.67-5.86,8.37Z"/>
      <path class="cls-4" d="M267.99,604.35l-16.4,2.89c-3.93.69-7.67-1.93-8.37-5.86l-2.8-15.88c-.69-3.93,1.93-7.67,5.86-8.37s7.67,1.93,8.37,5.86l1.55,8.76,9.29-1.64c3.93-.69,7.67,1.93,8.37,5.86s-1.93,7.67-5.86,8.37Z"/>
      <path class="cls-4" d="M833.16,504.87l-16.4,2.89c-3.93.69-7.67-1.93-8.37-5.86s1.93-7.67,5.86-8.37l9.29-1.64-1.55-8.76c-.69-3.93,1.93-7.67,5.86-8.37,3.93-.69,7.67,1.93,8.37,5.86l2.8,15.88c.69,3.93-1.93,7.67-5.86,8.37Z"/>
    </g>
    <g>
      <path class="cls-4" d="M540.88,229.49s-48.6-7.47-90.57-3.94c-29.76,2.5-92.62,16.12-126.65,23.84-12.93,2.93-21.27,15.48-18.97,28.54h0c2.47,14.03,16.21,23.12,30.09,19.88,16.41-3.83,38.57-8.64,59.77-12.09,27.19-4.43,43.45-6.93,51.29-8.1,2.63-.4,4.73,2.13,3.87,4.65-9.11,26.67-48.38,141.39-50.8,144.26-2.75,3.25-113.65,36.08-113.65,36.08l14.41,56.63s104.75-30.08,123.59-36.17c18.84-6.09,46.73-58.01,54.15-88.08,0,0,107.73,77.79,162.9,155.44l36.73-36.34-2.27-12.87s-24.91-31.55-65.25-73.66c-40.33-42.11-105.89-81.43-105.89-81.43l18-37.68c.91-1.91,3.58-2,4.62-.16,8.13,14.43,35.42,59.44,62.34,64.89,23.7,4.8,48.98-25.92,62.43-49.57,6.22-10.93,2.93-24.8-7.54-31.75h0c-12.01-7.98-28.31-3.59-34.68,9.35l-6.33,12.85c-1.42,2.89-5.46,3.12-7.19.4l-54.42-84.96Z"/>
      <path class="cls-4" d="M677.06,514.07l-2.27-12.87s-24.91-31.55-65.25-73.66c-40.33-42.11-105.89-81.43-105.89-81.43l-73.82-5.91c-13.83,40.03-29.4,84.54-30.9,86.32-2.75,3.25-113.65,36.08-113.65,36.08l14.41,56.63s104.75-30.08,123.59-36.17c18.84-6.09,46.73-58.01,54.15-88.08,0,0,107.73,77.79,162.9,155.44l36.73-36.34Z"/>
      <path class="cls-4" d="M288.59,458.28c9.49-2.49,19.3,2.77,23.03,11.84,8.82,21.48,24.92,65.21,16.54,79.85-11.28,19.69-47.2,20.86-58.53-41.3-6.51-35.74,6.62-47.15,18.96-50.39Z"/>
      <path class="cls-4" d="M636.98,558.61c-6.11-7.68-5.25-18.78,1.55-25.85,16.1-16.73,49.63-49.1,66.4-47.33,22.56,2.38,38.12,34.78-14.19,70.21-30.08,20.37-45.82,12.95-53.76,2.96Z"/>
      <circle class="cls-4" cx="536.07" cy="202.2" r="33.22"/>
      <path class="cls-4" d="M562.48,182.08c-7.3-9.56-19.52-14.83-32.18-12.6-16.42,2.89-27.83,17.39-27.41,33.56,39.79-.22,59.34-20.71,59.59-20.97Z"/>
      <path class="cls-4" d="M334.79,297.8c5.64-1.32,11.96-2.75,18.68-4.2h0l-8.63-48.93h0c-7.77,1.7-14.95,3.31-21.17,4.72-12.93,2.93-21.27,15.48-18.97,28.54,2.47,14.03,16.21,23.12,30.09,19.88Z"/>
      <path class="cls-4" d="M643.5,291.84c-12.01-7.98-28.31-3.59-34.68,9.35l-3.6,7.31,36.51,29.67c3.5-4.92,6.64-9.89,9.31-14.58,6.22-10.93,2.93-24.8-7.54-31.75Z"/>
    </g>
  </g>
  <g>
    <path class="cls-2" d="M692.61,474.64c-3.54-14.14-15.45-24.29-30.35-25.87h0c-8.26-.87-17.96,2.49-30.08,10.51-10.41-12.52-30.78-36.33-58.12-64.88-7.42-7.74-16.16-15.91-25.98-24.28-2-1.71-4.02-3.39-6.04-5.06-3.1-2.55-6.34-5.16-9.63-7.75-1.36-1.07-2.72-2.13-4.08-3.18-.12-.09-.24-.18-.35-.27,5.81,3.28,10.68,4.89,14.42,5.65,13.31,2.7,27.28-1.9,41.49-13.67,12.58-10.41,22.56-24.14,28.67-33.74l.09-.14c.77-1.21,1.51-2.41,2.24-3.61l.37-.61c.69-1.16,1.37-2.31,2.01-3.44l.06-.11c3.32-5.88,4.9-12.54,4.57-19.27-.05-1.08-.16-2.18-.31-3.25-.31-2.15-.81-4.29-1.51-6.34-.7-2.07-1.59-4.08-2.65-5.99-2.74-4.91-6.67-9.15-11.37-12.28-7.49-4.98-16.49-6.92-25.35-5.49-1.29.21-2.6.5-4.02.91-1.95.55-3.88,1.29-5.75,2.19-4.83,2.32-8.95,5.59-12.26,9.71-1.63,2.03-3.04,4.25-4.2,6.6l-.44.89-36.83-57.5c14.31-9.66,22.32-27.16,19.17-45.03-3.06-17.36-16.09-31.38-33.16-35.71l-.26-.07c-1.89-.47-3.82-.81-5.73-1.03l-.55-.06c-.81-.08-1.63-.14-2.45-.18-.17-.01-.34-.02-.49-.02-.94-.03-1.89-.04-2.87,0l-.55.03c-.76.03-1.53.08-2.3.16-.27.02-.54.05-.79.08-.69.08-1.38.17-2.07.27l-.78.13c-1.19.21-2.39.48-3.73.83-.16.04-.33.08-.46.12-1.14.31-2.27.68-3.58,1.16l-.41.15c-1.11.42-2.22.9-3.32,1.42l-.41.2c-1.12.55-2.21,1.13-3.32,1.8l-.1.06c-15.8,9.51-24.26,28.1-21.06,46.25.2,1.13.44,2.25.72,3.36-13.5-.57-28.73-.64-43.25.58-24.96,2.1-71.96,11.68-106.99,19.35l-21.27,4.74s-.06.01-.09.02l-.12.03c-.13.03-.27.07-.4.11-2.88.7-5.69,1.78-8.36,3.18-4.19,2.21-7.85,5.17-10.86,8.76-.19.22-.39.45-.57.67-6.57,8.2-9.29,18.83-7.46,29.16,1.73,9.83,7.51,18.63,15.84,24.13,8.32,5.49,18.67,7.34,28.28,5.1l.23-.05c1.23-.29,2.51-.58,3.81-.88l4.93-1.12c3.07-.69,6.28-1.4,9.58-2.12,14.82-3.2,28.45-5.82,40.53-7.79,16.52-2.69,29.01-4.67,37.93-6.05-4.2,12.27-9.9,28.89-15.95,46.39l-19.56,56.03-8.82,24.19-.78.29c-1.58.58-3.46,1.24-5.59,1.96-1.64.56-3.42,1.15-5.32,1.78-3.84,1.27-8.18,2.67-12.84,4.15l-2.36.75c-21.25,6.73-48.47,14.94-64.54,19.76-4.31-.75-8.73-.57-12.97.55-13.93,3.66-36.03,16.81-27.47,63.76,9.3,51.02,34.01,60.6,44.21,62.35,14.37,2.46,28.46-4.34,35.91-17.35,4.51-7.87,5.09-19.46,1.71-36.02,5.55-1.6,11.42-3.3,17.41-5.04l11.05-3.21c6.3-1.83,12.56-3.66,18.55-5.41l2.55-.75c5.06-1.48,9.9-2.91,14.34-4.22l2.19-.65c5.05-1.5,9.52-2.84,13.18-3.95,1.58-.48,3.01-.92,4.29-1.31.85-.27,1.63-.51,2.32-.73l1-.32c2.82-.91,5.7-2.38,8.58-4.38,1.64-1.14,3.32-2.48,4.99-3.98,4.4-3.94,9-9.2,13.7-15.64,2.13-2.92,4.29-6.11,6.44-9.48,3.42-5.38,6.78-11.22,9.99-17.35,1.25-2.38,2.47-4.81,3.65-7.24.59-1.21,1.17-2.43,1.73-3.64,1.13-2.41,2.22-4.85,3.26-7.26,1.61-3.75,3.09-7.43,4.4-10.99,12.18,9.34,31.71,24.8,53.33,43.74,2.14,1.87,4.3,3.78,6.48,5.73,1.09.97,2.18,1.95,3.27,2.93,4.52,4.07,8.99,8.17,13.28,12.19,6.98,6.54,13.71,13.07,20.02,19.42,10.49,10.55,20.14,20.94,28.68,30.86,1,1.17,2,2.34,2.99,3.51,3.35,3.97,6.6,7.97,9.69,11.92-.55,7.69,1.73,15.37,6.54,21.41,6.15,7.73,17.92,17.16,37.44,13.72,8.96-1.58,19.55-5.87,31.98-14.29,42.94-29.08,41.74-55.56,39.23-65.59ZM503.26,335.72c-11.67-8.19-21.74-14.77-28.5-19.07l6.23-13.03c11.06,17.42,21.33,29.51,30.41,37.89-2.78-2.01-5.49-3.94-8.13-5.79ZM355.52,400.49l-8.12-3.57-1.32-.72,9.44,4.29Z"/>
    <g>
      <path class="cls-7" d="M144.56,224.16c-3.93.69-7.67-1.93-8.37-5.86l-2.8-15.88c-.69-3.93,1.93-7.67,5.86-8.37l16.4-2.89c3.93-.69,7.67,1.93,8.37,5.86s-1.93,7.67-5.86,8.37l-9.29,1.64,1.55,8.76c.69,3.93-1.93,7.67-5.86,8.37Z"/>
      <path class="cls-7" d="M726.13,121.79c-3.93.69-7.67-1.93-8.37-5.86l-1.55-8.76-9.29,1.64c-3.93.69-7.67-1.93-8.37-5.86s1.93-7.67,5.86-8.37l16.4-2.89c3.93-.69,7.67,1.93,8.37,5.86l2.8,15.88c.69,3.93-1.93,7.67-5.86,8.37Z"/>
      <path class="cls-7" d="M224.09,579.27l-16.4,2.89c-3.93.69-7.67-1.93-8.37-5.86l-2.8-15.88c-.69-3.93,1.93-7.67,5.86-8.37s7.67,1.93,8.37,5.86l1.55,8.76,9.29-1.64c3.93-.69,7.67,1.93,8.37,5.86s-1.93,7.67-5.86,8.37Z"/>
      <path class="cls-7" d="M789.26,479.8l-16.4,2.89c-3.93.69-7.67-1.93-8.37-5.86s1.93-7.67,5.86-8.37l9.29-1.64-1.55-8.76c-.69-3.93,1.93-7.67,5.86-8.37s7.67,1.93,8.37,5.86l2.8,15.88c.69,3.93-1.93,7.67-5.86,8.37Z"/>
    </g>
    <g>
      <path class="cls-9" d="M496.98,204.42s-48.6-7.47-90.57-3.94c-29.76,2.5-92.62,16.12-126.65,23.84-12.93,2.93-21.27,15.48-18.97,28.54h0c2.47,14.03,16.21,23.12,30.09,19.88,16.41-3.83,38.57-8.64,59.77-12.09,27.19-4.43,43.45-6.93,51.29-8.1,2.63-.4,4.73,2.13,3.87,4.65-9.11,26.67-48.38,141.39-50.8,144.26-2.75,3.25-113.65,36.08-113.65,36.08l14.41,56.63s104.75-30.08,123.59-36.17c18.84-6.09,46.73-58.01,54.15-88.08,0,0,107.73,77.79,162.9,155.44l36.73-36.34-2.27-12.87s-24.91-31.55-65.25-73.66c-40.33-42.11-105.89-81.43-105.89-81.43l18-37.68c.91-1.91,3.58-2,4.62-.16,8.13,14.43,35.42,59.44,62.34,64.89,23.7,4.8,48.98-25.92,62.43-49.57,6.22-10.93,2.93-24.8-7.54-31.75h0c-12.01-7.98-28.31-3.59-34.68,9.35l-6.33,12.85c-1.42,2.89-5.46,3.12-7.19.4l-54.42-84.96Z"/>
      <path class="cls-10" d="M633.15,489l-2.27-12.87s-24.91-31.55-65.25-73.66c-40.33-42.11-105.89-81.43-105.89-81.43l-73.82-5.91c-13.83,40.03-29.4,84.54-30.9,86.32-2.75,3.25-113.65,36.08-113.65,36.08l14.41,56.63s104.75-30.08,123.59-36.17c18.84-6.09,46.73-58.01,54.15-88.08,0,0,107.73,77.79,162.9,155.44l36.73-36.34Z"/>
      <path class="cls-5" d="M244.68,433.21c9.49-2.49,19.3,2.77,23.03,11.84,8.82,21.48,24.92,65.21,16.54,79.85-11.28,19.69-47.2,20.86-58.53-41.3-6.51-35.74,6.62-47.15,18.96-50.39Z"/>
      <path class="cls-5" d="M593.08,533.54c-6.11-7.68-5.25-18.78,1.55-25.85,16.1-16.73,49.63-49.1,66.4-47.33,22.56,2.38,38.12,34.78-14.19,70.21-30.08,20.37-45.82,12.95-53.76,2.96Z"/>
      <circle class="cls-8" cx="492.17" cy="177.12" r="33.22"/>
      <path class="cls-5" d="M518.58,157c-7.3-9.56-19.52-14.83-32.18-12.6-16.42,2.89-27.83,17.39-27.41,33.56,39.79-.22,59.34-20.71,59.59-20.97Z"/>
      <path class="cls-8" d="M290.88,272.73c5.64-1.32,11.96-2.75,18.68-4.2h0l-8.63-48.93h0c-7.77,1.7-14.95,3.31-21.17,4.72-12.93,2.93-21.27,15.48-18.97,28.54,2.47,14.03,16.21,23.12,30.09,19.88Z"/>
      <path class="cls-8" d="M599.59,266.76c-12.01-7.98-28.31-3.59-34.68,9.35l-3.6,7.31,36.51,29.67c3.5-4.92,6.64-9.89,9.31-14.58,6.22-10.93,2.93-24.8-7.54-31.75Z"/>
    </g>
  </g>
</svg>