<?xml version="1.0" encoding="UTF-8"?>
<svg id="_图层_1" data-name="图层 1" xmlns="http://www.w3.org/2000/svg" viewBox="0 0 950 750">
  <defs>
    <style>
      .cls-1 {
        fill: #00d6a3;
      }

      .cls-2 {
        fill: #8d80ff;
      }

      .cls-3 {
        fill: #a6a6a6;
      }

      .cls-4 {
        fill: #fff;
      }

      .cls-5 {
        fill: #e9e9e9;
      }

      .cls-6 {
        fill: #ffa849;
      }
    </style>
  </defs>
  <rect class="cls-1" width="950" height="750"/>
  <g>
    <path class="cls-5" d="M671.56,717.71l-73.14-73.14,1.39-124.17h-6.57s29.07-128.41,29-131.23c-2.24-80.77-57.15-152.16-161.46-152.16s-156.89,88.68-156.89,140.98c0,20.92,4.34,33.35,8.42,40.4,3.76,6.51,3.77,14.54.34,21.23l-25.8,50.21c-2.41,4.69,1,10.27,6.27,10.27h23.49v37.05l17.52,15.5v21.61c0,17.46,14.16,31.62,31.62,31.62h22.95l50.72-31.1,26.51,36.57v50.02l-56.34,56.34h261.99Z"/>
    <polygon class="cls-3" points="598.42 644.57 599.81 520.39 622.14 389.91 533.62 520.39 533.62 656.32 595.01 717.71 671.56 717.71 598.42 644.57"/>
  </g>
  <path class="cls-6" d="M404.26,111.45h-140.48c-43.51,0-78.78,35.27-78.78,78.78h0c0,43.51,35.27,78.78,78.78,78.78h2.41c-.78,9.93-4.12,26.25-17.1,34.59,0,0,34.66-2.86,52.44-34.59h102.73c43.51,0,78.78-35.27,78.78-78.78h0c0-43.51-35.27-78.78-78.78-78.78Z"/>
  <path class="cls-2" d="M767.18,248.3h-140.48c-43.51,0-78.78,35.27-78.78,78.78h0c0,43.51,35.27,78.78,78.78,78.78h102.73c17.77,31.73,52.44,34.59,52.44,34.59-12.98-8.35-16.31-24.67-17.1-34.59h2.41c43.51,0,78.78-35.27,78.78-78.78h0c0-43.51-35.27-78.78-78.78-78.78Z"/>
  <path class="cls-4" d="M275.19,147.42c-.89-6.15.18-12.66,3.22-19.55,3.04-6.88,8.04-12.94,15.02-18.18,6.97-5.24,15.51-8.59,25.61-10.05,9.38-1.36,17.92-.82,25.61,1.6,7.69,2.43,13.92,6.33,18.69,11.72,4.78,5.39,7.67,11.58,8.68,18.57.8,5.5.38,10.49-1.26,14.95-1.63,4.47-3.77,8.43-6.41,11.88-2.64,3.45-7.43,9.32-14.36,17.59-1.91,2.33-3.42,4.35-4.53,6.06-1.11,1.71-1.89,3.25-2.36,4.6-.47,1.36-.79,2.69-.96,4-.17,1.31-.39,3.61-.64,6.88-.26,6.91-3.62,10.83-10.09,11.77-3.37.49-6.36-.2-8.97-2.07-2.62-1.87-4.24-4.97-4.86-9.31-.79-5.44-.63-10.27.48-14.49,1.11-4.22,2.83-8.04,5.18-11.45,2.35-3.41,5.59-7.53,9.71-12.36,3.62-4.22,6.22-7.39,7.8-9.5,1.58-2.11,2.83-4.39,3.77-6.84.94-2.45,1.21-5,.83-7.65-.75-5.18-3.31-9.27-7.67-12.27-4.37-3-9.59-4.06-15.68-3.19-7.12,1.03-12.11,3.58-14.95,7.66-2.85,4.08-4.93,9.78-6.25,17.11-1.14,7.63-4.79,11.89-10.94,12.78-3.63.52-6.87-.31-9.73-2.51-2.86-2.2-4.51-4.78-4.94-7.76ZM337.96,246.99c-3.95.57-7.58-.21-10.9-2.34-3.32-2.13-5.3-5.49-5.97-10.09-.59-4.08.34-7.71,2.78-10.91,2.45-3.19,5.74-5.09,9.88-5.69s7.71.31,10.9,2.69c3.18,2.38,5.07,5.61,5.66,9.69.66,4.53-.29,8.3-2.83,11.31-2.54,3.01-5.72,4.79-9.54,5.34Z"/>
  <path class="cls-4" d="M691.7,309.04l12.86-45.31c2.53-8.82,4.46-15.11,5.8-18.87,1.83-5.11,4.59-8.62,8.29-10.53,3.7-1.91,7.74-2.08,12.11-.52,5.3,1.89,8.18,4.99,8.66,9.29.48,4.3-.52,9.9-2.98,16.8-1.45,4.06-3.14,8.11-5.07,12.15l-20.25,44.13c-2.37,5.27-4.78,9.09-7.23,11.48-2.45,2.39-5.31,3-8.57,1.83-3.33-1.19-5.13-3.41-5.43-6.68-.29-3.26.31-7.86,1.8-13.79ZM680.24,373.5c-3.76-1.34-6.6-3.73-8.53-7.17-1.93-3.43-2.12-7.34-.56-11.71,1.36-3.82,3.86-6.59,7.5-8.31,3.64-1.72,7.39-1.89,11.27-.5,3.88,1.39,6.71,3.91,8.5,7.57,1.78,3.66,1.99,7.4.63,11.22-1.54,4.31-4.14,7.2-7.79,8.68-3.65,1.47-7.32,1.55-11.02.23Z"/>
</svg>