<?xml version="1.0" encoding="UTF-8"?>
<svg id="_图层_2" data-name="图层 2" xmlns="http://www.w3.org/2000/svg" xmlns:xlink="http://www.w3.org/1999/xlink" viewBox="0 0 573.53 623.49">
  <defs>
    <style>
      .cls-1 {
        mask: url(#mask);
      }

      .cls-2, .cls-3 {
        fill: #6fc;
      }

      .cls-4, .cls-5, .cls-6, .cls-7, .cls-8, .cls-9, .cls-10 {
        fill: none;
      }

      .cls-4, .cls-5, .cls-6, .cls-8 {
        stroke: #6fc;
      }

      .cls-4, .cls-5, .cls-7, .cls-8, .cls-9, .cls-10 {
        stroke-miterlimit: 10;
      }

      .cls-4, .cls-7, .cls-8 {
        stroke-width: 2px;
      }

      .cls-4, .cls-11, .cls-12, .cls-13, .cls-14 {
        opacity: .5;
      }

      .cls-3, .cls-5, .cls-6 {
        opacity: .1;
      }

      .cls-5, .cls-6 {
        stroke-width: 3px;
      }

      .cls-6 {
        stroke-linejoin: round;
      }

      .cls-15 {
        fill: url(#_未命名的渐变_491);
      }

      .cls-16 {
        fill: #9cf;
      }

      .cls-7 {
        stroke: #78e4de;
        stroke-dasharray: 64.69 5.55 0 0;
      }

      .cls-7, .cls-9 {
        stroke-linecap: round;
      }

      .cls-11 {
        fill: url(#_未命名的渐变_350);
      }

      .cls-12 {
        fill: #3cf;
      }

      .cls-17 {
        fill: #f2f7ff;
      }

      .cls-14 {
        fill: url(#_未命名的渐变_350-2);
      }

      .cls-18 {
        fill: #e1edff;
      }

      .cls-19 {
        fill: #78e4de;
      }

      .cls-8 {
        opacity: .5;
      }

      .cls-20 {
        fill: #333;
      }

      .cls-9 {
        opacity: .3;
        stroke: #9dbcea;
        stroke-dasharray: 210 5 0 0;
      }

      .cls-10 {
        stroke: #e1edff;
        stroke-width: 4px;
      }
    </style>
    <radialGradient id="_未命名的渐变_491" data-name="未命名的渐变 491" cx="288.73" cy="344.57" fx="288.73" fy="344.57" r="288.23" gradientUnits="userSpaceOnUse">
      <stop offset=".38" stop-color="#d5d5d5"/>
      <stop offset=".48" stop-color="#bbb"/>
      <stop offset=".67" stop-color="#7a7a7a"/>
      <stop offset=".95" stop-color="#121212"/>
      <stop offset="1" stop-color="#000"/>
    </radialGradient>
    <mask id="mask" x="0" y="56.33" width="576.97" height="576.47" maskUnits="userSpaceOnUse">
      <rect class="cls-15" x=".5" y="56.33" width="576.47" height="576.47"/>
    </mask>
    <linearGradient id="_未命名的渐变_350" data-name="未命名的渐变 350" x1="12598.62" y1="365.53" x2="12907.08" y2="365.53" gradientTransform="translate(13039.2536) scale(-1 1)" gradientUnits="userSpaceOnUse">
      <stop offset="0" stop-color="#59accf"/>
      <stop offset=".14" stop-color="#60b9d2"/>
      <stop offset=".46" stop-color="#6dd0d8"/>
      <stop offset=".75" stop-color="#75dfdc"/>
      <stop offset="1" stop-color="#78e4de"/>
    </linearGradient>
    <linearGradient id="_未命名的渐变_350-2" data-name="未命名的渐变 350" x1="12618.37" y1="398.77" x2="12887.33" y2="398.77" xlink:href="#_未命名的渐变_350"/>
  </defs>
  <g id="_图层_2-2" data-name="图层 2">
    <g>
      <g class="cls-1">
        <g>
          <line class="cls-9" x1=".5" y1="358.24" x2="573.03" y2="76.92"/>
          <line class="cls-9" x1="573.03" y1="358.24" x2=".5" y2="76.92"/>
          <line class="cls-9" x1="573.03" y1="622.99" x2=".5" y2="341.67"/>
          <line class="cls-9" x1=".5" y1="622.99" x2="573.03" y2="341.67"/>
        </g>
      </g>
      <g>
        <path class="cls-5" d="M96.69,127.73v-26.27c0-24.67,15.77-49.08,43.27-66.96,28.08-18.26,65.97-28.31,106.71-28.31h8.75v116.89h-8.73c-28.19-.01-55.17,5.46-78.02,15.82-17.22,7.81-31.66,18.26-41.46,29.91"/>
        <path class="cls-12" d="M119.96,164.4c22.39-27.45,68.45-49.81,127.05-49.73V14.61c-83.76-.12-141.91,42.85-141.91,86.86v43.37c.24.49,7.64,11.76,14.86,19.57Z"/>
        <path class="cls-6" d="M339.84,3c42.83,6.63,79.35,19,105.6,35.76,28.41,18.14,43.43,40.59,43.43,64.91,0,0,0,100.49,0,106-11.35-21.45-26.37-39.28-34.45-45.84-25.1-20.39-66.65-37.24-117.46-47l-6.82-1.31V1.5s9.7,1.5,9.7,1.5Z"/>
        <path class="cls-12" d="M480.46,180.07c0-25.36,0-76.4,0-76.4,0-44-58.15-79.39-141.91-92.36v97.26c69.4,13.33,122.2,39.62,141.91,71.5Z"/>
        <g>
          <path class="cls-2" d="M457.07,102.67c3.1,1.89,6.13,3.84,9.11,5.85v22.13c-2.98-2.01-6.02-3.96-9.11-5.85,0-7.38,0-14.76,0-22.13t0,0Z"/>
          <path class="cls-4" d="M435.86,96.88c3.32,1.58,6.61,3.24,9.83,4.96v16.45c-3.23-1.73-6.5-3.39-9.83-4.96v-16.45s0,0,0,0Z"/>
          <path class="cls-2" d="M413.25,73.24c3.52,1.21,7,2.51,10.44,3.89v30.86c-3.44-1.39-6.92-2.68-10.44-3.89v-30.86h0Z"/>
          <path class="cls-4" d="M389.49,49.57c3.68.78,7.32,1.67,10.93,2.65v47.93c-3.61-.98-7.26-1.87-10.93-2.65,0-15.98,0-31.95,0-47.93t0,0Z"/>
          <path class="cls-4" d="M364.82,57.32c3.79.31,7.57.73,11.32,1.25v36.57c-3.75-.53-7.53-.95-11.32-1.26v-36.57h0Z"/>
        </g>
        <path class="cls-3" d="M274.48,256.62c7.31-3.62,16.32-3.62,23.63-.01l140.85,69.57c2.22,1.1,2.22,3.84,0,4.94l-142.03,70.31c-6.45,3.19-14.4,3.19-20.86,0l-142.25-70.24c-2.22-1.1-2.22-3.84,0-4.94l140.64-69.62Z"/>
        <path class="cls-11" d="M133.84,328.38l142.25,70.24c6.45,3.19,14.4,3.19,20.86,0l142.03-70.31c.55-.27.96-.64,1.23-1.06.85,1.29.44,3.05-1.23,3.87l-142.03,70.31c-6.45,3.19-14.4,3.19-20.86,0l-142.25-70.24c-1.67-.83-2.08-2.59-1.23-3.87.28.42.69.79,1.23,1.06Z"/>
        <path class="cls-3" d="M276.01,303.81c6.38-3.16,14.23-3.16,20.61,0l122.82,60.66c1.93.96,1.93,3.35,0,4.31l-123.84,61.31c-5.63,2.79-12.56,2.79-18.19,0l-124.04-61.25c-1.93-.96-1.93-3.35,0-4.31l122.64-60.71Z"/>
        <path class="cls-14" d="M153.37,366.37l124.04,61.25c5.63,2.79,12.56,2.79,18.19,0l123.84-61.31c.48-.24.83-.56,1.08-.93.74,1.12.38,2.66-1.08,3.38l-123.84,61.31c-5.63,2.79-12.56,2.79-18.19,0l-124.04-61.25c-1.46-.72-1.81-2.26-1.08-3.38.24.37.6.69,1.08.93Z"/>
        <path class="cls-16" d="M176.17,40.68s-.07.04-.11.05c.04-.02.07-.04.11-.05h0ZM179.26,39.35s.06-.02.09-.03c-.03.01-.06.02-.09.03h0ZM177.06,40.26s-.08.04-.12.05c.04-.02.08-.04.12-.05h0ZM178.53,39.64s.01,0,.02,0c0,0,.01,0,.02,0,0,0,.01,0,.02,0,0,0,.01,0,.02,0,0,0,.01,0,.02,0,0,0,.01,0,.02,0,0,0,.01,0,.02,0,0,0,.01,0,.02,0-.05.02-.11.04-.16.06h0Z"/>
        <path class="cls-2" d="M164.12,44.22c8.43-3.51,14.51-1.4,16.8-.6-9.64,21.25-10.65,23.48-16.8,38.32-9.5-11.05-10.96-12.75-17.55-20.97,1.86-3.1,7.53-12.52,17.55-16.75h0Z"/>
        <path class="cls-8" d="M146.27,62.11c-9.25,16.3-10.19,37.19-6.82,47.56,8.18,25.19,39.45,7.86,52.27-16.11,11.53-21.56,5.3-43.74-9.79-49.57"/>
        <g>
          <g class="cls-13">
            <path class="cls-7" d="M338.71,343.61c-28.89,13.32-75.73,13.32-104.62,0-28.89-13.32-28.89-34.92,0-48.24,28.89-13.32,75.73-13.32,104.62,0,28.89,13.32,28.89,34.92,0,48.24Z"/>
          </g>
          <g class="cls-13">
            <path class="cls-19" d="M286.4,299.38c13.68.17,27.97,1.67,40.14,8.42,10.93,6.31,10.93,15.87.29,22.59-12.04,7.41-26.59,9.23-40.43,9.45-13.84-.22-28.4-2.03-40.44-9.44-10.59-6.69-10.69-16.25.3-22.6,12.17-6.74,26.46-8.24,40.14-8.42h0ZM286.4,299.38c-14.1.18-34.83,2.63-44.67,13.61-8.41,11.22,9.07,18.41,17.79,20.6,8.74,2.33,17.84,3.23,26.88,3.24,9.04,0,18.15-.9,26.88-3.24,8.73-2.17,26.21-9.4,17.79-20.61-9.83-10.98-30.59-13.44-44.68-13.61h0Z"/>
          </g>
          <g>
            <path class="cls-17" d="M258.86,189.58c.55,4.94-3.01,9.39-7.95,9.94l-40.7,4.53-1.99-17.89,40.7-4.53c4.94-.55,9.39,3.01,9.94,7.95Z"/>
            <path class="cls-17" d="M173.28,149.57c4.02-3.11,5.65-9.57,8.86-5.64l34.72,43.18s0,.02,0,.02l-14.4,11.74s-.02,0-.02,0l-34.85-43.34c-3.3-4.05,1.54-2.75,5.7-5.97Z"/>
            <circle class="cls-20" cx="209.22" cy="194.96" r="13.5"/>
            <path class="cls-20" d="M163.2,154.44c4.29-.19,13.4-5.96,16.67-9.26,1.5-1.56,2.56-3.37,2.58-5.5-.06-4.2-4.56-7.7-8.91-8.45-6.97-1.2-12.68,1.11-15.85,6.81-2.22,3.72-2.3,7.36-.9,11.35.96,3.02,3.28,5.35,6.35,5.05h.06Z"/>
            <path class="cls-18" d="M236.93,201.19l13.53-1.51c5.22-.58,8.98-5.28,8.4-10.5-.44-3.92-3.19-7.01-6.74-8.06-8.37,3.71-12.85,11.4-15.19,20.07Z"/>
            <path class="cls-17" d="M330.3,247.17c3.04-18.66,6.92-45.55-4.39-60.28-7.87-9.77-22.12-10.85-33.96-11.65-10.45-.47-22.35-.81-31.79,2.3-15.35,4.74-19.36,21.44-20.18,36.13-.49,12.3.07,25.66,2.04,38.13,0,0,10.47,60.38,46.78,60.38s41.5-65.01,41.5-65.01Z"/>
            <path class="cls-18" d="M260.16,177.54c-2.55.79-4.79,1.91-6.75,3.3,10.08,1.8,20.75,2.2,30.55,2.4,10.6-.1,22.35-.37,32.7-3.34-7.51-3.44-16.66-4.11-24.7-4.66-10.45-.47-22.35-.81-31.79,2.3Z"/>
            <path class="cls-17" d="M273.43,107.85c23.49-3.97,52.89,1.48,69.03,18.1,12.17,12.43,11.3,28.41-1.88,39.33-21.16,17.32-56.58,18.94-81.69,10.95-9.05-2.91-18.1-7.42-24.56-14.06-13.16-13.28-8.64-30.28,6.19-41.13,8.14-6.31,20.84-11.31,32.83-13.17l.09-.02Z"/>
            <path class="cls-20" d="M248.13,162.18c7.09,3.29,14.45,3.15,23.74,3.66,2.97.11,5.94.22,8.91.32,11.25.04,23.84,1.72,30.8-6.99,4.33-5.62,4.68-14.37.59-20.25-2.58-3.83-6.92-5.93-11.38-6.81-7.18-1.56-17.9-1.25-26.52-1.34-8.93.1-16.19-.29-23.61,2.08-5.39,1.75-9.5,6.26-10.46,11.88-1.37,6.84,1.27,14.28,7.87,17.44l.05.03Z"/>
            <path class="cls-17" d="M279.61,147.36c-.15,4.3,2.73,7.85,6.47,7.92,3.77.07,6.97-3.41,7.13-7.78.15-4.37-2.81-7.92-6.58-7.92-3.74,0-6.87,3.48-7.02,7.79Z"/>
            <path class="cls-17" d="M251.73,147.08c-.15,4.16,2.54,7.58,6.03,7.65,3.52.07,6.51-3.3,6.66-7.52.15-4.22-2.61-7.65-6.13-7.65-3.49,0-6.41,3.37-6.56,7.52Z"/>
            <ellipse class="cls-10" cx="341.35" cy="148.2" rx="8.64" ry="5.19" transform="translate(181.33 484.17) rotate(-88)"/>
            <path class="cls-20" d="M175.02,141.16c-1.67,1.42-2.8,3.07-8.21-3.32-5.41-6.39-8.44-12.73-6.76-14.14s7.42,2.62,12.82,9.01c5.41,6.39,3.82,7.03,2.15,8.45Z"/>
            <path class="cls-18" d="M342.48,217.67c-.59-.24-1.18-.44-1.78-.6l-14.61-27.35c-2.34-4.38-7.79-6.04-12.18-3.7-4.38,2.34-6.04,7.79-3.7,12.18l14.49,27.11c-1.02,2.65-1.14,5.43-.51,8.01l-24.62,40.27c-.21.34-.35.65-.45.94-1.22-.24-2.44-.21-3.66.21-3.94,1.48-5.71,6.89-4.94,11.24,1.23,6.97,5.33,11.56,11.77,12.61,4.25.83,7.71-.32,10.98-2.99,2.52-1.92,3.92-4.9,2.61-7.68l-.02-.06c-.35-.85-1.01-1.82-1.88-2.84.42-.22.87-.73,1.43-1.65l24.43-39.97c4.31-.83,8.13-3.73,9.94-8.09,2.86-6.89-.41-14.79-7.29-17.65Z"/>
            <path class="cls-17" d="M316.6,184.44c4.31-2.48,9.81-.99,12.29,3.32l20.41,35.5-15.6,8.97-20.41-35.5c-2.48-4.31-.99-9.81,3.32-12.29Z"/>
            <path class="cls-17" d="M313.48,278.59c-4.37-2.6-10.98-1.74-8.5-6.17l27.41-48.15s.01-.01.02,0l16.21,9.08s.01.01,0,.02l-27.51,48.33c-2.55,4.56-3.12-.42-7.64-3.11Z"/>
            <circle class="cls-20" cx="341.36" cy="227.81" r="13.5"/>
            <path class="cls-20" d="M321.72,286.18c-1.75-3.92-10.46-10.28-14.73-12.1-2-.82-4.07-1.14-6.07-.38-3.89,1.6-5.49,7.07-4.59,11.39,1.45,6.92,5.68,11.39,12.16,12.24,4.27.7,7.69-.56,10.89-3.33,2.46-2,3.77-5.02,2.37-7.76l-.03-.05Z"/>
          </g>
        </g>
        <path class="cls-6" d="M235.2,333.21c-42.83-6.63-79.35-19-105.6-35.76-28.41-18.14-43.43-40.59-43.43-64.91v-106c11.35,21.45,26.37,39.28,34.45,45.84,25.1,20.39,66.65,37.24,117.46,47l6.82,1.31v114.03l-9.7-1.5Z"/>
        <path class="cls-12" d="M94.58,156.14v76.4c0,44,58.15,79.39,141.91,92.36v-97.26c-69.4-13.33-122.2-39.62-141.91-71.5Z"/>
        <path class="cls-2" d="M228.43,280.7c-17.77-14.65-33.06-32.08-51.52-45.95-7.12-5.35-11.84-3.86-14.1-3.15q-33.2,14.7-37.29,8.82-6.94-10.91-16.57-30.99c-2.06-4.3-3.25-5.63-4.43-6.19-.74-.35-1.62-.35-2.42-.09-4.4,1.44-4.59,1.56-7.52,3.36v6.69c.08-.11,8.69-10.22,13.86,1.32,16.72,39.12,22.79,37.37,26.81,36.22q35.37-15.72,42.27-9.11c25.28,26.04,40.71,39.42,50.92,46.01v-6.93Z"/>
      </g>
    </g>
  </g>
</svg>